<?xml version="1.0" encoding="UTF-8" standalone="no"?>
<!-- Created with Inkscape (http://www.inkscape.org/) -->

<svg
   width="120.0mm"
   height="120.0mm"
   viewBox="0 0 120.0 120.0"
   version="1.1"
   id="svg5"
   inkscape:version="1.1 (c68e22c387, 2021-05-23)"
   sodipodi:docname="Fidget_Spinner.svg"
   xmlns:inkscape="http://www.inkscape.org/namespaces/inkscape"
   xmlns:sodipodi="http://sodipodi.sourceforge.net/DTD/sodipodi-0.dtd"
   xmlns="http://www.w3.org/2000/svg"
   xmlns:svg="http://www.w3.org/2000/svg">
  <sodipodi:namedview
     id="namedview7"
     pagecolor="#ffffff"
     bordercolor="#666666"
     borderopacity="1.0"
     inkscape:pageshadow="2"
     inkscape:pageopacity="0.0"
     inkscape:pagecheckerboard="0"
     inkscape:document-units="mm"
     showgrid="false"
     inkscape:zoom="1.9628562"
     inkscape:cx="195.88801"
     inkscape:cy="227.47464"
     inkscape:window-width="1920"
     inkscape:window-height="1017"
     inkscape:window-x="-8"
     inkscape:window-y="-8"
     inkscape:window-maximized="1"
     inkscape:current-layer="g18289"
     showguides="false"
     inkscape:guide-bbox="true"
     inkscape:snap-global="false"
     borderlayer="true"
     inkscape:showpageshadow="2"
     inkscape:deskcolor="#d1d1d1">
    <inkscape:grid
       spacingx="2.54"
       spacingy="2.54"
       empspacing="1"
       type="xygrid"
       units="mm"
       id="grid18259"
       originx="0"
       originy="0"
       visible="false" />
    <sodipodi:guide
       position="-125.19561,89.547016"
       orientation="0,-1"
       id="guide2195"
       inkscape:locked="false" />
    <sodipodi:guide
       position="-226.7927,-31.71185"
       orientation="0,-1"
       id="guide2"
       inkscape:locked="false" />
  </sodipodi:namedview>
  <defs
     id="defs2" />
  <g
     inkscape:groupmode="layer"
     id="layer2"
     inkscape:label="Platine"
     transform="translate(77.641958,-3.7742618)">
    <circle
       style="display:inline;fill:none;stroke:#000000;stroke-width:0.194897;stroke-linecap:round;stroke-linejoin:round;stroke-miterlimit:4;stroke-dasharray:none;paint-order:stroke fill markers"
       id="path6656-1-8"
       cx="-363.3905"
       cy="60.421017"
       r="10.902552" />
    <path
       d="M -366.19143,128.29779"
       style="fill:none;stroke:#010002;stroke-width:0.140783;stroke-linecap:round;stroke-linejoin:round;paint-order:stroke fill markers"
       id="path1-9" />
  </g>
  <g
     inkscape:label="[fixed] BG"
     inkscape:groupmode="layer"
     sodipodi:insensitive="true"
     id="g18275">
    <rect
       x="0"
       y="0"
       width="120.0"
       height="120.0"
       style="fill:#FFFFFF;fill-opacity:1;stroke:none"
       id="rect18273" />
  </g>
  <g
     inkscape:label="Edge.Cuts"
     inkscape:groupmode="layer"
     id="g18277"
     style="display:inline">
    <path
       d="M 90.312 72.3163 L 90.8116 72.5006 L 91.3024 72.7046 L 91.7814 72.9277 L 92.2504 73.1695 L 92.7076 73.4296 L 93.153 73.7074 L 93.5855 74.0024 L 94.0062 74.3141 L 94.4121 74.6422 L 94.8051 74.986 L 95.1833 75.3451 L 95.5467 75.719 L 95.8943 76.1074 L 96.2271 76.5095 L 96.5431 76.9249 L 96.8423 77.3533 L 97.1238 77.794 L 97.3874 78.2466 L 97.6333 78.7107 L 97.8604 79.1857 L 98.0678 79.6712 L 98.2555 80.1666 L 98.4233 80.6715 L 98.5695 81.1854 L 98.6949 81.7078 L 98.7996 82.2382 L 98.8806 82.7762 L 98.9398 83.3212 L 98.9754 83.8728 L 98.9873 84.4304 L 98.9705 85.0905 L 98.9211 85.7418 L 98.8381 86.3838 L 98.7245 87.0154 L 98.5803 87.6359 L 98.4055 88.2446 L 98.2021 88.8406 L 97.971 89.4231 L 97.7113 89.9913 L 97.4259 90.5443 L 97.1149 91.0814 L 96.7781 91.6018 L 96.4177 92.1047 L 96.0336 92.5894 L 95.6267 93.0545 L 95.1981 93.5 L 94.7488 93.9249 L 94.2797 94.3283 L 93.7909 94.7082 L 93.2834 95.0666 L 92.759 95.3995 L 92.2168 95.7089 L 91.6599 95.9918 L 91.0862 96.2493 L 90.4986 96.4785 L 89.8982 96.6802 L 89.284 96.8535 L 88.6581 96.9964 L 88.021 97.109 L 87.3736 97.1903 L 86.7166 97.2402 L 86.051 97.2568 L 85.3978 97.2411 L 84.7532 97.1931 L 84.1176 97.1148 L 83.4922 97.0061 L 82.8775 96.8681 L 82.2745 96.7016 L 81.6838 96.5078 L 81.1064 96.2875 L 80.543 96.0407 L 79.9942 95.7675 L 79.4611 95.4709 L 78.9444 95.1507 L 78.4448 94.807 L 78.005 94.2656 L 77.3744 93.3833 L 76.7086 92.5395 L 76.0093 91.7346 L 75.2779 90.9691 L 74.5162 90.2433 L 73.7258 89.5578 L 72.9083 88.913 L 72.0654 88.3094 L 71.1986 87.7474 L 70.3095 87.2275 L 69.3999 86.7501 L 68.4713 86.3158 L 67.5254 85.9248 L 66.5637 85.5778 L 65.588 85.2752 L 64.5997 85.0173 L 63.6007 84.8048 L 62.5923 84.6379 L 61.5764 84.5173 L 60.5545 84.4433 L 59.5282 84.4163 L 58.4992 84.437 L 57.4691 84.5056 L 56.4395 84.6227 L 55.412 84.7888 L 54.3883 85.0042 L 53.3699 85.2694 L 52.3586 85.5849 L 51.3559 85.9512 L 50.3634 86.3687 L 49.3828 86.8378 L 48.4158 87.3591 L 47.8525 87.6902 L 47.3004 88.0344 L 46.76 88.3915 L 46.2315 88.7611 L 45.7154 89.143 L 45.2119 89.5367 L 44.7215 89.942 L 44.2444 90.3586 L 43.7812 90.7862 L 43.332 91.2244 L 42.8974 91.6729 L 42.4776 92.1315 L 42.073 92.5998 L 41.684 93.0774 L 41.3108 93.5642 L 40.954 94.0597 L 40.5774 94.422 L 40.1076 94.894 L 39.6164 95.342 L 39.1046 95.765 L 38.5731 96.163 L 38.0228 96.533 L 37.4544 96.876 L 36.8688 97.191 L 36.2669 97.476 L 35.6494 97.731 L 35.0174 97.954 L 34.3716 98.146 L 33.7128 98.305 L 33.0419 98.43 L 32.3597 98.521 L 31.6672 98.575 L 30.9651 98.594 L 30.291 98.577 L 29.6257 98.526 L 28.9701 98.443 L 28.325 98.328 L 27.6912 98.182 L 27.0695 98.005 L 26.4608 97.799 L 25.8659 97.564 L 25.2857 97.302 L 24.7208 97.013 L 24.1722 96.697 L 23.6407 96.357 L 23.1271 95.991 L 22.6322 95.603 L 22.1569 95.191 L 21.7019 94.757 L 21.2682 94.302 L 20.8564 93.827 L 20.4675 93.332 L 20.1023 92.8182 L 19.7616 92.2867 L 19.4461 91.7381 L 19.1568 91.1733 L 18.8945 90.593 L 18.6599 89.9981 L 18.454 89.3894 L 18.2774 88.7678 L 18.1312 88.134 L 18.016 87.4889 L 17.9327 86.8333 L 17.8821 86.168 L 17.865 85.4939 L 17.8771 84.927 L 17.9129 84.3663 L 17.972 83.8122 L 18.0539 83.2652 L 18.1581 82.7259 L 18.2842 82.1946 L 18.4316 81.6719 L 18.6 81.1583 L 18.7887 80.6542 L 18.9973 80.1602 L 19.2254 79.6767 L 19.4724 79.2043 L 19.7379 78.7433 L 20.0214 78.2943 L 20.3224 77.8577 L 20.6405 77.4342 L 20.975 77.0241 L 21.3257 76.6279 L 21.6919 76.2461 L 22.0732 75.8792 L 22.4692 75.5277 L 22.8792 75.1921 L 23.303 74.8728 L 23.7399 74.5704 L 24.1895 74.2854 L 24.6513 74.0181 L 25.1249 73.7691 L 25.6097 73.539 L 26.1052 73.3281 L 26.6111 73.137 L 27.1268 72.9661 L 27.6517 72.816 L 28.1552 72.7487 L 28.7651 72.6609 L 29.3763 72.5496 L 29.988 72.4154 L 30.5995 72.2593 L 31.2102 72.0822 L 31.8193 71.885 L 32.4262 71.6686 L 33.0301 71.4338 L 33.6303 71.1816 L 34.2262 70.9128 L 34.817 70.6284 L 35.402 70.3292 L 35.9806 70.016 L 36.5519 69.6899 L 37.6703 69.0022 L 38.5565 68.4022 L 39.4058 67.7693 L 40.218 67.1049 L 40.9925 66.4101 L 41.729 65.6863 L 42.427 64.9347 L 43.0862 64.1567 L 43.7062 63.3534 L 44.2866 62.5262 L 44.8268 61.6764 L 45.3267 60.8053 L 45.7857 59.9141 L 46.2034 59.0041 L 46.5795 58.0765 L 46.9135 57.1328 L 47.2051 56.1741 L 45.2172 55.6739 L 45.0701 56.0792 L 44.9084 56.476 L 44.7325 56.8643 L 44.5426 57.2435 L 44.3391 57.6135 L 44.1223 57.9739 L 43.8926 58.3246 L 43.65 58.665 L 43.3953 58.995 L 43.1284 59.3143 L 42.8499 59.6225 L 42.5599 59.9195 L 42.2589 60.2048 L 41.9471 60.4782 L 41.6248 60.7394 L 41.2924 60.9881 L 40.9502 61.224 L 40.5984 61.4468 L 40.2376 61.6563 L 39.8678 61.8521 L 39.4894 62.0339 L 39.1028 62.2014 L 38.7083 62.3544 L 38.3062 62.4925 L 37.8967 62.6155 L 37.4804 62.723 L 37.0573 62.8149 L 36.628 62.8906 L 36.1925 62.95 L 35.7514 62.9929 L 35.3048 63.0188 L 34.8533 63.0278 L 34.2884 63.0136 L 33.7308 62.9712 L 33.1815 62.9014 L 32.6409 62.8049 L 32.1098 62.6823 L 31.5889 62.5344 L 31.0788 62.3618 L 30.5803 62.1653 L 30.094 61.9454 L 29.6207 61.7029 L 29.161 61.4387 L 28.7156 61.1532 L 28.2852 60.847 L 27.8705 60.5211 L 27.4722 60.1761 L 27.091 59.8126 L 26.7274 59.4314 L 26.3825 59.0331 L 26.0565 58.6184 L 25.7504 58.188 L 25.4649 57.7426 L 25.2006 57.2829 L 24.9581 56.8096 L 24.7383 56.3233 L 24.5418 55.8248 L 24.3692 55.3147 L 24.2212 54.7938 L 24.0987 54.2627 L 24.0021 53.722 L 23.9324 53.1727 L 23.89 52.6152 L 23.8758 52.0503 L 23.89 51.4854 L 23.9324 50.9279 L 24.0021 50.3785 L 24.0987 49.8379 L 24.2212 49.3068 L 24.3692 48.7859 L 24.5418 48.2758 L 24.7383 47.7773 L 24.9581 47.291 L 25.2006 46.8177 L 25.4649 46.358 L 25.7504 45.9126 L 26.0565 45.4822 L 26.3825 45.0675 L 26.7274 44.6692 L 27.091 44.288 L 27.4722 43.9244 L 27.8705 43.5795 L 28.2852 43.2535 L 28.7156 42.9475 L 29.161 42.6619 L 29.6207 42.3977 L 30.094 42.1552 L 30.5803 41.9353 L 31.0788 41.7388 L 31.5889 41.5662 L 32.1098 41.4182 L 32.6409 41.2957 L 33.1815 41.1992 L 33.7308 41.1294 L 34.2884 41.087 L 34.8533 41.0728 L 35.4182 41.087 L 35.9756 41.1294 L 36.525 41.1992 L 37.0657 41.2957 L 37.5968 41.4182 L 38.1177 41.5662 L 38.6278 41.7388 L 39.1263 41.9353 L 39.6126 42.1552 L 40.0859 42.3977 L 40.5456 42.6619 L 40.991 42.9475 L 41.4214 43.2535 L 41.836 43.5795 L 42.2344 43.9244 L 42.6156 44.288 L 42.9792 44.6692 L 43.3241 45.0675 L 43.65 45.4822 L 43.9561 45.9126 L 44.2417 46.358 L 44.5059 46.8177 L 44.7484 47.291 L 44.9683 47.7773 L 45.1648 48.2758 L 45.3374 48.7859 L 45.4853 49.3068 L 45.6079 49.8379 L 45.7044 50.3785 L 45.7742 50.9279 L 45.8166 51.4854 L 45.8308 52.0503 L 45.815 52.5993 L 45.7775 53.1509 L 47.7871 53.3827 L 47.9089 52.5166 L 47.9953 51.6463 L 48.0462 50.7728 L 48.0617 49.8971 L 48.0417 49.0204 L 47.9861 48.1437 L 47.8948 47.268 L 47.7679 46.3944 L 47.6052 45.524 L 47.4068 44.6577 L 47.1726 43.7966 L 46.9024 42.9419 L 46.5963 42.0944 L 46.2543 41.2554 L 45.8762 40.4257 L 45.4621 39.6066 L 45.3754 39.3272 L 45.3095 39.0486 L 45.2037 38.4678 L 45.1585 37.8387 L 45.1433 37.2018 L 45.1604 36.5277 L 45.211 35.8624 L 45.2943 35.2068 L 45.4095 34.5617 L 45.5558 33.9279 L 45.7323 33.3063 L 45.9382 32.6976 L 46.1728 32.1027 L 46.4351 31.5224 L 46.7244 30.9575 L 47.0399 30.409 L 47.3806 29.8774 L 47.7458 29.3638 L 48.1347 28.869 L 48.5465 28.3936 L 48.9802 27.9387 L 49.4352 27.5049 L 49.9105 27.0932 L 50.4054 26.7043 L 50.919 26.339 L 51.4505 25.9983 L 51.9991 25.6829 L 52.564 25.3936 L 53.1443 25.1312 L 53.7391 24.8967 L 54.3478 24.6907 L 54.9695 24.5142 L 55.6033 24.3679 L 56.2484 24.2527 L 56.904 24.1694 L 57.5693 24.1188 L 58.2434 24.1018 L 58.9175 24.1188 L 59.5828 24.1694 L 60.2384 24.2527 L 60.8835 24.3679 L 61.5173 24.5142 L 62.1389 24.6907 L 62.7476 24.8967 L 63.3425 25.1312 L 63.9228 25.3936 L 64.4877 25.6829 L 65.0362 25.9983 L 65.5678 26.339 L 66.0814 26.7043 L 66.5762 27.0932 L 67.0516 27.5049 L 67.5065 27.9387 L 67.9403 28.3936 L 68.352 28.869 L 68.7409 29.3638 L 69.1062 29.8774 L 69.4469 30.409 L 69.7623 30.9575 L 70.0516 31.5224 L 70.314 32.1027 L 70.5485 32.6976 L 70.7545 33.3063 L 70.931 33.9279 L 71.0773 34.5617 L 71.1925 35.2068 L 71.2758 35.8624 L 71.3264 36.5277 L 71.3435 37.2018 L 71.3331 37.727 L 71.302 38.2478 L 71.2505 38.7646 L 71.1785 39.2779 L 71.0597 39.8877 L 70.7966 40.463 L 70.5505 41.0456 L 70.3212 41.6352 L 70.1088 42.2316 L 69.9132 42.8344 L 69.7347 43.4433 L 69.573 44.058 L 69.4283 44.6782 L 69.3006 45.3036 L 69.1898 45.9339 L 69.0961 46.5688 L 69.0193 47.2081 L 68.9596 47.8513 L 68.917 48.4982 L 68.8913 49.1484 L 68.8828 49.8018 L 68.8943 50.7167 L 68.9377 51.6253 L 69.0263 52.5215 L 69.0916 52.963 L 69.1731 53.399 L 71.2119 53.1457 L 71.1744 52.594 L 71.1586 52.045 L 71.1728 51.4801 L 71.2152 50.9227 L 71.285 50.3733 L 71.3815 49.8326 L 71.5041 49.3015 L 71.652 48.7806 L 71.8246 48.2706 L 72.0211 47.772 L 72.241 47.2858 L 72.4834 46.8125 L 72.7477 46.3527 L 73.0333 45.9073 L 73.3393 45.4769 L 73.6653 45.0622 L 74.0102 44.664 L 74.3738 44.2827 L 74.755 43.9192 L 75.1534 43.5742 L 75.568 43.2483 L 75.9984 42.9423 L 76.4438 42.6567 L 76.9035 42.3924 L 77.3768 42.15 L 77.8631 41.9301 L 78.3616 41.7335 L 78.8717 41.5609 L 79.3926 41.413 L 79.9237 41.2904 L 80.4643 41.1939 L 81.0137 41.1241 L 81.5712 41.0817 L 82.1361 41.0675 L 82.701 41.0817 L 83.2585 41.1241 L 83.8078 41.1939 L 84.3485 41.2904 L 84.8796 41.413 L 85.4005 41.5609 L 85.9106 41.7335 L 86.4091 41.9301 L 86.8954 42.15 L 87.3687 42.3924 L 87.8284 42.6567 L 88.2738 42.9423 L 88.7042 43.2483 L 89.1189 43.5742 L 89.5172 43.9192 L 89.8984 44.2827 L 90.2619 44.664 L 90.6069 45.0622 L 90.9328 45.4769 L 91.2389 45.9073 L 91.5245 46.3527 L 91.7888 46.8125 L 92.0312 47.2858 L 92.2511 47.772 L 92.4476 48.2706 L 92.6202 48.7806 L 92.7681 49.3015 L 92.8907 49.8326 L 92.9873 50.3733 L 93.057 50.9227 L 93.0994 51.4801 L 93.1136 52.045 L 93.0994 52.6099 L 93.057 53.1675 L 92.9873 53.7168 L 92.8907 54.2574 L 92.7681 54.7885 L 92.6202 55.3095 L 92.4476 55.8195 L 92.2511 56.318 L 92.0312 56.8043 L 91.7888 57.2776 L 91.5245 57.7373 L 91.2389 58.1827 L 90.9328 58.6131 L 90.6069 59.0279 L 90.2619 59.4261 L 89.8984 59.8074 L 89.5172 60.1709 L 89.1189 60.5159 L 88.7042 60.8418 L 88.2738 61.1479 L 87.8284 61.4334 L 87.3687 61.6977 L 86.8954 61.9402 L 86.4091 62.16 L 85.9106 62.3565 L 85.4005 62.5291 L 84.8796 62.6771 L 84.3485 62.7996 L 83.8078 62.8961 L 83.2585 62.9659 L 82.701 63.0083 L 82.1361 63.0225 L 81.6845 63.0135 L 81.238 62.9876 L 80.7969 62.9447 L 80.3614 62.8853 L 79.9321 62.8096 L 79.509 62.7177 L 79.0926 62.6103 L 78.6832 62.4872 L 78.2811 62.3491 L 77.8866 62.1961 L 77.5 62.0287 L 77.1216 61.8469 L 76.7518 61.6511 L 76.391 61.4416 L 76.0392 61.2188 L 75.697 60.9829 L 75.3645 60.7341 L 75.0423 60.4729 L 74.7305 60.1995 L 74.4295 59.9142 L 74.1395 59.6172 L 73.8609 59.309 L 73.5941 58.9897 L 73.3393 58.6598 L 73.0968 58.3193 L 72.8671 57.9687 L 72.6503 57.6082 L 72.4468 57.2382 L 72.2569 56.859 L 72.081 56.4708 L 71.9192 56.0739 L 71.7722 55.6686 L 69.812 56.1425 L 70.0618 56.955 L 70.3419 57.7536 L 70.6517 58.5376 L 70.9906 59.3064 L 71.3579 60.0594 L 71.7529 60.7959 L 72.1751 61.5154 L 72.6238 62.2173 L 73.0983 62.9008 L 73.598 63.5653 L 74.1222 64.2104 L 74.6703 64.8352 L 75.2416 65.4393 L 75.8355 66.0219 L 76.4514 66.5825 L 77.0885 67.1204 L 77.7463 67.635 L 78.4241 68.1257 L 79.1212 68.5918 L 79.837 69.0328 L 80.5709 69.448 L 81.3222 69.8368 L 82.0902 70.1986 L 82.8743 70.5326 L 83.6739 70.8385 L 84.4883 71.1154 L 85.3169 71.3627 L 86.1589 71.58 L 87.0139 71.7664 L 87.881 71.9215 L 88.7597 72.0445 L 89.6494 72.1349 L 90.312 72.3163"
       style="display:inline;fill:none;stroke:#000000;stroke-width:0.210391;stroke-linecap:round;stroke-linejoin:round;stroke-miterlimit:4;stroke-dasharray:none;paint-order:stroke fill markers"
       id="path1"
       sodipodi:nodetypes="cccccccccccccccccccccccccccccccccccccccccccccccccccccccccccccccccccccccccccccscccccccccccccccccccccccccccccccccccccccccccccccccccccccccccccccccccccccccccccccccccsccccccccccccccccccccccccccccccccccccccccccccccccccccccccccccccccccccccccccccccccccccccccccccccccccccccccccccccccccccccccccccccccccccccccccccccccccccccccccccccccccccccccccccccccccccccccccccccccccccccccccccccsccccccccccccccccccccccccccccccccccccccccccccccccccccccccccccccccccccccccccccccccccccccccccccccccccccccccccccccccccccccccccccccccccccccc" />
    <circle
       style="display:inline;fill:none;stroke:#000000;stroke-width:0.194897;stroke-linecap:round;stroke-linejoin:round;stroke-miterlimit:4;stroke-dasharray:none;paint-order:stroke fill markers"
       id="path6656-1-8-5"
       cx="58.549255"
       cy="69.352646"
       r="10.902552" />
  </g>
  <g
     inkscape:label="B.Cu"
     inkscape:groupmode="layer"
     id="g18279"
     style="display:inline" />
  <g
     inkscape:label="B.Mask"
     inkscape:groupmode="layer"
     id="g18281" />
  <g
     inkscape:label="B.SilkS"
     inkscape:groupmode="layer"
     id="g18283"
     style="display:inline">
    <path
       style="display:inline;fill:none;stroke:#000000;stroke-width:0.2;stroke-linecap:round;stroke-linejoin:round;stroke-miterlimit:4;stroke-dasharray:none;paint-order:stroke fill markers"
       d="m 47.714559,31.257506 c -0.0112,3.32172 0.013,6.55409 0.009,9.86986 0,0 3.73774,3.52284 4.01226,3.8738 l 12.98084,-6e-5 3.99654,-3.89577 -0.0425,-9.81755 -3.68918,-3.67429 c -1.95332,1.18794 -4.3938,1.96352 -6.89028,1.96353 -2.53931,0 -4.91846,-0.73914 -6.89781,-1.97047 z"
       id="path11748-2"
       sodipodi:nodetypes="cccccccscc" />
    <path
       style="display:inline;fill:none;stroke:#000000;stroke-width:0.2;stroke-linecap:round;stroke-linejoin:round;stroke-miterlimit:4;stroke-dasharray:none;paint-order:stroke fill markers"
       d="m 96.713919,79.070506 c -2.73466,-1.88563 -5.41558,-3.69158 -8.14941,-5.5679 0,0 -5.01833,1.09427 -5.46301,1.12254 l -7.33262,10.71143 0.95708,5.49849 8.12516,5.51072 5.11587,-0.96866 c 0.12315,-2.28287 0.86176,-4.73479 2.27199,-6.79482 1.43441,-2.09536 3.38827,-3.64104 5.52243,-4.57878 z"
       id="path11748-6-2"
       sodipodi:nodetypes="cccccccscc" />
    <path
       style="display:inline;fill:none;stroke:#000000;stroke-width:0.2;stroke-linecap:round;stroke-linejoin:round;stroke-miterlimit:4;stroke-dasharray:none;paint-order:stroke fill markers"
       d="m 32.190769,97.222156 c 2.784,-1.81199 5.47387,-3.60459 8.24894,-5.41934 0,0 0.89658,-5.05739 1.03955,-5.4794 l -7.11768,-10.85546 -5.44929,-1.20607 -8.18682,5.41868 -1.04985,5.09982 c 2.06448,0.98214 4.05123,2.59778 5.4201,4.6855 1.39235,2.12355 2.07876,4.51844 2.13435,6.84888 z"
       id="path11748-1-3"
       sodipodi:nodetypes="cccccccscc" />
  </g>
  <g
     inkscape:label="F.Cu"
     inkscape:groupmode="layer"
     id="g18285" />
  <g
     inkscape:label="F.Mask"
     inkscape:groupmode="layer"
     id="g18287" />
  <g
     inkscape:label="F.SilkS"
     inkscape:groupmode="layer"
     id="g18289"
     style="display:inline">
    <g
       id="g1352-1-5-2-5"
       style="display:inline"
       transform="rotate(-0.51869193,597.4792,-1.5684293)">
      <g
         id="g1703-7-9-1-9"
         transform="matrix(0,-1.3722332,-1.2928621,0,179.27767,147.49601)"
         style="display:inline">
        <rect
           style="opacity:0.993213;fill:#000000;fill-opacity:1;stroke:#050000;stroke-width:0.226565;stroke-linecap:square;stroke-opacity:1"
           id="rect1676-2-9-9-7"
           width="1.5796459"
           height="0.77343577"
           x="90.367828"
           y="92.304688" />
        <rect
           style="opacity:0.993213;fill:#000000;fill-opacity:1;stroke:#050000;stroke-width:0.226565;stroke-linecap:square;stroke-opacity:1"
           id="rect1676-3-61-5-3-5"
           width="1.5796459"
           height="0.77343577"
           x="90.410255"
           y="94.795258" />
        <rect
           style="opacity:0.993213;fill:none;stroke:#05fb00;stroke-width:0.2;stroke-linecap:square;stroke-dasharray:none;stroke-opacity:1"
           id="rect234-1-5-8-2"
           width="1.2333373"
           height="1.9833373"
           x="90.567657"
           y="92.937126" />
      </g>
      <g
         id="g1703-67-06-9-9-9"
         transform="matrix(0,-1.3722332,-1.2928621,0,179.27767,156.39487)"
         style="display:inline">
        <rect
           style="opacity:0.993213;fill:#000000;fill-opacity:1;stroke:#050000;stroke-width:0.226565;stroke-linecap:square;stroke-opacity:1"
           id="rect1676-50-4-9-0-8"
           width="1.5796459"
           height="0.77343577"
           x="90.367828"
           y="92.304688" />
        <rect
           style="opacity:0.993213;fill:#000000;fill-opacity:1;stroke:#050000;stroke-width:0.226565;stroke-linecap:square;stroke-opacity:1"
           id="rect1676-3-96-0-3-9-7"
           width="1.5796459"
           height="0.77343577"
           x="90.410255"
           y="94.795258" />
        <rect
           style="opacity:0.993213;fill:none;stroke:#05fb00;stroke-width:0.2;stroke-linecap:square;stroke-dasharray:none;stroke-opacity:1"
           id="rect234-2-3-0-7-7"
           width="1.2333373"
           height="1.9833373"
           x="90.567657"
           y="92.937126" />
      </g>
      <g
         id="g1703-67-0-2-0-2-0"
         transform="matrix(0,-1.3722332,-1.2928621,0,179.27767,165.29373)"
         style="display:inline">
        <rect
           style="opacity:0.993213;fill:#000000;fill-opacity:1;stroke:#050000;stroke-width:0.226565;stroke-linecap:square;stroke-opacity:1"
           id="rect1676-50-9-7-8-1-5"
           width="1.5796459"
           height="0.77343577"
           x="90.367828"
           y="92.304688" />
        <rect
           style="opacity:0.993213;fill:#000000;fill-opacity:1;stroke:#050000;stroke-width:0.226565;stroke-linecap:square;stroke-opacity:1"
           id="rect1676-3-96-2-2-7-1-3"
           width="1.5796459"
           height="0.77343577"
           x="90.410255"
           y="94.795258" />
        <rect
           style="opacity:0.993213;fill:none;stroke:#05fb00;stroke-width:0.2;stroke-linecap:square;stroke-dasharray:none;stroke-opacity:1"
           id="rect234-2-8-2-5-7-1"
           width="1.2333373"
           height="1.9833373"
           x="90.567657"
           y="92.937126" />
      </g>
    </g>
    <g
       id="g1352-1-5-2"
       style="display:inline"
       transform="rotate(59.342652,-3.6473787,34.395108)">
      <g
         id="g1703-7-9-1"
         transform="matrix(0,-1.3722332,-1.2928621,0,179.27767,147.49601)"
         style="display:inline">
        <rect
           style="opacity:0.993213;fill:#000000;fill-opacity:1;stroke:#050000;stroke-width:0.226565;stroke-linecap:square;stroke-opacity:1"
           id="rect1676-2-9-9"
           width="1.5796459"
           height="0.77343577"
           x="90.367828"
           y="92.304688" />
        <rect
           style="opacity:0.993213;fill:#000000;fill-opacity:1;stroke:#050000;stroke-width:0.226565;stroke-linecap:square;stroke-opacity:1"
           id="rect1676-3-61-5-3"
           width="1.5796459"
           height="0.77343577"
           x="90.410255"
           y="94.795258" />
        <rect
           style="opacity:0.993213;fill:none;stroke:#05fb00;stroke-width:0.2;stroke-linecap:square;stroke-dasharray:none;stroke-opacity:1"
           id="rect234-1-5-8"
           width="1.2333373"
           height="1.9833373"
           x="90.567657"
           y="92.937126" />
      </g>
      <g
         id="g1703-67-06-9-9"
         transform="matrix(0,-1.3722332,-1.2928621,0,179.27767,156.39487)"
         style="display:inline">
        <rect
           style="opacity:0.993213;fill:#000000;fill-opacity:1;stroke:#050000;stroke-width:0.226565;stroke-linecap:square;stroke-opacity:1"
           id="rect1676-50-4-9-0"
           width="1.5796459"
           height="0.77343577"
           x="90.367828"
           y="92.304688" />
        <rect
           style="opacity:0.993213;fill:#000000;fill-opacity:1;stroke:#050000;stroke-width:0.226565;stroke-linecap:square;stroke-opacity:1"
           id="rect1676-3-96-0-3-9"
           width="1.5796459"
           height="0.77343577"
           x="90.410255"
           y="94.795258" />
        <rect
           style="opacity:0.993213;fill:none;stroke:#05fb00;stroke-width:0.2;stroke-linecap:square;stroke-dasharray:none;stroke-opacity:1"
           id="rect234-2-3-0-7"
           width="1.2333373"
           height="1.9833373"
           x="90.567657"
           y="92.937126" />
      </g>
      <g
         id="g1703-67-0-2-0-2"
         transform="matrix(0,-1.3722332,-1.2928621,0,179.27767,165.29373)"
         style="display:inline">
        <rect
           style="opacity:0.993213;fill:#000000;fill-opacity:1;stroke:#050000;stroke-width:0.226565;stroke-linecap:square;stroke-opacity:1"
           id="rect1676-50-9-7-8-1"
           width="1.5796459"
           height="0.77343577"
           x="90.367828"
           y="92.304688" />
        <rect
           style="opacity:0.993213;fill:#000000;fill-opacity:1;stroke:#050000;stroke-width:0.226565;stroke-linecap:square;stroke-opacity:1"
           id="rect1676-3-96-2-2-7-1"
           width="1.5796459"
           height="0.77343577"
           x="90.410255"
           y="94.795258" />
        <rect
           style="opacity:0.993213;fill:none;stroke:#05fb00;stroke-width:0.2;stroke-linecap:square;stroke-dasharray:none;stroke-opacity:1"
           id="rect234-2-8-2-5-7"
           width="1.2333373"
           height="1.9833373"
           x="90.567657"
           y="92.937126" />
      </g>
    </g>
    <g
       id="g1352-1-5-2-0"
       style="display:inline"
       transform="matrix(-0.49882991,0.86669991,0.86669991,0.49882991,88.183984,19.704622)">
      <g
         id="g1703-7-9-1-1"
         transform="matrix(0,-1.3722332,-1.2928621,0,179.27767,147.49601)"
         style="display:inline">
        <rect
           style="opacity:0.993213;fill:#000000;fill-opacity:1;stroke:#050000;stroke-width:0.226565;stroke-linecap:square;stroke-opacity:1"
           id="rect1676-2-9-9-4"
           width="1.5796459"
           height="0.77343577"
           x="90.367828"
           y="92.304688" />
        <rect
           style="opacity:0.993213;fill:#000000;fill-opacity:1;stroke:#050000;stroke-width:0.226565;stroke-linecap:square;stroke-opacity:1"
           id="rect1676-3-61-5-3-1"
           width="1.5796459"
           height="0.77343577"
           x="90.410255"
           y="94.795258" />
        <rect
           style="opacity:0.993213;fill:none;stroke:#05fb00;stroke-width:0.2;stroke-linecap:square;stroke-dasharray:none;stroke-opacity:1"
           id="rect234-1-5-8-1"
           width="1.2333373"
           height="1.9833373"
           x="90.567657"
           y="92.937126" />
      </g>
      <g
         id="g1703-67-06-9-9-0"
         transform="matrix(0,-1.3722332,-1.2928621,0,179.27767,156.39487)"
         style="display:inline">
        <rect
           style="opacity:0.993213;fill:#000000;fill-opacity:1;stroke:#050000;stroke-width:0.226565;stroke-linecap:square;stroke-opacity:1"
           id="rect1676-50-4-9-0-2"
           width="1.5796459"
           height="0.77343577"
           x="90.367828"
           y="92.304688" />
        <rect
           style="opacity:0.993213;fill:#000000;fill-opacity:1;stroke:#050000;stroke-width:0.226565;stroke-linecap:square;stroke-opacity:1"
           id="rect1676-3-96-0-3-9-0"
           width="1.5796459"
           height="0.77343577"
           x="90.410255"
           y="94.795258" />
        <rect
           style="opacity:0.993213;fill:none;stroke:#05fb00;stroke-width:0.2;stroke-linecap:square;stroke-dasharray:none;stroke-opacity:1"
           id="rect234-2-3-0-7-1"
           width="1.2333373"
           height="1.9833373"
           x="90.567657"
           y="92.937126" />
      </g>
      <g
         id="g1703-67-0-2-0-2-2"
         transform="matrix(0,-1.3722332,-1.2928621,0,179.27767,165.29373)"
         style="display:inline">
        <rect
           style="opacity:0.993213;fill:#000000;fill-opacity:1;stroke:#050000;stroke-width:0.226565;stroke-linecap:square;stroke-opacity:1"
           id="rect1676-50-9-7-8-1-0"
           width="1.5796459"
           height="0.77343577"
           x="90.367828"
           y="92.304688" />
        <rect
           style="opacity:0.993213;fill:#000000;fill-opacity:1;stroke:#050000;stroke-width:0.226565;stroke-linecap:square;stroke-opacity:1"
           id="rect1676-3-96-2-2-7-1-7"
           width="1.5796459"
           height="0.77343577"
           x="90.410255"
           y="94.795258" />
        <rect
           style="opacity:0.993213;fill:none;stroke:#05fb00;stroke-width:0.2;stroke-linecap:square;stroke-dasharray:none;stroke-opacity:1"
           id="rect234-2-8-2-5-7-2"
           width="1.2333373"
           height="1.9833373"
           x="90.567657"
           y="92.937126" />
      </g>
    </g>
  </g>
</svg>
