%TF.GenerationSoftware,KiCad,Pcbnew,7.0.8*%
%TF.CreationDate,2024-08-22T12:11:35+02:00*%
%TF.ProjectId,Fidget_Spinner,46696467-6574-45f5-9370-696e6e65722e,rev?*%
%TF.SameCoordinates,Original*%
%TF.FileFunction,Soldermask,Bot*%
%TF.FilePolarity,Negative*%
%FSLAX46Y46*%
G04 Gerber Fmt 4.6, Leading zero omitted, Abs format (unit mm)*
G04 Created by KiCad (PCBNEW 7.0.8) date 2024-08-22 12:11:35*
%MOMM*%
%LPD*%
G01*
G04 APERTURE LIST*
G04 Aperture macros list*
%AMRoundRect*
0 Rectangle with rounded corners*
0 $1 Rounding radius*
0 $2 $3 $4 $5 $6 $7 $8 $9 X,Y pos of 4 corners*
0 Add a 4 corners polygon primitive as box body*
4,1,4,$2,$3,$4,$5,$6,$7,$8,$9,$2,$3,0*
0 Add four circle primitives for the rounded corners*
1,1,$1+$1,$2,$3*
1,1,$1+$1,$4,$5*
1,1,$1+$1,$6,$7*
1,1,$1+$1,$8,$9*
0 Add four rect primitives between the rounded corners*
20,1,$1+$1,$2,$3,$4,$5,0*
20,1,$1+$1,$4,$5,$6,$7,0*
20,1,$1+$1,$6,$7,$8,$9,0*
20,1,$1+$1,$8,$9,$2,$3,0*%
G04 Aperture macros list end*
%ADD10C,0.150000*%
%ADD11RoundRect,0.200000X1.731819X-2.556402X3.079819X-0.221598X-1.731819X2.556402X-3.079819X0.221598X0*%
%ADD12C,18.180000*%
%ADD13C,2.900000*%
%ADD14RoundRect,0.200000X-1.348000X-2.778000X1.348000X-2.778000X1.348000X2.778000X-1.348000X2.778000X0*%
%ADD15RoundRect,0.200000X-3.079819X-0.221598X-1.731819X-2.556402X3.079819X0.221598X1.731819X2.556402X0*%
%ADD16RoundRect,0.450000X0.262500X0.450000X-0.262500X0.450000X-0.262500X-0.450000X0.262500X-0.450000X0*%
%ADD17RoundRect,0.350000X0.587500X0.150000X-0.587500X0.150000X-0.587500X-0.150000X0.587500X-0.150000X0*%
%ADD18RoundRect,0.200000X-1.141025X-0.023686X-0.591025X-0.976314X1.141025X0.023686X0.591025X0.976314X0*%
G04 APERTURE END LIST*
D10*
X86183220Y-96729819D02*
X86183220Y-95729819D01*
X85611792Y-96729819D02*
X86040363Y-96158390D01*
X85611792Y-95729819D02*
X86183220Y-96301247D01*
X85183220Y-96729819D02*
X85183220Y-95729819D01*
X85183220Y-96206009D02*
X84611792Y-96206009D01*
X84611792Y-96729819D02*
X84611792Y-95729819D01*
X83802268Y-96206009D02*
X84135601Y-96206009D01*
X84135601Y-96729819D02*
X84135601Y-95729819D01*
X84135601Y-95729819D02*
X83659411Y-95729819D01*
X82326077Y-95729819D02*
X82230839Y-95729819D01*
X82230839Y-95729819D02*
X82135601Y-95777438D01*
X82135601Y-95777438D02*
X82087982Y-95825057D01*
X82087982Y-95825057D02*
X82040363Y-95920295D01*
X82040363Y-95920295D02*
X81992744Y-96110771D01*
X81992744Y-96110771D02*
X81992744Y-96348866D01*
X81992744Y-96348866D02*
X82040363Y-96539342D01*
X82040363Y-96539342D02*
X82087982Y-96634580D01*
X82087982Y-96634580D02*
X82135601Y-96682200D01*
X82135601Y-96682200D02*
X82230839Y-96729819D01*
X82230839Y-96729819D02*
X82326077Y-96729819D01*
X82326077Y-96729819D02*
X82421315Y-96682200D01*
X82421315Y-96682200D02*
X82468934Y-96634580D01*
X82468934Y-96634580D02*
X82516553Y-96539342D01*
X82516553Y-96539342D02*
X82564172Y-96348866D01*
X82564172Y-96348866D02*
X82564172Y-96110771D01*
X82564172Y-96110771D02*
X82516553Y-95920295D01*
X82516553Y-95920295D02*
X82468934Y-95825057D01*
X82468934Y-95825057D02*
X82421315Y-95777438D01*
X82421315Y-95777438D02*
X82326077Y-95729819D01*
X81516553Y-96729819D02*
X81326077Y-96729819D01*
X81326077Y-96729819D02*
X81230839Y-96682200D01*
X81230839Y-96682200D02*
X81183220Y-96634580D01*
X81183220Y-96634580D02*
X81087982Y-96491723D01*
X81087982Y-96491723D02*
X81040363Y-96301247D01*
X81040363Y-96301247D02*
X81040363Y-95920295D01*
X81040363Y-95920295D02*
X81087982Y-95825057D01*
X81087982Y-95825057D02*
X81135601Y-95777438D01*
X81135601Y-95777438D02*
X81230839Y-95729819D01*
X81230839Y-95729819D02*
X81421315Y-95729819D01*
X81421315Y-95729819D02*
X81516553Y-95777438D01*
X81516553Y-95777438D02*
X81564172Y-95825057D01*
X81564172Y-95825057D02*
X81611791Y-95920295D01*
X81611791Y-95920295D02*
X81611791Y-96158390D01*
X81611791Y-96158390D02*
X81564172Y-96253628D01*
X81564172Y-96253628D02*
X81516553Y-96301247D01*
X81516553Y-96301247D02*
X81421315Y-96348866D01*
X81421315Y-96348866D02*
X81230839Y-96348866D01*
X81230839Y-96348866D02*
X81135601Y-96301247D01*
X81135601Y-96301247D02*
X81087982Y-96253628D01*
X81087982Y-96253628D02*
X81040363Y-96158390D01*
X80611791Y-96634580D02*
X80564172Y-96682200D01*
X80564172Y-96682200D02*
X80611791Y-96729819D01*
X80611791Y-96729819D02*
X80659410Y-96682200D01*
X80659410Y-96682200D02*
X80611791Y-96634580D01*
X80611791Y-96634580D02*
X80611791Y-96729819D01*
X80183220Y-95825057D02*
X80135601Y-95777438D01*
X80135601Y-95777438D02*
X80040363Y-95729819D01*
X80040363Y-95729819D02*
X79802268Y-95729819D01*
X79802268Y-95729819D02*
X79707030Y-95777438D01*
X79707030Y-95777438D02*
X79659411Y-95825057D01*
X79659411Y-95825057D02*
X79611792Y-95920295D01*
X79611792Y-95920295D02*
X79611792Y-96015533D01*
X79611792Y-96015533D02*
X79659411Y-96158390D01*
X79659411Y-96158390D02*
X80230839Y-96729819D01*
X80230839Y-96729819D02*
X79611792Y-96729819D01*
X78992744Y-95729819D02*
X78897506Y-95729819D01*
X78897506Y-95729819D02*
X78802268Y-95777438D01*
X78802268Y-95777438D02*
X78754649Y-95825057D01*
X78754649Y-95825057D02*
X78707030Y-95920295D01*
X78707030Y-95920295D02*
X78659411Y-96110771D01*
X78659411Y-96110771D02*
X78659411Y-96348866D01*
X78659411Y-96348866D02*
X78707030Y-96539342D01*
X78707030Y-96539342D02*
X78754649Y-96634580D01*
X78754649Y-96634580D02*
X78802268Y-96682200D01*
X78802268Y-96682200D02*
X78897506Y-96729819D01*
X78897506Y-96729819D02*
X78992744Y-96729819D01*
X78992744Y-96729819D02*
X79087982Y-96682200D01*
X79087982Y-96682200D02*
X79135601Y-96634580D01*
X79135601Y-96634580D02*
X79183220Y-96539342D01*
X79183220Y-96539342D02*
X79230839Y-96348866D01*
X79230839Y-96348866D02*
X79230839Y-96110771D01*
X79230839Y-96110771D02*
X79183220Y-95920295D01*
X79183220Y-95920295D02*
X79135601Y-95825057D01*
X79135601Y-95825057D02*
X79087982Y-95777438D01*
X79087982Y-95777438D02*
X78992744Y-95729819D01*
X78278458Y-95825057D02*
X78230839Y-95777438D01*
X78230839Y-95777438D02*
X78135601Y-95729819D01*
X78135601Y-95729819D02*
X77897506Y-95729819D01*
X77897506Y-95729819D02*
X77802268Y-95777438D01*
X77802268Y-95777438D02*
X77754649Y-95825057D01*
X77754649Y-95825057D02*
X77707030Y-95920295D01*
X77707030Y-95920295D02*
X77707030Y-96015533D01*
X77707030Y-96015533D02*
X77754649Y-96158390D01*
X77754649Y-96158390D02*
X78326077Y-96729819D01*
X78326077Y-96729819D02*
X77707030Y-96729819D01*
X76849887Y-96063152D02*
X76849887Y-96729819D01*
X77087982Y-95682200D02*
X77326077Y-96396485D01*
X77326077Y-96396485D02*
X76707030Y-96396485D01*
D11*
%TO.C,U2*%
X104330000Y-108770000D03*
X115780000Y-88970000D03*
D12*
X110280000Y-98970000D03*
%TD*%
D13*
%TO.C,S2*%
X93760000Y-96300000D03*
X70210000Y-96250000D03*
%TD*%
D14*
%TO.C,U1*%
X69800000Y-50150000D03*
X93452000Y-50304000D03*
D12*
X81650000Y-50050000D03*
%TD*%
D15*
%TO.C,U3*%
X47790000Y-89520000D03*
X59440000Y-109670000D03*
D12*
X53740000Y-99320000D03*
%TD*%
D16*
%TO.C,R3*%
X77075000Y-64380000D03*
X75250000Y-64380000D03*
%TD*%
%TO.C,R4*%
X82622500Y-69040000D03*
X80797500Y-69040000D03*
%TD*%
%TO.C,R1*%
X88065000Y-64380000D03*
X86240000Y-64380000D03*
%TD*%
D17*
%TO.C,Q1*%
X68380000Y-84400000D03*
X68380000Y-86300000D03*
X66505000Y-85350000D03*
%TD*%
D16*
%TO.C,R2*%
X82570000Y-64380000D03*
X80745000Y-64380000D03*
%TD*%
D18*
%TO.C,S1*%
X92690000Y-73450000D03*
X93790000Y-75350000D03*
X94840000Y-77250000D03*
%TD*%
M02*
