%TF.GenerationSoftware,KiCad,Pcbnew,7.0.8*%
%TF.CreationDate,2024-08-08T21:58:02+02:00*%
%TF.ProjectId,Fidget_Spinner,46696467-6574-45f5-9370-696e6e65722e,rev?*%
%TF.SameCoordinates,Original*%
%TF.FileFunction,Copper,L1,Top*%
%TF.FilePolarity,Positive*%
%FSLAX46Y46*%
G04 Gerber Fmt 4.6, Leading zero omitted, Abs format (unit mm)*
G04 Created by KiCad (PCBNEW 7.0.8) date 2024-08-08 21:58:02*
%MOMM*%
%LPD*%
G01*
G04 APERTURE LIST*
G04 Aperture macros list*
%AMRoundRect*
0 Rectangle with rounded corners*
0 $1 Rounding radius*
0 $2 $3 $4 $5 $6 $7 $8 $9 X,Y pos of 4 corners*
0 Add a 4 corners polygon primitive as box body*
4,1,4,$2,$3,$4,$5,$6,$7,$8,$9,$2,$3,0*
0 Add four circle primitives for the rounded corners*
1,1,$1+$1,$2,$3*
1,1,$1+$1,$4,$5*
1,1,$1+$1,$6,$7*
1,1,$1+$1,$8,$9*
0 Add four rect primitives between the rounded corners*
20,1,$1+$1,$2,$3,$4,$5,0*
20,1,$1+$1,$4,$5,$6,$7,0*
20,1,$1+$1,$6,$7,$8,$9,0*
20,1,$1+$1,$8,$9,$2,$3,0*%
G04 Aperture macros list end*
%TA.AperFunction,SMDPad,CuDef*%
%ADD10RoundRect,0.214285X0.385715X1.535715X-0.385715X1.535715X-0.385715X-1.535715X0.385715X-1.535715X0*%
%TD*%
%TA.AperFunction,SMDPad,CuDef*%
%ADD11RoundRect,0.214285X-0.385715X-1.535715X0.385715X-1.535715X0.385715X1.535715X-0.385715X1.535715X0*%
%TD*%
%TA.AperFunction,SMDPad,CuDef*%
%ADD12RoundRect,0.214285X-1.137111X1.101896X-1.522826X0.433819X1.137111X-1.101896X1.522826X-0.433819X0*%
%TD*%
%TA.AperFunction,SMDPad,CuDef*%
%ADD13RoundRect,0.214285X-1.522826X-0.433819X-1.137111X-1.101896X1.522826X0.433819X1.137111X1.101896X0*%
%TD*%
%TA.AperFunction,ComponentPad*%
%ADD14C,2.500000*%
%TD*%
%TA.AperFunction,SMDPad,CuDef*%
%ADD15RoundRect,0.214285X1.137111X-1.101896X1.522826X-0.433819X-1.137111X1.101896X-1.522826X0.433819X0*%
%TD*%
%TA.AperFunction,SMDPad,CuDef*%
%ADD16RoundRect,0.214285X1.522826X0.433819X1.137111X1.101896X-1.522826X-0.433819X-1.137111X-1.101896X0*%
%TD*%
%TA.AperFunction,ViaPad*%
%ADD17C,0.600000*%
%TD*%
%TA.AperFunction,Conductor*%
%ADD18C,0.250000*%
%TD*%
G04 APERTURE END LIST*
D10*
%TO.P,D2,1,K*%
%TO.N,Net-(D1-K)*%
X66500000Y-54550000D03*
%TO.P,D2,2,A*%
%TO.N,Net-(D2-K)*%
X62650000Y-54450000D03*
%TD*%
D11*
%TO.P,D3,1,K*%
%TO.N,Net-(D3-K)*%
X62630000Y-63500000D03*
%TO.P,D3,2,A*%
%TO.N,Net-(D2-K)*%
X66480000Y-63600000D03*
%TD*%
D12*
%TO.P,D5,1,K*%
%TO.N,Net-(D4-K)*%
X105290000Y-128190000D03*
%TO.P,D5,2,A*%
%TO.N,Net-(D5-K)*%
X106990000Y-124940000D03*
%TD*%
D13*
%TO.P,D9,1,K*%
%TO.N,Net-(D3-K)*%
X30210000Y-120950000D03*
%TO.P,D9,2,A*%
%TO.N,Net-(D8-K)*%
X31760000Y-123750000D03*
%TD*%
D14*
%TO.P,S2,1,Silber*%
%TO.N,Net-(S1-E)*%
X56150000Y-62080000D03*
%TO.P,S2,2,Gold*%
%TO.N,Net-(Q1-B)*%
X56100000Y-85630000D03*
%TD*%
D15*
%TO.P,D4,1,K*%
%TO.N,Net-(D4-K)*%
X99180000Y-120620000D03*
%TO.P,D4,2,A*%
%TO.N,Net-(D4-A)*%
X97480000Y-123870000D03*
%TD*%
D11*
%TO.P,D1,1,K*%
%TO.N,Net-(D1-K)*%
X62660000Y-45630000D03*
%TO.P,D1,2,A*%
%TO.N,Net-(D1-A)*%
X66510000Y-45730000D03*
%TD*%
D13*
%TO.P,D7,1,K*%
%TO.N,Net-(D7-K)*%
X14940000Y-129990000D03*
%TO.P,D7,2,A*%
%TO.N,Net-(D7-A)*%
X16490000Y-132790000D03*
%TD*%
D15*
%TO.P,D6,1,K*%
%TO.N,Net-(D3-K)*%
X114790000Y-129160000D03*
%TO.P,D6,2,A*%
%TO.N,Net-(D5-K)*%
X113090000Y-132410000D03*
%TD*%
D16*
%TO.P,D8,1,K*%
%TO.N,Net-(D7-K)*%
X24420000Y-128270000D03*
%TO.P,D8,2,A*%
%TO.N,Net-(D8-K)*%
X22870000Y-125470000D03*
%TD*%
D17*
%TO.N,Net-(D1-A)*%
X40380000Y-104550000D03*
%TO.N,Net-(D3-K)*%
X65660000Y-89920000D03*
%TO.N,Net-(D4-A)*%
X94230000Y-123860000D03*
%TO.N,Net-(D7-A)*%
X34100000Y-131670000D03*
%TO.N,Net-(U1-Pad2)*%
X101483411Y-116466589D03*
X64190000Y-90840000D03*
%TO.N,unconnected-(U2-Pad2)*%
X94180000Y-130890000D03*
X57220000Y-121850000D03*
%TD*%
D18*
%TO.N,Net-(D1-K)*%
X62660000Y-45630000D02*
X62660000Y-47960000D01*
X66500000Y-51800000D02*
X66500000Y-54550000D01*
X62660000Y-47960000D02*
X66500000Y-51800000D01*
%TO.N,Net-(D1-A)*%
X51555889Y-47334111D02*
X51555889Y-93374111D01*
X57290000Y-41600000D02*
X51555889Y-47334111D01*
X66510000Y-43340000D02*
X64770000Y-41600000D01*
X66510000Y-45730000D02*
X66510000Y-43340000D01*
X64770000Y-41600000D02*
X57290000Y-41600000D01*
X51555889Y-93374111D02*
X40380000Y-104550000D01*
%TO.N,Net-(D2-K)*%
X65570000Y-61050000D02*
X65570000Y-62690000D01*
X65570000Y-62690000D02*
X66480000Y-63600000D01*
X62650000Y-54450000D02*
X62650000Y-58130000D01*
X62650000Y-58130000D02*
X65570000Y-61050000D01*
%TO.N,Net-(D3-K)*%
X57600000Y-89920000D02*
X61800000Y-89920000D01*
X76280000Y-90380000D02*
X114790000Y-128890000D01*
X55550000Y-91970000D02*
X57600000Y-89920000D01*
X61800000Y-89920000D02*
X65660000Y-89920000D01*
X62630000Y-63500000D02*
X62630000Y-89090000D01*
X30210000Y-117310000D02*
X55550000Y-91970000D01*
X114790000Y-128890000D02*
X114790000Y-129160000D01*
X75970000Y-90380000D02*
X76280000Y-90380000D01*
X62630000Y-89090000D02*
X61800000Y-89920000D01*
X65660000Y-89920000D02*
X75970000Y-89920000D01*
X75970000Y-89920000D02*
X75970000Y-90380000D01*
X30210000Y-120950000D02*
X30210000Y-117310000D01*
%TO.N,Net-(D4-A)*%
X94240000Y-123870000D02*
X97480000Y-123870000D01*
X94230000Y-123860000D02*
X94240000Y-123870000D01*
%TO.N,Net-(D7-K)*%
X22700000Y-129990000D02*
X24420000Y-128270000D01*
X14940000Y-129990000D02*
X22700000Y-129990000D01*
%TO.N,Net-(D7-A)*%
X16490000Y-132790000D02*
X32980000Y-132790000D01*
X32980000Y-132790000D02*
X34100000Y-131670000D01*
%TO.N,Net-(D8-K)*%
X30040000Y-125470000D02*
X31760000Y-123750000D01*
X22870000Y-125470000D02*
X30040000Y-125470000D01*
%TO.N,Net-(U1-Pad2)*%
X64190000Y-90840000D02*
X75856822Y-90840000D01*
X75856822Y-90840000D02*
X101483411Y-116466589D01*
%TO.N,unconnected-(U2-Pad2)*%
X87790000Y-124950000D02*
X93730000Y-130890000D01*
X71300000Y-118310000D02*
X71360000Y-118310000D01*
X78000000Y-124950000D02*
X87790000Y-124950000D01*
X93730000Y-130890000D02*
X94180000Y-130890000D01*
X62860000Y-118310000D02*
X71300000Y-118310000D01*
X71360000Y-118310000D02*
X78000000Y-124950000D01*
X57220000Y-121850000D02*
X59320000Y-121850000D01*
X59320000Y-121850000D02*
X62860000Y-118310000D01*
%TO.N,Net-(D4-K)*%
X105290000Y-126730000D02*
X99180000Y-120620000D01*
X105290000Y-128190000D02*
X105290000Y-126730000D01*
%TO.N,Net-(D5-K)*%
X113090000Y-131040000D02*
X106990000Y-124940000D01*
X113090000Y-132410000D02*
X113090000Y-131040000D01*
%TD*%
M02*
