%TF.GenerationSoftware,KiCad,Pcbnew,7.0.8*%
%TF.CreationDate,2024-08-08T21:58:03+02:00*%
%TF.ProjectId,Fidget_Spinner,46696467-6574-45f5-9370-696e6e65722e,rev?*%
%TF.SameCoordinates,Original*%
%TF.FileFunction,Legend,Top*%
%TF.FilePolarity,Positive*%
%FSLAX46Y46*%
G04 Gerber Fmt 4.6, Leading zero omitted, Abs format (unit mm)*
G04 Created by KiCad (PCBNEW 7.0.8) date 2024-08-08 21:58:03*
%MOMM*%
%LPD*%
G01*
G04 APERTURE LIST*
%ADD10C,0.150000*%
%ADD11C,0.050000*%
%ADD12C,0.120000*%
%ADD13C,0.010000*%
G04 APERTURE END LIST*
D10*
X29276779Y-119449819D02*
X29276779Y-118449819D01*
X29848207Y-119449819D02*
X29419636Y-118878390D01*
X29848207Y-118449819D02*
X29276779Y-119021247D01*
X13766779Y-128649819D02*
X13766779Y-127649819D01*
X14338207Y-128649819D02*
X13909636Y-128078390D01*
X14338207Y-127649819D02*
X13766779Y-128221247D01*
X56814286Y-67007200D02*
X56957143Y-67054819D01*
X56957143Y-67054819D02*
X57195238Y-67054819D01*
X57195238Y-67054819D02*
X57290476Y-67007200D01*
X57290476Y-67007200D02*
X57338095Y-66959580D01*
X57338095Y-66959580D02*
X57385714Y-66864342D01*
X57385714Y-66864342D02*
X57385714Y-66769104D01*
X57385714Y-66769104D02*
X57338095Y-66673866D01*
X57338095Y-66673866D02*
X57290476Y-66626247D01*
X57290476Y-66626247D02*
X57195238Y-66578628D01*
X57195238Y-66578628D02*
X57004762Y-66531009D01*
X57004762Y-66531009D02*
X56909524Y-66483390D01*
X56909524Y-66483390D02*
X56861905Y-66435771D01*
X56861905Y-66435771D02*
X56814286Y-66340533D01*
X56814286Y-66340533D02*
X56814286Y-66245295D01*
X56814286Y-66245295D02*
X56861905Y-66150057D01*
X56861905Y-66150057D02*
X56909524Y-66102438D01*
X56909524Y-66102438D02*
X57004762Y-66054819D01*
X57004762Y-66054819D02*
X57242857Y-66054819D01*
X57242857Y-66054819D02*
X57385714Y-66102438D01*
X21756779Y-124159819D02*
X21756779Y-123159819D01*
X22328207Y-124159819D02*
X21899636Y-123588390D01*
X22328207Y-123159819D02*
X21756779Y-123731247D01*
X60277200Y-78214761D02*
X60324819Y-78071904D01*
X60324819Y-78071904D02*
X60324819Y-77833809D01*
X60324819Y-77833809D02*
X60277200Y-77738571D01*
X60277200Y-77738571D02*
X60229580Y-77690952D01*
X60229580Y-77690952D02*
X60134342Y-77643333D01*
X60134342Y-77643333D02*
X60039104Y-77643333D01*
X60039104Y-77643333D02*
X59943866Y-77690952D01*
X59943866Y-77690952D02*
X59896247Y-77738571D01*
X59896247Y-77738571D02*
X59848628Y-77833809D01*
X59848628Y-77833809D02*
X59801009Y-78024285D01*
X59801009Y-78024285D02*
X59753390Y-78119523D01*
X59753390Y-78119523D02*
X59705771Y-78167142D01*
X59705771Y-78167142D02*
X59610533Y-78214761D01*
X59610533Y-78214761D02*
X59515295Y-78214761D01*
X59515295Y-78214761D02*
X59420057Y-78167142D01*
X59420057Y-78167142D02*
X59372438Y-78119523D01*
X59372438Y-78119523D02*
X59324819Y-78024285D01*
X59324819Y-78024285D02*
X59324819Y-77786190D01*
X59324819Y-77786190D02*
X59372438Y-77643333D01*
X59324819Y-77309999D02*
X60324819Y-77071904D01*
X60324819Y-77071904D02*
X59610533Y-76881428D01*
X59610533Y-76881428D02*
X60324819Y-76690952D01*
X60324819Y-76690952D02*
X59324819Y-76452857D01*
X59943866Y-76071904D02*
X59943866Y-75310000D01*
X59420057Y-74881428D02*
X59372438Y-74833809D01*
X59372438Y-74833809D02*
X59324819Y-74738571D01*
X59324819Y-74738571D02*
X59324819Y-74500476D01*
X59324819Y-74500476D02*
X59372438Y-74405238D01*
X59372438Y-74405238D02*
X59420057Y-74357619D01*
X59420057Y-74357619D02*
X59515295Y-74310000D01*
X59515295Y-74310000D02*
X59610533Y-74310000D01*
X59610533Y-74310000D02*
X59753390Y-74357619D01*
X59753390Y-74357619D02*
X60324819Y-74929047D01*
X60324819Y-74929047D02*
X60324819Y-74310000D01*
X59324819Y-73690952D02*
X59324819Y-73595714D01*
X59324819Y-73595714D02*
X59372438Y-73500476D01*
X59372438Y-73500476D02*
X59420057Y-73452857D01*
X59420057Y-73452857D02*
X59515295Y-73405238D01*
X59515295Y-73405238D02*
X59705771Y-73357619D01*
X59705771Y-73357619D02*
X59943866Y-73357619D01*
X59943866Y-73357619D02*
X60134342Y-73405238D01*
X60134342Y-73405238D02*
X60229580Y-73452857D01*
X60229580Y-73452857D02*
X60277200Y-73500476D01*
X60277200Y-73500476D02*
X60324819Y-73595714D01*
X60324819Y-73595714D02*
X60324819Y-73690952D01*
X60324819Y-73690952D02*
X60277200Y-73786190D01*
X60277200Y-73786190D02*
X60229580Y-73833809D01*
X60229580Y-73833809D02*
X60134342Y-73881428D01*
X60134342Y-73881428D02*
X59943866Y-73929047D01*
X59943866Y-73929047D02*
X59705771Y-73929047D01*
X59705771Y-73929047D02*
X59515295Y-73881428D01*
X59515295Y-73881428D02*
X59420057Y-73833809D01*
X59420057Y-73833809D02*
X59372438Y-73786190D01*
X59372438Y-73786190D02*
X59324819Y-73690952D01*
X59324819Y-72738571D02*
X59324819Y-72643333D01*
X59324819Y-72643333D02*
X59372438Y-72548095D01*
X59372438Y-72548095D02*
X59420057Y-72500476D01*
X59420057Y-72500476D02*
X59515295Y-72452857D01*
X59515295Y-72452857D02*
X59705771Y-72405238D01*
X59705771Y-72405238D02*
X59943866Y-72405238D01*
X59943866Y-72405238D02*
X60134342Y-72452857D01*
X60134342Y-72452857D02*
X60229580Y-72500476D01*
X60229580Y-72500476D02*
X60277200Y-72548095D01*
X60277200Y-72548095D02*
X60324819Y-72643333D01*
X60324819Y-72643333D02*
X60324819Y-72738571D01*
X60324819Y-72738571D02*
X60277200Y-72833809D01*
X60277200Y-72833809D02*
X60229580Y-72881428D01*
X60229580Y-72881428D02*
X60134342Y-72929047D01*
X60134342Y-72929047D02*
X59943866Y-72976666D01*
X59943866Y-72976666D02*
X59705771Y-72976666D01*
X59705771Y-72976666D02*
X59515295Y-72929047D01*
X59515295Y-72929047D02*
X59420057Y-72881428D01*
X59420057Y-72881428D02*
X59372438Y-72833809D01*
X59372438Y-72833809D02*
X59324819Y-72738571D01*
X60324819Y-71976666D02*
X59324819Y-71976666D01*
X59324819Y-71976666D02*
X59324819Y-71738571D01*
X59324819Y-71738571D02*
X59372438Y-71595714D01*
X59372438Y-71595714D02*
X59467676Y-71500476D01*
X59467676Y-71500476D02*
X59562914Y-71452857D01*
X59562914Y-71452857D02*
X59753390Y-71405238D01*
X59753390Y-71405238D02*
X59896247Y-71405238D01*
X59896247Y-71405238D02*
X60086723Y-71452857D01*
X60086723Y-71452857D02*
X60181961Y-71500476D01*
X60181961Y-71500476D02*
X60277200Y-71595714D01*
X60277200Y-71595714D02*
X60324819Y-71738571D01*
X60324819Y-71738571D02*
X60324819Y-71976666D01*
X60136779Y-54789819D02*
X60136779Y-53789819D01*
X60708207Y-54789819D02*
X60279636Y-54218390D01*
X60708207Y-53789819D02*
X60136779Y-54361247D01*
X107846779Y-123229819D02*
X107846779Y-122229819D01*
X108418207Y-123229819D02*
X107989636Y-122658390D01*
X108418207Y-122229819D02*
X107846779Y-122801247D01*
X59996779Y-46279819D02*
X59996779Y-45279819D01*
X60568207Y-46279819D02*
X60139636Y-45708390D01*
X60568207Y-45279819D02*
X59996779Y-45851247D01*
X100396779Y-119099819D02*
X100396779Y-118099819D01*
X100968207Y-119099819D02*
X100539636Y-118528390D01*
X100968207Y-118099819D02*
X100396779Y-118671247D01*
X115376779Y-127629819D02*
X115376779Y-126629819D01*
X115948207Y-127629819D02*
X115519636Y-127058390D01*
X115948207Y-126629819D02*
X115376779Y-127201247D01*
X60136779Y-63629819D02*
X60136779Y-62629819D01*
X60708207Y-63629819D02*
X60279636Y-63058390D01*
X60708207Y-62629819D02*
X60136779Y-63201247D01*
X57351904Y-81722438D02*
X57256666Y-81674819D01*
X57256666Y-81674819D02*
X57113809Y-81674819D01*
X57113809Y-81674819D02*
X56970952Y-81722438D01*
X56970952Y-81722438D02*
X56875714Y-81817676D01*
X56875714Y-81817676D02*
X56828095Y-81912914D01*
X56828095Y-81912914D02*
X56780476Y-82103390D01*
X56780476Y-82103390D02*
X56780476Y-82246247D01*
X56780476Y-82246247D02*
X56828095Y-82436723D01*
X56828095Y-82436723D02*
X56875714Y-82531961D01*
X56875714Y-82531961D02*
X56970952Y-82627200D01*
X56970952Y-82627200D02*
X57113809Y-82674819D01*
X57113809Y-82674819D02*
X57209047Y-82674819D01*
X57209047Y-82674819D02*
X57351904Y-82627200D01*
X57351904Y-82627200D02*
X57399523Y-82579580D01*
X57399523Y-82579580D02*
X57399523Y-82246247D01*
X57399523Y-82246247D02*
X57209047Y-82246247D01*
X55288095Y-74187200D02*
X55430952Y-74234819D01*
X55430952Y-74234819D02*
X55669047Y-74234819D01*
X55669047Y-74234819D02*
X55764285Y-74187200D01*
X55764285Y-74187200D02*
X55811904Y-74139580D01*
X55811904Y-74139580D02*
X55859523Y-74044342D01*
X55859523Y-74044342D02*
X55859523Y-73949104D01*
X55859523Y-73949104D02*
X55811904Y-73853866D01*
X55811904Y-73853866D02*
X55764285Y-73806247D01*
X55764285Y-73806247D02*
X55669047Y-73758628D01*
X55669047Y-73758628D02*
X55478571Y-73711009D01*
X55478571Y-73711009D02*
X55383333Y-73663390D01*
X55383333Y-73663390D02*
X55335714Y-73615771D01*
X55335714Y-73615771D02*
X55288095Y-73520533D01*
X55288095Y-73520533D02*
X55288095Y-73425295D01*
X55288095Y-73425295D02*
X55335714Y-73330057D01*
X55335714Y-73330057D02*
X55383333Y-73282438D01*
X55383333Y-73282438D02*
X55478571Y-73234819D01*
X55478571Y-73234819D02*
X55716666Y-73234819D01*
X55716666Y-73234819D02*
X55859523Y-73282438D01*
X56240476Y-73330057D02*
X56288095Y-73282438D01*
X56288095Y-73282438D02*
X56383333Y-73234819D01*
X56383333Y-73234819D02*
X56621428Y-73234819D01*
X56621428Y-73234819D02*
X56716666Y-73282438D01*
X56716666Y-73282438D02*
X56764285Y-73330057D01*
X56764285Y-73330057D02*
X56811904Y-73425295D01*
X56811904Y-73425295D02*
X56811904Y-73520533D01*
X56811904Y-73520533D02*
X56764285Y-73663390D01*
X56764285Y-73663390D02*
X56192857Y-74234819D01*
X56192857Y-74234819D02*
X56811904Y-74234819D01*
D11*
%TO.C,G\u002A\u002A\u002A*%
X82810000Y-74340000D02*
X84135000Y-74815000D01*
X82810000Y-74340000D02*
X85710000Y-73865000D01*
X82810000Y-74340000D02*
X86710000Y-70165000D01*
X84135000Y-74815000D02*
X84960000Y-74465000D01*
X85210000Y-74865000D02*
X85785000Y-74065000D01*
X85485000Y-74490000D02*
X82810000Y-74340000D01*
X85710000Y-73865000D02*
X85485000Y-74490000D01*
X85760000Y-74590000D02*
X85210000Y-74865000D01*
D12*
X85760000Y-74690000D02*
X85760000Y-73990000D01*
X86260000Y-73990000D02*
X86260000Y-74690000D01*
D11*
X86310000Y-73840000D02*
X86635000Y-74240000D01*
X86635000Y-74240000D02*
X86260000Y-74415000D01*
X86710000Y-70165000D02*
X87735000Y-69915000D01*
X86710000Y-70165000D02*
X88460000Y-71490000D01*
D12*
X86960000Y-73990000D02*
X86960000Y-74640000D01*
D11*
X87160000Y-73315000D02*
X94260000Y-68715000D01*
D12*
X87460000Y-73990000D02*
X87460000Y-74690000D01*
D11*
X87735000Y-69915000D02*
X88460000Y-71490000D01*
X87835000Y-70090000D02*
X89410000Y-70990000D01*
D12*
X87860000Y-75590000D02*
X89060000Y-75590000D01*
X87910000Y-73140000D02*
X87860000Y-75590000D01*
X88410000Y-73540000D02*
X88660000Y-73540000D01*
X88410000Y-73590000D02*
X88410000Y-74040000D01*
X88410000Y-74040000D02*
X88710000Y-74040000D01*
X88410000Y-74540000D02*
X88410000Y-75040000D01*
X88410000Y-75040000D02*
X88860000Y-75040000D01*
X88410001Y-74535050D02*
X88810001Y-74535050D01*
D11*
X88460000Y-71490000D02*
X82810000Y-74340000D01*
X88460000Y-71490000D02*
X86985000Y-73215000D01*
D12*
X88810000Y-73153605D02*
X87910000Y-73140000D01*
X89910000Y-75590000D02*
X90010000Y-75590000D01*
X89960000Y-73140000D02*
X89910000Y-75590000D01*
X90010000Y-75590000D02*
X91260000Y-75590000D01*
D11*
X90035000Y-68915000D02*
X87835000Y-70090000D01*
X90035000Y-68915000D02*
X90785000Y-70340000D01*
X90385000Y-73115000D02*
X91160000Y-72515000D01*
D12*
X90410000Y-73640000D02*
X91260000Y-73640000D01*
X90410000Y-74090000D02*
X90410000Y-73640000D01*
X90410000Y-74540000D02*
X91060000Y-74540000D01*
X90410000Y-75090000D02*
X90410000Y-74540000D01*
D11*
X90785000Y-70340000D02*
X88460000Y-71490000D01*
X90785000Y-70340000D02*
X94260000Y-68715000D01*
X91035000Y-72340000D02*
X89210000Y-73240000D01*
D12*
X91060000Y-74090000D02*
X90410000Y-74090000D01*
X91060000Y-74540000D02*
X91060000Y-74090000D01*
D11*
X91160000Y-72515000D02*
X91560000Y-72790000D01*
D12*
X91260000Y-73140000D02*
X89960000Y-73140000D01*
X91260000Y-73640000D02*
X91260000Y-73140000D01*
X91260000Y-75090000D02*
X90410000Y-75090000D01*
X91260000Y-75590000D02*
X91260000Y-75090000D01*
D11*
X91560000Y-72790000D02*
X90585000Y-73140000D01*
D12*
X91710000Y-73140000D02*
X91710000Y-75590000D01*
X91710000Y-75590000D02*
X92160000Y-75590000D01*
X92160000Y-74640000D02*
X92310000Y-74640000D01*
X92160000Y-75590000D02*
X92160000Y-74640000D01*
X92210000Y-73590000D02*
X92210000Y-74140000D01*
X92210000Y-74140000D02*
X92710000Y-74140000D01*
X92310000Y-74640000D02*
X93060000Y-75590000D01*
X92660000Y-73590000D02*
X92210000Y-73590000D01*
D11*
X92710000Y-72565000D02*
X91035000Y-72340000D01*
D12*
X92818731Y-73134594D02*
X91710000Y-73140000D01*
X93060000Y-75590000D02*
X93460000Y-75590000D01*
D11*
X93160000Y-70340000D02*
X93735000Y-71840000D01*
D12*
X93460000Y-75590000D02*
X93560000Y-75590000D01*
X93560000Y-75590000D02*
X92860000Y-74640000D01*
X93735000Y-75590000D02*
X93760000Y-73140000D01*
X93760000Y-73140000D02*
X94210000Y-73140000D01*
X94210000Y-73140000D02*
X94235000Y-75140000D01*
X94235000Y-75140000D02*
X94985000Y-75140000D01*
D11*
X94260000Y-68715000D02*
X94335000Y-71440000D01*
X94285000Y-69115000D02*
X93160000Y-70340000D01*
X94335000Y-71440000D02*
X92710000Y-72565000D01*
X94485000Y-71890000D02*
X95485000Y-71215000D01*
D12*
X94985000Y-75140000D02*
X94985000Y-75590000D01*
X94985000Y-75590000D02*
X93735000Y-75590000D01*
D11*
X95485000Y-71215000D02*
X96185000Y-71790000D01*
X95610000Y-69740000D02*
X97760000Y-70865000D01*
D12*
X95660000Y-75615000D02*
X95160000Y-75615000D01*
X95660000Y-75615000D02*
X95910000Y-75015000D01*
X95910000Y-75015000D02*
X96510000Y-75015000D01*
X95935000Y-74615000D02*
X96435000Y-74615000D01*
X96060000Y-73165000D02*
X95160000Y-75615000D01*
D11*
X96185000Y-71790000D02*
X94510000Y-71890000D01*
D12*
X96210000Y-73865000D02*
X95935000Y-74615000D01*
X96385000Y-73165000D02*
X96060000Y-73165000D01*
X96435000Y-74615000D02*
X96210000Y-73865000D01*
X96510000Y-75015000D02*
X96760000Y-75615000D01*
X96760000Y-75615000D02*
X97160000Y-75615000D01*
X97160000Y-75615000D02*
X96385000Y-73165000D01*
D11*
X97410000Y-69690000D02*
X95610000Y-69740000D01*
D12*
X97435000Y-75615000D02*
X98635000Y-75615000D01*
X97485000Y-73165000D02*
X97435000Y-75615000D01*
D11*
X97760000Y-70865000D02*
X97410000Y-69690000D01*
D12*
X97985000Y-73565000D02*
X98235000Y-73565000D01*
X97985000Y-73615000D02*
X97985000Y-74065000D01*
X97985000Y-74065000D02*
X98285000Y-74065000D01*
X97985000Y-74565000D02*
X97985000Y-75065000D01*
X97985000Y-75065000D02*
X98435000Y-75065000D01*
X97985001Y-74560050D02*
X98385001Y-74560050D01*
X98385000Y-73178605D02*
X97485000Y-73165000D01*
D11*
X98710000Y-71740000D02*
X99710000Y-71590000D01*
X99135000Y-72065000D02*
X98710000Y-71740000D01*
X99710000Y-71590000D02*
X99135000Y-72065000D01*
D12*
X87460000Y-73990000D02*
G75*
G03*
X85760000Y-73990000I-850000J0D01*
G01*
X86960000Y-73990000D02*
G75*
G03*
X86260000Y-73990000I-350000J0D01*
G01*
X86260000Y-74690000D02*
G75*
G03*
X86960000Y-74690000I350000J0D01*
G01*
X85760000Y-74690000D02*
G75*
G03*
X87460000Y-74690000I850000J0D01*
G01*
X88710000Y-74040000D02*
G75*
G03*
X88649366Y-73547464I0J250000D01*
G01*
X89259999Y-74239999D02*
G75*
G03*
X88810000Y-73153605I-449999J449999D01*
G01*
X88859999Y-75039999D02*
G75*
G03*
X88810001Y-74535050I-49999J249999D01*
G01*
X89059999Y-75589998D02*
G75*
G03*
X89236256Y-74281064I-249998J699998D01*
G01*
X92709999Y-74139998D02*
G75*
G03*
X92709999Y-73590002I-124999J274998D01*
G01*
X92834999Y-74589998D02*
G75*
G03*
X92818731Y-73134595I-249999J724998D01*
G01*
X98285000Y-74065000D02*
G75*
G03*
X98224366Y-73572464I0J250000D01*
G01*
X98834999Y-74264999D02*
G75*
G03*
X98385000Y-73178605I-449999J449999D01*
G01*
X98434999Y-75064999D02*
G75*
G03*
X98385001Y-74560050I-49999J249999D01*
G01*
X98634999Y-75614999D02*
G75*
G03*
X98811256Y-74306063I-249999J699999D01*
G01*
D11*
X28500000Y-74420000D02*
X29825000Y-74895000D01*
X28500000Y-74420000D02*
X31400000Y-73945000D01*
X28500000Y-74420000D02*
X32400000Y-70245000D01*
X29825000Y-74895000D02*
X30650000Y-74545000D01*
X30900000Y-74945000D02*
X31475000Y-74145000D01*
X31175000Y-74570000D02*
X28500000Y-74420000D01*
X31400000Y-73945000D02*
X31175000Y-74570000D01*
X31450000Y-74670000D02*
X30900000Y-74945000D01*
D12*
X31450000Y-74770000D02*
X31450000Y-74070000D01*
X31950000Y-74070000D02*
X31950000Y-74770000D01*
D11*
X32000000Y-73920000D02*
X32325000Y-74320000D01*
X32325000Y-74320000D02*
X31950000Y-74495000D01*
X32400000Y-70245000D02*
X33425000Y-69995000D01*
X32400000Y-70245000D02*
X34150000Y-71570000D01*
D12*
X32650000Y-74070000D02*
X32650000Y-74720000D01*
D11*
X32850000Y-73395000D02*
X39950000Y-68795000D01*
D12*
X33150000Y-74070000D02*
X33150000Y-74770000D01*
D11*
X33425000Y-69995000D02*
X34150000Y-71570000D01*
X33525000Y-70170000D02*
X35100000Y-71070000D01*
D12*
X33550000Y-75670000D02*
X34750000Y-75670000D01*
X33600000Y-73220000D02*
X33550000Y-75670000D01*
X34100000Y-73620000D02*
X34350000Y-73620000D01*
X34100000Y-73670000D02*
X34100000Y-74120000D01*
X34100000Y-74120000D02*
X34400000Y-74120000D01*
X34100000Y-74620000D02*
X34100000Y-75120000D01*
X34100000Y-75120000D02*
X34550000Y-75120000D01*
X34100001Y-74615050D02*
X34500001Y-74615050D01*
D11*
X34150000Y-71570000D02*
X28500000Y-74420000D01*
X34150000Y-71570000D02*
X32675000Y-73295000D01*
D12*
X34500000Y-73233605D02*
X33600000Y-73220000D01*
X35600000Y-75670000D02*
X35700000Y-75670000D01*
X35650000Y-73220000D02*
X35600000Y-75670000D01*
X35700000Y-75670000D02*
X36950000Y-75670000D01*
D11*
X35725000Y-68995000D02*
X33525000Y-70170000D01*
X35725000Y-68995000D02*
X36475000Y-70420000D01*
X36075000Y-73195000D02*
X36850000Y-72595000D01*
D12*
X36100000Y-73720000D02*
X36950000Y-73720000D01*
X36100000Y-74170000D02*
X36100000Y-73720000D01*
X36100000Y-74620000D02*
X36750000Y-74620000D01*
X36100000Y-75170000D02*
X36100000Y-74620000D01*
D11*
X36475000Y-70420000D02*
X34150000Y-71570000D01*
X36475000Y-70420000D02*
X39950000Y-68795000D01*
X36725000Y-72420000D02*
X34900000Y-73320000D01*
D12*
X36750000Y-74170000D02*
X36100000Y-74170000D01*
X36750000Y-74620000D02*
X36750000Y-74170000D01*
D11*
X36850000Y-72595000D02*
X37250000Y-72870000D01*
D12*
X36950000Y-73220000D02*
X35650000Y-73220000D01*
X36950000Y-73720000D02*
X36950000Y-73220000D01*
X36950000Y-75170000D02*
X36100000Y-75170000D01*
X36950000Y-75670000D02*
X36950000Y-75170000D01*
D11*
X37250000Y-72870000D02*
X36275000Y-73220000D01*
D12*
X37400000Y-73220000D02*
X37400000Y-75670000D01*
X37400000Y-75670000D02*
X37850000Y-75670000D01*
X37850000Y-74720000D02*
X38000000Y-74720000D01*
X37850000Y-75670000D02*
X37850000Y-74720000D01*
X37900000Y-73670000D02*
X37900000Y-74220000D01*
X37900000Y-74220000D02*
X38400000Y-74220000D01*
X38000000Y-74720000D02*
X38750000Y-75670000D01*
X38350000Y-73670000D02*
X37900000Y-73670000D01*
D11*
X38400000Y-72645000D02*
X36725000Y-72420000D01*
D12*
X38508731Y-73214594D02*
X37400000Y-73220000D01*
X38750000Y-75670000D02*
X39150000Y-75670000D01*
D11*
X38850000Y-70420000D02*
X39425000Y-71920000D01*
D12*
X39150000Y-75670000D02*
X39250000Y-75670000D01*
X39250000Y-75670000D02*
X38550000Y-74720000D01*
X39425000Y-75670000D02*
X39450000Y-73220000D01*
X39450000Y-73220000D02*
X39900000Y-73220000D01*
X39900000Y-73220000D02*
X39925000Y-75220000D01*
X39925000Y-75220000D02*
X40675000Y-75220000D01*
D11*
X39950000Y-68795000D02*
X40025000Y-71520000D01*
X39975000Y-69195000D02*
X38850000Y-70420000D01*
X40025000Y-71520000D02*
X38400000Y-72645000D01*
X40175000Y-71970000D02*
X41175000Y-71295000D01*
D12*
X40675000Y-75220000D02*
X40675000Y-75670000D01*
X40675000Y-75670000D02*
X39425000Y-75670000D01*
D11*
X41175000Y-71295000D02*
X41875000Y-71870000D01*
X41300000Y-69820000D02*
X43450000Y-70945000D01*
D12*
X41350000Y-75695000D02*
X40850000Y-75695000D01*
X41350000Y-75695000D02*
X41600000Y-75095000D01*
X41600000Y-75095000D02*
X42200000Y-75095000D01*
X41625000Y-74695000D02*
X42125000Y-74695000D01*
X41750000Y-73245000D02*
X40850000Y-75695000D01*
D11*
X41875000Y-71870000D02*
X40200000Y-71970000D01*
D12*
X41900000Y-73945000D02*
X41625000Y-74695000D01*
X42075000Y-73245000D02*
X41750000Y-73245000D01*
X42125000Y-74695000D02*
X41900000Y-73945000D01*
X42200000Y-75095000D02*
X42450000Y-75695000D01*
X42450000Y-75695000D02*
X42850000Y-75695000D01*
X42850000Y-75695000D02*
X42075000Y-73245000D01*
D11*
X43100000Y-69770000D02*
X41300000Y-69820000D01*
D12*
X43125000Y-75695000D02*
X44325000Y-75695000D01*
X43175000Y-73245000D02*
X43125000Y-75695000D01*
D11*
X43450000Y-70945000D02*
X43100000Y-69770000D01*
D12*
X43675000Y-73645000D02*
X43925000Y-73645000D01*
X43675000Y-73695000D02*
X43675000Y-74145000D01*
X43675000Y-74145000D02*
X43975000Y-74145000D01*
X43675000Y-74645000D02*
X43675000Y-75145000D01*
X43675000Y-75145000D02*
X44125000Y-75145000D01*
X43675001Y-74640050D02*
X44075001Y-74640050D01*
X44075000Y-73258605D02*
X43175000Y-73245000D01*
D11*
X44400000Y-71820000D02*
X45400000Y-71670000D01*
X44825000Y-72145000D02*
X44400000Y-71820000D01*
X45400000Y-71670000D02*
X44825000Y-72145000D01*
D12*
X33150000Y-74070000D02*
G75*
G03*
X31450000Y-74070000I-850000J0D01*
G01*
X32650000Y-74070000D02*
G75*
G03*
X31950000Y-74070000I-350000J0D01*
G01*
X31950000Y-74770000D02*
G75*
G03*
X32650000Y-74770000I350000J0D01*
G01*
X31450000Y-74770000D02*
G75*
G03*
X33150000Y-74770000I850000J0D01*
G01*
X34400000Y-74120000D02*
G75*
G03*
X34339366Y-73627464I0J250000D01*
G01*
X34949999Y-74319999D02*
G75*
G03*
X34500000Y-73233605I-449999J449999D01*
G01*
X34549999Y-75119999D02*
G75*
G03*
X34500001Y-74615050I-49999J249999D01*
G01*
X34749999Y-75669998D02*
G75*
G03*
X34926256Y-74361064I-249998J699998D01*
G01*
X38399999Y-74219998D02*
G75*
G03*
X38399999Y-73670002I-124999J274998D01*
G01*
X38524999Y-74669998D02*
G75*
G03*
X38508731Y-73214595I-249999J724998D01*
G01*
X43975000Y-74145000D02*
G75*
G03*
X43914366Y-73652464I0J250000D01*
G01*
X44524999Y-74344999D02*
G75*
G03*
X44075000Y-73258605I-449999J449999D01*
G01*
X44124999Y-75144999D02*
G75*
G03*
X44075001Y-74640050I-49999J249999D01*
G01*
X44324999Y-75694999D02*
G75*
G03*
X44501256Y-74386063I-249999J699999D01*
G01*
D13*
X23541265Y-125650525D02*
X23498764Y-125756336D01*
X23313638Y-125917164D01*
X22992679Y-126125511D01*
X22638098Y-126327282D01*
X22402674Y-126436863D01*
X22267465Y-126460052D01*
X22213528Y-126402648D01*
X22210341Y-126365000D01*
X22278678Y-126281695D01*
X22454562Y-126146640D01*
X22695328Y-125986247D01*
X22958309Y-125826930D01*
X23200840Y-125695101D01*
X23380255Y-125617174D01*
X23435150Y-125606758D01*
X23541265Y-125650525D01*
G36*
X23541265Y-125650525D02*
G01*
X23498764Y-125756336D01*
X23313638Y-125917164D01*
X22992679Y-126125511D01*
X22638098Y-126327282D01*
X22402674Y-126436863D01*
X22267465Y-126460052D01*
X22213528Y-126402648D01*
X22210341Y-126365000D01*
X22278678Y-126281695D01*
X22454562Y-126146640D01*
X22695328Y-125986247D01*
X22958309Y-125826930D01*
X23200840Y-125695101D01*
X23380255Y-125617174D01*
X23435150Y-125606758D01*
X23541265Y-125650525D01*
G37*
X63548093Y-44967558D02*
X63586953Y-45079400D01*
X63606386Y-45301860D01*
X63611600Y-45656500D01*
X63606177Y-46016295D01*
X63586441Y-46236502D01*
X63547183Y-46346623D01*
X63484600Y-46376166D01*
X63421106Y-46345441D01*
X63382246Y-46233599D01*
X63362813Y-46011139D01*
X63357600Y-45656500D01*
X63363022Y-45296704D01*
X63382758Y-45076497D01*
X63422016Y-44966376D01*
X63484600Y-44936833D01*
X63548093Y-44967558D01*
G36*
X63548093Y-44967558D02*
G01*
X63586953Y-45079400D01*
X63606386Y-45301860D01*
X63611600Y-45656500D01*
X63606177Y-46016295D01*
X63586441Y-46236502D01*
X63547183Y-46346623D01*
X63484600Y-46376166D01*
X63421106Y-46345441D01*
X63382246Y-46233599D01*
X63362813Y-46011139D01*
X63357600Y-45656500D01*
X63363022Y-45296704D01*
X63382758Y-45076497D01*
X63422016Y-44966376D01*
X63484600Y-44936833D01*
X63548093Y-44967558D01*
G37*
X65664759Y-44967558D02*
X65703620Y-45079400D01*
X65723053Y-45301860D01*
X65728266Y-45656500D01*
X65722844Y-46016295D01*
X65703107Y-46236502D01*
X65663850Y-46346623D01*
X65601266Y-46376166D01*
X65537773Y-46345441D01*
X65498913Y-46233599D01*
X65479480Y-46011139D01*
X65474266Y-45656500D01*
X65479688Y-45296704D01*
X65499425Y-45076497D01*
X65538683Y-44966376D01*
X65601266Y-44936833D01*
X65664759Y-44967558D01*
G36*
X65664759Y-44967558D02*
G01*
X65703620Y-45079400D01*
X65723053Y-45301860D01*
X65728266Y-45656500D01*
X65722844Y-46016295D01*
X65703107Y-46236502D01*
X65663850Y-46346623D01*
X65601266Y-46376166D01*
X65537773Y-46345441D01*
X65498913Y-46233599D01*
X65479480Y-46011139D01*
X65474266Y-45656500D01*
X65479688Y-45296704D01*
X65499425Y-45076497D01*
X65538683Y-44966376D01*
X65601266Y-44936833D01*
X65664759Y-44967558D01*
G37*
X105161280Y-127118009D02*
X105379251Y-127200484D01*
X105643525Y-127326743D01*
X105910355Y-127473321D01*
X106135991Y-127616758D01*
X106276686Y-127733590D01*
X106301998Y-127783166D01*
X106239821Y-127868861D01*
X106076354Y-127852871D01*
X105800753Y-127732526D01*
X105563933Y-127601498D01*
X105236901Y-127406714D01*
X105041262Y-127275135D01*
X104959160Y-127189976D01*
X104972739Y-127134454D01*
X105033359Y-127102780D01*
X105161280Y-127118009D01*
G36*
X105161280Y-127118009D02*
G01*
X105379251Y-127200484D01*
X105643525Y-127326743D01*
X105910355Y-127473321D01*
X106135991Y-127616758D01*
X106276686Y-127733590D01*
X106301998Y-127783166D01*
X106239821Y-127868861D01*
X106076354Y-127852871D01*
X105800753Y-127732526D01*
X105563933Y-127601498D01*
X105236901Y-127406714D01*
X105041262Y-127275135D01*
X104959160Y-127189976D01*
X104972739Y-127134454D01*
X105033359Y-127102780D01*
X105161280Y-127118009D01*
G37*
X98429526Y-120953580D02*
X98646938Y-121049618D01*
X98930319Y-121199967D01*
X99215287Y-121368687D01*
X99431624Y-121519709D01*
X99544201Y-121627635D01*
X99552600Y-121649906D01*
X99496089Y-121766069D01*
X99345654Y-121761651D01*
X99213933Y-121694215D01*
X99047355Y-121592258D01*
X98797009Y-121446284D01*
X98604465Y-121337034D01*
X98348734Y-121177805D01*
X98233521Y-121060418D01*
X98236184Y-120974104D01*
X98302034Y-120931476D01*
X98429526Y-120953580D01*
G36*
X98429526Y-120953580D02*
G01*
X98646938Y-121049618D01*
X98930319Y-121199967D01*
X99215287Y-121368687D01*
X99431624Y-121519709D01*
X99544201Y-121627635D01*
X99552600Y-121649906D01*
X99496089Y-121766069D01*
X99345654Y-121761651D01*
X99213933Y-121694215D01*
X99047355Y-121592258D01*
X98797009Y-121446284D01*
X98604465Y-121337034D01*
X98348734Y-121177805D01*
X98233521Y-121060418D01*
X98236184Y-120974104D01*
X98302034Y-120931476D01*
X98429526Y-120953580D01*
G37*
X106172314Y-125256552D02*
X106394432Y-125336878D01*
X106673872Y-125459190D01*
X106965588Y-125602819D01*
X107224535Y-125747093D01*
X107370860Y-125843824D01*
X107360879Y-125923761D01*
X107328527Y-125991077D01*
X107268965Y-126042655D01*
X107159343Y-126032239D01*
X106968097Y-125950351D01*
X106679230Y-125796157D01*
X106317442Y-125590108D01*
X106091476Y-125444950D01*
X105985374Y-125346492D01*
X105983179Y-125280544D01*
X106052563Y-125238883D01*
X106172314Y-125256552D01*
G36*
X106172314Y-125256552D02*
G01*
X106394432Y-125336878D01*
X106673872Y-125459190D01*
X106965588Y-125602819D01*
X107224535Y-125747093D01*
X107370860Y-125843824D01*
X107360879Y-125923761D01*
X107328527Y-125991077D01*
X107268965Y-126042655D01*
X107159343Y-126032239D01*
X106968097Y-125950351D01*
X106679230Y-125796157D01*
X106317442Y-125590108D01*
X106091476Y-125444950D01*
X105985374Y-125346492D01*
X105983179Y-125280544D01*
X106052563Y-125238883D01*
X106172314Y-125256552D01*
G37*
X112950676Y-131393285D02*
X113166802Y-131485217D01*
X113491050Y-131651628D01*
X113853881Y-131859071D01*
X114062949Y-132014618D01*
X114123758Y-132123893D01*
X114041809Y-132192516D01*
X114025308Y-132197547D01*
X113919200Y-132169131D01*
X113706880Y-132073935D01*
X113428436Y-131930444D01*
X113336781Y-131880062D01*
X113003466Y-131679510D01*
X112818598Y-131530750D01*
X112772261Y-131425623D01*
X112774690Y-131417645D01*
X112828484Y-131373541D01*
X112950676Y-131393285D01*
G36*
X112950676Y-131393285D02*
G01*
X113166802Y-131485217D01*
X113491050Y-131651628D01*
X113853881Y-131859071D01*
X114062949Y-132014618D01*
X114123758Y-132123893D01*
X114041809Y-132192516D01*
X114025308Y-132197547D01*
X113919200Y-132169131D01*
X113706880Y-132073935D01*
X113428436Y-131930444D01*
X113336781Y-131880062D01*
X113003466Y-131679510D01*
X112818598Y-131530750D01*
X112772261Y-131425623D01*
X112774690Y-131417645D01*
X112828484Y-131373541D01*
X112950676Y-131393285D01*
G37*
X114206595Y-129608043D02*
X114522443Y-129781939D01*
X114806133Y-129952386D01*
X115023386Y-130098327D01*
X115139926Y-130198705D01*
X115150170Y-130224120D01*
X115095375Y-130306931D01*
X114989865Y-130321089D01*
X114807037Y-130259947D01*
X114520286Y-130116857D01*
X114351202Y-130024486D01*
X114027650Y-129832792D01*
X113844435Y-129691263D01*
X113785084Y-129586154D01*
X113790134Y-129556428D01*
X113859583Y-129456867D01*
X113892864Y-129451754D01*
X114206595Y-129608043D01*
G36*
X114206595Y-129608043D02*
G01*
X114522443Y-129781939D01*
X114806133Y-129952386D01*
X115023386Y-130098327D01*
X115139926Y-130198705D01*
X115150170Y-130224120D01*
X115095375Y-130306931D01*
X114989865Y-130321089D01*
X114807037Y-130259947D01*
X114520286Y-130116857D01*
X114351202Y-130024486D01*
X114027650Y-129832792D01*
X113844435Y-129691263D01*
X113785084Y-129586154D01*
X113790134Y-129556428D01*
X113859583Y-129456867D01*
X113892864Y-129451754D01*
X114206595Y-129608043D01*
G37*
X16955098Y-131936021D02*
X16988362Y-132009927D01*
X16939703Y-132111335D01*
X16750870Y-132273216D01*
X16435754Y-132485770D01*
X16008242Y-132739194D01*
X15762638Y-132874944D01*
X15690066Y-132837366D01*
X15661837Y-132784203D01*
X15644906Y-132711803D01*
X15672480Y-132642464D01*
X15768908Y-132555082D01*
X15958536Y-132428553D01*
X16265711Y-132241774D01*
X16336341Y-132199543D01*
X16627659Y-132027174D01*
X16806164Y-131932115D01*
X16904448Y-131904890D01*
X16955098Y-131936021D01*
G36*
X16955098Y-131936021D02*
G01*
X16988362Y-132009927D01*
X16939703Y-132111335D01*
X16750870Y-132273216D01*
X16435754Y-132485770D01*
X16008242Y-132739194D01*
X15762638Y-132874944D01*
X15690066Y-132837366D01*
X15661837Y-132784203D01*
X15644906Y-132711803D01*
X15672480Y-132642464D01*
X15768908Y-132555082D01*
X15958536Y-132428553D01*
X16265711Y-132241774D01*
X16336341Y-132199543D01*
X16627659Y-132027174D01*
X16806164Y-131932115D01*
X16904448Y-131904890D01*
X16955098Y-131936021D01*
G37*
X31190947Y-121090548D02*
X31222386Y-121130016D01*
X31172279Y-121195384D01*
X31015508Y-121322670D01*
X30790223Y-121486029D01*
X30534575Y-121659613D01*
X30286714Y-121817575D01*
X30084789Y-121934068D01*
X29966951Y-121983245D01*
X29962655Y-121983500D01*
X29910458Y-121917720D01*
X29886170Y-121863072D01*
X29928059Y-121752787D01*
X30121272Y-121589135D01*
X30421081Y-121397405D01*
X30753780Y-121205403D01*
X30973757Y-121096678D01*
X31109862Y-121061602D01*
X31190947Y-121090548D01*
G36*
X31190947Y-121090548D02*
G01*
X31222386Y-121130016D01*
X31172279Y-121195384D01*
X31015508Y-121322670D01*
X30790223Y-121486029D01*
X30534575Y-121659613D01*
X30286714Y-121817575D01*
X30084789Y-121934068D01*
X29966951Y-121983245D01*
X29962655Y-121983500D01*
X29910458Y-121917720D01*
X29886170Y-121863072D01*
X29928059Y-121752787D01*
X30121272Y-121589135D01*
X30421081Y-121397405D01*
X30753780Y-121205403D01*
X30973757Y-121096678D01*
X31109862Y-121061602D01*
X31190947Y-121090548D01*
G37*
X15858976Y-130153447D02*
X15912444Y-130209338D01*
X15886827Y-130281433D01*
X15763270Y-130387165D01*
X15522920Y-130543968D01*
X15274825Y-130693610D01*
X14965084Y-130876583D01*
X14770634Y-130983809D01*
X14660960Y-131025649D01*
X14605549Y-131012466D01*
X14573886Y-130954622D01*
X14566072Y-130934308D01*
X14614455Y-130846366D01*
X14775374Y-130709910D01*
X15008508Y-130549293D01*
X15273539Y-130388865D01*
X15530146Y-130252978D01*
X15738011Y-130165984D01*
X15856813Y-130152233D01*
X15858976Y-130153447D01*
G36*
X15858976Y-130153447D02*
G01*
X15912444Y-130209338D01*
X15886827Y-130281433D01*
X15763270Y-130387165D01*
X15522920Y-130543968D01*
X15274825Y-130693610D01*
X14965084Y-130876583D01*
X14770634Y-130983809D01*
X14660960Y-131025649D01*
X14605549Y-131012466D01*
X14573886Y-130954622D01*
X14566072Y-130934308D01*
X14614455Y-130846366D01*
X14775374Y-130709910D01*
X15008508Y-130549293D01*
X15273539Y-130388865D01*
X15530146Y-130252978D01*
X15738011Y-130165984D01*
X15856813Y-130152233D01*
X15858976Y-130153447D01*
G37*
X24576438Y-127442133D02*
X24646684Y-127507767D01*
X24631614Y-127584448D01*
X24513292Y-127690096D01*
X24273779Y-127842631D01*
X24040084Y-127977987D01*
X23716646Y-128160979D01*
X23510565Y-128270096D01*
X23391820Y-128314850D01*
X23330391Y-128304757D01*
X23296258Y-128249330D01*
X23283921Y-128217634D01*
X23331409Y-128127237D01*
X23491957Y-127989586D01*
X23725133Y-127828938D01*
X23990504Y-127669553D01*
X24247640Y-127535690D01*
X24456108Y-127451606D01*
X24575476Y-127441562D01*
X24576438Y-127442133D01*
G36*
X24576438Y-127442133D02*
G01*
X24646684Y-127507767D01*
X24631614Y-127584448D01*
X24513292Y-127690096D01*
X24273779Y-127842631D01*
X24040084Y-127977987D01*
X23716646Y-128160979D01*
X23510565Y-128270096D01*
X23391820Y-128314850D01*
X23330391Y-128304757D01*
X23296258Y-128249330D01*
X23283921Y-128217634D01*
X23331409Y-128127237D01*
X23491957Y-127989586D01*
X23725133Y-127828938D01*
X23990504Y-127669553D01*
X24247640Y-127535690D01*
X24456108Y-127451606D01*
X24575476Y-127441562D01*
X24576438Y-127442133D01*
G37*
X63271743Y-44347701D02*
X63474001Y-44363984D01*
X63575102Y-44401530D01*
X63609107Y-44468853D01*
X63611600Y-44513500D01*
X63561991Y-44646284D01*
X63399933Y-44682833D01*
X63188266Y-44682833D01*
X63188266Y-46630166D01*
X63399933Y-46630166D01*
X63570171Y-46674327D01*
X63611600Y-46757166D01*
X63579697Y-46822329D01*
X63463944Y-46861435D01*
X63234274Y-46880123D01*
X62934266Y-46884166D01*
X62256933Y-46884166D01*
X62256933Y-44344166D01*
X62934266Y-44344166D01*
X63271743Y-44347701D01*
G36*
X63271743Y-44347701D02*
G01*
X63474001Y-44363984D01*
X63575102Y-44401530D01*
X63609107Y-44468853D01*
X63611600Y-44513500D01*
X63561991Y-44646284D01*
X63399933Y-44682833D01*
X63188266Y-44682833D01*
X63188266Y-46630166D01*
X63399933Y-46630166D01*
X63570171Y-46674327D01*
X63611600Y-46757166D01*
X63579697Y-46822329D01*
X63463944Y-46861435D01*
X63234274Y-46880123D01*
X62934266Y-46884166D01*
X62256933Y-46884166D01*
X62256933Y-44344166D01*
X62934266Y-44344166D01*
X63271743Y-44347701D01*
G37*
X66828933Y-46968833D02*
X66151600Y-46968833D01*
X65814123Y-46965298D01*
X65611865Y-46949015D01*
X65510764Y-46911469D01*
X65476759Y-46844146D01*
X65474266Y-46799500D01*
X65523875Y-46666715D01*
X65685933Y-46630166D01*
X65897600Y-46630166D01*
X65897600Y-44682833D01*
X65685933Y-44682833D01*
X65515694Y-44638672D01*
X65474266Y-44555833D01*
X65506169Y-44490670D01*
X65621922Y-44451564D01*
X65851591Y-44432876D01*
X66151600Y-44428833D01*
X66828933Y-44428833D01*
X66828933Y-46968833D01*
G36*
X66828933Y-46968833D02*
G01*
X66151600Y-46968833D01*
X65814123Y-46965298D01*
X65611865Y-46949015D01*
X65510764Y-46911469D01*
X65476759Y-46844146D01*
X65474266Y-46799500D01*
X65523875Y-46666715D01*
X65685933Y-46630166D01*
X65897600Y-46630166D01*
X65897600Y-44682833D01*
X65685933Y-44682833D01*
X65515694Y-44638672D01*
X65474266Y-44555833D01*
X65506169Y-44490670D01*
X65621922Y-44451564D01*
X65851591Y-44432876D01*
X66151600Y-44428833D01*
X66828933Y-44428833D01*
X66828933Y-46968833D01*
G37*
X32229024Y-122909724D02*
X32270824Y-122997208D01*
X32213912Y-123100269D01*
X32040846Y-123235847D01*
X31734184Y-123420883D01*
X31659241Y-123463104D01*
X31359783Y-123628487D01*
X31173873Y-123720415D01*
X31067813Y-123749048D01*
X31007903Y-123724549D01*
X30969118Y-123671200D01*
X30938769Y-123624830D01*
X30935473Y-123586795D01*
X30984408Y-123536464D01*
X31110752Y-123453205D01*
X31339682Y-123316386D01*
X31563301Y-123184298D01*
X31863406Y-123020651D01*
X32093012Y-122922804D01*
X32219921Y-122904036D01*
X32229024Y-122909724D01*
G36*
X32229024Y-122909724D02*
G01*
X32270824Y-122997208D01*
X32213912Y-123100269D01*
X32040846Y-123235847D01*
X31734184Y-123420883D01*
X31659241Y-123463104D01*
X31359783Y-123628487D01*
X31173873Y-123720415D01*
X31067813Y-123749048D01*
X31007903Y-123724549D01*
X30969118Y-123671200D01*
X30938769Y-123624830D01*
X30935473Y-123586795D01*
X30984408Y-123536464D01*
X31110752Y-123453205D01*
X31339682Y-123316386D01*
X31563301Y-123184298D01*
X31863406Y-123020651D01*
X32093012Y-122922804D01*
X32219921Y-122904036D01*
X32229024Y-122909724D01*
G37*
X63546558Y-53856528D02*
X63585151Y-53964905D01*
X63605201Y-54180903D01*
X63611533Y-54533458D01*
X63611600Y-54588833D01*
X63606650Y-54960583D01*
X63588587Y-55192140D01*
X63552588Y-55312444D01*
X63493829Y-55350431D01*
X63484600Y-55350833D01*
X63422641Y-55321138D01*
X63384048Y-55212760D01*
X63363998Y-54996763D01*
X63357666Y-54644207D01*
X63357600Y-54588833D01*
X63362549Y-54217083D01*
X63380612Y-53985525D01*
X63416611Y-53865222D01*
X63475370Y-53827235D01*
X63484600Y-53826833D01*
X63546558Y-53856528D01*
G36*
X63546558Y-53856528D02*
G01*
X63585151Y-53964905D01*
X63605201Y-54180903D01*
X63611533Y-54533458D01*
X63611600Y-54588833D01*
X63606650Y-54960583D01*
X63588587Y-55192140D01*
X63552588Y-55312444D01*
X63493829Y-55350431D01*
X63484600Y-55350833D01*
X63422641Y-55321138D01*
X63384048Y-55212760D01*
X63363998Y-54996763D01*
X63357666Y-54644207D01*
X63357600Y-54588833D01*
X63362549Y-54217083D01*
X63380612Y-53985525D01*
X63416611Y-53865222D01*
X63475370Y-53827235D01*
X63484600Y-53826833D01*
X63546558Y-53856528D01*
G37*
X63546558Y-62746528D02*
X63585151Y-62854905D01*
X63605201Y-63070903D01*
X63611533Y-63423458D01*
X63611600Y-63478833D01*
X63606650Y-63850583D01*
X63588587Y-64082140D01*
X63552588Y-64202444D01*
X63493829Y-64240431D01*
X63484600Y-64240833D01*
X63422641Y-64211138D01*
X63384048Y-64102760D01*
X63363998Y-63886763D01*
X63357666Y-63534207D01*
X63357600Y-63478833D01*
X63362549Y-63107083D01*
X63380612Y-62875525D01*
X63416611Y-62755222D01*
X63475370Y-62717235D01*
X63484600Y-62716833D01*
X63546558Y-62746528D01*
G36*
X63546558Y-62746528D02*
G01*
X63585151Y-62854905D01*
X63605201Y-63070903D01*
X63611533Y-63423458D01*
X63611600Y-63478833D01*
X63606650Y-63850583D01*
X63588587Y-64082140D01*
X63552588Y-64202444D01*
X63493829Y-64240431D01*
X63484600Y-64240833D01*
X63422641Y-64211138D01*
X63384048Y-64102760D01*
X63363998Y-63886763D01*
X63357666Y-63534207D01*
X63357600Y-63478833D01*
X63362549Y-63107083D01*
X63380612Y-62875525D01*
X63416611Y-62755222D01*
X63475370Y-62717235D01*
X63484600Y-62716833D01*
X63546558Y-62746528D01*
G37*
X65663224Y-53856528D02*
X65701817Y-53964905D01*
X65721868Y-54180903D01*
X65728199Y-54533458D01*
X65728266Y-54588833D01*
X65723317Y-54960583D01*
X65705254Y-55192140D01*
X65669255Y-55312444D01*
X65610495Y-55350431D01*
X65601266Y-55350833D01*
X65539308Y-55321138D01*
X65500715Y-55212760D01*
X65480664Y-54996763D01*
X65474333Y-54644207D01*
X65474266Y-54588833D01*
X65479215Y-54217083D01*
X65497278Y-53985525D01*
X65533278Y-53865222D01*
X65592037Y-53827235D01*
X65601266Y-53826833D01*
X65663224Y-53856528D01*
G36*
X65663224Y-53856528D02*
G01*
X65701817Y-53964905D01*
X65721868Y-54180903D01*
X65728199Y-54533458D01*
X65728266Y-54588833D01*
X65723317Y-54960583D01*
X65705254Y-55192140D01*
X65669255Y-55312444D01*
X65610495Y-55350431D01*
X65601266Y-55350833D01*
X65539308Y-55321138D01*
X65500715Y-55212760D01*
X65480664Y-54996763D01*
X65474333Y-54644207D01*
X65474266Y-54588833D01*
X65479215Y-54217083D01*
X65497278Y-53985525D01*
X65533278Y-53865222D01*
X65592037Y-53827235D01*
X65601266Y-53826833D01*
X65663224Y-53856528D01*
G37*
X65663224Y-62746528D02*
X65701817Y-62854905D01*
X65721868Y-63070903D01*
X65728199Y-63423458D01*
X65728266Y-63478833D01*
X65723317Y-63850583D01*
X65705254Y-64082140D01*
X65669255Y-64202444D01*
X65610495Y-64240431D01*
X65601266Y-64240833D01*
X65539308Y-64211138D01*
X65500715Y-64102760D01*
X65480664Y-63886763D01*
X65474333Y-63534207D01*
X65474266Y-63478833D01*
X65479215Y-63107083D01*
X65497278Y-62875525D01*
X65533278Y-62755222D01*
X65592037Y-62717235D01*
X65601266Y-62716833D01*
X65663224Y-62746528D01*
G36*
X65663224Y-62746528D02*
G01*
X65701817Y-62854905D01*
X65721868Y-63070903D01*
X65728199Y-63423458D01*
X65728266Y-63478833D01*
X65723317Y-63850583D01*
X65705254Y-64082140D01*
X65669255Y-64202444D01*
X65610495Y-64240431D01*
X65601266Y-64240833D01*
X65539308Y-64211138D01*
X65500715Y-64102760D01*
X65480664Y-63886763D01*
X65474333Y-63534207D01*
X65474266Y-63478833D01*
X65479215Y-63107083D01*
X65497278Y-62875525D01*
X65533278Y-62755222D01*
X65592037Y-62717235D01*
X65601266Y-62716833D01*
X65663224Y-62746528D01*
G37*
X66828933Y-55858833D02*
X66151600Y-55858833D01*
X65814123Y-55855298D01*
X65611865Y-55839015D01*
X65510764Y-55801469D01*
X65476759Y-55734146D01*
X65474266Y-55689500D01*
X65523875Y-55556715D01*
X65685933Y-55520166D01*
X65897600Y-55520166D01*
X65897600Y-53657500D01*
X65685933Y-53657500D01*
X65519952Y-53617813D01*
X65474266Y-53488166D01*
X65488407Y-53403797D01*
X65553538Y-53353233D01*
X65703720Y-53327957D01*
X65973015Y-53319456D01*
X66151600Y-53318833D01*
X66828933Y-53318833D01*
X66828933Y-55858833D01*
G36*
X66828933Y-55858833D02*
G01*
X66151600Y-55858833D01*
X65814123Y-55855298D01*
X65611865Y-55839015D01*
X65510764Y-55801469D01*
X65476759Y-55734146D01*
X65474266Y-55689500D01*
X65523875Y-55556715D01*
X65685933Y-55520166D01*
X65897600Y-55520166D01*
X65897600Y-53657500D01*
X65685933Y-53657500D01*
X65519952Y-53617813D01*
X65474266Y-53488166D01*
X65488407Y-53403797D01*
X65553538Y-53353233D01*
X65703720Y-53327957D01*
X65973015Y-53319456D01*
X66151600Y-53318833D01*
X66828933Y-53318833D01*
X66828933Y-55858833D01*
G37*
X66828933Y-64748833D02*
X66151600Y-64748833D01*
X65814123Y-64745298D01*
X65611865Y-64729015D01*
X65510764Y-64691469D01*
X65476759Y-64624146D01*
X65474266Y-64579500D01*
X65523875Y-64446715D01*
X65685933Y-64410166D01*
X65897600Y-64410166D01*
X65897600Y-62547500D01*
X65685933Y-62547500D01*
X65519952Y-62507813D01*
X65474266Y-62378166D01*
X65488407Y-62293797D01*
X65553538Y-62243233D01*
X65703720Y-62217957D01*
X65973015Y-62209456D01*
X66151600Y-62208833D01*
X66828933Y-62208833D01*
X66828933Y-64748833D01*
G36*
X66828933Y-64748833D02*
G01*
X66151600Y-64748833D01*
X65814123Y-64745298D01*
X65611865Y-64729015D01*
X65510764Y-64691469D01*
X65476759Y-64624146D01*
X65474266Y-64579500D01*
X65523875Y-64446715D01*
X65685933Y-64410166D01*
X65897600Y-64410166D01*
X65897600Y-62547500D01*
X65685933Y-62547500D01*
X65519952Y-62507813D01*
X65474266Y-62378166D01*
X65488407Y-62293797D01*
X65553538Y-62243233D01*
X65703720Y-62217957D01*
X65973015Y-62209456D01*
X66151600Y-62208833D01*
X66828933Y-62208833D01*
X66828933Y-64748833D01*
G37*
X97524703Y-122875534D02*
X97786688Y-122990506D01*
X98058914Y-123137389D01*
X98300241Y-123293791D01*
X98469529Y-123437315D01*
X98525639Y-123545568D01*
X98523470Y-123553516D01*
X98475376Y-123661245D01*
X98464041Y-123675080D01*
X98390274Y-123635740D01*
X98204928Y-123532738D01*
X97943710Y-123385959D01*
X97859266Y-123338272D01*
X97570954Y-123176960D01*
X97336287Y-123048753D01*
X97196860Y-122976292D01*
X97181933Y-122969608D01*
X97152165Y-122893482D01*
X97196010Y-122830906D01*
X97314097Y-122814869D01*
X97524703Y-122875534D01*
G36*
X97524703Y-122875534D02*
G01*
X97786688Y-122990506D01*
X98058914Y-123137389D01*
X98300241Y-123293791D01*
X98469529Y-123437315D01*
X98525639Y-123545568D01*
X98523470Y-123553516D01*
X98475376Y-123661245D01*
X98464041Y-123675080D01*
X98390274Y-123635740D01*
X98204928Y-123532738D01*
X97943710Y-123385959D01*
X97859266Y-123338272D01*
X97570954Y-123176960D01*
X97336287Y-123048753D01*
X97196860Y-122976292D01*
X97181933Y-122969608D01*
X97152165Y-122893482D01*
X97196010Y-122830906D01*
X97314097Y-122814869D01*
X97524703Y-122875534D01*
G37*
X63270196Y-53236422D02*
X63471343Y-53250386D01*
X63572258Y-53286856D01*
X63607490Y-53356628D01*
X63611600Y-53445833D01*
X63576630Y-53606955D01*
X63438940Y-53656606D01*
X63399933Y-53657500D01*
X63188266Y-53657500D01*
X63188266Y-55520166D01*
X63399933Y-55520166D01*
X63565914Y-55559853D01*
X63611600Y-55689500D01*
X63597459Y-55773869D01*
X63532328Y-55824433D01*
X63382146Y-55849708D01*
X63112850Y-55858210D01*
X62934266Y-55858833D01*
X62256933Y-55858833D01*
X62256933Y-53234166D01*
X62934266Y-53234166D01*
X63270196Y-53236422D01*
G36*
X63270196Y-53236422D02*
G01*
X63471343Y-53250386D01*
X63572258Y-53286856D01*
X63607490Y-53356628D01*
X63611600Y-53445833D01*
X63576630Y-53606955D01*
X63438940Y-53656606D01*
X63399933Y-53657500D01*
X63188266Y-53657500D01*
X63188266Y-55520166D01*
X63399933Y-55520166D01*
X63565914Y-55559853D01*
X63611600Y-55689500D01*
X63597459Y-55773869D01*
X63532328Y-55824433D01*
X63382146Y-55849708D01*
X63112850Y-55858210D01*
X62934266Y-55858833D01*
X62256933Y-55858833D01*
X62256933Y-53234166D01*
X62934266Y-53234166D01*
X63270196Y-53236422D01*
G37*
X63270196Y-62126422D02*
X63471343Y-62140386D01*
X63572258Y-62176856D01*
X63607490Y-62246628D01*
X63611600Y-62335833D01*
X63576630Y-62496955D01*
X63438940Y-62546606D01*
X63399933Y-62547500D01*
X63188266Y-62547500D01*
X63188266Y-64410166D01*
X63399933Y-64410166D01*
X63565914Y-64449853D01*
X63611600Y-64579500D01*
X63597459Y-64663869D01*
X63532328Y-64714433D01*
X63382146Y-64739708D01*
X63112850Y-64748210D01*
X62934266Y-64748833D01*
X62256933Y-64748833D01*
X62256933Y-62124166D01*
X62934266Y-62124166D01*
X63270196Y-62126422D01*
G36*
X63270196Y-62126422D02*
G01*
X63471343Y-62140386D01*
X63572258Y-62176856D01*
X63607490Y-62246628D01*
X63611600Y-62335833D01*
X63576630Y-62496955D01*
X63438940Y-62546606D01*
X63399933Y-62547500D01*
X63188266Y-62547500D01*
X63188266Y-64410166D01*
X63399933Y-64410166D01*
X63565914Y-64449853D01*
X63611600Y-64579500D01*
X63597459Y-64663869D01*
X63532328Y-64714433D01*
X63382146Y-64739708D01*
X63112850Y-64748210D01*
X62934266Y-64748833D01*
X62256933Y-64748833D01*
X62256933Y-62124166D01*
X62934266Y-62124166D01*
X63270196Y-62126422D01*
G37*
X104800851Y-126892416D02*
X104806934Y-127026396D01*
X104767356Y-127133674D01*
X104745608Y-127212327D01*
X104784794Y-127293505D01*
X104907300Y-127395889D01*
X105135513Y-127538162D01*
X105491820Y-127739005D01*
X105494542Y-127740509D01*
X106306470Y-128189003D01*
X106443201Y-128009470D01*
X106593594Y-127886174D01*
X106693346Y-127900899D01*
X106735987Y-127999861D01*
X106687015Y-128195864D01*
X106541844Y-128500739D01*
X106295886Y-128926317D01*
X106295540Y-128926885D01*
X106146549Y-129171881D01*
X105035203Y-128564176D01*
X103923858Y-127956472D01*
X104225216Y-127382986D01*
X104426971Y-127038045D01*
X104589191Y-126850749D01*
X104718176Y-126815729D01*
X104800851Y-126892416D01*
G36*
X104800851Y-126892416D02*
G01*
X104806934Y-127026396D01*
X104767356Y-127133674D01*
X104745608Y-127212327D01*
X104784794Y-127293505D01*
X104907300Y-127395889D01*
X105135513Y-127538162D01*
X105491820Y-127739005D01*
X105494542Y-127740509D01*
X106306470Y-128189003D01*
X106443201Y-128009470D01*
X106593594Y-127886174D01*
X106693346Y-127900899D01*
X106735987Y-127999861D01*
X106687015Y-128195864D01*
X106541844Y-128500739D01*
X106295886Y-128926317D01*
X106295540Y-128926885D01*
X106146549Y-129171881D01*
X105035203Y-128564176D01*
X103923858Y-127956472D01*
X104225216Y-127382986D01*
X104426971Y-127038045D01*
X104589191Y-126850749D01*
X104718176Y-126815729D01*
X104800851Y-126892416D01*
G37*
X96990506Y-122558151D02*
X97033272Y-122708342D01*
X96975006Y-122866788D01*
X96949668Y-122941969D01*
X97013690Y-123030239D01*
X97189375Y-123151923D01*
X97452368Y-123301859D01*
X97772866Y-123479179D01*
X98072016Y-123647390D01*
X98287988Y-123771711D01*
X98297164Y-123777141D01*
X98475439Y-123876696D01*
X98561226Y-123886768D01*
X98607075Y-123805275D01*
X98620370Y-123764325D01*
X98721122Y-123625657D01*
X98859628Y-123595434D01*
X98951991Y-123663983D01*
X98935761Y-123765240D01*
X98856597Y-123964425D01*
X98737728Y-124216207D01*
X98602385Y-124475250D01*
X98473796Y-124696222D01*
X98375191Y-124833790D01*
X98340436Y-124857472D01*
X98249570Y-124816803D01*
X98038718Y-124708119D01*
X97735642Y-124546137D01*
X97368102Y-124345577D01*
X97203643Y-124254738D01*
X96124687Y-123656697D01*
X96441643Y-123074665D01*
X96604410Y-122799515D01*
X96750381Y-122594385D01*
X96852867Y-122495821D01*
X96867090Y-122492066D01*
X96990506Y-122558151D01*
G36*
X96990506Y-122558151D02*
G01*
X97033272Y-122708342D01*
X96975006Y-122866788D01*
X96949668Y-122941969D01*
X97013690Y-123030239D01*
X97189375Y-123151923D01*
X97452368Y-123301859D01*
X97772866Y-123479179D01*
X98072016Y-123647390D01*
X98287988Y-123771711D01*
X98297164Y-123777141D01*
X98475439Y-123876696D01*
X98561226Y-123886768D01*
X98607075Y-123805275D01*
X98620370Y-123764325D01*
X98721122Y-123625657D01*
X98859628Y-123595434D01*
X98951991Y-123663983D01*
X98935761Y-123765240D01*
X98856597Y-123964425D01*
X98737728Y-124216207D01*
X98602385Y-124475250D01*
X98473796Y-124696222D01*
X98375191Y-124833790D01*
X98340436Y-124857472D01*
X98249570Y-124816803D01*
X98038718Y-124708119D01*
X97735642Y-124546137D01*
X97368102Y-124345577D01*
X97203643Y-124254738D01*
X96124687Y-123656697D01*
X96441643Y-123074665D01*
X96604410Y-122799515D01*
X96750381Y-122594385D01*
X96852867Y-122495821D01*
X96867090Y-122492066D01*
X96990506Y-122558151D01*
G37*
X32658280Y-122675803D02*
X32780731Y-122826995D01*
X32947562Y-123099855D01*
X33042830Y-123268734D01*
X33310401Y-123749635D01*
X32395500Y-124292138D01*
X32027995Y-124509178D01*
X31698832Y-124701968D01*
X31443402Y-124849886D01*
X31297099Y-124932306D01*
X31295003Y-124933425D01*
X31195520Y-124971991D01*
X31108643Y-124949022D01*
X31006976Y-124840013D01*
X30863121Y-124620462D01*
X30766079Y-124460354D01*
X30596909Y-124171457D01*
X30508270Y-123990331D01*
X30489945Y-123881786D01*
X30531714Y-123810631D01*
X30568668Y-123780489D01*
X30692461Y-123722972D01*
X30800089Y-123790570D01*
X30854544Y-123858024D01*
X30994502Y-124043571D01*
X31660884Y-123649225D01*
X32037252Y-123426927D01*
X32290160Y-123273899D01*
X32440466Y-123170834D01*
X32509027Y-123098425D01*
X32516702Y-123037364D01*
X32484348Y-122968345D01*
X32454266Y-122914833D01*
X32395268Y-122756815D01*
X32447738Y-122665718D01*
X32466691Y-122653127D01*
X32560252Y-122624954D01*
X32658280Y-122675803D01*
G36*
X32658280Y-122675803D02*
G01*
X32780731Y-122826995D01*
X32947562Y-123099855D01*
X33042830Y-123268734D01*
X33310401Y-123749635D01*
X32395500Y-124292138D01*
X32027995Y-124509178D01*
X31698832Y-124701968D01*
X31443402Y-124849886D01*
X31297099Y-124932306D01*
X31295003Y-124933425D01*
X31195520Y-124971991D01*
X31108643Y-124949022D01*
X31006976Y-124840013D01*
X30863121Y-124620462D01*
X30766079Y-124460354D01*
X30596909Y-124171457D01*
X30508270Y-123990331D01*
X30489945Y-123881786D01*
X30531714Y-123810631D01*
X30568668Y-123780489D01*
X30692461Y-123722972D01*
X30800089Y-123790570D01*
X30854544Y-123858024D01*
X30994502Y-124043571D01*
X31660884Y-123649225D01*
X32037252Y-123426927D01*
X32290160Y-123273899D01*
X32440466Y-123170834D01*
X32509027Y-123098425D01*
X32516702Y-123037364D01*
X32484348Y-122968345D01*
X32454266Y-122914833D01*
X32395268Y-122756815D01*
X32447738Y-122665718D01*
X32466691Y-122653127D01*
X32560252Y-122624954D01*
X32658280Y-122675803D01*
G37*
X114167593Y-128380802D02*
X114414525Y-128491344D01*
X114774002Y-128679202D01*
X115087081Y-128852308D01*
X115466599Y-129066021D01*
X115790354Y-129250141D01*
X116031058Y-129389010D01*
X116161424Y-129466971D01*
X116176315Y-129477326D01*
X116153881Y-129561165D01*
X116064672Y-129752996D01*
X115926865Y-130014331D01*
X115898857Y-130064790D01*
X115685502Y-130404880D01*
X115513275Y-130585535D01*
X115377600Y-130610370D01*
X115301681Y-130536583D01*
X115295992Y-130403101D01*
X115337238Y-130291473D01*
X115376832Y-130205033D01*
X115375208Y-130131485D01*
X115310731Y-130052438D01*
X115161767Y-129949499D01*
X114906682Y-129804278D01*
X114523842Y-129598382D01*
X114518740Y-129595658D01*
X113821547Y-129223423D01*
X113685612Y-129417497D01*
X113565184Y-129545965D01*
X113459315Y-129534535D01*
X113433796Y-129515400D01*
X113383144Y-129437307D01*
X113399903Y-129312709D01*
X113493712Y-129104098D01*
X113581696Y-128939864D01*
X113733466Y-128674167D01*
X113864791Y-128461841D01*
X113938038Y-128360271D01*
X114014875Y-128339728D01*
X114167593Y-128380802D01*
G36*
X114167593Y-128380802D02*
G01*
X114414525Y-128491344D01*
X114774002Y-128679202D01*
X115087081Y-128852308D01*
X115466599Y-129066021D01*
X115790354Y-129250141D01*
X116031058Y-129389010D01*
X116161424Y-129466971D01*
X116176315Y-129477326D01*
X116153881Y-129561165D01*
X116064672Y-129752996D01*
X115926865Y-130014331D01*
X115898857Y-130064790D01*
X115685502Y-130404880D01*
X115513275Y-130585535D01*
X115377600Y-130610370D01*
X115301681Y-130536583D01*
X115295992Y-130403101D01*
X115337238Y-130291473D01*
X115376832Y-130205033D01*
X115375208Y-130131485D01*
X115310731Y-130052438D01*
X115161767Y-129949499D01*
X114906682Y-129804278D01*
X114523842Y-129598382D01*
X114518740Y-129595658D01*
X113821547Y-129223423D01*
X113685612Y-129417497D01*
X113565184Y-129545965D01*
X113459315Y-129534535D01*
X113433796Y-129515400D01*
X113383144Y-129437307D01*
X113399903Y-129312709D01*
X113493712Y-129104098D01*
X113581696Y-128939864D01*
X113733466Y-128674167D01*
X113864791Y-128461841D01*
X113938038Y-128360271D01*
X114014875Y-128339728D01*
X114167593Y-128380802D01*
G37*
X112543563Y-131124155D02*
X112620597Y-131223617D01*
X112579835Y-131390613D01*
X112577477Y-131395932D01*
X112547771Y-131487540D01*
X112566681Y-131568547D01*
X112657293Y-131659642D01*
X112842693Y-131781513D01*
X113145968Y-131954846D01*
X113290754Y-132035101D01*
X114091747Y-132477691D01*
X114245663Y-132289429D01*
X114377091Y-132166705D01*
X114479118Y-132181540D01*
X114501003Y-132200813D01*
X114535924Y-132289725D01*
X114499084Y-132443668D01*
X114380874Y-132692692D01*
X114291202Y-132856980D01*
X114129105Y-133123613D01*
X113985599Y-133318843D01*
X113888047Y-133406176D01*
X113878289Y-133407686D01*
X113768246Y-133365949D01*
X113544037Y-133256644D01*
X113238405Y-133096422D01*
X112887600Y-132903897D01*
X112526729Y-132701221D01*
X112209592Y-132522125D01*
X111971434Y-132386575D01*
X111850197Y-132316179D01*
X111777018Y-132255884D01*
X111764465Y-132170725D01*
X111820657Y-132021455D01*
X111953715Y-131768824D01*
X111969302Y-131740468D01*
X112158763Y-131406884D01*
X112294061Y-131203114D01*
X112395804Y-131107039D01*
X112484601Y-131096542D01*
X112543563Y-131124155D01*
G36*
X112543563Y-131124155D02*
G01*
X112620597Y-131223617D01*
X112579835Y-131390613D01*
X112577477Y-131395932D01*
X112547771Y-131487540D01*
X112566681Y-131568547D01*
X112657293Y-131659642D01*
X112842693Y-131781513D01*
X113145968Y-131954846D01*
X113290754Y-132035101D01*
X114091747Y-132477691D01*
X114245663Y-132289429D01*
X114377091Y-132166705D01*
X114479118Y-132181540D01*
X114501003Y-132200813D01*
X114535924Y-132289725D01*
X114499084Y-132443668D01*
X114380874Y-132692692D01*
X114291202Y-132856980D01*
X114129105Y-133123613D01*
X113985599Y-133318843D01*
X113888047Y-133406176D01*
X113878289Y-133407686D01*
X113768246Y-133365949D01*
X113544037Y-133256644D01*
X113238405Y-133096422D01*
X112887600Y-132903897D01*
X112526729Y-132701221D01*
X112209592Y-132522125D01*
X111971434Y-132386575D01*
X111850197Y-132316179D01*
X111777018Y-132255884D01*
X111764465Y-132170725D01*
X111820657Y-132021455D01*
X111953715Y-131768824D01*
X111969302Y-131740468D01*
X112158763Y-131406884D01*
X112294061Y-131203114D01*
X112395804Y-131107039D01*
X112484601Y-131096542D01*
X112543563Y-131124155D01*
G37*
X24994015Y-127215283D02*
X25122284Y-127386732D01*
X25274550Y-127617663D01*
X25422756Y-127863224D01*
X25538844Y-128078562D01*
X25594758Y-128218828D01*
X25596266Y-128232738D01*
X25527878Y-128301330D01*
X25343909Y-128433869D01*
X25076152Y-128610909D01*
X24756399Y-128813001D01*
X24416443Y-129020697D01*
X24088076Y-129214549D01*
X23803092Y-129375111D01*
X23593282Y-129482933D01*
X23493801Y-129518833D01*
X23414471Y-129451251D01*
X23280307Y-129273475D01*
X23119383Y-129022960D01*
X23108495Y-129004765D01*
X22931792Y-128701108D01*
X22837759Y-128509070D01*
X22819134Y-128396792D01*
X22868655Y-128332416D01*
X22946953Y-128296095D01*
X23117914Y-128313682D01*
X23222120Y-128409280D01*
X23285479Y-128480154D01*
X23357662Y-128508111D01*
X23468576Y-128483476D01*
X23648128Y-128396574D01*
X23926225Y-128237730D01*
X24136767Y-128113381D01*
X24483225Y-127904379D01*
X24704050Y-127757643D01*
X24821485Y-127652934D01*
X24857772Y-127570014D01*
X24835152Y-127488646D01*
X24831352Y-127481388D01*
X24783534Y-127296147D01*
X24841394Y-127171226D01*
X24917799Y-127148166D01*
X24994015Y-127215283D01*
G36*
X24994015Y-127215283D02*
G01*
X25122284Y-127386732D01*
X25274550Y-127617663D01*
X25422756Y-127863224D01*
X25538844Y-128078562D01*
X25594758Y-128218828D01*
X25596266Y-128232738D01*
X25527878Y-128301330D01*
X25343909Y-128433869D01*
X25076152Y-128610909D01*
X24756399Y-128813001D01*
X24416443Y-129020697D01*
X24088076Y-129214549D01*
X23803092Y-129375111D01*
X23593282Y-129482933D01*
X23493801Y-129518833D01*
X23414471Y-129451251D01*
X23280307Y-129273475D01*
X23119383Y-129022960D01*
X23108495Y-129004765D01*
X22931792Y-128701108D01*
X22837759Y-128509070D01*
X22819134Y-128396792D01*
X22868655Y-128332416D01*
X22946953Y-128296095D01*
X23117914Y-128313682D01*
X23222120Y-128409280D01*
X23285479Y-128480154D01*
X23357662Y-128508111D01*
X23468576Y-128483476D01*
X23648128Y-128396574D01*
X23926225Y-128237730D01*
X24136767Y-128113381D01*
X24483225Y-127904379D01*
X24704050Y-127757643D01*
X24821485Y-127652934D01*
X24857772Y-127570014D01*
X24835152Y-127488646D01*
X24831352Y-127481388D01*
X24783534Y-127296147D01*
X24841394Y-127171226D01*
X24917799Y-127148166D01*
X24994015Y-127215283D01*
G37*
X31175081Y-119981404D02*
X31322454Y-120232510D01*
X31465238Y-120501084D01*
X31580680Y-120742925D01*
X31646027Y-120913834D01*
X31650504Y-120966575D01*
X31521193Y-121047732D01*
X31369996Y-121012963D01*
X31299551Y-120925166D01*
X31252458Y-120839630D01*
X31177585Y-120812707D01*
X31045545Y-120852786D01*
X30826955Y-120968258D01*
X30529591Y-121144997D01*
X30137138Y-121383058D01*
X29869040Y-121549379D01*
X29704895Y-121660080D01*
X29624302Y-121731280D01*
X29606858Y-121779097D01*
X29632161Y-121819651D01*
X29651215Y-121838982D01*
X29739835Y-122004192D01*
X29687680Y-122143151D01*
X29623230Y-122181418D01*
X29499056Y-122139480D01*
X29334808Y-121935791D01*
X29270555Y-121830643D01*
X29115966Y-121568170D01*
X28978205Y-121340172D01*
X28924174Y-121253839D01*
X28887058Y-121181153D01*
X28891179Y-121111757D01*
X28955773Y-121029395D01*
X29100079Y-120917813D01*
X29343331Y-120760757D01*
X29704767Y-120541973D01*
X29914593Y-120416972D01*
X30298848Y-120191449D01*
X30628479Y-120003606D01*
X30877885Y-119867588D01*
X31021463Y-119797540D01*
X31045871Y-119791966D01*
X31175081Y-119981404D01*
G36*
X31175081Y-119981404D02*
G01*
X31322454Y-120232510D01*
X31465238Y-120501084D01*
X31580680Y-120742925D01*
X31646027Y-120913834D01*
X31650504Y-120966575D01*
X31521193Y-121047732D01*
X31369996Y-121012963D01*
X31299551Y-120925166D01*
X31252458Y-120839630D01*
X31177585Y-120812707D01*
X31045545Y-120852786D01*
X30826955Y-120968258D01*
X30529591Y-121144997D01*
X30137138Y-121383058D01*
X29869040Y-121549379D01*
X29704895Y-121660080D01*
X29624302Y-121731280D01*
X29606858Y-121779097D01*
X29632161Y-121819651D01*
X29651215Y-121838982D01*
X29739835Y-122004192D01*
X29687680Y-122143151D01*
X29623230Y-122181418D01*
X29499056Y-122139480D01*
X29334808Y-121935791D01*
X29270555Y-121830643D01*
X29115966Y-121568170D01*
X28978205Y-121340172D01*
X28924174Y-121253839D01*
X28887058Y-121181153D01*
X28891179Y-121111757D01*
X28955773Y-121029395D01*
X29100079Y-120917813D01*
X29343331Y-120760757D01*
X29704767Y-120541973D01*
X29914593Y-120416972D01*
X30298848Y-120191449D01*
X30628479Y-120003606D01*
X30877885Y-119867588D01*
X31021463Y-119797540D01*
X31045871Y-119791966D01*
X31175081Y-119981404D01*
G37*
X106316107Y-124053308D02*
X106521871Y-124154948D01*
X106809521Y-124302742D01*
X107145786Y-124479009D01*
X107497396Y-124666072D01*
X107831082Y-124846252D01*
X108113575Y-125001871D01*
X108311604Y-125115249D01*
X108387920Y-125164551D01*
X108367306Y-125246450D01*
X108282241Y-125430347D01*
X108156229Y-125673540D01*
X108012774Y-125933328D01*
X107875381Y-126167012D01*
X107767555Y-126331890D01*
X107715483Y-126386166D01*
X107620357Y-126329145D01*
X107558091Y-126264578D01*
X107501554Y-126105998D01*
X107547064Y-125975044D01*
X107574304Y-125892384D01*
X107543879Y-125812055D01*
X107432888Y-125714007D01*
X107218431Y-125578188D01*
X106877606Y-125384547D01*
X106863987Y-125376966D01*
X106537681Y-125198772D01*
X106265730Y-125056587D01*
X106082195Y-124967846D01*
X106023686Y-124946833D01*
X105947215Y-125016507D01*
X105902600Y-125116166D01*
X105824858Y-125262459D01*
X105703412Y-125258320D01*
X105625360Y-125214425D01*
X105588734Y-125139259D01*
X105627192Y-124987178D01*
X105749116Y-124732422D01*
X105831612Y-124580721D01*
X105991172Y-124311130D01*
X106127883Y-124111424D01*
X106216267Y-124018167D01*
X106225498Y-124015500D01*
X106316107Y-124053308D01*
G36*
X106316107Y-124053308D02*
G01*
X106521871Y-124154948D01*
X106809521Y-124302742D01*
X107145786Y-124479009D01*
X107497396Y-124666072D01*
X107831082Y-124846252D01*
X108113575Y-125001871D01*
X108311604Y-125115249D01*
X108387920Y-125164551D01*
X108367306Y-125246450D01*
X108282241Y-125430347D01*
X108156229Y-125673540D01*
X108012774Y-125933328D01*
X107875381Y-126167012D01*
X107767555Y-126331890D01*
X107715483Y-126386166D01*
X107620357Y-126329145D01*
X107558091Y-126264578D01*
X107501554Y-126105998D01*
X107547064Y-125975044D01*
X107574304Y-125892384D01*
X107543879Y-125812055D01*
X107432888Y-125714007D01*
X107218431Y-125578188D01*
X106877606Y-125384547D01*
X106863987Y-125376966D01*
X106537681Y-125198772D01*
X106265730Y-125056587D01*
X106082195Y-124967846D01*
X106023686Y-124946833D01*
X105947215Y-125016507D01*
X105902600Y-125116166D01*
X105824858Y-125262459D01*
X105703412Y-125258320D01*
X105625360Y-125214425D01*
X105588734Y-125139259D01*
X105627192Y-124987178D01*
X105749116Y-124732422D01*
X105831612Y-124580721D01*
X105991172Y-124311130D01*
X106127883Y-124111424D01*
X106216267Y-124018167D01*
X106225498Y-124015500D01*
X106316107Y-124053308D01*
G37*
X15842609Y-129035291D02*
X15985980Y-129277568D01*
X16134891Y-129541566D01*
X16264163Y-129781970D01*
X16348617Y-129953463D01*
X16367600Y-130007683D01*
X16308069Y-130118911D01*
X16173300Y-130134948D01*
X16029022Y-130054415D01*
X15996627Y-130015456D01*
X15936372Y-129940761D01*
X15866781Y-129910759D01*
X15757274Y-129934833D01*
X15577268Y-130022364D01*
X15296185Y-130182733D01*
X15126477Y-130282395D01*
X14810977Y-130469186D01*
X14553910Y-130623461D01*
X14387780Y-130725591D01*
X14343013Y-130755534D01*
X14347880Y-130847005D01*
X14401455Y-130993024D01*
X14451802Y-131154292D01*
X14396285Y-131233972D01*
X14365950Y-131247382D01*
X14243864Y-131290685D01*
X14219267Y-131296833D01*
X14171386Y-131229461D01*
X14060755Y-131051089D01*
X13909347Y-130797330D01*
X13875777Y-130740104D01*
X13711676Y-130447671D01*
X13630118Y-130261718D01*
X13620250Y-130147476D01*
X13667685Y-130073426D01*
X13777654Y-129994100D01*
X13991311Y-129857504D01*
X14276978Y-129682275D01*
X14602977Y-129487053D01*
X14937629Y-129290476D01*
X15249256Y-129111182D01*
X15506179Y-128967811D01*
X15676721Y-128879000D01*
X15729956Y-128860051D01*
X15842609Y-129035291D01*
G36*
X15842609Y-129035291D02*
G01*
X15985980Y-129277568D01*
X16134891Y-129541566D01*
X16264163Y-129781970D01*
X16348617Y-129953463D01*
X16367600Y-130007683D01*
X16308069Y-130118911D01*
X16173300Y-130134948D01*
X16029022Y-130054415D01*
X15996627Y-130015456D01*
X15936372Y-129940761D01*
X15866781Y-129910759D01*
X15757274Y-129934833D01*
X15577268Y-130022364D01*
X15296185Y-130182733D01*
X15126477Y-130282395D01*
X14810977Y-130469186D01*
X14553910Y-130623461D01*
X14387780Y-130725591D01*
X14343013Y-130755534D01*
X14347880Y-130847005D01*
X14401455Y-130993024D01*
X14451802Y-131154292D01*
X14396285Y-131233972D01*
X14365950Y-131247382D01*
X14243864Y-131290685D01*
X14219267Y-131296833D01*
X14171386Y-131229461D01*
X14060755Y-131051089D01*
X13909347Y-130797330D01*
X13875777Y-130740104D01*
X13711676Y-130447671D01*
X13630118Y-130261718D01*
X13620250Y-130147476D01*
X13667685Y-130073426D01*
X13777654Y-129994100D01*
X13991311Y-129857504D01*
X14276978Y-129682275D01*
X14602977Y-129487053D01*
X14937629Y-129290476D01*
X15249256Y-129111182D01*
X15506179Y-128967811D01*
X15676721Y-128879000D01*
X15729956Y-128860051D01*
X15842609Y-129035291D01*
G37*
X23450832Y-124472713D02*
X23576316Y-124656732D01*
X23729100Y-124894627D01*
X23880883Y-125141113D01*
X24003369Y-125350905D01*
X24068260Y-125478717D01*
X24072266Y-125494176D01*
X24005455Y-125542714D01*
X23927579Y-125576904D01*
X23756512Y-125559359D01*
X23652412Y-125464102D01*
X23587792Y-125392057D01*
X23514667Y-125364681D01*
X23402312Y-125391839D01*
X23219997Y-125483397D01*
X22936998Y-125649218D01*
X22778675Y-125744618D01*
X22412299Y-125966465D01*
X22169827Y-126118931D01*
X22030621Y-126220847D01*
X21974042Y-126291046D01*
X21979452Y-126348358D01*
X22026214Y-126411615D01*
X22035490Y-126422745D01*
X22094149Y-126580923D01*
X22024879Y-126699268D01*
X21926303Y-126724833D01*
X21837057Y-126656238D01*
X21695941Y-126474845D01*
X21530817Y-126217245D01*
X21501444Y-126166910D01*
X21352131Y-125898382D01*
X21247743Y-125693268D01*
X21207086Y-125588989D01*
X21208244Y-125583539D01*
X21332649Y-125494977D01*
X21561410Y-125354149D01*
X21862347Y-125178766D01*
X22203283Y-124986535D01*
X22552039Y-124795166D01*
X22876434Y-124622367D01*
X23144290Y-124485846D01*
X23323429Y-124403314D01*
X23380943Y-124387854D01*
X23450832Y-124472713D01*
G36*
X23450832Y-124472713D02*
G01*
X23576316Y-124656732D01*
X23729100Y-124894627D01*
X23880883Y-125141113D01*
X24003369Y-125350905D01*
X24068260Y-125478717D01*
X24072266Y-125494176D01*
X24005455Y-125542714D01*
X23927579Y-125576904D01*
X23756512Y-125559359D01*
X23652412Y-125464102D01*
X23587792Y-125392057D01*
X23514667Y-125364681D01*
X23402312Y-125391839D01*
X23219997Y-125483397D01*
X22936998Y-125649218D01*
X22778675Y-125744618D01*
X22412299Y-125966465D01*
X22169827Y-126118931D01*
X22030621Y-126220847D01*
X21974042Y-126291046D01*
X21979452Y-126348358D01*
X22026214Y-126411615D01*
X22035490Y-126422745D01*
X22094149Y-126580923D01*
X22024879Y-126699268D01*
X21926303Y-126724833D01*
X21837057Y-126656238D01*
X21695941Y-126474845D01*
X21530817Y-126217245D01*
X21501444Y-126166910D01*
X21352131Y-125898382D01*
X21247743Y-125693268D01*
X21207086Y-125588989D01*
X21208244Y-125583539D01*
X21332649Y-125494977D01*
X21561410Y-125354149D01*
X21862347Y-125178766D01*
X22203283Y-124986535D01*
X22552039Y-124795166D01*
X22876434Y-124622367D01*
X23144290Y-124485846D01*
X23323429Y-124403314D01*
X23380943Y-124387854D01*
X23450832Y-124472713D01*
G37*
X17355196Y-131757877D02*
X17492662Y-131953310D01*
X17514942Y-131989108D01*
X17674181Y-132246362D01*
X17816113Y-132474544D01*
X17862119Y-132548058D01*
X17937734Y-132714211D01*
X17940206Y-132810683D01*
X17857490Y-132874584D01*
X17661484Y-133003683D01*
X17384444Y-133178431D01*
X17058629Y-133379277D01*
X16716295Y-133586672D01*
X16389701Y-133781065D01*
X16111103Y-133942906D01*
X15912759Y-134052646D01*
X15827967Y-134090833D01*
X15767143Y-134023131D01*
X15646209Y-133843657D01*
X15488725Y-133587854D01*
X15449729Y-133521809D01*
X15284686Y-133231846D01*
X15199617Y-133049935D01*
X15184342Y-132940792D01*
X15228682Y-132869131D01*
X15255145Y-132847326D01*
X15378877Y-132791517D01*
X15483829Y-132872264D01*
X15510093Y-132908350D01*
X15624260Y-133037424D01*
X15691372Y-133074833D01*
X15787056Y-133034177D01*
X15994458Y-132924314D01*
X16280239Y-132763403D01*
X16523303Y-132621710D01*
X16863305Y-132418144D01*
X17078134Y-132277760D01*
X17189511Y-132179505D01*
X17219159Y-132102325D01*
X17188799Y-132025166D01*
X17169080Y-131995786D01*
X17092123Y-131852886D01*
X17130310Y-131757438D01*
X17168497Y-131723017D01*
X17257190Y-131688831D01*
X17355196Y-131757877D01*
G36*
X17355196Y-131757877D02*
G01*
X17492662Y-131953310D01*
X17514942Y-131989108D01*
X17674181Y-132246362D01*
X17816113Y-132474544D01*
X17862119Y-132548058D01*
X17937734Y-132714211D01*
X17940206Y-132810683D01*
X17857490Y-132874584D01*
X17661484Y-133003683D01*
X17384444Y-133178431D01*
X17058629Y-133379277D01*
X16716295Y-133586672D01*
X16389701Y-133781065D01*
X16111103Y-133942906D01*
X15912759Y-134052646D01*
X15827967Y-134090833D01*
X15767143Y-134023131D01*
X15646209Y-133843657D01*
X15488725Y-133587854D01*
X15449729Y-133521809D01*
X15284686Y-133231846D01*
X15199617Y-133049935D01*
X15184342Y-132940792D01*
X15228682Y-132869131D01*
X15255145Y-132847326D01*
X15378877Y-132791517D01*
X15483829Y-132872264D01*
X15510093Y-132908350D01*
X15624260Y-133037424D01*
X15691372Y-133074833D01*
X15787056Y-133034177D01*
X15994458Y-132924314D01*
X16280239Y-132763403D01*
X16523303Y-132621710D01*
X16863305Y-132418144D01*
X17078134Y-132277760D01*
X17189511Y-132179505D01*
X17219159Y-132102325D01*
X17188799Y-132025166D01*
X17169080Y-131995786D01*
X17092123Y-131852886D01*
X17130310Y-131757438D01*
X17168497Y-131723017D01*
X17257190Y-131688831D01*
X17355196Y-131757877D01*
G37*
X98509343Y-119736463D02*
X98715539Y-119841148D01*
X99002266Y-119993247D01*
X99336281Y-120174450D01*
X99684344Y-120366449D01*
X100013214Y-120550936D01*
X100289649Y-120709602D01*
X100480408Y-120824139D01*
X100549218Y-120871918D01*
X100538315Y-120965867D01*
X100463162Y-121159937D01*
X100346743Y-121409115D01*
X100212043Y-121668389D01*
X100082050Y-121892746D01*
X99979747Y-122037174D01*
X99939014Y-122066870D01*
X99834977Y-122025760D01*
X99764266Y-121984786D01*
X99683124Y-121900823D01*
X99716068Y-121779864D01*
X99750903Y-121720736D01*
X99802753Y-121638301D01*
X99823364Y-121574212D01*
X99791967Y-121510367D01*
X99687791Y-121428662D01*
X99490067Y-121310994D01*
X99178024Y-121139262D01*
X98926848Y-121002502D01*
X98582024Y-120819947D01*
X98352786Y-120720519D01*
X98208843Y-120701354D01*
X98119906Y-120759589D01*
X98055686Y-120892360D01*
X98046065Y-120919232D01*
X97957605Y-120959176D01*
X97869228Y-120940704D01*
X97802378Y-120897807D01*
X97791504Y-120818055D01*
X97845152Y-120668961D01*
X97971869Y-120418040D01*
X98040289Y-120290472D01*
X98196534Y-120013367D01*
X98326273Y-119805478D01*
X98406758Y-119702620D01*
X98416918Y-119697500D01*
X98509343Y-119736463D01*
G36*
X98509343Y-119736463D02*
G01*
X98715539Y-119841148D01*
X99002266Y-119993247D01*
X99336281Y-120174450D01*
X99684344Y-120366449D01*
X100013214Y-120550936D01*
X100289649Y-120709602D01*
X100480408Y-120824139D01*
X100549218Y-120871918D01*
X100538315Y-120965867D01*
X100463162Y-121159937D01*
X100346743Y-121409115D01*
X100212043Y-121668389D01*
X100082050Y-121892746D01*
X99979747Y-122037174D01*
X99939014Y-122066870D01*
X99834977Y-122025760D01*
X99764266Y-121984786D01*
X99683124Y-121900823D01*
X99716068Y-121779864D01*
X99750903Y-121720736D01*
X99802753Y-121638301D01*
X99823364Y-121574212D01*
X99791967Y-121510367D01*
X99687791Y-121428662D01*
X99490067Y-121310994D01*
X99178024Y-121139262D01*
X98926848Y-121002502D01*
X98582024Y-120819947D01*
X98352786Y-120720519D01*
X98208843Y-120701354D01*
X98119906Y-120759589D01*
X98055686Y-120892360D01*
X98046065Y-120919232D01*
X97957605Y-120959176D01*
X97869228Y-120940704D01*
X97802378Y-120897807D01*
X97791504Y-120818055D01*
X97845152Y-120668961D01*
X97971869Y-120418040D01*
X98040289Y-120290472D01*
X98196534Y-120013367D01*
X98326273Y-119805478D01*
X98406758Y-119702620D01*
X98416918Y-119697500D01*
X98509343Y-119736463D01*
G37*
D12*
%TO.C,S2*%
X56125000Y-80730000D02*
X56100000Y-84330000D01*
X56150000Y-63430000D02*
X56125000Y-67830000D01*
X58100000Y-80730000D02*
X54150000Y-80730000D01*
X54150000Y-80730000D02*
X54150000Y-67830000D01*
X54150000Y-67830000D02*
X58100000Y-67830000D01*
X58100000Y-67830000D02*
X58100000Y-80730000D01*
%TD*%
M02*
