%TF.GenerationSoftware,KiCad,Pcbnew,7.0.8*%
%TF.CreationDate,2024-08-08T21:58:03+02:00*%
%TF.ProjectId,Fidget_Spinner,46696467-6574-45f5-9370-696e6e65722e,rev?*%
%TF.SameCoordinates,Original*%
%TF.FileFunction,Copper,L2,Bot*%
%TF.FilePolarity,Positive*%
%FSLAX46Y46*%
G04 Gerber Fmt 4.6, Leading zero omitted, Abs format (unit mm)*
G04 Created by KiCad (PCBNEW 7.0.8) date 2024-08-08 21:58:03*
%MOMM*%
%LPD*%
G01*
G04 APERTURE LIST*
G04 Aperture macros list*
%AMRoundRect*
0 Rectangle with rounded corners*
0 $1 Rounding radius*
0 $2 $3 $4 $5 $6 $7 $8 $9 X,Y pos of 4 corners*
0 Add a 4 corners polygon primitive as box body*
4,1,4,$2,$3,$4,$5,$6,$7,$8,$9,$2,$3,0*
0 Add four circle primitives for the rounded corners*
1,1,$1+$1,$2,$3*
1,1,$1+$1,$4,$5*
1,1,$1+$1,$6,$7*
1,1,$1+$1,$8,$9*
0 Add four rect primitives between the rounded corners*
20,1,$1+$1,$2,$3,$4,$5,0*
20,1,$1+$1,$4,$5,$6,$7,0*
20,1,$1+$1,$6,$7,$8,$9,0*
20,1,$1+$1,$8,$9,$2,$3,0*%
%AMRotRect*
0 Rectangle, with rotation*
0 The origin of the aperture is its center*
0 $1 length*
0 $2 width*
0 $3 Rotation angle, in degrees counterclockwise*
0 Add horizontal line*
21,1,$1,$2,0,0,$3*%
G04 Aperture macros list end*
%ADD10C,0.300000*%
%TA.AperFunction,NonConductor*%
%ADD11C,0.300000*%
%TD*%
%TA.AperFunction,SMDPad,CuDef*%
%ADD12RotRect,2.696000X5.556000X60.000000*%
%TD*%
%TA.AperFunction,SMDPad,CuDef*%
%ADD13C,17.780000*%
%TD*%
%TA.AperFunction,ComponentPad*%
%ADD14C,2.500000*%
%TD*%
%TA.AperFunction,SMDPad,CuDef*%
%ADD15R,2.696000X5.556000*%
%TD*%
%TA.AperFunction,SMDPad,CuDef*%
%ADD16RotRect,2.696000X5.556000X300.000000*%
%TD*%
%TA.AperFunction,SMDPad,CuDef*%
%ADD17RoundRect,0.250000X0.262500X0.450000X-0.262500X0.450000X-0.262500X-0.450000X0.262500X-0.450000X0*%
%TD*%
%TA.AperFunction,SMDPad,CuDef*%
%ADD18RotRect,1.100000X2.000000X120.000000*%
%TD*%
%TA.AperFunction,SMDPad,CuDef*%
%ADD19RoundRect,0.150000X0.587500X0.150000X-0.587500X0.150000X-0.587500X-0.150000X0.587500X-0.150000X0*%
%TD*%
%TA.AperFunction,SMDPad,CuDef*%
%ADD20RoundRect,0.250000X-0.262500X-0.450000X0.262500X-0.450000X0.262500X0.450000X-0.262500X0.450000X0*%
%TD*%
%TA.AperFunction,ViaPad*%
%ADD21C,0.600000*%
%TD*%
%TA.AperFunction,Conductor*%
%ADD22C,0.250000*%
%TD*%
G04 APERTURE END LIST*
D10*
D11*
X95655489Y-114900828D02*
X95655489Y-113400828D01*
X94798346Y-114900828D02*
X95441203Y-114043685D01*
X94798346Y-113400828D02*
X95655489Y-114257971D01*
X94155489Y-114900828D02*
X94155489Y-113400828D01*
X94155489Y-114115114D02*
X93298346Y-114115114D01*
X93298346Y-114900828D02*
X93298346Y-113400828D01*
X92084060Y-114115114D02*
X92584060Y-114115114D01*
X92584060Y-114900828D02*
X92584060Y-113400828D01*
X92584060Y-113400828D02*
X91869774Y-113400828D01*
X89869774Y-113400828D02*
X89726917Y-113400828D01*
X89726917Y-113400828D02*
X89584060Y-113472257D01*
X89584060Y-113472257D02*
X89512632Y-113543685D01*
X89512632Y-113543685D02*
X89441203Y-113686542D01*
X89441203Y-113686542D02*
X89369774Y-113972257D01*
X89369774Y-113972257D02*
X89369774Y-114329400D01*
X89369774Y-114329400D02*
X89441203Y-114615114D01*
X89441203Y-114615114D02*
X89512632Y-114757971D01*
X89512632Y-114757971D02*
X89584060Y-114829400D01*
X89584060Y-114829400D02*
X89726917Y-114900828D01*
X89726917Y-114900828D02*
X89869774Y-114900828D01*
X89869774Y-114900828D02*
X90012632Y-114829400D01*
X90012632Y-114829400D02*
X90084060Y-114757971D01*
X90084060Y-114757971D02*
X90155489Y-114615114D01*
X90155489Y-114615114D02*
X90226917Y-114329400D01*
X90226917Y-114329400D02*
X90226917Y-113972257D01*
X90226917Y-113972257D02*
X90155489Y-113686542D01*
X90155489Y-113686542D02*
X90084060Y-113543685D01*
X90084060Y-113543685D02*
X90012632Y-113472257D01*
X90012632Y-113472257D02*
X89869774Y-113400828D01*
X88512632Y-114043685D02*
X88655489Y-113972257D01*
X88655489Y-113972257D02*
X88726918Y-113900828D01*
X88726918Y-113900828D02*
X88798346Y-113757971D01*
X88798346Y-113757971D02*
X88798346Y-113686542D01*
X88798346Y-113686542D02*
X88726918Y-113543685D01*
X88726918Y-113543685D02*
X88655489Y-113472257D01*
X88655489Y-113472257D02*
X88512632Y-113400828D01*
X88512632Y-113400828D02*
X88226918Y-113400828D01*
X88226918Y-113400828D02*
X88084061Y-113472257D01*
X88084061Y-113472257D02*
X88012632Y-113543685D01*
X88012632Y-113543685D02*
X87941203Y-113686542D01*
X87941203Y-113686542D02*
X87941203Y-113757971D01*
X87941203Y-113757971D02*
X88012632Y-113900828D01*
X88012632Y-113900828D02*
X88084061Y-113972257D01*
X88084061Y-113972257D02*
X88226918Y-114043685D01*
X88226918Y-114043685D02*
X88512632Y-114043685D01*
X88512632Y-114043685D02*
X88655489Y-114115114D01*
X88655489Y-114115114D02*
X88726918Y-114186542D01*
X88726918Y-114186542D02*
X88798346Y-114329400D01*
X88798346Y-114329400D02*
X88798346Y-114615114D01*
X88798346Y-114615114D02*
X88726918Y-114757971D01*
X88726918Y-114757971D02*
X88655489Y-114829400D01*
X88655489Y-114829400D02*
X88512632Y-114900828D01*
X88512632Y-114900828D02*
X88226918Y-114900828D01*
X88226918Y-114900828D02*
X88084061Y-114829400D01*
X88084061Y-114829400D02*
X88012632Y-114757971D01*
X88012632Y-114757971D02*
X87941203Y-114615114D01*
X87941203Y-114615114D02*
X87941203Y-114329400D01*
X87941203Y-114329400D02*
X88012632Y-114186542D01*
X88012632Y-114186542D02*
X88084061Y-114115114D01*
X88084061Y-114115114D02*
X88226918Y-114043685D01*
X87298347Y-114757971D02*
X87226918Y-114829400D01*
X87226918Y-114829400D02*
X87298347Y-114900828D01*
X87298347Y-114900828D02*
X87369775Y-114829400D01*
X87369775Y-114829400D02*
X87298347Y-114757971D01*
X87298347Y-114757971D02*
X87298347Y-114900828D01*
X86655489Y-113543685D02*
X86584061Y-113472257D01*
X86584061Y-113472257D02*
X86441204Y-113400828D01*
X86441204Y-113400828D02*
X86084061Y-113400828D01*
X86084061Y-113400828D02*
X85941204Y-113472257D01*
X85941204Y-113472257D02*
X85869775Y-113543685D01*
X85869775Y-113543685D02*
X85798346Y-113686542D01*
X85798346Y-113686542D02*
X85798346Y-113829400D01*
X85798346Y-113829400D02*
X85869775Y-114043685D01*
X85869775Y-114043685D02*
X86726918Y-114900828D01*
X86726918Y-114900828D02*
X85798346Y-114900828D01*
X84869775Y-113400828D02*
X84726918Y-113400828D01*
X84726918Y-113400828D02*
X84584061Y-113472257D01*
X84584061Y-113472257D02*
X84512633Y-113543685D01*
X84512633Y-113543685D02*
X84441204Y-113686542D01*
X84441204Y-113686542D02*
X84369775Y-113972257D01*
X84369775Y-113972257D02*
X84369775Y-114329400D01*
X84369775Y-114329400D02*
X84441204Y-114615114D01*
X84441204Y-114615114D02*
X84512633Y-114757971D01*
X84512633Y-114757971D02*
X84584061Y-114829400D01*
X84584061Y-114829400D02*
X84726918Y-114900828D01*
X84726918Y-114900828D02*
X84869775Y-114900828D01*
X84869775Y-114900828D02*
X85012633Y-114829400D01*
X85012633Y-114829400D02*
X85084061Y-114757971D01*
X85084061Y-114757971D02*
X85155490Y-114615114D01*
X85155490Y-114615114D02*
X85226918Y-114329400D01*
X85226918Y-114329400D02*
X85226918Y-113972257D01*
X85226918Y-113972257D02*
X85155490Y-113686542D01*
X85155490Y-113686542D02*
X85084061Y-113543685D01*
X85084061Y-113543685D02*
X85012633Y-113472257D01*
X85012633Y-113472257D02*
X84869775Y-113400828D01*
X83798347Y-113543685D02*
X83726919Y-113472257D01*
X83726919Y-113472257D02*
X83584062Y-113400828D01*
X83584062Y-113400828D02*
X83226919Y-113400828D01*
X83226919Y-113400828D02*
X83084062Y-113472257D01*
X83084062Y-113472257D02*
X83012633Y-113543685D01*
X83012633Y-113543685D02*
X82941204Y-113686542D01*
X82941204Y-113686542D02*
X82941204Y-113829400D01*
X82941204Y-113829400D02*
X83012633Y-114043685D01*
X83012633Y-114043685D02*
X83869776Y-114900828D01*
X83869776Y-114900828D02*
X82941204Y-114900828D01*
X81655491Y-113900828D02*
X81655491Y-114900828D01*
X82012633Y-113329400D02*
X82369776Y-114400828D01*
X82369776Y-114400828D02*
X81441205Y-114400828D01*
D12*
%TO.P,U2,1*%
%TO.N,Net-(U1-Pad2)*%
X103670000Y-138110000D03*
X115120000Y-118310000D03*
D13*
%TO.P,U2,2*%
%TO.N,unconnected-(U2-Pad2)*%
X109620000Y-128310000D03*
%TD*%
D14*
%TO.P,S2,1,Silber*%
%TO.N,Net-(S1-E)*%
X56150000Y-62080000D03*
%TO.P,S2,2,Gold*%
%TO.N,Net-(Q1-B)*%
X56100000Y-85630000D03*
%TD*%
D15*
%TO.P,U1,1*%
%TO.N,Net-(S1-A-Pad1)*%
X52870000Y-50260000D03*
X76522000Y-50414000D03*
D13*
%TO.P,U1,2*%
%TO.N,Net-(U1-Pad2)*%
X64720000Y-50160000D03*
%TD*%
D16*
%TO.P,U3,1*%
%TO.N,unconnected-(U2-Pad2)*%
X13140000Y-119190000D03*
X24790000Y-139340000D03*
D13*
%TO.P,U3,2*%
%TO.N,Net-(Q1-E)*%
X19090000Y-128990000D03*
%TD*%
D17*
%TO.P,R2,1*%
%TO.N,Net-(S1-E)*%
X65385000Y-121900000D03*
%TO.P,R2,2*%
%TO.N,Net-(D4-A)*%
X63560000Y-121900000D03*
%TD*%
%TO.P,R1,1*%
%TO.N,Net-(S1-E)*%
X77675000Y-118350000D03*
%TO.P,R1,2*%
%TO.N,Net-(D1-A)*%
X75850000Y-118350000D03*
%TD*%
D18*
%TO.P,S1,1,A*%
%TO.N,Net-(S1-A-Pad1)*%
X82110000Y-93080000D03*
%TO.P,S1,2,E*%
%TO.N,Net-(S1-E)*%
X81010000Y-91180000D03*
%TO.P,S1,3,A*%
X79960000Y-89280000D03*
%TD*%
D17*
%TO.P,R3,1*%
%TO.N,Net-(S1-E)*%
X52455000Y-118550000D03*
%TO.P,R3,2*%
%TO.N,Net-(D7-A)*%
X50630000Y-118550000D03*
%TD*%
D19*
%TO.P,Q1,1,B*%
%TO.N,Net-(Q1-B)*%
X71975000Y-85570000D03*
%TO.P,Q1,2,E*%
%TO.N,Net-(Q1-E)*%
X71975000Y-87470000D03*
%TO.P,Q1,3,C*%
%TO.N,Net-(D3-K)*%
X70100000Y-86520000D03*
%TD*%
D20*
%TO.P,R4,1*%
%TO.N,Net-(Q1-B)*%
X70575000Y-78400000D03*
%TO.P,R4,2*%
%TO.N,Net-(Q1-E)*%
X72400000Y-78400000D03*
%TD*%
D21*
%TO.N,Net-(D1-A)*%
X40380000Y-104550000D03*
%TO.N,Net-(D3-K)*%
X65660000Y-89920000D03*
%TO.N,Net-(D4-A)*%
X94230000Y-123860000D03*
%TO.N,Net-(D7-A)*%
X34100000Y-131670000D03*
%TO.N,Net-(U1-Pad2)*%
X101483411Y-116466589D03*
X64190000Y-90840000D03*
%TO.N,unconnected-(U2-Pad2)*%
X94180000Y-130890000D03*
X57220000Y-121850000D03*
%TD*%
D22*
%TO.N,Net-(D1-A)*%
X73330000Y-115830000D02*
X75850000Y-118350000D01*
X43890000Y-115830000D02*
X73330000Y-115830000D01*
X40380000Y-104550000D02*
X40380000Y-112320000D01*
X40380000Y-112320000D02*
X43890000Y-115830000D01*
%TO.N,Net-(D3-K)*%
X65660000Y-88170000D02*
X67310000Y-86520000D01*
X65660000Y-89920000D02*
X65660000Y-88170000D01*
X67310000Y-86520000D02*
X70100000Y-86520000D01*
%TO.N,Net-(D4-A)*%
X64450000Y-123820000D02*
X94190000Y-123820000D01*
X63560000Y-121900000D02*
X63560000Y-122930000D01*
X63560000Y-122930000D02*
X64450000Y-123820000D01*
X94190000Y-123820000D02*
X94230000Y-123860000D01*
%TO.N,Net-(D7-A)*%
X50630000Y-118550000D02*
X46550000Y-118550000D01*
X46550000Y-118550000D02*
X34100000Y-131000000D01*
X34100000Y-131000000D02*
X34100000Y-131670000D01*
%TO.N,Net-(Q1-B)*%
X70575000Y-78400000D02*
X70575000Y-82735000D01*
X56160000Y-85570000D02*
X56100000Y-85630000D01*
X71975000Y-84135000D02*
X71975000Y-85570000D01*
X71975000Y-85570000D02*
X56160000Y-85570000D01*
X70575000Y-82735000D02*
X71975000Y-84135000D01*
%TO.N,Net-(Q1-E)*%
X75400000Y-87060000D02*
X74990000Y-87470000D01*
X52286116Y-91760000D02*
X41246116Y-102800000D01*
X65349672Y-91760000D02*
X52286116Y-91760000D01*
X41246116Y-102800000D02*
X39090000Y-102800000D01*
X72400000Y-80070000D02*
X75400000Y-83070000D01*
X71975000Y-87470000D02*
X69540000Y-89905000D01*
X74990000Y-87470000D02*
X71975000Y-87470000D01*
X72400000Y-78400000D02*
X72400000Y-80070000D01*
X69540000Y-89905000D02*
X67204672Y-89905000D01*
X26250000Y-121880000D02*
X19240000Y-128890000D01*
X26250000Y-115640000D02*
X26250000Y-121880000D01*
X67204672Y-89905000D02*
X65349672Y-91760000D01*
X39090000Y-102800000D02*
X26250000Y-115640000D01*
X75400000Y-83070000D02*
X75400000Y-87060000D01*
%TO.N,Net-(S1-E)*%
X79960000Y-90130000D02*
X81010000Y-91180000D01*
X78050000Y-118350000D02*
X77675000Y-118350000D01*
X77880000Y-89280000D02*
X79960000Y-89280000D01*
X76270000Y-75790000D02*
X76270000Y-87720000D01*
X67120000Y-73520000D02*
X74000000Y-73520000D01*
X76780000Y-121900000D02*
X77700000Y-120980000D01*
X57580000Y-63980000D02*
X67120000Y-73520000D01*
X76270000Y-87720000D02*
X76320000Y-87720000D01*
X81010000Y-91180000D02*
X78970000Y-93220000D01*
X78970000Y-117430000D02*
X78050000Y-118350000D01*
X57190000Y-63980000D02*
X57580000Y-63980000D01*
X78970000Y-93220000D02*
X78970000Y-117430000D01*
X65385000Y-119605000D02*
X64330000Y-118550000D01*
X76320000Y-87720000D02*
X77880000Y-89280000D01*
X56150000Y-62080000D02*
X56150000Y-63540000D01*
X65385000Y-121900000D02*
X65385000Y-119605000D01*
X64330000Y-118550000D02*
X52455000Y-118550000D01*
X77675000Y-120955000D02*
X77675000Y-118350000D01*
X56150000Y-63540000D02*
X57190000Y-63540000D01*
X57190000Y-63540000D02*
X57190000Y-63980000D01*
X79960000Y-89280000D02*
X79960000Y-90130000D01*
X65385000Y-121900000D02*
X76780000Y-121900000D01*
X77700000Y-120980000D02*
X77675000Y-120955000D01*
X74000000Y-73520000D02*
X76270000Y-75790000D01*
%TO.N,Net-(S1-A-Pad1)*%
X77580000Y-84190000D02*
X77580000Y-75180000D01*
X82110000Y-93080000D02*
X82980000Y-92210000D01*
X82000000Y-89580000D02*
X82000000Y-88610000D01*
X82000000Y-88610000D02*
X77580000Y-84190000D01*
X82980000Y-92210000D02*
X82980000Y-90560000D01*
X76522000Y-73958000D02*
X76522000Y-50414000D01*
X76440000Y-74040000D02*
X76522000Y-73958000D01*
X82980000Y-90560000D02*
X82000000Y-89580000D01*
X77580000Y-75180000D02*
X76440000Y-74040000D01*
%TO.N,Net-(U1-Pad2)*%
X52580000Y-86430000D02*
X56960000Y-90810000D01*
X64720000Y-50160000D02*
X56440000Y-58440000D01*
X56960000Y-90810000D02*
X64160000Y-90810000D01*
X56360000Y-58440000D02*
X52580000Y-62220000D01*
X103326822Y-118310000D02*
X115120000Y-118310000D01*
X101483411Y-116466589D02*
X103326822Y-118310000D01*
X52580000Y-62220000D02*
X52580000Y-86430000D01*
X56440000Y-58440000D02*
X56360000Y-58440000D01*
X64160000Y-90810000D02*
X64190000Y-90840000D01*
%TO.N,unconnected-(U2-Pad2)*%
X96760000Y-128310000D02*
X109620000Y-128310000D01*
X45580000Y-122600000D02*
X46330000Y-121850000D01*
X24790000Y-139340000D02*
X29750000Y-134380000D01*
X29750000Y-134380000D02*
X33800000Y-134380000D01*
X33800000Y-134380000D02*
X45580000Y-122600000D01*
X46330000Y-121850000D02*
X57220000Y-121850000D01*
X94180000Y-130890000D02*
X96760000Y-128310000D01*
%TD*%
M02*
