%TF.GenerationSoftware,KiCad,Pcbnew,7.0.8*%
%TF.CreationDate,2024-09-09T11:56:01+02:00*%
%TF.ProjectId,Fidget_Spinner,46696467-6574-45f5-9370-696e6e65722e,rev?*%
%TF.SameCoordinates,Original*%
%TF.FileFunction,Copper,L1,Top*%
%TF.FilePolarity,Positive*%
%FSLAX46Y46*%
G04 Gerber Fmt 4.6, Leading zero omitted, Abs format (unit mm)*
G04 Created by KiCad (PCBNEW 7.0.8) date 2024-09-09 11:56:01*
%MOMM*%
%LPD*%
G01*
G04 APERTURE LIST*
G04 Aperture macros list*
%AMRoundRect*
0 Rectangle with rounded corners*
0 $1 Rounding radius*
0 $2 $3 $4 $5 $6 $7 $8 $9 X,Y pos of 4 corners*
0 Add a 4 corners polygon primitive as box body*
4,1,4,$2,$3,$4,$5,$6,$7,$8,$9,$2,$3,0*
0 Add four circle primitives for the rounded corners*
1,1,$1+$1,$2,$3*
1,1,$1+$1,$4,$5*
1,1,$1+$1,$6,$7*
1,1,$1+$1,$8,$9*
0 Add four rect primitives between the rounded corners*
20,1,$1+$1,$2,$3,$4,$5,0*
20,1,$1+$1,$4,$5,$6,$7,0*
20,1,$1+$1,$6,$7,$8,$9,0*
20,1,$1+$1,$8,$9,$2,$3,0*%
G04 Aperture macros list end*
%TA.AperFunction,SMDPad,CuDef*%
%ADD10RoundRect,0.214285X1.137111X-1.101896X1.522826X-0.433819X-1.137111X1.101896X-1.522826X0.433819X0*%
%TD*%
%TA.AperFunction,SMDPad,CuDef*%
%ADD11RoundRect,0.214285X-1.522826X-0.433819X-1.137111X-1.101896X1.522826X0.433819X1.137111X1.101896X0*%
%TD*%
%TA.AperFunction,SMDPad,CuDef*%
%ADD12RoundRect,0.214285X-0.385715X-1.535715X0.385715X-1.535715X0.385715X1.535715X-0.385715X1.535715X0*%
%TD*%
%TA.AperFunction,ComponentPad*%
%ADD13C,2.500000*%
%TD*%
%TA.AperFunction,ViaPad*%
%ADD14C,0.600000*%
%TD*%
%TA.AperFunction,Conductor*%
%ADD15C,0.250000*%
%TD*%
G04 APERTURE END LIST*
D10*
%TO.P,D6,1,K*%
%TO.N,Net-(D3-K)*%
X102880000Y-93320000D03*
%TO.P,D6,2,A*%
%TO.N,Net-(D5-K)*%
X101180000Y-96570000D03*
%TD*%
D11*
%TO.P,D7,1,K*%
%TO.N,Net-(D7-K)*%
X45510000Y-102620000D03*
%TO.P,D7,2,A*%
%TO.N,Net-(D7-A)*%
X47060000Y-105420000D03*
%TD*%
D12*
%TO.P,D1,1,K*%
%TO.N,Net-(D1-K)*%
X79485000Y-41240000D03*
%TO.P,D1,2,A*%
%TO.N,Net-(D1-A)*%
X83335000Y-41340000D03*
%TD*%
D10*
%TO.P,D4,1,K*%
%TO.N,Net-(D4-K)*%
X117950000Y-102110000D03*
%TO.P,D4,2,A*%
%TO.N,Net-(D4-A)*%
X116250000Y-105360000D03*
%TD*%
D11*
%TO.P,D8,1,K*%
%TO.N,Net-(D8-K)*%
X52930000Y-98120000D03*
%TO.P,D8,2,A*%
%TO.N,Net-(D7-K)*%
X54480000Y-100920000D03*
%TD*%
D13*
%TO.P,S2,1,Silber*%
%TO.N,Net-(S1-E)*%
X93760000Y-96300000D03*
%TO.P,S2,2,Gold*%
%TO.N,Net-(Q1-B)*%
X70210000Y-96250000D03*
%TD*%
D12*
%TO.P,D2,1,K*%
%TO.N,Net-(D2-K)*%
X79510000Y-50200000D03*
%TO.P,D2,2,A*%
%TO.N,Net-(D1-K)*%
X83360000Y-50300000D03*
%TD*%
%TO.P,D3,1,K*%
%TO.N,Net-(D3-K)*%
X79620000Y-59000000D03*
%TO.P,D3,2,A*%
%TO.N,Net-(D2-K)*%
X83470000Y-59100000D03*
%TD*%
D10*
%TO.P,D5,1,K*%
%TO.N,Net-(D5-K)*%
X110500000Y-97670000D03*
%TO.P,D5,2,A*%
%TO.N,Net-(D4-K)*%
X108800000Y-100920000D03*
%TD*%
D11*
%TO.P,D9,1,K*%
%TO.N,Net-(D3-K)*%
X60370000Y-93800000D03*
%TO.P,D9,2,A*%
%TO.N,Net-(D8-K)*%
X61920000Y-96600000D03*
%TD*%
D14*
%TO.N,Net-(D1-A)*%
X87110000Y-62030000D03*
%TO.N,Net-(D3-K)*%
X61660000Y-85400000D03*
%TO.N,Net-(D4-A)*%
X80790000Y-66080000D03*
%TO.N,Net-(D7-A)*%
X52757841Y-87870000D03*
%TO.N,Net-(Q1-E)*%
X64540000Y-86330000D03*
X64540000Y-84510000D03*
%TD*%
D15*
%TO.N,Net-(D1-K)*%
X79485000Y-41240000D02*
X79485000Y-43195000D01*
X83360000Y-47070000D02*
X83360000Y-50300000D01*
X79485000Y-43195000D02*
X83360000Y-47070000D01*
%TO.N,Net-(D1-A)*%
X90560000Y-52505000D02*
X87110000Y-55955000D01*
X92530000Y-50535000D02*
X90560000Y-52505000D01*
X87110000Y-55955000D02*
X87110000Y-62030000D01*
X83335000Y-41340000D02*
X92530000Y-50535000D01*
%TO.N,Net-(D2-K)*%
X83470000Y-56120000D02*
X83470000Y-59100000D01*
X79510000Y-52160000D02*
X83470000Y-56120000D01*
X79510000Y-50200000D02*
X79510000Y-52160000D01*
%TO.N,Net-(D3-K)*%
X72280000Y-64610000D02*
X72280000Y-71340000D01*
X60620000Y-85260000D02*
X60370000Y-85510000D01*
X69360000Y-76520000D02*
X60620000Y-85260000D01*
X88250000Y-95180000D02*
X92010000Y-91420000D01*
X72280000Y-71340000D02*
X69360000Y-74260000D01*
X60370000Y-85510000D02*
X60370000Y-93800000D01*
X98850000Y-91420000D02*
X100750000Y-93320000D01*
X92010000Y-91420000D02*
X98850000Y-91420000D01*
X61660000Y-85400000D02*
X60760000Y-85400000D01*
X75970000Y-93800000D02*
X77350000Y-95180000D01*
X69360000Y-74260000D02*
X69360000Y-76520000D01*
X100750000Y-93320000D02*
X102880000Y-93320000D01*
X79620000Y-59000000D02*
X76930000Y-61690000D01*
X75200000Y-61690000D02*
X72280000Y-64610000D01*
X77350000Y-95180000D02*
X88250000Y-95180000D01*
X76930000Y-61690000D02*
X75200000Y-61690000D01*
X60370000Y-93800000D02*
X75970000Y-93800000D01*
X60760000Y-85400000D02*
X60620000Y-85260000D01*
%TO.N,Net-(D4-K)*%
X113730000Y-107930000D02*
X108800000Y-103000000D01*
X108800000Y-103000000D02*
X108800000Y-100920000D01*
X117950000Y-102110000D02*
X117950000Y-104340000D01*
X117950000Y-104340000D02*
X119030000Y-105420000D01*
X119030000Y-106180000D02*
X117280000Y-107930000D01*
X117280000Y-107930000D02*
X113730000Y-107930000D01*
X119030000Y-105420000D02*
X119030000Y-106180000D01*
%TO.N,Net-(D4-A)*%
X97820000Y-83880000D02*
X97820000Y-83780000D01*
X97970000Y-84030000D02*
X97920000Y-84030000D01*
X97920000Y-83880000D02*
X97820000Y-83880000D01*
X114420000Y-95350000D02*
X104670000Y-85600000D01*
X91240000Y-74830000D02*
X82490000Y-66080000D01*
X93280000Y-79240000D02*
X93280000Y-78110000D01*
X116250000Y-105360000D02*
X116250000Y-104030000D01*
X82490000Y-66080000D02*
X80790000Y-66080000D01*
X97970000Y-84350000D02*
X97970000Y-84030000D01*
X97920000Y-84030000D02*
X97920000Y-83880000D01*
X97970000Y-85600000D02*
X97970000Y-84350000D01*
X91240000Y-76070000D02*
X91240000Y-74830000D01*
X104670000Y-85600000D02*
X97970000Y-85600000D01*
X116250000Y-104030000D02*
X114420000Y-102200000D01*
X97820000Y-83780000D02*
X93280000Y-79240000D01*
X114420000Y-102200000D02*
X114420000Y-95350000D01*
X93280000Y-78110000D02*
X91240000Y-76070000D01*
%TO.N,Net-(D5-K)*%
X102280000Y-97670000D02*
X101180000Y-96570000D01*
X110500000Y-97670000D02*
X102280000Y-97670000D01*
%TO.N,Net-(D7-K)*%
X52780000Y-102620000D02*
X54480000Y-100920000D01*
X45510000Y-102620000D02*
X52780000Y-102620000D01*
%TO.N,Net-(D7-A)*%
X44690000Y-106180000D02*
X45450000Y-105420000D01*
X52757841Y-90962159D02*
X42590000Y-101130000D01*
X45450000Y-105420000D02*
X47060000Y-105420000D01*
X42590000Y-101130000D02*
X42590000Y-104080000D01*
X42590000Y-104080000D02*
X44690000Y-106180000D01*
X52757841Y-87870000D02*
X52757841Y-90962159D01*
%TO.N,Net-(D8-K)*%
X52930000Y-98120000D02*
X60400000Y-98120000D01*
X60400000Y-98120000D02*
X61920000Y-96600000D01*
%TO.N,Net-(Q1-E)*%
X64540000Y-84510000D02*
X64540000Y-86330000D01*
%TD*%
M02*
