%TF.GenerationSoftware,KiCad,Pcbnew,7.0.8*%
%TF.CreationDate,2024-09-09T11:56:01+02:00*%
%TF.ProjectId,Fidget_Spinner,46696467-6574-45f5-9370-696e6e65722e,rev?*%
%TF.SameCoordinates,Original*%
%TF.FileFunction,Legend,Bot*%
%TF.FilePolarity,Positive*%
%FSLAX46Y46*%
G04 Gerber Fmt 4.6, Leading zero omitted, Abs format (unit mm)*
G04 Created by KiCad (PCBNEW 7.0.8) date 2024-09-09 11:56:01*
%MOMM*%
%LPD*%
G01*
G04 APERTURE LIST*
%ADD10C,0.150000*%
%ADD11C,0.050000*%
%ADD12C,0.120000*%
%ADD13C,0.010000*%
G04 APERTURE END LIST*
D10*
X64690476Y-85759580D02*
X64738095Y-85807200D01*
X64738095Y-85807200D02*
X64880952Y-85854819D01*
X64880952Y-85854819D02*
X64976190Y-85854819D01*
X64976190Y-85854819D02*
X65119047Y-85807200D01*
X65119047Y-85807200D02*
X65214285Y-85711961D01*
X65214285Y-85711961D02*
X65261904Y-85616723D01*
X65261904Y-85616723D02*
X65309523Y-85426247D01*
X65309523Y-85426247D02*
X65309523Y-85283390D01*
X65309523Y-85283390D02*
X65261904Y-85092914D01*
X65261904Y-85092914D02*
X65214285Y-84997676D01*
X65214285Y-84997676D02*
X65119047Y-84902438D01*
X65119047Y-84902438D02*
X64976190Y-84854819D01*
X64976190Y-84854819D02*
X64880952Y-84854819D01*
X64880952Y-84854819D02*
X64738095Y-84902438D01*
X64738095Y-84902438D02*
X64690476Y-84950057D01*
X68689285Y-87793990D02*
X68355952Y-87793990D01*
X68213095Y-87270180D02*
X68689285Y-87270180D01*
X68689285Y-87270180D02*
X68689285Y-88270180D01*
X68689285Y-88270180D02*
X68213095Y-88270180D01*
X68303571Y-82606009D02*
X68160714Y-82653628D01*
X68160714Y-82653628D02*
X68113095Y-82701247D01*
X68113095Y-82701247D02*
X68065476Y-82796485D01*
X68065476Y-82796485D02*
X68065476Y-82939342D01*
X68065476Y-82939342D02*
X68113095Y-83034580D01*
X68113095Y-83034580D02*
X68160714Y-83082200D01*
X68160714Y-83082200D02*
X68255952Y-83129819D01*
X68255952Y-83129819D02*
X68636904Y-83129819D01*
X68636904Y-83129819D02*
X68636904Y-82129819D01*
X68636904Y-82129819D02*
X68303571Y-82129819D01*
X68303571Y-82129819D02*
X68208333Y-82177438D01*
X68208333Y-82177438D02*
X68160714Y-82225057D01*
X68160714Y-82225057D02*
X68113095Y-82320295D01*
X68113095Y-82320295D02*
X68113095Y-82415533D01*
X68113095Y-82415533D02*
X68160714Y-82510771D01*
X68160714Y-82510771D02*
X68208333Y-82558390D01*
X68208333Y-82558390D02*
X68303571Y-82606009D01*
X68303571Y-82606009D02*
X68636904Y-82606009D01*
X62057506Y-70029819D02*
X62057506Y-70744104D01*
X62057506Y-70744104D02*
X62105125Y-70886961D01*
X62105125Y-70886961D02*
X62200363Y-70982200D01*
X62200363Y-70982200D02*
X62343220Y-71029819D01*
X62343220Y-71029819D02*
X62438458Y-71029819D01*
X61105125Y-71029819D02*
X61581315Y-71029819D01*
X61581315Y-71029819D02*
X61581315Y-70029819D01*
X60200363Y-70934580D02*
X60247982Y-70982200D01*
X60247982Y-70982200D02*
X60390839Y-71029819D01*
X60390839Y-71029819D02*
X60486077Y-71029819D01*
X60486077Y-71029819D02*
X60628934Y-70982200D01*
X60628934Y-70982200D02*
X60724172Y-70886961D01*
X60724172Y-70886961D02*
X60771791Y-70791723D01*
X60771791Y-70791723D02*
X60819410Y-70601247D01*
X60819410Y-70601247D02*
X60819410Y-70458390D01*
X60819410Y-70458390D02*
X60771791Y-70267914D01*
X60771791Y-70267914D02*
X60724172Y-70172676D01*
X60724172Y-70172676D02*
X60628934Y-70077438D01*
X60628934Y-70077438D02*
X60486077Y-70029819D01*
X60486077Y-70029819D02*
X60390839Y-70029819D01*
X60390839Y-70029819D02*
X60247982Y-70077438D01*
X60247982Y-70077438D02*
X60200363Y-70125057D01*
X59486077Y-70029819D02*
X59486077Y-70744104D01*
X59486077Y-70744104D02*
X59533696Y-70886961D01*
X59533696Y-70886961D02*
X59628934Y-70982200D01*
X59628934Y-70982200D02*
X59771791Y-71029819D01*
X59771791Y-71029819D02*
X59867029Y-71029819D01*
X58533696Y-71029819D02*
X59009886Y-71029819D01*
X59009886Y-71029819D02*
X59009886Y-70029819D01*
X57628934Y-70934580D02*
X57676553Y-70982200D01*
X57676553Y-70982200D02*
X57819410Y-71029819D01*
X57819410Y-71029819D02*
X57914648Y-71029819D01*
X57914648Y-71029819D02*
X58057505Y-70982200D01*
X58057505Y-70982200D02*
X58152743Y-70886961D01*
X58152743Y-70886961D02*
X58200362Y-70791723D01*
X58200362Y-70791723D02*
X58247981Y-70601247D01*
X58247981Y-70601247D02*
X58247981Y-70458390D01*
X58247981Y-70458390D02*
X58200362Y-70267914D01*
X58200362Y-70267914D02*
X58152743Y-70172676D01*
X58152743Y-70172676D02*
X58057505Y-70077438D01*
X58057505Y-70077438D02*
X57914648Y-70029819D01*
X57914648Y-70029819D02*
X57819410Y-70029819D01*
X57819410Y-70029819D02*
X57676553Y-70077438D01*
X57676553Y-70077438D02*
X57628934Y-70125057D01*
X56914648Y-70029819D02*
X56914648Y-70744104D01*
X56914648Y-70744104D02*
X56962267Y-70886961D01*
X56962267Y-70886961D02*
X57057505Y-70982200D01*
X57057505Y-70982200D02*
X57200362Y-71029819D01*
X57200362Y-71029819D02*
X57295600Y-71029819D01*
X55962267Y-71029819D02*
X56438457Y-71029819D01*
X56438457Y-71029819D02*
X56438457Y-70029819D01*
X55057505Y-70934580D02*
X55105124Y-70982200D01*
X55105124Y-70982200D02*
X55247981Y-71029819D01*
X55247981Y-71029819D02*
X55343219Y-71029819D01*
X55343219Y-71029819D02*
X55486076Y-70982200D01*
X55486076Y-70982200D02*
X55581314Y-70886961D01*
X55581314Y-70886961D02*
X55628933Y-70791723D01*
X55628933Y-70791723D02*
X55676552Y-70601247D01*
X55676552Y-70601247D02*
X55676552Y-70458390D01*
X55676552Y-70458390D02*
X55628933Y-70267914D01*
X55628933Y-70267914D02*
X55581314Y-70172676D01*
X55581314Y-70172676D02*
X55486076Y-70077438D01*
X55486076Y-70077438D02*
X55343219Y-70029819D01*
X55343219Y-70029819D02*
X55247981Y-70029819D01*
X55247981Y-70029819D02*
X55105124Y-70077438D01*
X55105124Y-70077438D02*
X55057505Y-70125057D01*
X54343219Y-70029819D02*
X54343219Y-70744104D01*
X54343219Y-70744104D02*
X54390838Y-70886961D01*
X54390838Y-70886961D02*
X54486076Y-70982200D01*
X54486076Y-70982200D02*
X54628933Y-71029819D01*
X54628933Y-71029819D02*
X54724171Y-71029819D01*
X53390838Y-71029819D02*
X53867028Y-71029819D01*
X53867028Y-71029819D02*
X53867028Y-70029819D01*
X52486076Y-70934580D02*
X52533695Y-70982200D01*
X52533695Y-70982200D02*
X52676552Y-71029819D01*
X52676552Y-71029819D02*
X52771790Y-71029819D01*
X52771790Y-71029819D02*
X52914647Y-70982200D01*
X52914647Y-70982200D02*
X53009885Y-70886961D01*
X53009885Y-70886961D02*
X53057504Y-70791723D01*
X53057504Y-70791723D02*
X53105123Y-70601247D01*
X53105123Y-70601247D02*
X53105123Y-70458390D01*
X53105123Y-70458390D02*
X53057504Y-70267914D01*
X53057504Y-70267914D02*
X53009885Y-70172676D01*
X53009885Y-70172676D02*
X52914647Y-70077438D01*
X52914647Y-70077438D02*
X52771790Y-70029819D01*
X52771790Y-70029819D02*
X52676552Y-70029819D01*
X52676552Y-70029819D02*
X52533695Y-70077438D01*
X52533695Y-70077438D02*
X52486076Y-70125057D01*
D11*
X82019714Y-56390019D02*
X82019714Y-57199542D01*
X82019714Y-57199542D02*
X81976857Y-57294780D01*
X81976857Y-57294780D02*
X81934000Y-57342400D01*
X81934000Y-57342400D02*
X81848285Y-57390019D01*
X81848285Y-57390019D02*
X81676857Y-57390019D01*
X81676857Y-57390019D02*
X81591142Y-57342400D01*
X81591142Y-57342400D02*
X81548285Y-57294780D01*
X81548285Y-57294780D02*
X81505428Y-57199542D01*
X81505428Y-57199542D02*
X81505428Y-56390019D01*
X80605428Y-57390019D02*
X81119714Y-57390019D01*
X80862571Y-57390019D02*
X80862571Y-56390019D01*
X80862571Y-56390019D02*
X80948285Y-56532876D01*
X80948285Y-56532876D02*
X81034000Y-56628114D01*
X81034000Y-56628114D02*
X81119714Y-56675733D01*
X90112570Y-52746209D02*
X89983998Y-52793828D01*
X89983998Y-52793828D02*
X89941141Y-52841447D01*
X89941141Y-52841447D02*
X89898284Y-52936685D01*
X89898284Y-52936685D02*
X89898284Y-53079542D01*
X89898284Y-53079542D02*
X89941141Y-53174780D01*
X89941141Y-53174780D02*
X89983998Y-53222400D01*
X89983998Y-53222400D02*
X90069713Y-53270019D01*
X90069713Y-53270019D02*
X90412570Y-53270019D01*
X90412570Y-53270019D02*
X90412570Y-52270019D01*
X90412570Y-52270019D02*
X90112570Y-52270019D01*
X90112570Y-52270019D02*
X90026856Y-52317638D01*
X90026856Y-52317638D02*
X89983998Y-52365257D01*
X89983998Y-52365257D02*
X89941141Y-52460495D01*
X89941141Y-52460495D02*
X89941141Y-52555733D01*
X89941141Y-52555733D02*
X89983998Y-52650971D01*
X89983998Y-52650971D02*
X90026856Y-52698590D01*
X90026856Y-52698590D02*
X90112570Y-52746209D01*
X90112570Y-52746209D02*
X90412570Y-52746209D01*
X89555427Y-52984304D02*
X89126856Y-52984304D01*
X89641141Y-53270019D02*
X89341141Y-52270019D01*
X89341141Y-52270019D02*
X89041141Y-53270019D01*
X88869712Y-52270019D02*
X88355427Y-52270019D01*
X88612569Y-53270019D02*
X88612569Y-52270019D01*
X88269713Y-53365257D02*
X87583998Y-53365257D01*
X87369713Y-53270019D02*
X87369713Y-52270019D01*
X87369713Y-52746209D02*
X86855427Y-52746209D01*
X86855427Y-53270019D02*
X86855427Y-52270019D01*
X85998284Y-53270019D02*
X86426856Y-53270019D01*
X86426856Y-53270019D02*
X86426856Y-52270019D01*
X85698285Y-53270019D02*
X85698285Y-52270019D01*
X85698285Y-52270019D02*
X85483999Y-52270019D01*
X85483999Y-52270019D02*
X85355428Y-52317638D01*
X85355428Y-52317638D02*
X85269713Y-52412876D01*
X85269713Y-52412876D02*
X85226856Y-52508114D01*
X85226856Y-52508114D02*
X85183999Y-52698590D01*
X85183999Y-52698590D02*
X85183999Y-52841447D01*
X85183999Y-52841447D02*
X85226856Y-53031923D01*
X85226856Y-53031923D02*
X85269713Y-53127161D01*
X85269713Y-53127161D02*
X85355428Y-53222400D01*
X85355428Y-53222400D02*
X85483999Y-53270019D01*
X85483999Y-53270019D02*
X85698285Y-53270019D01*
X85012571Y-53365257D02*
X84326856Y-53365257D01*
X84155428Y-53222400D02*
X84026857Y-53270019D01*
X84026857Y-53270019D02*
X83812571Y-53270019D01*
X83812571Y-53270019D02*
X83726857Y-53222400D01*
X83726857Y-53222400D02*
X83683999Y-53174780D01*
X83683999Y-53174780D02*
X83641142Y-53079542D01*
X83641142Y-53079542D02*
X83641142Y-52984304D01*
X83641142Y-52984304D02*
X83683999Y-52889066D01*
X83683999Y-52889066D02*
X83726857Y-52841447D01*
X83726857Y-52841447D02*
X83812571Y-52793828D01*
X83812571Y-52793828D02*
X83983999Y-52746209D01*
X83983999Y-52746209D02*
X84069714Y-52698590D01*
X84069714Y-52698590D02*
X84112571Y-52650971D01*
X84112571Y-52650971D02*
X84155428Y-52555733D01*
X84155428Y-52555733D02*
X84155428Y-52460495D01*
X84155428Y-52460495D02*
X84112571Y-52365257D01*
X84112571Y-52365257D02*
X84069714Y-52317638D01*
X84069714Y-52317638D02*
X83983999Y-52270019D01*
X83983999Y-52270019D02*
X83769714Y-52270019D01*
X83769714Y-52270019D02*
X83641142Y-52317638D01*
X83255428Y-53270019D02*
X83255428Y-52270019D01*
X83255428Y-52270019D02*
X82955428Y-52984304D01*
X82955428Y-52984304D02*
X82655428Y-52270019D01*
X82655428Y-52270019D02*
X82655428Y-53270019D01*
X82226857Y-53270019D02*
X82226857Y-52270019D01*
X82226857Y-52270019D02*
X82012571Y-52270019D01*
X82012571Y-52270019D02*
X81884000Y-52317638D01*
X81884000Y-52317638D02*
X81798285Y-52412876D01*
X81798285Y-52412876D02*
X81755428Y-52508114D01*
X81755428Y-52508114D02*
X81712571Y-52698590D01*
X81712571Y-52698590D02*
X81712571Y-52841447D01*
X81712571Y-52841447D02*
X81755428Y-53031923D01*
X81755428Y-53031923D02*
X81798285Y-53127161D01*
X81798285Y-53127161D02*
X81884000Y-53222400D01*
X81884000Y-53222400D02*
X82012571Y-53270019D01*
X82012571Y-53270019D02*
X82226857Y-53270019D01*
D10*
X76306666Y-62744819D02*
X76639999Y-62268628D01*
X76878094Y-62744819D02*
X76878094Y-61744819D01*
X76878094Y-61744819D02*
X76497142Y-61744819D01*
X76497142Y-61744819D02*
X76401904Y-61792438D01*
X76401904Y-61792438D02*
X76354285Y-61840057D01*
X76354285Y-61840057D02*
X76306666Y-61935295D01*
X76306666Y-61935295D02*
X76306666Y-62078152D01*
X76306666Y-62078152D02*
X76354285Y-62173390D01*
X76354285Y-62173390D02*
X76401904Y-62221009D01*
X76401904Y-62221009D02*
X76497142Y-62268628D01*
X76497142Y-62268628D02*
X76878094Y-62268628D01*
X75973332Y-61744819D02*
X75354285Y-61744819D01*
X75354285Y-61744819D02*
X75687618Y-62125771D01*
X75687618Y-62125771D02*
X75544761Y-62125771D01*
X75544761Y-62125771D02*
X75449523Y-62173390D01*
X75449523Y-62173390D02*
X75401904Y-62221009D01*
X75401904Y-62221009D02*
X75354285Y-62316247D01*
X75354285Y-62316247D02*
X75354285Y-62554342D01*
X75354285Y-62554342D02*
X75401904Y-62649580D01*
X75401904Y-62649580D02*
X75449523Y-62697200D01*
X75449523Y-62697200D02*
X75544761Y-62744819D01*
X75544761Y-62744819D02*
X75830475Y-62744819D01*
X75830475Y-62744819D02*
X75925713Y-62697200D01*
X75925713Y-62697200D02*
X75973332Y-62649580D01*
X81916666Y-67684819D02*
X82249999Y-67208628D01*
X82488094Y-67684819D02*
X82488094Y-66684819D01*
X82488094Y-66684819D02*
X82107142Y-66684819D01*
X82107142Y-66684819D02*
X82011904Y-66732438D01*
X82011904Y-66732438D02*
X81964285Y-66780057D01*
X81964285Y-66780057D02*
X81916666Y-66875295D01*
X81916666Y-66875295D02*
X81916666Y-67018152D01*
X81916666Y-67018152D02*
X81964285Y-67113390D01*
X81964285Y-67113390D02*
X82011904Y-67161009D01*
X82011904Y-67161009D02*
X82107142Y-67208628D01*
X82107142Y-67208628D02*
X82488094Y-67208628D01*
X81059523Y-67018152D02*
X81059523Y-67684819D01*
X81297618Y-66637200D02*
X81535713Y-67351485D01*
X81535713Y-67351485D02*
X80916666Y-67351485D01*
X87296666Y-62744819D02*
X87629999Y-62268628D01*
X87868094Y-62744819D02*
X87868094Y-61744819D01*
X87868094Y-61744819D02*
X87487142Y-61744819D01*
X87487142Y-61744819D02*
X87391904Y-61792438D01*
X87391904Y-61792438D02*
X87344285Y-61840057D01*
X87344285Y-61840057D02*
X87296666Y-61935295D01*
X87296666Y-61935295D02*
X87296666Y-62078152D01*
X87296666Y-62078152D02*
X87344285Y-62173390D01*
X87344285Y-62173390D02*
X87391904Y-62221009D01*
X87391904Y-62221009D02*
X87487142Y-62268628D01*
X87487142Y-62268628D02*
X87868094Y-62268628D01*
X86344285Y-62744819D02*
X86915713Y-62744819D01*
X86629999Y-62744819D02*
X86629999Y-61744819D01*
X86629999Y-61744819D02*
X86725237Y-61887676D01*
X86725237Y-61887676D02*
X86820475Y-61982914D01*
X86820475Y-61982914D02*
X86915713Y-62030533D01*
X81814166Y-62744819D02*
X82147499Y-62268628D01*
X82385594Y-62744819D02*
X82385594Y-61744819D01*
X82385594Y-61744819D02*
X82004642Y-61744819D01*
X82004642Y-61744819D02*
X81909404Y-61792438D01*
X81909404Y-61792438D02*
X81861785Y-61840057D01*
X81861785Y-61840057D02*
X81814166Y-61935295D01*
X81814166Y-61935295D02*
X81814166Y-62078152D01*
X81814166Y-62078152D02*
X81861785Y-62173390D01*
X81861785Y-62173390D02*
X81909404Y-62221009D01*
X81909404Y-62221009D02*
X82004642Y-62268628D01*
X82004642Y-62268628D02*
X82385594Y-62268628D01*
X81433213Y-61840057D02*
X81385594Y-61792438D01*
X81385594Y-61792438D02*
X81290356Y-61744819D01*
X81290356Y-61744819D02*
X81052261Y-61744819D01*
X81052261Y-61744819D02*
X80957023Y-61792438D01*
X80957023Y-61792438D02*
X80909404Y-61840057D01*
X80909404Y-61840057D02*
X80861785Y-61935295D01*
X80861785Y-61935295D02*
X80861785Y-62030533D01*
X80861785Y-62030533D02*
X80909404Y-62173390D01*
X80909404Y-62173390D02*
X81480832Y-62744819D01*
X81480832Y-62744819D02*
X80861785Y-62744819D01*
X97091904Y-79757200D02*
X96949047Y-79804819D01*
X96949047Y-79804819D02*
X96710952Y-79804819D01*
X96710952Y-79804819D02*
X96615714Y-79757200D01*
X96615714Y-79757200D02*
X96568095Y-79709580D01*
X96568095Y-79709580D02*
X96520476Y-79614342D01*
X96520476Y-79614342D02*
X96520476Y-79519104D01*
X96520476Y-79519104D02*
X96568095Y-79423866D01*
X96568095Y-79423866D02*
X96615714Y-79376247D01*
X96615714Y-79376247D02*
X96710952Y-79328628D01*
X96710952Y-79328628D02*
X96901428Y-79281009D01*
X96901428Y-79281009D02*
X96996666Y-79233390D01*
X96996666Y-79233390D02*
X97044285Y-79185771D01*
X97044285Y-79185771D02*
X97091904Y-79090533D01*
X97091904Y-79090533D02*
X97091904Y-78995295D01*
X97091904Y-78995295D02*
X97044285Y-78900057D01*
X97044285Y-78900057D02*
X96996666Y-78852438D01*
X96996666Y-78852438D02*
X96901428Y-78804819D01*
X96901428Y-78804819D02*
X96663333Y-78804819D01*
X96663333Y-78804819D02*
X96520476Y-78852438D01*
X95568095Y-79804819D02*
X96139523Y-79804819D01*
X95853809Y-79804819D02*
X95853809Y-78804819D01*
X95853809Y-78804819D02*
X95949047Y-78947676D01*
X95949047Y-78947676D02*
X96044285Y-79042914D01*
X96044285Y-79042914D02*
X96139523Y-79090533D01*
D11*
%TO.C,G\u002A\u002A\u002A*%
X49505000Y-64440000D02*
X50080000Y-64915000D01*
X50080000Y-64915000D02*
X50505000Y-64590000D01*
X50505000Y-64590000D02*
X49505000Y-64440000D01*
D12*
X50830000Y-66028605D02*
X51730000Y-66015000D01*
X51229999Y-67410050D02*
X50829999Y-67410050D01*
X51230000Y-66415000D02*
X50980000Y-66415000D01*
X51230000Y-66465000D02*
X51230000Y-66915000D01*
X51230000Y-66915000D02*
X50930000Y-66915000D01*
X51230000Y-67415000D02*
X51230000Y-67915000D01*
X51230000Y-67915000D02*
X50780000Y-67915000D01*
D11*
X51455000Y-63715000D02*
X51805000Y-62540000D01*
D12*
X51730000Y-66015000D02*
X51780000Y-68465000D01*
X51780000Y-68465000D02*
X50580000Y-68465000D01*
D11*
X51805000Y-62540000D02*
X53605000Y-62590000D01*
D12*
X52055000Y-68465000D02*
X52830000Y-66015000D01*
X52455000Y-68465000D02*
X52055000Y-68465000D01*
X52705000Y-67865000D02*
X52455000Y-68465000D01*
X52780000Y-67465000D02*
X53005000Y-66715000D01*
X52830000Y-66015000D02*
X53155000Y-66015000D01*
X53005000Y-66715000D02*
X53280000Y-67465000D01*
D11*
X53030000Y-64640000D02*
X54705000Y-64740000D01*
D12*
X53155000Y-66015000D02*
X54055000Y-68465000D01*
X53280000Y-67465000D02*
X52780000Y-67465000D01*
X53305000Y-67865000D02*
X52705000Y-67865000D01*
X53555000Y-68465000D02*
X53305000Y-67865000D01*
X53555000Y-68465000D02*
X54055000Y-68465000D01*
D11*
X53605000Y-62590000D02*
X51455000Y-63715000D01*
X53730000Y-64065000D02*
X53030000Y-64640000D01*
D12*
X54230000Y-67990000D02*
X54230000Y-68440000D01*
X54230000Y-68440000D02*
X55480000Y-68440000D01*
D11*
X54730000Y-64740000D02*
X53730000Y-64065000D01*
X54880000Y-64290000D02*
X56505000Y-65415000D01*
X54930000Y-61965000D02*
X56055000Y-63190000D01*
X54955000Y-61565000D02*
X54880000Y-64290000D01*
D12*
X54980000Y-67990000D02*
X54230000Y-67990000D01*
X55005000Y-65990000D02*
X54980000Y-67990000D01*
X55455000Y-65990000D02*
X55005000Y-65990000D01*
X55480000Y-68440000D02*
X55455000Y-65990000D01*
X55655000Y-68440000D02*
X56355000Y-67490000D01*
X55755000Y-68440000D02*
X55655000Y-68440000D01*
D11*
X56055000Y-63190000D02*
X55480000Y-64690000D01*
D12*
X56155000Y-68440000D02*
X55755000Y-68440000D01*
X56396269Y-65984594D02*
X57505000Y-65990000D01*
D11*
X56505000Y-65415000D02*
X58180000Y-65190000D01*
D12*
X56555000Y-66440000D02*
X57005000Y-66440000D01*
X56905000Y-67490000D02*
X56155000Y-68440000D01*
X57005000Y-66440000D02*
X57005000Y-66990000D01*
X57005000Y-66990000D02*
X56505000Y-66990000D01*
X57055000Y-67490000D02*
X56905000Y-67490000D01*
X57055000Y-68440000D02*
X57055000Y-67490000D01*
X57505000Y-65990000D02*
X57505000Y-68440000D01*
X57505000Y-68440000D02*
X57055000Y-68440000D01*
D11*
X57655000Y-65640000D02*
X58630000Y-65990000D01*
D12*
X57955000Y-65990000D02*
X59255000Y-65990000D01*
X57955000Y-66490000D02*
X57955000Y-65990000D01*
X57955000Y-67940000D02*
X58805000Y-67940000D01*
X57955000Y-68440000D02*
X57955000Y-67940000D01*
D11*
X58055000Y-65365000D02*
X57655000Y-65640000D01*
D12*
X58155000Y-66940000D02*
X58805000Y-66940000D01*
X58155000Y-67390000D02*
X58155000Y-66940000D01*
D11*
X58180000Y-65190000D02*
X60005000Y-66090000D01*
X58430000Y-63190000D02*
X54955000Y-61565000D01*
X58430000Y-63190000D02*
X60755000Y-64340000D01*
D12*
X58805000Y-66490000D02*
X57955000Y-66490000D01*
X58805000Y-66940000D02*
X58805000Y-66490000D01*
X58805000Y-67390000D02*
X58155000Y-67390000D01*
X58805000Y-67940000D02*
X58805000Y-67390000D01*
D11*
X58830000Y-65965000D02*
X58055000Y-65365000D01*
X59180000Y-61765000D02*
X58430000Y-63190000D01*
X59180000Y-61765000D02*
X61380000Y-62940000D01*
D12*
X59205000Y-68440000D02*
X57955000Y-68440000D01*
X59255000Y-65990000D02*
X59305000Y-68440000D01*
X59305000Y-68440000D02*
X59205000Y-68440000D01*
X60405000Y-66003605D02*
X61305000Y-65990000D01*
D11*
X60755000Y-64340000D02*
X62230000Y-66065000D01*
X60755000Y-64340000D02*
X66405000Y-67190000D01*
D12*
X60804999Y-67385050D02*
X60404999Y-67385050D01*
X60805000Y-66390000D02*
X60555000Y-66390000D01*
X60805000Y-66440000D02*
X60805000Y-66890000D01*
X60805000Y-66890000D02*
X60505000Y-66890000D01*
X60805000Y-67390000D02*
X60805000Y-67890000D01*
X60805000Y-67890000D02*
X60355000Y-67890000D01*
X61305000Y-65990000D02*
X61355000Y-68440000D01*
X61355000Y-68440000D02*
X60155000Y-68440000D01*
D11*
X61380000Y-62940000D02*
X59805000Y-63840000D01*
X61480000Y-62765000D02*
X60755000Y-64340000D01*
D12*
X61755000Y-66840000D02*
X61755000Y-67540000D01*
D11*
X62055000Y-66165000D02*
X54955000Y-61565000D01*
D12*
X62255000Y-66840000D02*
X62255000Y-67490000D01*
D11*
X62505000Y-63015000D02*
X60755000Y-64340000D01*
X62505000Y-63015000D02*
X61480000Y-62765000D01*
X62580000Y-67090000D02*
X62955000Y-67265000D01*
X62905000Y-66690000D02*
X62580000Y-67090000D01*
D12*
X62955000Y-66840000D02*
X62955000Y-67540000D01*
D11*
X63455000Y-67440000D02*
X64005000Y-67715000D01*
D12*
X63455000Y-67540000D02*
X63455000Y-66840000D01*
D11*
X63505000Y-66715000D02*
X63730000Y-67340000D01*
X63730000Y-67340000D02*
X66405000Y-67190000D01*
X64005000Y-67715000D02*
X63430000Y-66915000D01*
X65080000Y-67665000D02*
X64255000Y-67315000D01*
X66405000Y-67190000D02*
X62505000Y-63015000D01*
X66405000Y-67190000D02*
X63505000Y-66715000D01*
X66405000Y-67190000D02*
X65080000Y-67665000D01*
D12*
X50830000Y-66028606D02*
G75*
G03*
X50380001Y-67114999I0J-636394D01*
G01*
X50403744Y-67156064D02*
G75*
G03*
X50580001Y-68464998I426255J-608936D01*
G01*
X50829999Y-67410051D02*
G75*
G03*
X50780001Y-67914998I1J-254949D01*
G01*
X50990634Y-66422464D02*
G75*
G03*
X50930000Y-66915000I-60634J-242536D01*
G01*
X56396269Y-65984595D02*
G75*
G03*
X56380001Y-67439998I233731J-730405D01*
G01*
X56505001Y-66440002D02*
G75*
G03*
X56505001Y-66989998I124999J-274998D01*
G01*
X60405000Y-66003606D02*
G75*
G03*
X59955001Y-67089999I0J-636394D01*
G01*
X59978744Y-67131064D02*
G75*
G03*
X60155001Y-68439998I426255J-608936D01*
G01*
X60404999Y-67385051D02*
G75*
G03*
X60355001Y-67889998I1J-254949D01*
G01*
X60565634Y-66397464D02*
G75*
G03*
X60505000Y-66890000I-60634J-242536D01*
G01*
X63455000Y-66840000D02*
G75*
G03*
X61755000Y-66840000I-850000J0D01*
G01*
X62955000Y-66840000D02*
G75*
G03*
X62255000Y-66840000I-350000J0D01*
G01*
X62255000Y-67540000D02*
G75*
G03*
X62955000Y-67540000I350000J0D01*
G01*
X61755000Y-67540000D02*
G75*
G03*
X63455000Y-67540000I850000J0D01*
G01*
D13*
X71952361Y-121435226D02*
X71888542Y-121499045D01*
X71824723Y-121435226D01*
X71888542Y-121371407D01*
X71952361Y-121435226D01*
G36*
X71952361Y-121435226D02*
G01*
X71888542Y-121499045D01*
X71824723Y-121435226D01*
X71888542Y-121371407D01*
X71952361Y-121435226D01*
G37*
X75435576Y-41952631D02*
X76822871Y-42563145D01*
X78233892Y-43007331D01*
X79661031Y-43285208D01*
X81096679Y-43396794D01*
X82533227Y-43342105D01*
X83963068Y-43121160D01*
X85378592Y-42733977D01*
X86772192Y-42180572D01*
X87297523Y-41925116D01*
X88264510Y-41430377D01*
X90179805Y-43347031D01*
X92095100Y-45263684D01*
X92088968Y-50216009D01*
X92082836Y-55168333D01*
X88046714Y-59105333D01*
X74950100Y-59096889D01*
X72896933Y-57134008D01*
X70843766Y-55171128D01*
X70843766Y-55018422D01*
X71097766Y-55018422D01*
X73045100Y-56870844D01*
X73520695Y-57325204D01*
X73954269Y-57743157D01*
X74331166Y-58110281D01*
X74636728Y-58412150D01*
X74856299Y-58634340D01*
X74975222Y-58762427D01*
X74992433Y-58787300D01*
X75074936Y-58797448D01*
X75313790Y-58806985D01*
X75696015Y-58815791D01*
X76208630Y-58823747D01*
X76838653Y-58830733D01*
X77573104Y-58836629D01*
X78399001Y-58841315D01*
X79303364Y-58844672D01*
X80273211Y-58846581D01*
X81295562Y-58846921D01*
X81448266Y-58846832D01*
X87904100Y-58842331D01*
X89882068Y-56909769D01*
X91860037Y-54977207D01*
X91797097Y-50119770D01*
X91734156Y-45262333D01*
X89963619Y-43535912D01*
X88193082Y-41809492D01*
X87201924Y-42282588D01*
X85763175Y-42882151D01*
X84313105Y-43314514D01*
X82857139Y-43579707D01*
X81400702Y-43677759D01*
X79949219Y-43608702D01*
X78508117Y-43372564D01*
X77082819Y-42969376D01*
X75678753Y-42399167D01*
X75304815Y-42216991D01*
X74455610Y-41788361D01*
X71104206Y-45262333D01*
X71100986Y-50140377D01*
X71097766Y-55018422D01*
X70843766Y-55018422D01*
X70843766Y-45140169D01*
X72620410Y-43284033D01*
X74397053Y-41427897D01*
X75435576Y-41952631D01*
G36*
X75435576Y-41952631D02*
G01*
X76822871Y-42563145D01*
X78233892Y-43007331D01*
X79661031Y-43285208D01*
X81096679Y-43396794D01*
X82533227Y-43342105D01*
X83963068Y-43121160D01*
X85378592Y-42733977D01*
X86772192Y-42180572D01*
X87297523Y-41925116D01*
X88264510Y-41430377D01*
X90179805Y-43347031D01*
X92095100Y-45263684D01*
X92088968Y-50216009D01*
X92082836Y-55168333D01*
X88046714Y-59105333D01*
X74950100Y-59096889D01*
X72896933Y-57134008D01*
X70843766Y-55171128D01*
X70843766Y-55018422D01*
X71097766Y-55018422D01*
X73045100Y-56870844D01*
X73520695Y-57325204D01*
X73954269Y-57743157D01*
X74331166Y-58110281D01*
X74636728Y-58412150D01*
X74856299Y-58634340D01*
X74975222Y-58762427D01*
X74992433Y-58787300D01*
X75074936Y-58797448D01*
X75313790Y-58806985D01*
X75696015Y-58815791D01*
X76208630Y-58823747D01*
X76838653Y-58830733D01*
X77573104Y-58836629D01*
X78399001Y-58841315D01*
X79303364Y-58844672D01*
X80273211Y-58846581D01*
X81295562Y-58846921D01*
X81448266Y-58846832D01*
X87904100Y-58842331D01*
X89882068Y-56909769D01*
X91860037Y-54977207D01*
X91797097Y-50119770D01*
X91734156Y-45262333D01*
X89963619Y-43535912D01*
X88193082Y-41809492D01*
X87201924Y-42282588D01*
X85763175Y-42882151D01*
X84313105Y-43314514D01*
X82857139Y-43579707D01*
X81400702Y-43677759D01*
X79949219Y-43608702D01*
X78508117Y-43372564D01*
X77082819Y-42969376D01*
X75678753Y-42399167D01*
X75304815Y-42216991D01*
X74455610Y-41788361D01*
X71104206Y-45262333D01*
X71100986Y-50140377D01*
X71097766Y-55018422D01*
X70843766Y-55018422D01*
X70843766Y-45140169D01*
X72620410Y-43284033D01*
X74397053Y-41427897D01*
X75435576Y-41952631D01*
G37*
X120077433Y-92941320D02*
X120602686Y-95390827D01*
X120735854Y-96014686D01*
X120856863Y-96587023D01*
X120961251Y-97086295D01*
X121044554Y-97490958D01*
X121102310Y-97779469D01*
X121130056Y-97930285D01*
X121131853Y-97945221D01*
X121062650Y-98026768D01*
X120873862Y-98158005D01*
X120599243Y-98316780D01*
X120437266Y-98401094D01*
X119169491Y-99131473D01*
X118002091Y-99994577D01*
X116943837Y-100980715D01*
X116003498Y-102080198D01*
X115189845Y-103283335D01*
X114511645Y-104580436D01*
X114224006Y-105266566D01*
X113919246Y-106173367D01*
X113663124Y-107171052D01*
X113474159Y-108183874D01*
X113427929Y-108522875D01*
X113379588Y-108882223D01*
X113331766Y-109176426D01*
X113291305Y-109366170D01*
X113272807Y-109414230D01*
X113180581Y-109443083D01*
X112946599Y-109497445D01*
X112595709Y-109572526D01*
X112152755Y-109663536D01*
X111642584Y-109765685D01*
X111090041Y-109874183D01*
X110519971Y-109984238D01*
X109957221Y-110091062D01*
X109426636Y-110189863D01*
X108953061Y-110275852D01*
X108561343Y-110344237D01*
X108276327Y-110390230D01*
X108122859Y-110409040D01*
X108112151Y-110409206D01*
X108017650Y-110361972D01*
X107796474Y-110227526D01*
X107461606Y-110014410D01*
X107026031Y-109731167D01*
X106502732Y-109386340D01*
X105904693Y-108988472D01*
X105244898Y-108546106D01*
X104536331Y-108067784D01*
X103992586Y-107698669D01*
X103256888Y-107197430D01*
X102561886Y-106722662D01*
X101920447Y-106283240D01*
X101345432Y-105888034D01*
X100849707Y-105545917D01*
X100446135Y-105265761D01*
X100147580Y-105056438D01*
X99966906Y-104926822D01*
X99916841Y-104887629D01*
X99879306Y-104781571D01*
X99818137Y-104528899D01*
X99737431Y-104150044D01*
X99641282Y-103665440D01*
X99533786Y-103095519D01*
X99419041Y-102460713D01*
X99341863Y-102019234D01*
X98870288Y-99285456D01*
X99235495Y-99285456D01*
X99236119Y-99401160D01*
X99263507Y-99662267D01*
X99314595Y-100047495D01*
X99386320Y-100535561D01*
X99475618Y-101105182D01*
X99579426Y-101735076D01*
X99635311Y-102063056D01*
X100089373Y-104699295D01*
X104113017Y-107429314D01*
X104849418Y-107928935D01*
X105542345Y-108399015D01*
X106179415Y-108831158D01*
X106748245Y-109216965D01*
X107236454Y-109548041D01*
X107631658Y-109815987D01*
X107921475Y-110012406D01*
X108093522Y-110128900D01*
X108138047Y-110158909D01*
X108218109Y-110143470D01*
X108443779Y-110100031D01*
X108794379Y-110032569D01*
X109249231Y-109945063D01*
X109787656Y-109841491D01*
X110388977Y-109725832D01*
X110552433Y-109694395D01*
X111170370Y-109575915D01*
X111734157Y-109468521D01*
X112222409Y-109376230D01*
X112613736Y-109303060D01*
X112886753Y-109253029D01*
X113020071Y-109230155D01*
X113028933Y-109229152D01*
X113074137Y-109154799D01*
X113092433Y-108982413D01*
X113115787Y-108654852D01*
X113180109Y-108206771D01*
X113276791Y-107679566D01*
X113397224Y-107114629D01*
X113532799Y-106553356D01*
X113674907Y-106037140D01*
X113763933Y-105753635D01*
X114223471Y-104545969D01*
X114763858Y-103450575D01*
X115407310Y-102431823D01*
X116176042Y-101454081D01*
X116983853Y-100589241D01*
X117688222Y-99918845D01*
X118360524Y-99356448D01*
X119052754Y-98863048D01*
X119816904Y-98399648D01*
X120140933Y-98221167D01*
X120502192Y-98009740D01*
X120722377Y-97841687D01*
X120792382Y-97727145D01*
X120773823Y-97609544D01*
X120723899Y-97349631D01*
X120647347Y-96970532D01*
X120548905Y-96495376D01*
X120433310Y-95947290D01*
X120305549Y-95350552D01*
X119823433Y-93114772D01*
X115807559Y-90367419D01*
X111791684Y-87620066D01*
X111150892Y-87752148D01*
X110110482Y-87967244D01*
X109224878Y-88151876D01*
X108482802Y-88308598D01*
X107872978Y-88439966D01*
X107384128Y-88548535D01*
X107004976Y-88636860D01*
X106724244Y-88707497D01*
X106530656Y-88763000D01*
X106412933Y-88805925D01*
X106361018Y-88837466D01*
X106290547Y-88931487D01*
X106134993Y-89151210D01*
X105903547Y-89483158D01*
X105605399Y-89913854D01*
X105249740Y-90429823D01*
X104845762Y-91017587D01*
X104402655Y-91663671D01*
X103929610Y-92354597D01*
X103435818Y-93076890D01*
X102930471Y-93817072D01*
X102422758Y-94561668D01*
X101921872Y-95297200D01*
X101437003Y-96010192D01*
X100977342Y-96687169D01*
X100552079Y-97314653D01*
X100170407Y-97879167D01*
X99841515Y-98367236D01*
X99574595Y-98765383D01*
X99378838Y-99060131D01*
X99263434Y-99238004D01*
X99235495Y-99285456D01*
X98870288Y-99285456D01*
X98865115Y-99255469D01*
X102475646Y-93975901D01*
X103056590Y-93126941D01*
X103611354Y-92317278D01*
X104132300Y-91557997D01*
X104611790Y-90860182D01*
X105042184Y-90234918D01*
X105415846Y-89693289D01*
X105725136Y-89246378D01*
X105962417Y-88905271D01*
X106120049Y-88681051D01*
X106190396Y-88584802D01*
X106191886Y-88583109D01*
X106304935Y-88531477D01*
X106556630Y-88455235D01*
X106919282Y-88361515D01*
X107365206Y-88257448D01*
X107866714Y-88150166D01*
X107895847Y-88144214D01*
X108502856Y-88019777D01*
X109154441Y-87884934D01*
X109793115Y-87751665D01*
X110361390Y-87631948D01*
X110671156Y-87565922D01*
X111848213Y-87313300D01*
X120077433Y-92941320D01*
G36*
X120077433Y-92941320D02*
G01*
X120602686Y-95390827D01*
X120735854Y-96014686D01*
X120856863Y-96587023D01*
X120961251Y-97086295D01*
X121044554Y-97490958D01*
X121102310Y-97779469D01*
X121130056Y-97930285D01*
X121131853Y-97945221D01*
X121062650Y-98026768D01*
X120873862Y-98158005D01*
X120599243Y-98316780D01*
X120437266Y-98401094D01*
X119169491Y-99131473D01*
X118002091Y-99994577D01*
X116943837Y-100980715D01*
X116003498Y-102080198D01*
X115189845Y-103283335D01*
X114511645Y-104580436D01*
X114224006Y-105266566D01*
X113919246Y-106173367D01*
X113663124Y-107171052D01*
X113474159Y-108183874D01*
X113427929Y-108522875D01*
X113379588Y-108882223D01*
X113331766Y-109176426D01*
X113291305Y-109366170D01*
X113272807Y-109414230D01*
X113180581Y-109443083D01*
X112946599Y-109497445D01*
X112595709Y-109572526D01*
X112152755Y-109663536D01*
X111642584Y-109765685D01*
X111090041Y-109874183D01*
X110519971Y-109984238D01*
X109957221Y-110091062D01*
X109426636Y-110189863D01*
X108953061Y-110275852D01*
X108561343Y-110344237D01*
X108276327Y-110390230D01*
X108122859Y-110409040D01*
X108112151Y-110409206D01*
X108017650Y-110361972D01*
X107796474Y-110227526D01*
X107461606Y-110014410D01*
X107026031Y-109731167D01*
X106502732Y-109386340D01*
X105904693Y-108988472D01*
X105244898Y-108546106D01*
X104536331Y-108067784D01*
X103992586Y-107698669D01*
X103256888Y-107197430D01*
X102561886Y-106722662D01*
X101920447Y-106283240D01*
X101345432Y-105888034D01*
X100849707Y-105545917D01*
X100446135Y-105265761D01*
X100147580Y-105056438D01*
X99966906Y-104926822D01*
X99916841Y-104887629D01*
X99879306Y-104781571D01*
X99818137Y-104528899D01*
X99737431Y-104150044D01*
X99641282Y-103665440D01*
X99533786Y-103095519D01*
X99419041Y-102460713D01*
X99341863Y-102019234D01*
X98870288Y-99285456D01*
X99235495Y-99285456D01*
X99236119Y-99401160D01*
X99263507Y-99662267D01*
X99314595Y-100047495D01*
X99386320Y-100535561D01*
X99475618Y-101105182D01*
X99579426Y-101735076D01*
X99635311Y-102063056D01*
X100089373Y-104699295D01*
X104113017Y-107429314D01*
X104849418Y-107928935D01*
X105542345Y-108399015D01*
X106179415Y-108831158D01*
X106748245Y-109216965D01*
X107236454Y-109548041D01*
X107631658Y-109815987D01*
X107921475Y-110012406D01*
X108093522Y-110128900D01*
X108138047Y-110158909D01*
X108218109Y-110143470D01*
X108443779Y-110100031D01*
X108794379Y-110032569D01*
X109249231Y-109945063D01*
X109787656Y-109841491D01*
X110388977Y-109725832D01*
X110552433Y-109694395D01*
X111170370Y-109575915D01*
X111734157Y-109468521D01*
X112222409Y-109376230D01*
X112613736Y-109303060D01*
X112886753Y-109253029D01*
X113020071Y-109230155D01*
X113028933Y-109229152D01*
X113074137Y-109154799D01*
X113092433Y-108982413D01*
X113115787Y-108654852D01*
X113180109Y-108206771D01*
X113276791Y-107679566D01*
X113397224Y-107114629D01*
X113532799Y-106553356D01*
X113674907Y-106037140D01*
X113763933Y-105753635D01*
X114223471Y-104545969D01*
X114763858Y-103450575D01*
X115407310Y-102431823D01*
X116176042Y-101454081D01*
X116983853Y-100589241D01*
X117688222Y-99918845D01*
X118360524Y-99356448D01*
X119052754Y-98863048D01*
X119816904Y-98399648D01*
X120140933Y-98221167D01*
X120502192Y-98009740D01*
X120722377Y-97841687D01*
X120792382Y-97727145D01*
X120773823Y-97609544D01*
X120723899Y-97349631D01*
X120647347Y-96970532D01*
X120548905Y-96495376D01*
X120433310Y-95947290D01*
X120305549Y-95350552D01*
X119823433Y-93114772D01*
X115807559Y-90367419D01*
X111791684Y-87620066D01*
X111150892Y-87752148D01*
X110110482Y-87967244D01*
X109224878Y-88151876D01*
X108482802Y-88308598D01*
X107872978Y-88439966D01*
X107384128Y-88548535D01*
X107004976Y-88636860D01*
X106724244Y-88707497D01*
X106530656Y-88763000D01*
X106412933Y-88805925D01*
X106361018Y-88837466D01*
X106290547Y-88931487D01*
X106134993Y-89151210D01*
X105903547Y-89483158D01*
X105605399Y-89913854D01*
X105249740Y-90429823D01*
X104845762Y-91017587D01*
X104402655Y-91663671D01*
X103929610Y-92354597D01*
X103435818Y-93076890D01*
X102930471Y-93817072D01*
X102422758Y-94561668D01*
X101921872Y-95297200D01*
X101437003Y-96010192D01*
X100977342Y-96687169D01*
X100552079Y-97314653D01*
X100170407Y-97879167D01*
X99841515Y-98367236D01*
X99574595Y-98765383D01*
X99378838Y-99060131D01*
X99263434Y-99238004D01*
X99235495Y-99285456D01*
X98870288Y-99285456D01*
X98865115Y-99255469D01*
X102475646Y-93975901D01*
X103056590Y-93126941D01*
X103611354Y-92317278D01*
X104132300Y-91557997D01*
X104611790Y-90860182D01*
X105042184Y-90234918D01*
X105415846Y-89693289D01*
X105725136Y-89246378D01*
X105962417Y-88905271D01*
X106120049Y-88681051D01*
X106190396Y-88584802D01*
X106191886Y-88583109D01*
X106304935Y-88531477D01*
X106556630Y-88455235D01*
X106919282Y-88361515D01*
X107365206Y-88257448D01*
X107866714Y-88150166D01*
X107895847Y-88144214D01*
X108502856Y-88019777D01*
X109154441Y-87884934D01*
X109793115Y-87751665D01*
X110361390Y-87631948D01*
X110671156Y-87565922D01*
X111848213Y-87313300D01*
X120077433Y-92941320D01*
G37*
X54862819Y-88671303D02*
X55652010Y-88848466D01*
X56331743Y-89007649D01*
X56890748Y-89145958D01*
X57317758Y-89260499D01*
X57601501Y-89348378D01*
X57730710Y-89406703D01*
X57732212Y-89408092D01*
X57800024Y-89499264D01*
X57952868Y-89720922D01*
X58183228Y-90061747D01*
X58483589Y-90510420D01*
X58846434Y-91055622D01*
X59264248Y-91686034D01*
X59729515Y-92390336D01*
X60234720Y-93157210D01*
X60772347Y-93975336D01*
X61334881Y-94833395D01*
X61361810Y-94874522D01*
X64852630Y-100206045D01*
X64363233Y-102875522D01*
X64241677Y-103533400D01*
X64127171Y-104143358D01*
X64023886Y-104683922D01*
X63935993Y-105133620D01*
X63867664Y-105470978D01*
X63823070Y-105674523D01*
X63810509Y-105720737D01*
X63726233Y-105804794D01*
X63506840Y-105974749D01*
X63159928Y-106225364D01*
X62693097Y-106551403D01*
X62113946Y-106947627D01*
X61430076Y-107408799D01*
X60649084Y-107929683D01*
X59778570Y-108505040D01*
X59602938Y-108620571D01*
X58850838Y-109114422D01*
X58141571Y-109579141D01*
X57487632Y-110006609D01*
X56901516Y-110388707D01*
X56395717Y-110717314D01*
X55982731Y-110984312D01*
X55675052Y-111181580D01*
X55485175Y-111301001D01*
X55425397Y-111335236D01*
X55335899Y-111317463D01*
X55105317Y-111273299D01*
X54759001Y-111207553D01*
X54322300Y-111125036D01*
X53820565Y-111030556D01*
X53698766Y-111007664D01*
X53118113Y-110898931D01*
X52532795Y-110789961D01*
X51986067Y-110688761D01*
X51521181Y-110603339D01*
X51193456Y-110543865D01*
X50381478Y-110398207D01*
X50283928Y-109401334D01*
X50057672Y-107937014D01*
X49672495Y-106516788D01*
X49133801Y-105154617D01*
X48446992Y-103864459D01*
X47733166Y-102811433D01*
X47152083Y-102114240D01*
X46462468Y-101408862D01*
X45701382Y-100726366D01*
X44905885Y-100097818D01*
X44113037Y-99554284D01*
X43359900Y-99126830D01*
X43305933Y-99100260D01*
X43015409Y-98936686D01*
X42849385Y-98793684D01*
X42819100Y-98723113D01*
X42829445Y-98650960D01*
X43092182Y-98650960D01*
X43442474Y-98827761D01*
X43827006Y-99041636D01*
X44295326Y-99332239D01*
X44800786Y-99668311D01*
X45296742Y-100018595D01*
X45736547Y-100351830D01*
X45835113Y-100431143D01*
X46884894Y-101396490D01*
X47823836Y-102479765D01*
X48642751Y-103663467D01*
X49332451Y-104930097D01*
X49883748Y-106262155D01*
X50287456Y-107642140D01*
X50534385Y-109052552D01*
X50574904Y-109459255D01*
X50632516Y-110156178D01*
X50895641Y-110204389D01*
X51051968Y-110233215D01*
X51347795Y-110287930D01*
X51756128Y-110363535D01*
X52249976Y-110455032D01*
X52802345Y-110557422D01*
X53148433Y-110621597D01*
X53715040Y-110725809D01*
X54232125Y-110819267D01*
X54674446Y-110897541D01*
X55016766Y-110956202D01*
X55233843Y-110990821D01*
X55295007Y-110998296D01*
X55393303Y-110954414D01*
X55619468Y-110825412D01*
X55960191Y-110619665D01*
X56402158Y-110345545D01*
X56932055Y-110011427D01*
X57536571Y-109625685D01*
X58202391Y-109196693D01*
X58916203Y-108732824D01*
X59401341Y-108415438D01*
X60138782Y-107931164D01*
X60835277Y-107472693D01*
X61477650Y-107048773D01*
X62052727Y-106668149D01*
X62547334Y-106339566D01*
X62948294Y-106071772D01*
X63242434Y-105873512D01*
X63416578Y-105753532D01*
X63459145Y-105721702D01*
X63502844Y-105613708D01*
X63570811Y-105361841D01*
X63657938Y-104988991D01*
X63759111Y-104518051D01*
X63869222Y-103971911D01*
X63981869Y-103380430D01*
X64096960Y-102762246D01*
X64206975Y-102177808D01*
X64306717Y-101654228D01*
X64390988Y-101218614D01*
X64454593Y-100898078D01*
X64489845Y-100730516D01*
X64583475Y-100318699D01*
X61140897Y-95057849D01*
X60581419Y-94203801D01*
X60046534Y-93389099D01*
X59543807Y-92625154D01*
X59080807Y-91923382D01*
X58665098Y-91295194D01*
X58304246Y-90752006D01*
X58005819Y-90305229D01*
X57777381Y-89966278D01*
X57626500Y-89746566D01*
X57561209Y-89657969D01*
X57446563Y-89605985D01*
X57190911Y-89526505D01*
X56819078Y-89425119D01*
X56355888Y-89307416D01*
X55826163Y-89178986D01*
X55254728Y-89045420D01*
X54666407Y-88912308D01*
X54086023Y-88785239D01*
X53538400Y-88669803D01*
X53048362Y-88571590D01*
X52640733Y-88496191D01*
X52340335Y-88449195D01*
X52171994Y-88436192D01*
X52151124Y-88439689D01*
X52059139Y-88494069D01*
X51841892Y-88631783D01*
X51515150Y-88842435D01*
X51094679Y-89115631D01*
X50596245Y-89440974D01*
X50035613Y-89808071D01*
X49428550Y-90206525D01*
X48790822Y-90625942D01*
X48138194Y-91055927D01*
X47486432Y-91486083D01*
X46851303Y-91906017D01*
X46248572Y-92305332D01*
X45694006Y-92673634D01*
X45203370Y-93000527D01*
X44792430Y-93275616D01*
X44476952Y-93488507D01*
X44272703Y-93628803D01*
X44197820Y-93683659D01*
X44155132Y-93787586D01*
X44084710Y-94036038D01*
X43991708Y-94407433D01*
X43881281Y-94880186D01*
X43758585Y-95432715D01*
X43628773Y-96043436D01*
X43593528Y-96213783D01*
X43092182Y-98650960D01*
X42829445Y-98650960D01*
X42835736Y-98607085D01*
X42882783Y-98347272D01*
X42955946Y-97965628D01*
X43050933Y-97484107D01*
X43163450Y-96924661D01*
X43289204Y-96309246D01*
X43327100Y-96125548D01*
X43455364Y-95503521D01*
X43571736Y-94936116D01*
X43671972Y-94444263D01*
X43751831Y-94048891D01*
X43807070Y-93770930D01*
X43833446Y-93631308D01*
X43835100Y-93619363D01*
X43903693Y-93565032D01*
X44101245Y-93425717D01*
X44415411Y-93209746D01*
X44833849Y-92925450D01*
X45344213Y-92581157D01*
X45934160Y-92185198D01*
X46591346Y-91745902D01*
X47303428Y-91271599D01*
X47983653Y-90819943D01*
X52132206Y-88069422D01*
X54862819Y-88671303D01*
G36*
X54862819Y-88671303D02*
G01*
X55652010Y-88848466D01*
X56331743Y-89007649D01*
X56890748Y-89145958D01*
X57317758Y-89260499D01*
X57601501Y-89348378D01*
X57730710Y-89406703D01*
X57732212Y-89408092D01*
X57800024Y-89499264D01*
X57952868Y-89720922D01*
X58183228Y-90061747D01*
X58483589Y-90510420D01*
X58846434Y-91055622D01*
X59264248Y-91686034D01*
X59729515Y-92390336D01*
X60234720Y-93157210D01*
X60772347Y-93975336D01*
X61334881Y-94833395D01*
X61361810Y-94874522D01*
X64852630Y-100206045D01*
X64363233Y-102875522D01*
X64241677Y-103533400D01*
X64127171Y-104143358D01*
X64023886Y-104683922D01*
X63935993Y-105133620D01*
X63867664Y-105470978D01*
X63823070Y-105674523D01*
X63810509Y-105720737D01*
X63726233Y-105804794D01*
X63506840Y-105974749D01*
X63159928Y-106225364D01*
X62693097Y-106551403D01*
X62113946Y-106947627D01*
X61430076Y-107408799D01*
X60649084Y-107929683D01*
X59778570Y-108505040D01*
X59602938Y-108620571D01*
X58850838Y-109114422D01*
X58141571Y-109579141D01*
X57487632Y-110006609D01*
X56901516Y-110388707D01*
X56395717Y-110717314D01*
X55982731Y-110984312D01*
X55675052Y-111181580D01*
X55485175Y-111301001D01*
X55425397Y-111335236D01*
X55335899Y-111317463D01*
X55105317Y-111273299D01*
X54759001Y-111207553D01*
X54322300Y-111125036D01*
X53820565Y-111030556D01*
X53698766Y-111007664D01*
X53118113Y-110898931D01*
X52532795Y-110789961D01*
X51986067Y-110688761D01*
X51521181Y-110603339D01*
X51193456Y-110543865D01*
X50381478Y-110398207D01*
X50283928Y-109401334D01*
X50057672Y-107937014D01*
X49672495Y-106516788D01*
X49133801Y-105154617D01*
X48446992Y-103864459D01*
X47733166Y-102811433D01*
X47152083Y-102114240D01*
X46462468Y-101408862D01*
X45701382Y-100726366D01*
X44905885Y-100097818D01*
X44113037Y-99554284D01*
X43359900Y-99126830D01*
X43305933Y-99100260D01*
X43015409Y-98936686D01*
X42849385Y-98793684D01*
X42819100Y-98723113D01*
X42829445Y-98650960D01*
X43092182Y-98650960D01*
X43442474Y-98827761D01*
X43827006Y-99041636D01*
X44295326Y-99332239D01*
X44800786Y-99668311D01*
X45296742Y-100018595D01*
X45736547Y-100351830D01*
X45835113Y-100431143D01*
X46884894Y-101396490D01*
X47823836Y-102479765D01*
X48642751Y-103663467D01*
X49332451Y-104930097D01*
X49883748Y-106262155D01*
X50287456Y-107642140D01*
X50534385Y-109052552D01*
X50574904Y-109459255D01*
X50632516Y-110156178D01*
X50895641Y-110204389D01*
X51051968Y-110233215D01*
X51347795Y-110287930D01*
X51756128Y-110363535D01*
X52249976Y-110455032D01*
X52802345Y-110557422D01*
X53148433Y-110621597D01*
X53715040Y-110725809D01*
X54232125Y-110819267D01*
X54674446Y-110897541D01*
X55016766Y-110956202D01*
X55233843Y-110990821D01*
X55295007Y-110998296D01*
X55393303Y-110954414D01*
X55619468Y-110825412D01*
X55960191Y-110619665D01*
X56402158Y-110345545D01*
X56932055Y-110011427D01*
X57536571Y-109625685D01*
X58202391Y-109196693D01*
X58916203Y-108732824D01*
X59401341Y-108415438D01*
X60138782Y-107931164D01*
X60835277Y-107472693D01*
X61477650Y-107048773D01*
X62052727Y-106668149D01*
X62547334Y-106339566D01*
X62948294Y-106071772D01*
X63242434Y-105873512D01*
X63416578Y-105753532D01*
X63459145Y-105721702D01*
X63502844Y-105613708D01*
X63570811Y-105361841D01*
X63657938Y-104988991D01*
X63759111Y-104518051D01*
X63869222Y-103971911D01*
X63981869Y-103380430D01*
X64096960Y-102762246D01*
X64206975Y-102177808D01*
X64306717Y-101654228D01*
X64390988Y-101218614D01*
X64454593Y-100898078D01*
X64489845Y-100730516D01*
X64583475Y-100318699D01*
X61140897Y-95057849D01*
X60581419Y-94203801D01*
X60046534Y-93389099D01*
X59543807Y-92625154D01*
X59080807Y-91923382D01*
X58665098Y-91295194D01*
X58304246Y-90752006D01*
X58005819Y-90305229D01*
X57777381Y-89966278D01*
X57626500Y-89746566D01*
X57561209Y-89657969D01*
X57446563Y-89605985D01*
X57190911Y-89526505D01*
X56819078Y-89425119D01*
X56355888Y-89307416D01*
X55826163Y-89178986D01*
X55254728Y-89045420D01*
X54666407Y-88912308D01*
X54086023Y-88785239D01*
X53538400Y-88669803D01*
X53048362Y-88571590D01*
X52640733Y-88496191D01*
X52340335Y-88449195D01*
X52171994Y-88436192D01*
X52151124Y-88439689D01*
X52059139Y-88494069D01*
X51841892Y-88631783D01*
X51515150Y-88842435D01*
X51094679Y-89115631D01*
X50596245Y-89440974D01*
X50035613Y-89808071D01*
X49428550Y-90206525D01*
X48790822Y-90625942D01*
X48138194Y-91055927D01*
X47486432Y-91486083D01*
X46851303Y-91906017D01*
X46248572Y-92305332D01*
X45694006Y-92673634D01*
X45203370Y-93000527D01*
X44792430Y-93275616D01*
X44476952Y-93488507D01*
X44272703Y-93628803D01*
X44197820Y-93683659D01*
X44155132Y-93787586D01*
X44084710Y-94036038D01*
X43991708Y-94407433D01*
X43881281Y-94880186D01*
X43758585Y-95432715D01*
X43628773Y-96043436D01*
X43593528Y-96213783D01*
X43092182Y-98650960D01*
X42829445Y-98650960D01*
X42835736Y-98607085D01*
X42882783Y-98347272D01*
X42955946Y-97965628D01*
X43050933Y-97484107D01*
X43163450Y-96924661D01*
X43289204Y-96309246D01*
X43327100Y-96125548D01*
X43455364Y-95503521D01*
X43571736Y-94936116D01*
X43671972Y-94444263D01*
X43751831Y-94048891D01*
X43807070Y-93770930D01*
X43833446Y-93631308D01*
X43835100Y-93619363D01*
X43903693Y-93565032D01*
X44101245Y-93425717D01*
X44415411Y-93209746D01*
X44833849Y-92925450D01*
X45344213Y-92581157D01*
X45934160Y-92185198D01*
X46591346Y-91745902D01*
X47303428Y-91271599D01*
X47983653Y-90819943D01*
X52132206Y-88069422D01*
X54862819Y-88671303D01*
G37*
D11*
X97225000Y-64260000D02*
X97800000Y-64735000D01*
X97800000Y-64735000D02*
X98225000Y-64410000D01*
X98225000Y-64410000D02*
X97225000Y-64260000D01*
D12*
X98550000Y-65848605D02*
X99450000Y-65835000D01*
X98949999Y-67230050D02*
X98549999Y-67230050D01*
X98950000Y-66235000D02*
X98700000Y-66235000D01*
X98950000Y-66285000D02*
X98950000Y-66735000D01*
X98950000Y-66735000D02*
X98650000Y-66735000D01*
X98950000Y-67235000D02*
X98950000Y-67735000D01*
X98950000Y-67735000D02*
X98500000Y-67735000D01*
D11*
X99175000Y-63535000D02*
X99525000Y-62360000D01*
D12*
X99450000Y-65835000D02*
X99500000Y-68285000D01*
X99500000Y-68285000D02*
X98300000Y-68285000D01*
D11*
X99525000Y-62360000D02*
X101325000Y-62410000D01*
D12*
X99775000Y-68285000D02*
X100550000Y-65835000D01*
X100175000Y-68285000D02*
X99775000Y-68285000D01*
X100425000Y-67685000D02*
X100175000Y-68285000D01*
X100500000Y-67285000D02*
X100725000Y-66535000D01*
X100550000Y-65835000D02*
X100875000Y-65835000D01*
X100725000Y-66535000D02*
X101000000Y-67285000D01*
D11*
X100750000Y-64460000D02*
X102425000Y-64560000D01*
D12*
X100875000Y-65835000D02*
X101775000Y-68285000D01*
X101000000Y-67285000D02*
X100500000Y-67285000D01*
X101025000Y-67685000D02*
X100425000Y-67685000D01*
X101275000Y-68285000D02*
X101025000Y-67685000D01*
X101275000Y-68285000D02*
X101775000Y-68285000D01*
D11*
X101325000Y-62410000D02*
X99175000Y-63535000D01*
X101450000Y-63885000D02*
X100750000Y-64460000D01*
D12*
X101950000Y-67810000D02*
X101950000Y-68260000D01*
X101950000Y-68260000D02*
X103200000Y-68260000D01*
D11*
X102450000Y-64560000D02*
X101450000Y-63885000D01*
X102600000Y-64110000D02*
X104225000Y-65235000D01*
X102650000Y-61785000D02*
X103775000Y-63010000D01*
X102675000Y-61385000D02*
X102600000Y-64110000D01*
D12*
X102700000Y-67810000D02*
X101950000Y-67810000D01*
X102725000Y-65810000D02*
X102700000Y-67810000D01*
X103175000Y-65810000D02*
X102725000Y-65810000D01*
X103200000Y-68260000D02*
X103175000Y-65810000D01*
X103375000Y-68260000D02*
X104075000Y-67310000D01*
X103475000Y-68260000D02*
X103375000Y-68260000D01*
D11*
X103775000Y-63010000D02*
X103200000Y-64510000D01*
D12*
X103875000Y-68260000D02*
X103475000Y-68260000D01*
X104116269Y-65804594D02*
X105225000Y-65810000D01*
D11*
X104225000Y-65235000D02*
X105900000Y-65010000D01*
D12*
X104275000Y-66260000D02*
X104725000Y-66260000D01*
X104625000Y-67310000D02*
X103875000Y-68260000D01*
X104725000Y-66260000D02*
X104725000Y-66810000D01*
X104725000Y-66810000D02*
X104225000Y-66810000D01*
X104775000Y-67310000D02*
X104625000Y-67310000D01*
X104775000Y-68260000D02*
X104775000Y-67310000D01*
X105225000Y-65810000D02*
X105225000Y-68260000D01*
X105225000Y-68260000D02*
X104775000Y-68260000D01*
D11*
X105375000Y-65460000D02*
X106350000Y-65810000D01*
D12*
X105675000Y-65810000D02*
X106975000Y-65810000D01*
X105675000Y-66310000D02*
X105675000Y-65810000D01*
X105675000Y-67760000D02*
X106525000Y-67760000D01*
X105675000Y-68260000D02*
X105675000Y-67760000D01*
D11*
X105775000Y-65185000D02*
X105375000Y-65460000D01*
D12*
X105875000Y-66760000D02*
X106525000Y-66760000D01*
X105875000Y-67210000D02*
X105875000Y-66760000D01*
D11*
X105900000Y-65010000D02*
X107725000Y-65910000D01*
X106150000Y-63010000D02*
X102675000Y-61385000D01*
X106150000Y-63010000D02*
X108475000Y-64160000D01*
D12*
X106525000Y-66310000D02*
X105675000Y-66310000D01*
X106525000Y-66760000D02*
X106525000Y-66310000D01*
X106525000Y-67210000D02*
X105875000Y-67210000D01*
X106525000Y-67760000D02*
X106525000Y-67210000D01*
D11*
X106550000Y-65785000D02*
X105775000Y-65185000D01*
X106900000Y-61585000D02*
X106150000Y-63010000D01*
X106900000Y-61585000D02*
X109100000Y-62760000D01*
D12*
X106925000Y-68260000D02*
X105675000Y-68260000D01*
X106975000Y-65810000D02*
X107025000Y-68260000D01*
X107025000Y-68260000D02*
X106925000Y-68260000D01*
X108125000Y-65823605D02*
X109025000Y-65810000D01*
D11*
X108475000Y-64160000D02*
X109950000Y-65885000D01*
X108475000Y-64160000D02*
X114125000Y-67010000D01*
D12*
X108524999Y-67205050D02*
X108124999Y-67205050D01*
X108525000Y-66210000D02*
X108275000Y-66210000D01*
X108525000Y-66260000D02*
X108525000Y-66710000D01*
X108525000Y-66710000D02*
X108225000Y-66710000D01*
X108525000Y-67210000D02*
X108525000Y-67710000D01*
X108525000Y-67710000D02*
X108075000Y-67710000D01*
X109025000Y-65810000D02*
X109075000Y-68260000D01*
X109075000Y-68260000D02*
X107875000Y-68260000D01*
D11*
X109100000Y-62760000D02*
X107525000Y-63660000D01*
X109200000Y-62585000D02*
X108475000Y-64160000D01*
D12*
X109475000Y-66660000D02*
X109475000Y-67360000D01*
D11*
X109775000Y-65985000D02*
X102675000Y-61385000D01*
D12*
X109975000Y-66660000D02*
X109975000Y-67310000D01*
D11*
X110225000Y-62835000D02*
X108475000Y-64160000D01*
X110225000Y-62835000D02*
X109200000Y-62585000D01*
X110300000Y-66910000D02*
X110675000Y-67085000D01*
X110625000Y-66510000D02*
X110300000Y-66910000D01*
D12*
X110675000Y-66660000D02*
X110675000Y-67360000D01*
D11*
X111175000Y-67260000D02*
X111725000Y-67535000D01*
D12*
X111175000Y-67360000D02*
X111175000Y-66660000D01*
D11*
X111225000Y-66535000D02*
X111450000Y-67160000D01*
X111450000Y-67160000D02*
X114125000Y-67010000D01*
X111725000Y-67535000D02*
X111150000Y-66735000D01*
X112800000Y-67485000D02*
X111975000Y-67135000D01*
X114125000Y-67010000D02*
X110225000Y-62835000D01*
X114125000Y-67010000D02*
X111225000Y-66535000D01*
X114125000Y-67010000D02*
X112800000Y-67485000D01*
D12*
X98550000Y-65848606D02*
G75*
G03*
X98100001Y-66934999I0J-636394D01*
G01*
X98123744Y-66976064D02*
G75*
G03*
X98300001Y-68284998I426255J-608936D01*
G01*
X98549999Y-67230051D02*
G75*
G03*
X98500001Y-67734998I1J-254949D01*
G01*
X98710634Y-66242464D02*
G75*
G03*
X98650000Y-66735000I-60634J-242536D01*
G01*
X104116269Y-65804595D02*
G75*
G03*
X104100001Y-67259998I233731J-730405D01*
G01*
X104225001Y-66260002D02*
G75*
G03*
X104225001Y-66809998I124999J-274998D01*
G01*
X108125000Y-65823606D02*
G75*
G03*
X107675001Y-66909999I0J-636394D01*
G01*
X107698744Y-66951064D02*
G75*
G03*
X107875001Y-68259998I426255J-608936D01*
G01*
X108124999Y-67205051D02*
G75*
G03*
X108075001Y-67709998I1J-254949D01*
G01*
X108285634Y-66217464D02*
G75*
G03*
X108225000Y-66710000I-60634J-242536D01*
G01*
X111175000Y-66660000D02*
G75*
G03*
X109475000Y-66660000I-850000J0D01*
G01*
X110675000Y-66660000D02*
G75*
G03*
X109975000Y-66660000I-350000J0D01*
G01*
X109975000Y-67360000D02*
G75*
G03*
X110675000Y-67360000I350000J0D01*
G01*
X109475000Y-67360000D02*
G75*
G03*
X111175000Y-67360000I850000J0D01*
G01*
D13*
X119672361Y-121255226D02*
X119608542Y-121319045D01*
X119544723Y-121255226D01*
X119608542Y-121191407D01*
X119672361Y-121255226D01*
G36*
X119672361Y-121255226D02*
G01*
X119608542Y-121319045D01*
X119544723Y-121255226D01*
X119608542Y-121191407D01*
X119672361Y-121255226D01*
G37*
X114132361Y-105345226D02*
X114068542Y-105409045D01*
X114004723Y-105345226D01*
X114068542Y-105281407D01*
X114132361Y-105345226D01*
G36*
X114132361Y-105345226D02*
G01*
X114068542Y-105409045D01*
X114004723Y-105345226D01*
X114068542Y-105281407D01*
X114132361Y-105345226D01*
G37*
X66382361Y-105475226D02*
X66318542Y-105539045D01*
X66254723Y-105475226D01*
X66318542Y-105411407D01*
X66382361Y-105475226D01*
G36*
X66382361Y-105475226D02*
G01*
X66318542Y-105539045D01*
X66254723Y-105475226D01*
X66318542Y-105411407D01*
X66382361Y-105475226D01*
G37*
D12*
%TO.C,R3*%
X76389564Y-65115000D02*
X75935436Y-65115000D01*
X76389564Y-63645000D02*
X75935436Y-63645000D01*
%TO.C,R4*%
X81937064Y-69775000D02*
X81482936Y-69775000D01*
X81937064Y-68305000D02*
X81482936Y-68305000D01*
%TO.C,R1*%
X87379564Y-65115000D02*
X86925436Y-65115000D01*
X87379564Y-63645000D02*
X86925436Y-63645000D01*
%TO.C,Q1*%
X67442500Y-86910000D02*
X68092500Y-86910000D01*
X67442500Y-86910000D02*
X66792500Y-86910000D01*
X67442500Y-83790000D02*
X69117500Y-83790000D01*
X67442500Y-83790000D02*
X66792500Y-83790000D01*
%TO.C,R2*%
X81884564Y-65115000D02*
X81430436Y-65115000D01*
X81884564Y-63645000D02*
X81430436Y-63645000D01*
%TD*%
M02*
