%TF.GenerationSoftware,KiCad,Pcbnew,7.0.8*%
%TF.CreationDate,2024-08-22T12:11:35+02:00*%
%TF.ProjectId,Fidget_Spinner,46696467-6574-45f5-9370-696e6e65722e,rev?*%
%TF.SameCoordinates,Original*%
%TF.FileFunction,Profile,NP*%
%FSLAX46Y46*%
G04 Gerber Fmt 4.6, Leading zero omitted, Abs format (unit mm)*
G04 Created by KiCad (PCBNEW 7.0.8) date 2024-08-22 12:11:35*
%MOMM*%
%LPD*%
G01*
G04 APERTURE LIST*
%TA.AperFunction,Profile*%
%ADD10C,0.100000*%
%TD*%
%TA.AperFunction,Profile*%
%ADD11C,0.150000*%
%TD*%
G04 APERTURE END LIST*
D10*
X94397600Y-49128800D02*
X94480900Y-49784400D01*
X58022100Y-84550400D02*
X58607100Y-84251200D01*
X87127900Y-39315600D02*
X87692800Y-39604900D01*
X55846000Y-76726900D02*
X55314900Y-76604300D01*
X92301200Y-60490800D02*
X92224400Y-61130100D01*
X113103500Y-58204700D02*
X113467000Y-58586000D01*
X48670000Y-71664600D02*
X48405700Y-71204900D01*
X44180100Y-90946100D02*
X44530800Y-90549900D01*
X94480900Y-49784400D02*
X94531500Y-50449700D01*
X94195700Y-73228400D02*
X94563000Y-73981400D01*
X46084300Y-89114100D02*
X46508100Y-88794800D01*
X69035900Y-65972300D02*
X69020100Y-66521300D01*
X99648900Y-56578700D02*
X100108600Y-56314400D01*
X44530800Y-90549900D02*
X44897000Y-90168100D01*
X43845600Y-91356200D02*
X44180100Y-90946100D01*
X92164700Y-61773300D02*
X92122100Y-62420200D01*
X81704300Y-98359000D02*
X80674200Y-98427600D01*
X99214400Y-105656600D02*
X98483000Y-104891100D01*
X93526300Y-55557200D02*
X93313900Y-56153600D01*
X92224400Y-61130100D02*
X92164700Y-61773300D01*
X118751800Y-89641000D02*
X119099400Y-90029400D01*
X42651200Y-105660100D02*
X42361900Y-105095300D01*
X75204200Y-39604900D02*
X75769100Y-39315600D01*
X48955500Y-59834600D02*
X49261600Y-59404200D01*
X99656500Y-80504500D02*
X100293600Y-81042400D01*
X92939800Y-57365300D02*
X92778100Y-57980000D01*
X112324000Y-57496200D02*
X112722300Y-57841200D01*
X102076800Y-55482900D02*
X102597700Y-55335000D01*
X86805800Y-98726800D02*
X85797400Y-98559900D01*
X70245000Y-44331000D02*
X70585700Y-43799400D01*
X102149500Y-109072700D02*
X101649900Y-108729000D01*
X70992200Y-67304700D02*
X71114000Y-66438600D01*
X114444000Y-72104700D02*
X114137900Y-72535100D01*
X62610900Y-81691300D02*
X63423100Y-81026900D01*
X118388400Y-89267100D02*
X118751800Y-89641000D01*
X98483000Y-104891100D02*
X97721300Y-104165300D01*
X50677300Y-74098100D02*
X50296100Y-73734600D01*
X47207200Y-67644000D02*
X47137500Y-67094700D01*
X99203500Y-56864300D02*
X99648900Y-56578700D01*
X68531800Y-74727300D02*
X68990800Y-73836100D01*
X114729600Y-60274700D02*
X114993900Y-60734500D01*
X75769100Y-39315600D02*
X76349400Y-39053200D01*
X110578700Y-111112300D02*
X109921700Y-111162200D01*
X101486200Y-76271100D02*
X101091700Y-76118100D01*
X96803100Y-77487300D02*
X97327300Y-78132400D01*
X102714100Y-76639700D02*
X102297700Y-76532300D01*
X119432200Y-90431500D02*
X119748200Y-90846900D01*
X107958300Y-111115100D02*
X107322700Y-111036800D01*
X120592500Y-92168600D02*
X120838400Y-92632700D01*
X99596100Y-75363600D02*
X99244300Y-75140800D01*
X118010200Y-88908000D02*
X118388400Y-89267100D01*
X57493500Y-55009000D02*
X58058400Y-54994800D01*
X92142800Y-65547300D02*
X92231400Y-66443500D01*
X52825800Y-56319700D02*
X53299100Y-56077200D01*
X58058400Y-76949800D02*
X57493500Y-76935600D01*
X106079400Y-84454600D02*
X106879000Y-84760500D01*
X118831800Y-106976500D02*
X118403200Y-107422000D01*
X68514600Y-52970600D02*
X68408800Y-52389800D01*
X42099600Y-104515000D02*
X41865000Y-103920100D01*
X116304500Y-66531900D02*
X116262100Y-67089500D01*
X98358500Y-57496200D02*
X98773100Y-57170300D01*
X69143300Y-46619600D02*
X69377900Y-46024700D01*
X116790600Y-87924400D02*
X117211300Y-88236100D01*
X68982600Y-67072900D02*
X70992200Y-67304700D01*
X100108600Y-56314400D02*
X100581900Y-56072000D01*
X71114000Y-66438600D02*
X71200400Y-65568300D01*
X103776000Y-83370000D02*
X104527300Y-83758800D01*
X46332200Y-109913000D02*
X45837300Y-109525000D01*
X109256100Y-111178800D02*
X108602900Y-111163100D01*
X47426300Y-63228800D02*
X47574300Y-62707900D01*
X91145400Y-42315600D02*
X91557100Y-42791000D01*
X47137500Y-64849900D02*
X47207200Y-64300500D01*
X97721300Y-104165300D02*
X96930900Y-103479800D01*
X47426300Y-68715800D02*
X47303800Y-68184700D01*
X60801900Y-55340200D02*
X61322800Y-55488200D01*
X64197600Y-80332100D02*
X64934100Y-79608300D01*
X120328900Y-91716000D02*
X120592500Y-92168600D01*
X83443500Y-38174700D02*
X84088600Y-38289900D01*
X51075600Y-74443100D02*
X50677300Y-74098100D01*
X122192400Y-98352400D02*
X122175600Y-99012500D01*
X50331900Y-86888100D02*
X50856800Y-86738000D01*
X106082600Y-110790100D02*
X105479600Y-110623600D01*
X121176100Y-103345100D02*
X120916400Y-103913300D01*
X61227900Y-110455000D02*
X60659500Y-110798000D01*
X115456200Y-70240000D02*
X115236300Y-70726300D01*
X59472000Y-111398000D02*
X58854500Y-111653000D01*
X64934100Y-79608300D02*
X65632100Y-78856700D01*
X85952700Y-38818700D02*
X86547600Y-39053200D01*
D11*
X70530000Y-69460000D02*
X68570000Y-69080000D01*
D10*
X67491700Y-76448200D02*
X68031900Y-75598400D01*
X47095100Y-66537200D02*
X47080900Y-65972300D01*
X49665900Y-111721000D02*
X49071000Y-111486000D01*
X60262400Y-76736900D02*
X59833100Y-76812600D01*
X93753600Y-46619600D02*
X93959600Y-47228300D01*
X78174600Y-38436200D02*
X78808400Y-38289900D01*
X44897000Y-90168100D02*
X45278300Y-89801200D01*
X56235200Y-85355800D02*
X56835400Y-85103600D01*
X68813000Y-63759900D02*
X68909500Y-64300500D01*
X41137800Y-100755300D02*
X41087200Y-100090000D01*
X95270500Y-102231400D02*
X94403700Y-101669400D01*
X102297700Y-76532300D02*
X101888300Y-76409200D01*
X120916400Y-103913300D02*
X120631000Y-104466300D01*
X57576700Y-112068000D02*
X56917900Y-112227000D01*
X70973000Y-60316400D02*
X70810300Y-59446000D01*
X101649900Y-108729000D02*
X101210100Y-108187600D01*
X109115700Y-76278500D02*
X108605600Y-76451100D01*
X64497500Y-74910100D02*
X64155300Y-75146000D01*
X116262100Y-64844700D02*
X116304500Y-65402100D01*
X47574300Y-69236700D02*
X47426300Y-68715800D01*
X64626500Y-57175500D02*
X65041100Y-57501500D01*
X95446100Y-61207800D02*
X95688500Y-60734500D01*
X69081300Y-54347700D02*
X68667200Y-53528600D01*
X120320000Y-105003400D02*
X119983200Y-105523800D01*
X102326300Y-82513800D02*
X103042100Y-82954800D01*
X114137900Y-59398900D02*
X114444000Y-59829300D01*
X61832900Y-55660800D02*
X62331400Y-55857300D01*
X67937600Y-70786300D02*
X67747700Y-71165500D01*
X53804600Y-86181300D02*
X54415300Y-86004200D01*
X61101800Y-76537500D02*
X60685500Y-76645000D01*
X111478900Y-75069900D02*
X111033500Y-75355400D01*
X41070100Y-99415900D02*
X41082200Y-98849000D01*
X41087200Y-100090000D02*
X41070100Y-99415900D01*
X115456200Y-61694000D02*
X115652700Y-62192600D01*
X43226500Y-92216300D02*
X43527500Y-91779700D01*
X49587600Y-72955100D02*
X49261600Y-72540400D01*
X116192400Y-64295300D02*
X116262100Y-64844700D01*
X58854500Y-111653000D02*
X58222500Y-111876000D01*
X104443100Y-76909600D02*
X104002000Y-76866700D01*
X63291000Y-56319700D02*
X63750700Y-56583900D01*
X112489100Y-110775500D02*
X111863200Y-110918400D01*
X95952800Y-60274700D02*
X96238400Y-59829300D01*
X112854500Y-86056900D02*
X113517100Y-86238300D01*
X76575000Y-99191400D02*
X75563700Y-99506900D01*
X121460600Y-94088600D02*
X121628400Y-94593500D01*
X120631000Y-104466300D02*
X120320000Y-105003400D01*
X114137900Y-72535100D02*
X113812000Y-72949900D01*
X56935900Y-76893200D02*
X56386600Y-76823400D01*
X65439500Y-57846400D02*
X65820700Y-58210000D01*
X114993900Y-71199600D02*
X114729600Y-71659300D01*
D11*
X92657768Y-82982232D02*
G75*
G03*
X92657768Y-82982232I-11087768J0D01*
G01*
D10*
X122085700Y-96698200D02*
X122144900Y-97243200D01*
X96870400Y-58984200D02*
X97215300Y-58586000D01*
X79453500Y-38174700D02*
X80109100Y-38091400D01*
X43672600Y-107254000D02*
X43307400Y-106740200D01*
X88793100Y-99197200D02*
X87804800Y-98939300D01*
X66986300Y-104708200D02*
X66537100Y-105146400D01*
X54794000Y-76456400D02*
X54283900Y-76283800D01*
X74124100Y-40261000D02*
X74655600Y-39920300D01*
X111964800Y-85966500D02*
X112854500Y-86056900D01*
X58509900Y-76940800D02*
X58058400Y-76949800D01*
X90730500Y-99846800D02*
X89768800Y-99499800D01*
X62821500Y-109264000D02*
X62309700Y-109687000D01*
X42361900Y-105095300D02*
X42099600Y-104515000D01*
X107693400Y-85037400D02*
X108522000Y-85284700D01*
X95828900Y-76139300D02*
X96303400Y-76822800D01*
X48670000Y-60280000D02*
X48955500Y-59834600D01*
X114729600Y-71659300D02*
X114444000Y-72104700D01*
X53785400Y-76087300D02*
X53299100Y-75867400D01*
X41993800Y-94576200D02*
X42202400Y-94082200D01*
X68173400Y-61699300D02*
X68369900Y-62197800D01*
X117211300Y-88236100D02*
X117617200Y-88564200D01*
X70611900Y-58579700D02*
X70377700Y-57718600D01*
X94455600Y-52686600D02*
X94383600Y-53199900D01*
X67747700Y-71165500D02*
X67544200Y-71535500D01*
X44907000Y-108679000D02*
X44473300Y-108224000D01*
X93256700Y-45444400D02*
X93519100Y-46024700D01*
X94282400Y-48483700D02*
X94397600Y-49128800D01*
X115652700Y-62192600D02*
X115825300Y-62702600D01*
X51530100Y-112250000D02*
X50896300Y-112104000D01*
X71251300Y-64694800D02*
X71266800Y-63819100D01*
X94264800Y-53809700D02*
X94001700Y-54385000D01*
X113103500Y-73729400D02*
X112722300Y-74092900D01*
X115912700Y-87351600D02*
X116358100Y-87629400D01*
X69801400Y-56016400D02*
X69459400Y-55177400D01*
X97578900Y-58204700D02*
X97960100Y-57841200D01*
X69408500Y-72926100D02*
X69784600Y-71998500D01*
X54872300Y-112497000D02*
X54170200Y-112516000D01*
X42202400Y-94082200D02*
X42430500Y-93598700D01*
X69020100Y-66521300D02*
X68982600Y-67072900D01*
X66855100Y-72587000D02*
X66600400Y-72917000D01*
X48163200Y-70731600D02*
X47943400Y-70245300D01*
X65278100Y-106521800D02*
X64889100Y-106999400D01*
X95651900Y-71160200D02*
X95462000Y-70781000D01*
X91676400Y-100237800D02*
X90730500Y-99846800D01*
X97215300Y-58586000D02*
X97578900Y-58204700D01*
X93519100Y-46024700D02*
X93753600Y-46619600D01*
X103137200Y-76731600D02*
X102714100Y-76639700D01*
X41659100Y-103311400D02*
X41482500Y-102689800D01*
X94563000Y-73981400D02*
X94958000Y-74717900D01*
X97066000Y-73231000D02*
X96799200Y-72911700D01*
X68408800Y-52389800D02*
X68363600Y-51760700D01*
X50856800Y-86738000D02*
X51360300Y-86670700D01*
X63312700Y-108816000D02*
X62821500Y-109264000D01*
X59185700Y-83938000D02*
X59757000Y-83611900D01*
X66333500Y-73236300D02*
X66055000Y-73544500D01*
X67926600Y-103864000D02*
X67449500Y-104280600D01*
X47943400Y-61699300D02*
X48163200Y-61213000D01*
X56935900Y-55051400D02*
X57493500Y-55009000D01*
X68275200Y-70001200D02*
X68113500Y-70398000D01*
X94548600Y-51123800D02*
X94538200Y-51649000D01*
X48490800Y-111224000D02*
X47925900Y-110935000D01*
X41363200Y-96647900D02*
X41489300Y-96116600D01*
X108605600Y-55482900D02*
X109115700Y-55655500D01*
X54283900Y-76283800D02*
X53785400Y-76087300D01*
X114444000Y-59829300D02*
X114729600Y-60274700D01*
X95462000Y-70781000D02*
X95286100Y-70392800D01*
X73115600Y-41015200D02*
X73610500Y-40626300D01*
X109614200Y-76082000D02*
X109115700Y-76278500D01*
X52825800Y-75624900D02*
X52366100Y-75360700D01*
X94377900Y-65402100D02*
X94420300Y-64844700D01*
X96238400Y-59829300D02*
X96544400Y-59398900D01*
X64196100Y-56869500D02*
X64626500Y-57175500D01*
X104218800Y-55046100D02*
X104776300Y-55003700D01*
X52366100Y-56583900D02*
X52825800Y-56319700D01*
X119983200Y-105523800D02*
X119622800Y-106026700D01*
X67161200Y-59834600D02*
X67446800Y-60280000D01*
X97935600Y-74121500D02*
X97634600Y-73836200D01*
X64515900Y-107486200D02*
X64159100Y-107981700D01*
X113467000Y-58586000D02*
X113812000Y-58984200D01*
X70377700Y-57718600D02*
X70107500Y-56863900D01*
X56835400Y-85103600D02*
X57431300Y-84834800D01*
X66537100Y-105146400D02*
X66102500Y-105594900D01*
X92311300Y-43799400D02*
X92652000Y-44331000D01*
X94136100Y-47849900D02*
X94282400Y-48483700D01*
X47574300Y-62707900D02*
X47746900Y-62197800D01*
X92296700Y-66885000D02*
X92378200Y-67321000D01*
X61511300Y-76414500D02*
X61101800Y-76537500D01*
X68937400Y-47228300D02*
X69143300Y-46619600D01*
X114507500Y-86626600D02*
X114986500Y-86849700D01*
X60875400Y-82924200D02*
X61761600Y-82324200D01*
X115455500Y-87091500D02*
X115912700Y-87351600D01*
X110219000Y-85688400D02*
X111086100Y-85843500D01*
X101888300Y-76409200D02*
X101486200Y-76271100D01*
X94403700Y-101669400D02*
X93514600Y-101149500D01*
X53785400Y-55857300D02*
X54283900Y-55660800D01*
X53496100Y-112499000D02*
X52830800Y-112448000D01*
X82787900Y-38091400D02*
X83443500Y-38174700D01*
X88241300Y-39920300D02*
X88772900Y-40261000D01*
X63750700Y-56583900D02*
X64196100Y-56869500D01*
X115652700Y-69741500D02*
X115456200Y-70240000D01*
X102666200Y-109392900D02*
X102149500Y-109072700D01*
X48405700Y-60739700D02*
X48670000Y-60280000D01*
X94417000Y-67067700D02*
X94379500Y-66516000D01*
X52830800Y-112448000D02*
X52175200Y-112365000D01*
X93959600Y-47228300D02*
X94136100Y-47849900D01*
X76944200Y-38818700D02*
X77552900Y-38612700D01*
X99040600Y-79943900D02*
X99656500Y-80504500D01*
X89781300Y-41015200D02*
X90256700Y-41426900D01*
X96544400Y-72581800D02*
X96301900Y-72241300D01*
X58623300Y-55009000D02*
X59180700Y-55051400D01*
X52366100Y-75360700D02*
X51920700Y-75075200D01*
X66855100Y-59404200D02*
X67161200Y-59834600D01*
X43307400Y-106740200D02*
X42966700Y-106208700D01*
X103042100Y-82954800D02*
X103776000Y-83370000D01*
X121610600Y-102166600D02*
X121407200Y-102762600D01*
X45674300Y-89449700D02*
X46084300Y-89114100D01*
X69929500Y-44879500D02*
X70245000Y-44331000D01*
X45837300Y-109525000D02*
X45362000Y-109113000D01*
X107012900Y-55115900D02*
X107553600Y-55212400D01*
X70505500Y-101956400D02*
X69965100Y-102313500D01*
X94001700Y-54385000D02*
X93755600Y-54967600D01*
X41489300Y-96116600D02*
X41636700Y-95593900D01*
X80109100Y-38091400D02*
X80774400Y-38040800D01*
X114865000Y-109913800D02*
X114291300Y-110171300D01*
X47943400Y-70245300D02*
X47746900Y-69746800D01*
X66529200Y-58989500D02*
X66855100Y-59404200D01*
X85344000Y-38612700D02*
X85952700Y-38818700D01*
X60270800Y-55217700D02*
X60801900Y-55340200D01*
X80674200Y-98427600D02*
X79644600Y-98544700D01*
X41221100Y-101410900D02*
X41137800Y-100755300D01*
X116095800Y-63754600D02*
X116192400Y-64295300D01*
X108602900Y-111163100D02*
X107958300Y-111115100D01*
X49932500Y-58591200D02*
X50296100Y-58210000D01*
X108084700Y-76599100D02*
X107553600Y-76721600D01*
X119099400Y-90029400D02*
X119432200Y-90431500D01*
X68979300Y-64849900D02*
X69021700Y-65407400D01*
X47207200Y-64300500D02*
X47303800Y-63759900D01*
X47303800Y-68184700D02*
X47207200Y-67644000D01*
X92099400Y-64638700D02*
X92142800Y-65547300D01*
X68580500Y-53249200D02*
X68514600Y-52970600D01*
X101091700Y-76118100D02*
X100705100Y-75950700D01*
X61322800Y-55488200D02*
X61832900Y-55660800D01*
X119622800Y-106026700D02*
X119238700Y-106511400D01*
X63072900Y-75774100D02*
X62694500Y-75955900D01*
X68920500Y-103065000D02*
X68417000Y-103458700D01*
X110573800Y-75619700D02*
X110100500Y-75862200D01*
X67544200Y-71535500D02*
X67327400Y-71895900D01*
X119238700Y-106511400D02*
X118831800Y-106976500D01*
X64829900Y-74661400D02*
X64497500Y-74910100D01*
X116318700Y-65967000D02*
X116304500Y-66531900D01*
X115825300Y-69231500D02*
X115652700Y-69741500D01*
X111033500Y-56578700D02*
X111478900Y-56864300D01*
X94586600Y-63754600D02*
X94709200Y-63223500D01*
X97875400Y-78757200D02*
X98446700Y-79361300D01*
X47925900Y-110935000D02*
X47377300Y-110619000D01*
X113517100Y-86238300D02*
X113517100Y-86238300D01*
X98446700Y-79361300D02*
X99040600Y-79943900D01*
X105341200Y-76944500D02*
X104889600Y-76935500D01*
X93514600Y-101149500D02*
X92605000Y-100672100D01*
X113812000Y-72949900D02*
X113467000Y-73348100D01*
X62307900Y-76123400D02*
X61913400Y-76276400D01*
X121407200Y-102762600D02*
X121176100Y-103345100D01*
X47137500Y-67094700D02*
X47095100Y-66537200D01*
X95124300Y-69995900D02*
X94977300Y-69590600D01*
X94977300Y-69590600D02*
X93017100Y-70064500D01*
X49071000Y-111486000D02*
X48490800Y-111224000D01*
X56917900Y-112227000D02*
X56247000Y-112352000D01*
X94709200Y-63223500D02*
X94857100Y-62702600D01*
X71751600Y-42315600D02*
X72185300Y-41860700D01*
X58956500Y-76914900D02*
X58509900Y-76940800D01*
X85797400Y-98559900D02*
X84781500Y-98439300D01*
X55314900Y-76604300D02*
X54794000Y-76456400D01*
X49261600Y-72540400D02*
X48955500Y-72110000D01*
X100579500Y-107305300D02*
X99913700Y-106461500D01*
X110100500Y-75862200D02*
X109614200Y-76082000D01*
X116488500Y-108988600D02*
X115964100Y-109321500D01*
X54170200Y-112516000D02*
X53496100Y-112499000D01*
X92633400Y-58600200D02*
X92505700Y-59225600D01*
X109115700Y-55655500D02*
X109614200Y-55852100D01*
X71620900Y-101281100D02*
X71057600Y-101612200D01*
X115973200Y-68710500D02*
X115825300Y-69231500D01*
X116192400Y-67638800D02*
X116095800Y-68179400D01*
X110573800Y-56314400D02*
X111033500Y-56578700D01*
X71057600Y-101612200D02*
X70505500Y-101956400D01*
X55631300Y-85590600D02*
X56235200Y-85355800D01*
X69965100Y-102313500D02*
X69436600Y-102683100D01*
X51490300Y-74769000D02*
X51075600Y-74443100D01*
X84088600Y-38289900D02*
X84722400Y-38436200D01*
X63442700Y-75578300D02*
X63072900Y-75774100D01*
X55846000Y-55217700D02*
X56386600Y-55121200D01*
X46845800Y-110279000D02*
X46332200Y-109913000D01*
X100293600Y-81042400D02*
X100951400Y-81557000D01*
X54283900Y-55660800D02*
X54794000Y-55488200D01*
X68417000Y-103458700D02*
X67926600Y-103864000D01*
X91557100Y-42791000D02*
X91946000Y-43285800D01*
X69436600Y-102683100D02*
X68920500Y-103065000D01*
X69784600Y-71998500D02*
X70118600Y-71054800D01*
X65820700Y-58210000D02*
X66184300Y-58591200D01*
X47856400Y-87940100D02*
X48330000Y-87691100D01*
X50274600Y-111927000D02*
X49665900Y-111721000D01*
X78808400Y-38289900D02*
X79453500Y-38174700D01*
X122126200Y-99663800D02*
X122043200Y-100305800D01*
X96544400Y-59398900D02*
X96870400Y-58984200D01*
X65682700Y-106053500D02*
X65278100Y-106521800D01*
X45362000Y-109113000D02*
X44907000Y-108679000D01*
X122004700Y-96160200D02*
X122085700Y-96698200D01*
X48163200Y-61213000D02*
X48405700Y-60739700D01*
X49261600Y-59404200D02*
X49587600Y-58989500D01*
X45278300Y-89801200D02*
X45674300Y-89449700D01*
X51490300Y-57175500D02*
X51920700Y-56869500D01*
X84722400Y-38436200D02*
X85344000Y-38612700D01*
X94531500Y-50449700D02*
X94548600Y-51123800D01*
X47746900Y-62197800D02*
X47943400Y-61699300D01*
X50896300Y-112104000D02*
X50274600Y-111927000D01*
X68363600Y-51760700D02*
X68348400Y-51123800D01*
X106463600Y-76887900D02*
X105906100Y-76930300D01*
X60073900Y-111113000D02*
X59472000Y-111398000D01*
X46508100Y-88794800D02*
X46945000Y-88492400D01*
X113103300Y-110602200D02*
X112489100Y-110775500D01*
X109614200Y-55852100D02*
X110100500Y-56072000D01*
X118403200Y-107422000D02*
X117953900Y-107846900D01*
X92605000Y-100672100D02*
X91676400Y-100237800D01*
X62817700Y-56077200D02*
X63291000Y-56319700D01*
X48814800Y-87461000D02*
X49310300Y-87250100D01*
X69640200Y-45444400D02*
X69929500Y-44879500D01*
X111033500Y-75355400D02*
X110573800Y-75619700D01*
X94363700Y-65967000D02*
X94377900Y-65402100D01*
X68542500Y-62707900D02*
X68690400Y-63228800D01*
X104311500Y-110209500D02*
X103748100Y-109962700D01*
X121628400Y-94593500D02*
X121774600Y-95107400D01*
X103669400Y-55115900D02*
X104218800Y-55046100D01*
X68614600Y-48483700D02*
X68760900Y-47849900D01*
X89286500Y-40626300D02*
X89781300Y-41015200D01*
X98569600Y-74656100D02*
X98247400Y-74394900D01*
X68499400Y-49128800D02*
X68614600Y-48483700D01*
X101629200Y-82047700D02*
X102326300Y-82513800D01*
X92394900Y-59855900D02*
X92301200Y-60490800D01*
X92378200Y-67321000D02*
X94417000Y-67067700D01*
X57493500Y-76935600D02*
X56935900Y-76893200D01*
X62694500Y-75955900D02*
X62307900Y-76123400D01*
X71191200Y-62065700D02*
X71099900Y-61190000D01*
X115236300Y-61207800D02*
X115456200Y-61694000D01*
X88772900Y-40261000D02*
X89286500Y-40626300D01*
D11*
X68570000Y-69080000D02*
X68870000Y-67650000D01*
D10*
X103566500Y-76807300D02*
X103137200Y-76731600D01*
X61761600Y-82324200D02*
X62610900Y-81691300D01*
X116358100Y-87629400D02*
X116790600Y-87924400D01*
X114016700Y-86422600D02*
X114507500Y-86626600D01*
X55314900Y-55340200D02*
X55846000Y-55217700D01*
X98902100Y-74904900D02*
X98569600Y-74656100D01*
X111478900Y-56864300D02*
X111909300Y-57170300D01*
X121272900Y-93593200D02*
X121460600Y-94088600D01*
X110100500Y-56072000D02*
X110573800Y-56314400D01*
X77593400Y-98926200D02*
X76575000Y-99191400D01*
X103748100Y-109962700D02*
X103199300Y-109689500D01*
X94490100Y-64295300D02*
X94586600Y-63754600D01*
X68667200Y-53528600D02*
X68580500Y-53249200D01*
X71266800Y-63819100D02*
X71246800Y-62942400D01*
X71246800Y-62942400D02*
X71191200Y-62065700D01*
X71200400Y-65568300D02*
X71251300Y-64694800D01*
X100326700Y-75768900D02*
X99956900Y-75573100D01*
X65632100Y-78856700D02*
X66291300Y-78078700D01*
X80774400Y-38040800D02*
X81448500Y-38023800D01*
X97634600Y-73836200D02*
X97344600Y-73539200D01*
X70810300Y-59446000D02*
X70611900Y-58579700D01*
X115825300Y-62702600D02*
X115973200Y-63223500D01*
X82122600Y-38040800D02*
X82787900Y-38091400D01*
X65041100Y-57501500D02*
X65439500Y-57846400D01*
X96072200Y-71890700D02*
X95855400Y-71530200D01*
X70107500Y-56863900D02*
X69801400Y-56016400D01*
X52581400Y-86471600D02*
X53193100Y-86337400D01*
X92096400Y-63070400D02*
X92087900Y-63723800D01*
X114291300Y-110171300D02*
X113703700Y-110400500D01*
X100705100Y-75950700D02*
X100326700Y-75768900D01*
X59833100Y-76812600D02*
X59397600Y-76872000D01*
X93755600Y-54967600D02*
X93526300Y-55557200D01*
X47746900Y-69746800D02*
X47574300Y-69236700D01*
X95029700Y-62192600D02*
X95226200Y-61694000D01*
X92122100Y-62420200D02*
X92096400Y-63070400D01*
X53299100Y-75867400D02*
X52825800Y-75624900D01*
X64889100Y-106999400D02*
X64515900Y-107486200D01*
X63782500Y-108344000D02*
X63312700Y-108816000D01*
X42677500Y-93126300D02*
X42943000Y-92665300D01*
X59757000Y-83611900D02*
X60875400Y-82924200D01*
X95286100Y-70392800D02*
X95124300Y-69995900D01*
X98773100Y-57170300D02*
X99203500Y-56864300D01*
X95226200Y-61694000D02*
X95446100Y-61207800D01*
X41082200Y-98849000D02*
X41118000Y-98288300D01*
X66102500Y-105594900D02*
X65682700Y-106053500D01*
X101566700Y-55655500D02*
X102076800Y-55482900D01*
X112324000Y-74437900D02*
X111909300Y-74763800D01*
X95380200Y-75437400D02*
X95828900Y-76139300D01*
X104002000Y-76866700D02*
X103566500Y-76807300D01*
X41259000Y-97187200D02*
X41363200Y-96647900D01*
X94383600Y-53199900D02*
X94264800Y-53809700D01*
X77552900Y-38612700D02*
X78174600Y-38436200D01*
X60685500Y-76645000D02*
X60262400Y-76736900D01*
X70950900Y-43285800D02*
X71339800Y-42791000D01*
X48955500Y-72110000D02*
X48670000Y-71664600D01*
X74655600Y-39920300D02*
X75204200Y-39604900D01*
X82733300Y-98338300D02*
X81704300Y-98359000D01*
X69377900Y-46024700D02*
X69640200Y-45444400D01*
X68416100Y-49784400D02*
X68499400Y-49128800D01*
X68690400Y-63228800D02*
X68813000Y-63759900D01*
X41118000Y-98288300D02*
X41177100Y-97734200D01*
X47303800Y-63759900D02*
X47426300Y-63228800D01*
X121065500Y-93107700D02*
X121272900Y-93593200D01*
X55024400Y-85807000D02*
X55631300Y-85590600D01*
X68422300Y-69595900D02*
X68275200Y-70001200D01*
X90256700Y-41426900D02*
X90711600Y-41860700D01*
X49587600Y-58989500D02*
X49932500Y-58591200D01*
X63803500Y-75368800D02*
X63442700Y-75578300D01*
X98247400Y-74394900D02*
X97935600Y-74121500D01*
X44473300Y-108224000D02*
X44061500Y-107749000D01*
X96930900Y-103479800D02*
X96113400Y-102835000D01*
X96301900Y-72241300D02*
X96072200Y-71890700D01*
X69021700Y-65407400D02*
X69035900Y-65972300D01*
X116262100Y-67089500D02*
X116192400Y-67638800D01*
X121774600Y-95107400D02*
X121900000Y-95629800D01*
X105295300Y-84120600D02*
X106079400Y-84454600D01*
X86547600Y-39053200D02*
X87127900Y-39315600D01*
X92652000Y-44331000D02*
X92967400Y-44879500D01*
D11*
X68870000Y-67650000D02*
X70920000Y-67920000D01*
D10*
X50677300Y-57846400D02*
X51075600Y-57501500D01*
X103128800Y-55212400D02*
X103669400Y-55115900D01*
X105341200Y-54989500D02*
X105906100Y-55003700D01*
X122180500Y-97794800D02*
X122192400Y-98352400D01*
X95855400Y-71530200D02*
X95651900Y-71160200D01*
X113703700Y-110400500D02*
X113103300Y-110602200D01*
X41336300Y-102056000D02*
X41221100Y-101410900D01*
X113812000Y-58984200D02*
X114137900Y-59398900D01*
X67449500Y-104280600D02*
X66986300Y-104708200D01*
X62331400Y-55857300D02*
X62817700Y-56077200D01*
X115421900Y-109630900D02*
X114865000Y-109913800D01*
X60659500Y-110798000D02*
X60073900Y-111113000D01*
X62309700Y-109687000D02*
X61778200Y-110085000D01*
D11*
X92990000Y-69460000D02*
X92580000Y-68100000D01*
D10*
X115973200Y-63223500D02*
X116095800Y-63754600D01*
X121785400Y-101557900D02*
X121610600Y-102166600D01*
X79644600Y-98544700D02*
X78617100Y-98710800D01*
X109364000Y-85502000D02*
X110219000Y-85688400D01*
X56386600Y-76823400D02*
X55846000Y-76726900D01*
X50296100Y-58210000D02*
X50677300Y-57846400D01*
X47377300Y-110619000D02*
X46845800Y-110279000D01*
X74561000Y-99873200D02*
X73568500Y-100290700D01*
X72185300Y-41860700D02*
X72640300Y-41426900D01*
X115964100Y-109321500D02*
X115421900Y-109630900D01*
X92778100Y-57980000D02*
X92633400Y-58600200D01*
X84781500Y-98439300D02*
X83759600Y-98365300D01*
X66600400Y-72917000D02*
X66333500Y-73236300D01*
X112722300Y-74092900D02*
X112324000Y-74437900D01*
X55564800Y-112443000D02*
X54872300Y-112497000D01*
X51970200Y-86582900D02*
X52581400Y-86471600D01*
X65152200Y-74400200D02*
X64829900Y-74661400D01*
X61913400Y-76276400D02*
X61511300Y-76414500D01*
X42966700Y-106208700D02*
X42651200Y-105660100D01*
X96799200Y-72911700D02*
X96544400Y-72581800D01*
X93547000Y-71675600D02*
X93856800Y-72459600D01*
X81448500Y-38023800D02*
X82122600Y-38040800D01*
X107553600Y-76721600D02*
X107012900Y-76818100D01*
X65765000Y-73841500D02*
X65464000Y-74126800D01*
X73568500Y-100290700D02*
X72587900Y-100759800D01*
X101068200Y-55852100D02*
X101566700Y-55655500D01*
X70585700Y-43799400D02*
X70950900Y-43285800D01*
X101210100Y-108187600D02*
X100579500Y-107305300D01*
X68365500Y-50449700D02*
X68416100Y-49784400D01*
X113467000Y-73348100D02*
X113103500Y-73729400D01*
X122043200Y-100305800D02*
X121929600Y-100937400D01*
X56247000Y-112352000D02*
X55564800Y-112443000D01*
X42430500Y-93598700D02*
X42677500Y-93126300D01*
X114986500Y-86849700D02*
X115455500Y-87091500D01*
X67327400Y-71895900D02*
X67097700Y-72246600D01*
X103199300Y-109689500D02*
X102666200Y-109392900D01*
X111863200Y-110918400D02*
X111226100Y-111031000D01*
X58607100Y-84251200D02*
X59185700Y-83938000D01*
X50296100Y-73734600D02*
X49932500Y-73353400D01*
X59730100Y-55121200D02*
X60270800Y-55217700D01*
X111909300Y-74763800D02*
X111478900Y-75069900D01*
X119748200Y-90846900D02*
X120047400Y-91275300D01*
X68369900Y-62197800D02*
X68542500Y-62707900D01*
X58058400Y-54994800D02*
X58623300Y-55009000D01*
X83759600Y-98365300D02*
X82733300Y-98338300D01*
X91946000Y-43285800D02*
X92311300Y-43799400D01*
X121900000Y-95629800D02*
X122004700Y-96160200D01*
X116996000Y-108630200D02*
X116488500Y-108988600D01*
X106697300Y-110928100D02*
X106082600Y-110790100D01*
D11*
X94470000Y-67790000D02*
X94750000Y-68980000D01*
D10*
X92505700Y-59225600D02*
X92394900Y-59855900D01*
X94857100Y-62702600D02*
X95029700Y-62192600D01*
X121929600Y-100937400D02*
X121785400Y-101557900D01*
X68760900Y-47849900D02*
X68937400Y-47228300D01*
X71099900Y-61190000D02*
X70973000Y-60316400D01*
X41865000Y-103920100D02*
X41659100Y-103311400D01*
X52175200Y-112365000D02*
X51530100Y-112250000D01*
D11*
X70920000Y-67920000D02*
X70530000Y-69460000D01*
D10*
X56386600Y-55121200D02*
X56935900Y-55051400D01*
X41636700Y-95593900D02*
X41805100Y-95080300D01*
X99244300Y-75140800D02*
X98902100Y-74904900D01*
X42943000Y-92665300D02*
X43226500Y-92216300D01*
X94507100Y-52169800D02*
X94455600Y-52686600D01*
X116304500Y-65402100D02*
X116318700Y-65967000D01*
X70410200Y-70096100D02*
X68422300Y-69595900D01*
X41177100Y-97734200D02*
X41259000Y-97187200D01*
X92231400Y-66443500D02*
X92296700Y-66885000D01*
X78617100Y-98710800D02*
X77593400Y-98926200D01*
X107322700Y-111036800D02*
X106697300Y-110928100D01*
X105479600Y-110623600D02*
X104888900Y-110429800D01*
X46945000Y-88492400D02*
X47394600Y-88207400D01*
X114993900Y-60734500D02*
X115236300Y-61207800D01*
X107553600Y-55212400D02*
X108084700Y-55335000D01*
X115236300Y-70726300D02*
X114993900Y-71199600D01*
X113517100Y-86238300D02*
X114016700Y-86422600D01*
X87804800Y-98939300D02*
X86805800Y-98726800D01*
X89768800Y-99499800D02*
X88793100Y-99197200D01*
X117953900Y-107846900D02*
X117484800Y-108250300D01*
X108084700Y-55335000D02*
X108605600Y-55482900D01*
X66291300Y-78078700D02*
X66911300Y-77275400D01*
X100951400Y-81557000D02*
X101629200Y-82047700D01*
X96303400Y-76822800D02*
X96803100Y-77487300D01*
X41482500Y-102689800D02*
X41336300Y-102056000D01*
X43527500Y-91779700D02*
X43845600Y-91356200D01*
X94379500Y-66516000D02*
X94363700Y-65967000D01*
X47394600Y-88207400D02*
X47856400Y-87940100D01*
X58222500Y-111876000D02*
X57576700Y-112068000D01*
X97327300Y-78132400D02*
X97875400Y-78757200D01*
X72587900Y-100759800D02*
X71620900Y-101281100D01*
X76349400Y-39053200D02*
X76944200Y-38818700D01*
X54794000Y-55488200D02*
X55314900Y-55340200D01*
X93856800Y-72459600D02*
X94195700Y-73228400D01*
X68031900Y-75598400D02*
X68531800Y-74727300D01*
X97344600Y-73539200D02*
X97066000Y-73231000D01*
X53193100Y-86337400D02*
X53804600Y-86181300D01*
X65464000Y-74126800D02*
X65152200Y-74400200D01*
X51075600Y-57501500D02*
X51490300Y-57175500D01*
X111909300Y-57170300D02*
X112324000Y-57496200D01*
X51920700Y-75075200D02*
X51490300Y-74769000D01*
X47095100Y-65407400D02*
X47137500Y-64849900D01*
X105906100Y-76930300D02*
X105341200Y-76944500D01*
X54415300Y-86004200D02*
X55024400Y-85807000D01*
X64155300Y-75146000D02*
X63803500Y-75368800D01*
X49310300Y-87250100D02*
X49816200Y-87059000D01*
X71339800Y-42791000D02*
X71751600Y-42315600D01*
X90711600Y-41860700D02*
X91145400Y-42315600D01*
X67953500Y-61213000D02*
X68173400Y-61699300D01*
X66055000Y-73544500D02*
X65765000Y-73841500D01*
X107012900Y-76818100D02*
X106463600Y-76887900D01*
X93266900Y-70877000D02*
X93547000Y-71675600D01*
X66911300Y-77275400D02*
X67491700Y-76448200D01*
X122144900Y-97243200D02*
X122180500Y-97794800D01*
X87692800Y-39604900D02*
X88241300Y-39920300D01*
X57431300Y-84834800D02*
X58022100Y-84550400D01*
X47080900Y-65972300D02*
X47095100Y-65407400D01*
X104776300Y-55003700D02*
X105341200Y-54989500D01*
X108522000Y-85284700D02*
X109364000Y-85502000D01*
X93017100Y-70064500D02*
X93266900Y-70877000D01*
X97960100Y-57841200D02*
X98358500Y-57496200D01*
X48405700Y-71204900D02*
X48163200Y-70731600D01*
X68348400Y-51123800D02*
X68365500Y-50449700D01*
X117617200Y-88564200D02*
X118010200Y-88908000D01*
X104527300Y-83758800D02*
X105295300Y-84120600D01*
X51920700Y-56869500D02*
X52366100Y-56583900D01*
X108605600Y-76451100D02*
X108084700Y-76599100D01*
X67446800Y-60280000D02*
X67711000Y-60739700D01*
X111226100Y-111031000D02*
X110578700Y-111112300D01*
X41805100Y-95080300D02*
X41993800Y-94576200D01*
X106463600Y-55046100D02*
X107012900Y-55115900D01*
X63423100Y-81026900D02*
X64197600Y-80332100D01*
X93118300Y-56756400D02*
X92939800Y-57365300D01*
X120047400Y-91275300D02*
X120328900Y-91716000D01*
X94958000Y-74717900D02*
X95380200Y-75437400D01*
X68113500Y-70398000D02*
X67937600Y-70786300D01*
X92967400Y-44879500D02*
X93256700Y-45444400D01*
X72640300Y-41426900D02*
X73115600Y-41015200D01*
X73610500Y-40626300D02*
X74124100Y-40261000D01*
X66184300Y-58591200D02*
X66529200Y-58989500D01*
X69459400Y-55177400D02*
X69081300Y-54347700D01*
X61778200Y-110085000D02*
X61227900Y-110455000D01*
X59180700Y-55051400D02*
X59730100Y-55121200D01*
X68909500Y-64300500D02*
X68979300Y-64849900D01*
X105906100Y-55003700D02*
X106463600Y-55046100D01*
X100581900Y-56072000D02*
X101068200Y-55852100D01*
X94420300Y-64844700D02*
X94490100Y-64295300D01*
X49816200Y-87059000D02*
X50331900Y-86888100D01*
X116095800Y-68179400D02*
X115973200Y-68710500D01*
X94538200Y-51649000D02*
X94507100Y-52169800D01*
X51360300Y-86670700D02*
X51970200Y-86582900D01*
X95688500Y-60734500D02*
X95952800Y-60274700D01*
X75563700Y-99506900D02*
X74561000Y-99873200D01*
X64159100Y-107981700D02*
X63782500Y-108344000D01*
X44061500Y-107749000D02*
X43672600Y-107254000D01*
X109921700Y-111162200D02*
X109256100Y-111178800D01*
X120838400Y-92632700D02*
X121065500Y-93107700D01*
D11*
X92580000Y-68100000D02*
X94470000Y-67790000D01*
D10*
X111086100Y-85843500D02*
X111964800Y-85966500D01*
X49932500Y-73353400D02*
X49587600Y-72955100D01*
X68990800Y-73836100D02*
X69408500Y-72926100D01*
X67711000Y-60739700D02*
X67953500Y-61213000D01*
X104888900Y-110429800D02*
X104311500Y-110209500D01*
X117484800Y-108250300D02*
X116996000Y-108630200D01*
X92087900Y-63723800D02*
X92099400Y-64638700D01*
X70118600Y-71054800D02*
X70410200Y-70096100D01*
D11*
X94750000Y-68980000D02*
X92990000Y-69460000D01*
D10*
X99913700Y-106461500D02*
X99214400Y-105656600D01*
X112722300Y-57841200D02*
X113103500Y-58204700D01*
X104889600Y-76935500D02*
X104443100Y-76909600D01*
X59397600Y-76872000D02*
X58956500Y-76914900D01*
X67097700Y-72246600D02*
X66855100Y-72587000D01*
X122175600Y-99012500D02*
X122126200Y-99663800D01*
X102597700Y-55335000D02*
X103128800Y-55212400D01*
X99956900Y-75573100D02*
X99596100Y-75363600D01*
X93313900Y-56153600D02*
X93118300Y-56756400D01*
X48330000Y-87691100D02*
X48814800Y-87461000D01*
X106879000Y-84760500D02*
X107693400Y-85037400D01*
X96113400Y-102835000D02*
X95270500Y-102231400D01*
X53299100Y-56077200D02*
X53785400Y-55857300D01*
M02*
