%TF.GenerationSoftware,KiCad,Pcbnew,7.0.8*%
%TF.CreationDate,2024-08-08T21:58:03+02:00*%
%TF.ProjectId,Fidget_Spinner,46696467-6574-45f5-9370-696e6e65722e,rev?*%
%TF.SameCoordinates,Original*%
%TF.FileFunction,Profile,NP*%
%FSLAX46Y46*%
G04 Gerber Fmt 4.6, Leading zero omitted, Abs format (unit mm)*
G04 Created by KiCad (PCBNEW 7.0.8) date 2024-08-08 21:58:03*
%MOMM*%
%LPD*%
G01*
G04 APERTURE LIST*
%TA.AperFunction,Profile*%
%ADD10C,0.100000*%
%TD*%
%TA.AperFunction,Profile*%
%ADD11C,0.150000*%
%TD*%
G04 APERTURE END LIST*
D10*
X50832900Y-45253100D02*
X51205100Y-44606000D01*
X66252600Y-124698800D02*
X65076100Y-124683600D01*
X5607740Y-128713600D02*
X5587560Y-127918200D01*
X80043100Y-82998100D02*
X80551900Y-84479300D01*
X122396600Y-132467500D02*
X122120600Y-133169500D01*
X51186600Y-73686200D02*
X51294700Y-72335400D01*
X113893600Y-141397500D02*
X113191600Y-141672500D01*
X67540600Y-37477470D02*
X68288400Y-37650100D01*
X110230600Y-142433500D02*
X109457600Y-142530500D01*
X78668500Y-46604400D02*
X78945300Y-47306400D01*
X104084900Y-142142500D02*
X103364300Y-141942500D01*
X49281300Y-49506200D02*
X49453900Y-48758300D01*
X49038400Y-54115300D02*
X48985100Y-53373000D01*
X77243300Y-43978620D02*
X77645300Y-44606000D01*
X25065400Y-142848500D02*
X24288000Y-143036500D01*
X101909400Y-70529700D02*
X102031100Y-71057100D01*
X97873200Y-64517800D02*
X98285100Y-64841400D01*
X92605100Y-102135600D02*
X93773400Y-103137400D01*
X111739600Y-142124500D02*
X110992600Y-142297500D01*
X43730800Y-64068800D02*
X44177600Y-64386600D01*
X13030030Y-141138500D02*
X12402910Y-140737500D01*
X28224200Y-80340000D02*
X27906500Y-79893100D01*
X85448200Y-82422000D02*
X84825000Y-81988600D01*
X89689700Y-62477400D02*
X90235300Y-62408100D01*
X80461700Y-72693300D02*
X80503800Y-72139600D01*
X14726300Y-113811400D02*
X15310900Y-113562600D01*
X45984100Y-128783000D02*
X44964100Y-129263600D01*
X16516400Y-113135400D02*
X17135800Y-112958300D01*
X78839100Y-78413800D02*
X79185600Y-79964400D01*
X27588600Y-109008100D02*
X28972900Y-108246100D01*
X115831600Y-113894600D02*
X116363600Y-114229400D01*
X78311600Y-61678400D02*
X78175700Y-63075800D01*
X26091200Y-75256100D02*
X26018700Y-74685700D01*
X97873200Y-81991000D02*
X97445800Y-82294900D01*
X79587400Y-81492800D02*
X80043100Y-82998100D01*
X26091200Y-71784500D02*
X26191400Y-71223200D01*
X47105900Y-67610000D02*
X47380400Y-68087300D01*
X81833800Y-78591300D02*
X81478900Y-77911200D01*
X28920900Y-81184100D02*
X28562600Y-80770600D01*
X43448800Y-83159900D02*
X43091600Y-83376300D01*
X7453260Y-135286500D02*
X7111870Y-134619500D01*
X104819600Y-142308500D02*
X104084900Y-142142500D01*
X40088000Y-132031200D02*
X39160600Y-132655700D01*
X103364300Y-141942500D02*
X102658500Y-141708500D01*
X86393000Y-95343400D02*
X87327900Y-96563500D01*
X45795100Y-65856500D02*
X46153300Y-66270000D01*
X48739200Y-74035900D02*
X48711700Y-74279300D01*
X77957200Y-70429000D02*
X78010700Y-71980300D01*
X74257900Y-40693300D02*
X74818900Y-41179060D01*
X87327900Y-96563500D02*
X88304300Y-97749600D01*
X27301800Y-142057500D02*
X26573200Y-142358500D01*
X97130000Y-138258500D02*
X96361700Y-137483500D01*
X66779400Y-37341550D02*
X67540600Y-37477470D01*
X78504500Y-60283100D02*
X78311600Y-61678400D01*
X28972900Y-108246100D02*
X30326800Y-107437700D01*
X121810600Y-133854200D02*
X121469600Y-134520500D01*
X102196300Y-74369100D02*
X102127000Y-74914700D01*
X60562100Y-37650100D02*
X61309900Y-37477470D01*
X48624700Y-71784500D02*
X48697200Y-72354900D01*
X101295300Y-141145500D02*
X100639500Y-140815500D01*
X42967700Y-130298600D02*
X41992000Y-130852300D01*
X81764300Y-127906300D02*
X80727200Y-127503300D01*
X78282900Y-75065300D02*
X80532900Y-74691700D01*
X63881400Y-124698600D02*
X62693500Y-124743400D01*
X9671130Y-117456300D02*
X10103240Y-117005800D01*
X83677400Y-80999900D02*
X83156900Y-80448600D01*
X71793500Y-39029170D02*
X72440700Y-39401310D01*
X5601840Y-127249200D02*
X5644070Y-126587700D01*
X91472900Y-101094800D02*
X92605100Y-102135600D01*
X83279800Y-65923700D02*
X83640800Y-65545100D01*
X84653200Y-92805300D02*
X85501200Y-94090300D01*
X62693500Y-124743400D02*
X61512600Y-124817600D01*
D11*
X81280000Y-77320000D02*
X78710000Y-77860000D01*
D10*
X79569300Y-49506200D02*
X79705200Y-50267400D01*
X46974400Y-79680800D02*
X46740900Y-80026100D01*
X86750300Y-130287300D02*
X85781000Y-129763500D01*
X55732000Y-125619900D02*
X54603500Y-125864500D01*
X41942600Y-97032700D02*
X42887600Y-95782900D01*
X112359600Y-112355100D02*
X112967600Y-112552900D01*
X69021900Y-37858350D02*
X69740200Y-38101450D01*
X78026700Y-65913200D02*
X77959600Y-68867800D01*
X81522600Y-68527700D02*
X81763400Y-68057600D01*
X77959600Y-68867800D02*
X77957200Y-70429000D01*
X87705100Y-130834000D02*
X86750300Y-130287300D01*
X39093800Y-62253500D02*
X39655100Y-62353800D01*
X98680700Y-81324600D02*
X98285100Y-81667300D01*
X31447600Y-63772300D02*
X31924900Y-63497900D01*
X119805600Y-136985500D02*
X119319600Y-137545500D01*
X67421600Y-124744300D02*
X66252600Y-124698800D01*
X27906500Y-79893100D02*
X27610000Y-79430600D01*
X72015200Y-125219600D02*
X70880000Y-125057500D01*
X7192820Y-121053900D02*
X7484280Y-120496500D01*
X80727200Y-127503300D02*
X79677700Y-127125500D01*
X98680700Y-65184100D02*
X99059300Y-65545100D01*
X48215700Y-86140500D02*
X48779700Y-84647800D01*
X100002500Y-140458500D02*
X99385100Y-140073500D01*
X101762500Y-76496500D02*
X101591000Y-77003000D01*
X82233100Y-79242200D02*
X81833800Y-78591300D01*
X5901670Y-131033500D02*
X5765730Y-130272300D01*
X30650300Y-140039500D02*
X30023100Y-140507500D01*
X10652030Y-139361500D02*
X10115130Y-138848500D01*
X94074800Y-62695100D02*
X94592100Y-62842000D01*
X11796860Y-140305500D02*
X11212880Y-139847500D01*
X73674100Y-40234410D02*
X74257900Y-40693300D01*
X48697200Y-72354900D02*
X48741200Y-72933800D01*
X100390600Y-79350100D02*
X100086700Y-79777500D01*
X6677520Y-122207400D02*
X6923660Y-121624500D01*
X35060800Y-62353800D02*
X35622100Y-62253500D01*
X123321600Y-126480400D02*
X123335600Y-127152500D01*
X29373800Y-140944500D02*
X28703100Y-141349500D01*
X26018700Y-72354900D02*
X26091200Y-71784500D01*
X83640800Y-65545100D02*
X84019400Y-65184100D01*
X17182500Y-142890500D02*
X16448900Y-142682500D01*
X36771400Y-62137000D02*
X37358000Y-62122200D01*
X43091600Y-83376300D02*
X42726200Y-83579800D01*
X49248700Y-55568800D02*
X49247800Y-55568700D01*
X49381900Y-56189700D02*
X49248700Y-55568800D01*
X36192600Y-84859600D02*
X35622100Y-84787100D01*
X45099100Y-81897400D02*
X44467300Y-82437300D01*
X121108600Y-119154400D02*
X121423600Y-119699900D01*
X47782000Y-78216100D02*
X47599600Y-78594200D01*
X85501200Y-94090300D02*
X86393000Y-95343400D01*
X12519880Y-115028500D02*
X13050460Y-114692200D01*
X112967600Y-112552900D02*
X113565600Y-112775100D01*
X114579600Y-141086500D02*
X113893600Y-141397500D01*
X7484280Y-120496500D02*
X7797570Y-119952600D01*
X46219100Y-90453900D02*
X46934300Y-89044500D01*
X95593800Y-83300100D02*
X95098700Y-83495400D01*
X121097600Y-135168500D02*
X120695600Y-135795500D01*
X44964100Y-129263600D02*
X43958500Y-129768900D01*
X68582800Y-124819300D02*
X67421600Y-124744300D01*
X18703100Y-112549500D02*
X20247500Y-112087100D01*
X48524500Y-71223200D02*
X48624700Y-71784500D01*
X90235300Y-62408100D02*
X90789000Y-62366000D01*
X80457000Y-73623000D02*
X80447500Y-73254400D01*
X40747400Y-62634600D02*
X41277000Y-62813800D01*
X51349600Y-67962600D02*
X51260600Y-66327800D01*
X27610000Y-79430600D02*
X27335500Y-78953300D01*
X54592500Y-40693300D02*
X55176500Y-40234410D01*
X113565600Y-112775100D02*
X114152600Y-113020800D01*
X28920900Y-65856500D02*
X29298300Y-65460600D01*
X61512600Y-124817600D02*
X60339500Y-124920800D01*
X122661600Y-122622300D02*
X122836600Y-123241700D01*
X26573200Y-142358500D02*
X25827400Y-142622500D01*
X102127000Y-71594000D02*
X102196300Y-72139600D01*
X17135800Y-112958300D02*
X18703100Y-112549500D01*
X48711700Y-74279300D02*
X48665700Y-74496400D01*
X27335500Y-68087300D02*
X27610000Y-67610000D01*
X46740900Y-80026100D02*
X46238400Y-80689200D01*
X15730600Y-142438500D02*
X15028600Y-142160500D01*
X79290700Y-56867700D02*
X79111000Y-57461700D01*
X95098700Y-83495400D02*
X94592100Y-83666800D01*
X82788600Y-128334200D02*
X81764300Y-127906300D01*
X38244900Y-84884400D02*
X37803600Y-84909900D01*
X101762500Y-70012300D02*
X101909400Y-70529700D01*
X39113400Y-84784100D02*
X38681600Y-84842400D01*
X120695600Y-135795500D02*
X120265600Y-136400500D01*
X51032300Y-75032000D02*
X51186600Y-73686200D01*
X79705200Y-50267400D02*
X79803400Y-51040900D01*
X8132100Y-119422700D02*
X8487230Y-118907500D01*
X81478900Y-77911200D02*
X78839100Y-78413800D01*
X37803600Y-84909900D02*
X37358000Y-84918400D01*
X80532900Y-74691700D02*
X80479900Y-73979600D01*
X41582900Y-84110600D02*
X41187300Y-84259800D01*
X8658540Y-137166500D02*
X8227610Y-136560500D01*
X36599000Y-102736900D02*
X37746400Y-101672400D01*
X6802360Y-133935100D02*
X6525530Y-133233200D01*
X97445800Y-64213800D02*
X97873200Y-64517800D01*
X107096600Y-142592500D02*
X106326600Y-142534500D01*
X79688700Y-55071200D02*
X79579700Y-55673200D01*
X52497000Y-42788780D02*
X52983000Y-42227730D01*
X39160600Y-132655700D02*
X38250000Y-133303200D01*
X80551900Y-84479300D02*
X81112400Y-85935400D01*
X6256140Y-123408200D02*
X6454850Y-122802300D01*
X122985600Y-123871200D02*
X123110600Y-124510500D01*
X41187300Y-84259800D02*
X40784800Y-84394700D01*
X88976500Y-83897700D02*
X88222700Y-83701500D01*
X25959800Y-73520300D02*
X25974700Y-72933800D01*
X55782400Y-39803380D02*
X56409700Y-39401310D01*
X65076100Y-124683600D02*
X63881400Y-124698600D01*
X44467300Y-82437300D02*
X44136900Y-82690100D01*
X7797570Y-119952600D02*
X8132100Y-119422700D01*
X79863200Y-51825900D02*
X79883400Y-52621500D01*
X10115130Y-138848500D02*
X9603370Y-138311500D01*
X51379600Y-69612300D02*
X51349600Y-67962600D01*
X34193900Y-104745000D02*
X35414500Y-103761500D01*
X35060800Y-84686900D02*
X34509400Y-84559600D01*
X83850400Y-91489400D02*
X84653200Y-92805300D01*
X95593800Y-63208600D02*
X96076800Y-63426900D01*
X79803400Y-51040900D02*
X79863200Y-51825900D01*
X47600100Y-87606500D02*
X48215700Y-86140500D01*
X78084700Y-64484400D02*
X78026700Y-65913200D01*
X43268300Y-63772300D02*
X43730800Y-64068800D01*
X121717600Y-120259200D02*
X121988600Y-120831700D01*
X99763000Y-66319300D02*
X100086700Y-66731200D01*
X13050460Y-114692200D02*
X13595330Y-114376800D01*
X80503800Y-72139600D02*
X80573100Y-71594000D01*
X109457600Y-142530500D02*
X108672600Y-142590500D01*
X30985200Y-82971800D02*
X30538300Y-82654000D01*
X46238400Y-80689200D02*
X45690300Y-81313800D01*
X59110100Y-38101450D02*
X59828400Y-37858350D01*
X56409700Y-39401310D02*
X57057000Y-39029170D01*
X51281800Y-126761700D02*
X50197300Y-127114100D01*
X27906500Y-67147500D02*
X28224200Y-66700600D01*
X79188300Y-48024700D02*
X79396600Y-48758300D01*
X78358900Y-45919700D02*
X78668500Y-46604400D01*
X97003400Y-82578500D02*
X96546900Y-82841000D01*
X46153300Y-66270000D02*
X46491700Y-66700600D01*
X69735700Y-124923900D02*
X68582800Y-124819300D01*
X33968500Y-62634600D02*
X34509400Y-62481000D01*
X46809500Y-67147500D02*
X47105900Y-67610000D01*
X32388200Y-138453500D02*
X31833800Y-139009500D01*
X80479900Y-73979600D02*
X80457000Y-73623000D01*
X49539900Y-56801200D02*
X49381900Y-56189700D01*
X34509400Y-84559600D02*
X33968500Y-84406000D01*
X31648900Y-106583900D02*
X32938300Y-105686100D01*
X78626200Y-59583100D02*
X78504500Y-60283100D01*
X110203600Y-111774200D02*
X111739600Y-112182200D01*
X42299500Y-63246200D02*
X42791000Y-63497900D01*
X68288400Y-37650100D02*
X69021900Y-37858350D01*
X30985200Y-64068800D02*
X31447600Y-63772300D01*
X107876600Y-142611500D02*
X107096600Y-142592500D01*
X36192600Y-62181000D02*
X36771400Y-62137000D01*
X30023100Y-140507500D02*
X29373800Y-140944500D01*
X100936700Y-68057600D02*
X101177500Y-68527700D01*
X78010700Y-71980300D02*
X78119300Y-73524600D01*
X106326600Y-142534500D02*
X105566600Y-142439500D01*
X49247800Y-55568700D02*
X49126200Y-54847500D01*
X98212700Y-139216500D02*
X97659700Y-138749500D01*
X108689600Y-111314900D02*
X110203600Y-111774200D01*
X75867500Y-42227730D02*
X76353300Y-42788780D01*
X123207600Y-125158800D02*
X123278600Y-125815600D01*
X5587560Y-127918200D02*
X5601840Y-127249200D01*
X58408300Y-38378090D02*
X59110100Y-38101450D01*
X99420300Y-65923700D02*
X99763000Y-66319300D01*
X30538300Y-82654000D02*
X30107700Y-82315700D01*
X47632100Y-68578800D02*
X47860400Y-69083600D01*
X96546900Y-63667700D02*
X97003400Y-63930200D01*
X82613500Y-66731200D02*
X82937100Y-66319300D01*
X102658500Y-141708500D02*
X101968500Y-141443500D01*
X14154190Y-114082900D02*
X14726300Y-113811400D01*
X26855600Y-69083600D02*
X27083800Y-68578800D01*
D11*
X48630000Y-75110000D02*
X51050000Y-75700000D01*
D10*
X6923660Y-121624500D02*
X7192820Y-121053900D01*
X81109100Y-69505700D02*
X81304300Y-69010600D01*
D11*
X78350000Y-75720000D02*
X80560000Y-75360000D01*
D10*
X119639600Y-117121700D02*
X120037600Y-117606400D01*
X53494600Y-41690940D02*
X54031500Y-41179060D01*
D11*
X50640000Y-77800000D02*
X48120000Y-77300000D01*
D10*
X120037600Y-117606400D02*
X120415600Y-118107000D01*
X48756100Y-73520300D02*
X48739200Y-74035900D01*
X91911100Y-84142700D02*
X91350100Y-84156900D01*
X92464800Y-62408100D02*
X93010400Y-62477400D01*
X80937700Y-70012300D02*
X81109100Y-69505700D01*
X115892600Y-140372500D02*
X115244600Y-140745500D01*
X22691300Y-143290500D02*
X21874100Y-143354500D01*
X34509400Y-62481000D02*
X35060800Y-62353800D01*
X93547300Y-83935400D02*
X93010400Y-84031300D01*
X32416400Y-83794500D02*
X31924900Y-83542700D01*
X117709600Y-139080500D02*
X117126600Y-139539500D01*
X117868600Y-115356000D02*
X118338600Y-115770300D01*
X43797300Y-82931100D02*
X43448800Y-83159900D01*
X86623400Y-63426900D02*
X87106300Y-63208600D01*
X40954700Y-98247700D02*
X41942600Y-97032700D01*
X73068000Y-39803380D02*
X73674100Y-40234410D01*
X99059300Y-65545100D02*
X99420300Y-65923700D01*
X77543000Y-126447100D02*
X76458400Y-126147300D01*
X45690300Y-81313800D02*
X45099100Y-81897400D01*
X50197300Y-127114100D02*
X49124700Y-127492800D01*
X79579700Y-55673200D02*
X79447100Y-56271700D01*
X116363600Y-114229400D02*
X116880600Y-114584900D01*
X80573100Y-71594000D02*
X80669000Y-71057100D01*
X94768900Y-135989500D02*
X93945300Y-135273500D01*
X26651500Y-77439400D02*
X26472300Y-76909800D01*
X24732800Y-110389000D02*
X26174800Y-109722700D01*
X62844700Y-37243220D02*
X63629800Y-37183510D01*
X51260600Y-66327800D02*
X51113600Y-64708200D01*
X123314600Y-127948000D02*
X123255600Y-128732900D01*
X47860400Y-69083600D02*
X48064400Y-69601300D01*
X50182000Y-46604400D02*
X50491400Y-45919700D01*
X48665700Y-74496400D02*
X51032300Y-75032000D01*
X11504250Y-115762100D02*
X12004340Y-115385300D01*
X33438900Y-84226800D02*
X32921300Y-84022700D01*
X101479600Y-108278400D02*
X102869300Y-108980900D01*
X100118000Y-107530100D02*
X101479600Y-108278400D01*
X26191400Y-71223200D02*
X26318700Y-70671700D01*
X47195500Y-79326900D02*
X46974400Y-79680800D01*
X5667450Y-129498700D02*
X5607740Y-128713600D01*
X98285100Y-64841400D02*
X98680700Y-65184100D01*
X17930400Y-143063500D02*
X17182500Y-142890500D01*
X78945300Y-47306400D02*
X79188300Y-48024700D01*
X81112400Y-85935400D02*
X81723600Y-87365400D01*
X39960800Y-84620000D02*
X39539900Y-84709900D01*
X6525530Y-133233200D02*
X6282570Y-132514900D01*
X77645300Y-44606000D02*
X78017600Y-45253100D01*
X123110600Y-124510500D02*
X123207600Y-125158800D01*
X59174400Y-125053100D02*
X58017900Y-125213900D01*
X82937100Y-66319300D02*
X83279800Y-65923700D01*
X79111000Y-57461700D02*
X78928000Y-58173700D01*
X91350100Y-62351800D02*
X91911100Y-62366000D01*
X11212880Y-139847500D02*
X10652030Y-139361500D01*
X31833800Y-139009500D02*
X31254200Y-139539500D01*
X50909700Y-63104800D02*
X50649900Y-61518200D01*
X73141100Y-125410100D02*
X72015200Y-125219600D01*
X102869300Y-108980900D02*
X104286400Y-109636900D01*
X15310900Y-113562600D02*
X15907900Y-113337100D01*
X13595330Y-114376800D02*
X14154190Y-114082900D01*
X88108000Y-62842000D02*
X88625300Y-62695100D01*
X37358000Y-62122200D02*
X37944500Y-62137000D01*
X38681600Y-84842400D02*
X38244900Y-84884400D01*
X33968500Y-84406000D02*
X33438900Y-84226800D01*
X42352700Y-83770300D02*
X41971500Y-83947300D01*
X29694100Y-81957400D02*
X29298300Y-81580000D01*
X123157600Y-129506700D02*
X123020600Y-130267900D01*
X47404000Y-78964600D02*
X47195500Y-79326900D01*
X15907900Y-113337100D02*
X16516400Y-113135400D01*
X123020600Y-130267900D02*
X122849600Y-131015700D01*
X43788900Y-94498900D02*
X44645300Y-93182200D01*
X76812300Y-43372550D02*
X77243300Y-43978620D01*
X100086700Y-79777500D02*
X99763000Y-80189400D01*
X10103240Y-117005800D02*
X10553170Y-116572800D01*
X27335500Y-78953300D02*
X27083800Y-78461900D01*
X34786300Y-136116500D02*
X33967200Y-136874500D01*
X5644070Y-126587700D02*
X5713810Y-125933900D01*
X35414500Y-103761500D02*
X36599000Y-102736900D01*
X100639500Y-140815500D02*
X100002500Y-140458500D01*
X100674200Y-67601000D02*
X100936700Y-68057600D01*
X122640600Y-131749200D02*
X122396600Y-132467500D01*
X57057000Y-39029170D02*
X57723500Y-38687730D01*
X26191400Y-75817400D02*
X26091200Y-75256100D01*
X37356900Y-133973300D02*
X36481600Y-134665500D01*
X47017700Y-128327600D02*
X45984100Y-128783000D01*
X27083800Y-68578800D02*
X27335500Y-68087300D01*
X48064400Y-69601300D02*
X48243600Y-70130900D01*
X15028600Y-142160500D02*
X14343980Y-141851500D01*
X35622100Y-62253500D02*
X36192600Y-62181000D01*
X55176500Y-40234410D02*
X55782400Y-39803380D01*
X33967200Y-136874500D02*
X33167700Y-137652500D01*
X40206500Y-62481000D02*
X40747400Y-62634600D01*
X5810450Y-125288400D02*
X5933410Y-124652000D01*
X47950800Y-77830600D02*
X47782000Y-78216100D01*
X113191600Y-141672500D02*
X112474600Y-141916500D01*
X30326800Y-107437700D02*
X31648900Y-106583900D01*
X92245100Y-133899400D02*
X91369600Y-133243300D01*
X89152800Y-62573300D02*
X89689700Y-62477400D01*
X120265600Y-136400500D02*
X119805600Y-136985500D01*
X120772600Y-118623300D02*
X121108600Y-119154400D01*
X99385100Y-140073500D02*
X98788100Y-139658500D01*
X28703100Y-141349500D02*
X28012000Y-141721500D01*
X84234100Y-81513900D02*
X83677400Y-80999900D01*
X104286400Y-109636900D02*
X105729600Y-110245200D01*
X19465200Y-143296500D02*
X18691600Y-143198500D01*
X78017600Y-45253100D02*
X78358900Y-45919700D01*
X92464800Y-84100600D02*
X91911100Y-84142700D01*
X37358000Y-84918400D02*
X36771400Y-84903600D01*
X30107700Y-64725000D02*
X30538300Y-64386600D01*
X48967100Y-52621500D02*
X48987400Y-51825900D01*
X51205100Y-44606000D02*
X51607200Y-43978620D01*
X79447100Y-56271700D02*
X79290700Y-56867700D01*
X102196300Y-72139600D02*
X102238400Y-72693300D01*
X12004340Y-115385300D02*
X12519880Y-115028500D01*
X6282570Y-132514900D02*
X6074180Y-131781400D01*
X119319600Y-137545500D02*
X118807600Y-138082500D01*
X39655100Y-62353800D02*
X40206500Y-62481000D01*
X56870200Y-125402900D02*
X55732000Y-125619900D01*
X51607200Y-43978620D02*
X52038100Y-43372550D01*
X8227610Y-136560500D02*
X7825620Y-135933500D01*
X80447500Y-73254400D02*
X80461700Y-72693300D01*
X48985100Y-53373000D02*
X48967100Y-52621500D01*
X121988600Y-120831700D02*
X122236600Y-121416800D01*
X36771400Y-84903600D02*
X36192600Y-84859600D01*
X57723500Y-38687730D02*
X58408300Y-38378090D01*
X78928000Y-58173700D02*
X78766900Y-58880500D01*
X75363000Y-125874200D02*
X74257100Y-125628500D01*
X49124700Y-127492800D02*
X48064700Y-127897400D01*
X122236600Y-121416800D02*
X122460600Y-122013800D01*
X91350100Y-84156900D02*
X90542200Y-84127400D01*
X42887600Y-95782900D02*
X43788900Y-94498900D01*
X122460600Y-122013800D02*
X122661600Y-122622300D01*
X97484100Y-105900200D02*
X98785700Y-106737100D01*
X44608200Y-64725000D02*
X45021800Y-65083200D01*
X20250200Y-143356500D02*
X19465200Y-143296500D01*
X41032000Y-131430100D02*
X40088000Y-132031200D01*
X117383600Y-114960600D02*
X117868600Y-115356000D01*
X52983000Y-42227730D02*
X53494600Y-41690940D01*
X11020450Y-116158100D02*
X11504250Y-115762100D01*
X18691600Y-143198500D02*
X17930400Y-143063500D01*
X41277000Y-62813800D02*
X41794600Y-63017900D01*
X97659700Y-138749500D02*
X97130000Y-138258500D01*
X81304300Y-69010600D02*
X81522600Y-68527700D01*
X65220700Y-37183510D02*
X66005700Y-37243220D01*
X37746400Y-101672400D02*
X38855700Y-100568400D01*
X8862590Y-118407800D02*
X9257300Y-117923800D01*
X98788100Y-139658500D02*
X98212700Y-139216500D01*
X88304300Y-97749600D02*
X89321400Y-98901000D01*
X83799800Y-128786700D02*
X82788600Y-128334200D01*
X26318700Y-70671700D02*
X26472300Y-70130900D01*
X112474600Y-141916500D02*
X111739600Y-142124500D01*
X102031100Y-75451600D02*
X101909400Y-75979100D01*
X23263400Y-111005900D02*
X24732800Y-110389000D01*
X123278600Y-125815600D02*
X123321600Y-126480400D01*
X26018700Y-74685700D02*
X25974700Y-74106900D01*
X21874100Y-143354500D02*
X21045700Y-143377500D01*
X114152600Y-113020800D02*
X114724600Y-113289700D01*
X85254300Y-64213800D02*
X85696700Y-63930200D01*
X37944500Y-62137000D02*
X38523300Y-62181000D01*
X96076800Y-83081800D02*
X95593800Y-83300100D01*
X49662100Y-48024700D02*
X49905100Y-47306400D01*
X31924900Y-83542700D02*
X31447600Y-83268300D01*
X120415600Y-118107000D02*
X120772600Y-118623300D01*
X81723600Y-87365400D02*
X82384400Y-88768400D01*
X26472300Y-76909800D02*
X26318700Y-76368900D01*
X94592100Y-83666800D02*
X94074800Y-83813700D01*
X50498500Y-78430500D02*
X47950800Y-77830600D01*
X98285100Y-81667300D02*
X97873200Y-81991000D01*
X79185600Y-79964400D02*
X79587400Y-81492800D01*
X87601400Y-63013400D02*
X88108000Y-62842000D01*
X9603370Y-138311500D02*
X9117440Y-137751500D01*
X88222700Y-83701500D02*
X87490900Y-83453800D01*
X62071200Y-37341550D02*
X62844700Y-37243220D01*
X49145300Y-50267400D02*
X49281300Y-49506200D01*
X76353300Y-42788780D02*
X76812300Y-43372550D01*
X6454850Y-122802300D02*
X6677520Y-122207400D01*
X28012000Y-141721500D02*
X27301800Y-142057500D01*
X79834300Y-53855700D02*
X79773600Y-54465500D01*
X84415000Y-64841400D02*
X84826900Y-64517800D01*
X44136900Y-82690100D02*
X43797300Y-82931100D01*
X48064700Y-127897400D02*
X47017700Y-128327600D01*
X13677390Y-141510500D02*
X13030030Y-141138500D01*
X123255600Y-128732900D02*
X123157600Y-129506700D01*
X118338600Y-115770300D02*
X118789600Y-116203200D01*
X102238400Y-73815400D02*
X102196300Y-74369100D01*
X110992600Y-142297500D02*
X110230600Y-142433500D01*
X59828400Y-37858350D02*
X60562100Y-37650100D01*
X97445800Y-82294900D02*
X97003400Y-82578500D01*
X58017900Y-125213900D02*
X56870200Y-125402900D01*
X83156900Y-80448600D02*
X82674900Y-79862000D01*
X41971500Y-83947300D02*
X41582900Y-84110600D01*
X93010400Y-62477400D02*
X93547300Y-62573300D01*
X100086700Y-66731200D02*
X100390600Y-67158700D01*
X39925400Y-99426600D02*
X40954700Y-98247700D01*
X101591000Y-77003000D02*
X101395800Y-77498100D01*
X90542200Y-84127400D02*
X89750400Y-84040400D01*
X80669000Y-71057100D02*
X80790800Y-70529700D01*
X102127000Y-74914700D02*
X102031100Y-75451600D01*
X84825000Y-81988600D02*
X84234100Y-81513900D01*
X38855700Y-100568400D02*
X39925400Y-99426600D01*
X90789000Y-62366000D02*
X91350100Y-62351800D01*
X114724600Y-113289700D02*
X115285600Y-113581200D01*
X47380400Y-68087300D02*
X47632100Y-68578800D01*
X115285600Y-113581200D02*
X115831600Y-113894600D01*
X30538300Y-64386600D02*
X30985200Y-64068800D01*
X93547300Y-62573300D02*
X94074800Y-62695100D01*
X101395800Y-77498100D02*
X101177500Y-77981100D01*
X66005700Y-37243220D02*
X66779400Y-37341550D01*
X48397200Y-70671700D02*
X48524500Y-71223200D01*
X86783200Y-83156700D02*
X86101600Y-82812000D01*
X44645300Y-93182200D02*
X45455800Y-91833400D01*
X24288000Y-143036500D02*
X23496300Y-143183500D01*
X54603500Y-125864500D02*
X53485500Y-126136600D01*
D11*
X78710000Y-77860000D02*
X78350000Y-75720000D01*
D10*
X105729600Y-110245200D02*
X107197600Y-110804900D01*
X23496300Y-143183500D02*
X22691300Y-143290500D01*
X100936700Y-78451200D02*
X100674200Y-78907700D01*
X82309500Y-67158700D02*
X82613500Y-66731200D01*
X43958500Y-129768900D02*
X42967700Y-130298600D01*
X86153300Y-63667700D02*
X86623400Y-63426900D01*
X51294700Y-72335400D02*
X51358600Y-70977800D01*
X96076800Y-63426900D02*
X96546900Y-63667700D01*
X89750400Y-84040400D02*
X88976500Y-83897700D01*
X122836600Y-123241700D02*
X122985600Y-123871200D01*
X49966800Y-58397900D02*
X49545800Y-56865700D01*
X79396600Y-48758300D02*
X79569300Y-49506200D01*
X32938300Y-105686100D02*
X34193900Y-104745000D01*
X49545800Y-56865700D02*
X49539900Y-56801200D01*
X41794600Y-63017900D02*
X42299500Y-63246200D01*
X79871000Y-53241200D02*
X79834300Y-53855700D01*
X122120600Y-133169500D02*
X121810600Y-133854200D01*
X78766900Y-58880500D02*
X78626200Y-59583100D01*
X119224600Y-116653800D02*
X119639600Y-117121700D01*
X30107700Y-82315700D02*
X29694100Y-81957400D01*
X54031500Y-41179060D02*
X54592500Y-40693300D01*
X96546900Y-82841000D02*
X96076800Y-83081800D01*
X93010400Y-84031300D02*
X92464800Y-84100600D01*
X101395800Y-69010600D02*
X101591000Y-69505700D01*
X90477400Y-132608400D02*
X89568900Y-131994900D01*
X85781000Y-129763500D02*
X84797300Y-129263200D01*
X20247500Y-112087100D02*
X21767900Y-111572300D01*
X50491400Y-45919700D02*
X50832900Y-45253100D01*
X27083800Y-78461900D02*
X26855600Y-77957000D01*
X102238400Y-72693300D02*
X102252600Y-73254400D01*
X44177600Y-64386600D02*
X44608200Y-64725000D01*
X75355700Y-41690940D02*
X75867500Y-42227730D01*
X26174800Y-109722700D02*
X27588600Y-109008100D01*
X46491700Y-66700600D02*
X46809500Y-67147500D01*
X9117440Y-137751500D02*
X8658540Y-137166500D01*
X99763000Y-80189400D02*
X99420300Y-80585000D01*
D11*
X80560000Y-75360000D02*
X81280000Y-77320000D01*
D10*
X6082210Y-124025100D02*
X6256140Y-123408200D01*
X38250000Y-133303200D02*
X37356900Y-133973300D01*
X69740200Y-38101450D02*
X70442200Y-38378090D01*
X48741200Y-72933800D02*
X48756100Y-73520300D01*
X78175700Y-63075800D02*
X78084700Y-64484400D01*
X83093700Y-90143300D02*
X83850400Y-91489400D01*
X85696700Y-63930200D02*
X86153300Y-63667700D01*
X35622100Y-84787100D02*
X35060800Y-84686900D01*
X74257100Y-125628500D02*
X73141100Y-125410100D01*
D11*
X48120000Y-77300000D02*
X48630000Y-75110000D01*
D10*
X80790800Y-70529700D02*
X80937700Y-70012300D01*
X63629800Y-37183510D02*
X64425300Y-37163450D01*
X108672600Y-142590500D02*
X107876600Y-142611500D01*
X70442200Y-38378090D02*
X71126900Y-38687730D01*
X117126600Y-139539500D02*
X116519600Y-139971500D01*
X99059300Y-80963600D02*
X98680700Y-81324600D01*
X52378000Y-126435700D02*
X51281800Y-126761700D01*
X90377900Y-100016300D02*
X91472900Y-101094800D01*
X5713810Y-125933900D02*
X5810450Y-125288400D01*
X60339500Y-124920800D02*
X59174400Y-125053100D01*
X64425300Y-37163450D02*
X65220700Y-37183510D01*
X29298300Y-81580000D02*
X28920900Y-81184100D01*
X115244600Y-140745500D02*
X114579600Y-141086500D01*
X27610000Y-67610000D02*
X27906500Y-67147500D01*
X42726200Y-83579800D02*
X42352700Y-83770300D01*
X105566600Y-142439500D02*
X104819600Y-142308500D01*
X101177500Y-77981100D02*
X100936700Y-78451200D01*
X78616100Y-126773300D02*
X77543000Y-126447100D01*
X49047000Y-51040900D02*
X49145300Y-50267400D01*
X25827400Y-142622500D02*
X25065400Y-142848500D01*
X82025900Y-67601000D02*
X82309500Y-67158700D01*
X28562600Y-80770600D02*
X28224200Y-80340000D01*
X26855600Y-77957000D02*
X26651500Y-77439400D01*
X71126900Y-38687730D02*
X71793500Y-39029170D01*
X28562600Y-66270000D02*
X28920900Y-65856500D01*
X48779700Y-84647800D02*
X49291100Y-83129400D01*
X94074800Y-83813700D02*
X93547300Y-83935400D01*
X84019400Y-65184100D02*
X84415000Y-64841400D01*
X72440700Y-39401310D02*
X73068000Y-39803380D01*
X21767900Y-111572300D02*
X23263400Y-111005900D01*
X52038100Y-43372550D02*
X52497000Y-42788780D01*
X79677700Y-127125500D02*
X78616100Y-126773300D01*
X102031100Y-71057100D02*
X102127000Y-71594000D01*
X5933410Y-124652000D02*
X6082210Y-124025100D01*
X122849600Y-131015700D02*
X122640600Y-131749200D01*
X16448900Y-142682500D02*
X15730600Y-142438500D01*
X25974700Y-72933800D02*
X26018700Y-72354900D01*
X84797300Y-129263200D02*
X83799800Y-128786700D01*
X118807600Y-138082500D02*
X118270600Y-138594500D01*
X45455800Y-91833400D02*
X46219100Y-90453900D01*
X33167700Y-137652500D02*
X32388200Y-138453500D01*
X101968500Y-141443500D02*
X101295300Y-141145500D01*
X28224200Y-66700600D02*
X28562600Y-66270000D01*
X32416400Y-63246200D02*
X32921300Y-63017900D01*
X121469600Y-134520500D02*
X121097600Y-135168500D01*
X87490900Y-83453800D02*
X86783200Y-83156700D01*
X91369600Y-133243300D02*
X90477400Y-132608400D01*
X5765730Y-130272300D02*
X5667450Y-129498700D01*
X38523300Y-62181000D02*
X39093800Y-62253500D01*
X48243600Y-70130900D02*
X48397200Y-70671700D01*
X82384400Y-88768400D02*
X83093700Y-90143300D01*
X70880000Y-125057500D02*
X69735700Y-124923900D01*
X50649900Y-61518200D02*
X50335200Y-59949000D01*
X89321400Y-98901000D02*
X90377900Y-100016300D01*
X94592100Y-62842000D02*
X95098700Y-63013400D01*
X107197600Y-110804900D02*
X108689600Y-111314900D01*
X50151600Y-80019800D02*
X50498500Y-78430500D01*
X74818900Y-41179060D02*
X75355700Y-41690940D01*
X42791000Y-63497900D02*
X43268300Y-63772300D01*
X49905100Y-47306400D02*
X50182000Y-46604400D01*
X45417600Y-65460600D02*
X45795100Y-65856500D01*
X47599600Y-78594200D02*
X47404000Y-78964600D01*
X31447600Y-83268300D02*
X30985200Y-82971800D01*
X26472300Y-70130900D02*
X26651500Y-69601300D01*
X116519600Y-139971500D02*
X115892600Y-140372500D01*
X81763400Y-68057600D02*
X82025900Y-67601000D01*
X101177500Y-68527700D02*
X101395800Y-69010600D01*
X91911100Y-62366000D02*
X92464800Y-62408100D01*
X121423600Y-119699900D02*
X121717600Y-120259200D01*
X6074180Y-131781400D02*
X5901670Y-131033500D01*
X89568900Y-131994900D02*
X88644700Y-131403400D01*
X93773400Y-103137400D02*
X94976800Y-104099400D01*
X31924900Y-63497900D02*
X32416400Y-63246200D01*
X79883400Y-52621500D02*
X79871000Y-53241200D01*
X118270600Y-138594500D02*
X117709600Y-139080500D01*
X97003400Y-63930200D02*
X97445800Y-64213800D01*
X84826900Y-64517800D02*
X85254300Y-64213800D01*
X76458400Y-126147300D02*
X75363000Y-125874200D01*
X98785700Y-106737100D02*
X100118000Y-107530100D01*
X26651500Y-69601300D02*
X26855600Y-69083600D01*
X45021800Y-65083200D02*
X45417600Y-65460600D01*
X116880600Y-114584900D02*
X117383600Y-114960600D01*
X88625300Y-62695100D02*
X89152800Y-62573300D01*
X102252600Y-73254400D02*
X102238400Y-73815400D01*
X29694100Y-65083200D02*
X30107700Y-64725000D01*
X33438900Y-62813800D02*
X33968500Y-62634600D01*
X7825620Y-135933500D02*
X7453260Y-135286500D01*
X35624500Y-135380500D02*
X34786300Y-136116500D01*
X51358600Y-70977800D02*
X51379600Y-69612300D01*
X10553170Y-116572800D02*
X11020450Y-116158100D01*
X31254200Y-139539500D02*
X30650300Y-140039500D01*
X29298300Y-65460600D02*
X29694100Y-65083200D01*
X32921300Y-84022700D02*
X32416400Y-83794500D01*
X49453900Y-48758300D02*
X49662100Y-48024700D01*
X9257300Y-117923800D02*
X9671130Y-117456300D01*
X95098700Y-63013400D02*
X95593800Y-63208600D01*
D11*
X76287270Y-103520000D02*
G75*
G03*
X76287270Y-103520000I-11007270J0D01*
G01*
D10*
X49126200Y-54847500D02*
X49038400Y-54115300D01*
X79773600Y-54465500D02*
X79688700Y-55071200D01*
X101591000Y-69505700D02*
X101762500Y-70012300D01*
X96214000Y-105020800D02*
X97484100Y-105900200D01*
X93103800Y-134576500D02*
X92245100Y-133899400D01*
X123335600Y-127152500D02*
X123314600Y-127948000D01*
X39539900Y-84709900D02*
X39113400Y-84784100D01*
X46934300Y-89044500D02*
X47600100Y-87606500D01*
X51113600Y-64708200D02*
X50909700Y-63104800D01*
X87106300Y-63208600D02*
X87601400Y-63013400D01*
X32921300Y-63017900D02*
X33438900Y-62813800D01*
X88644700Y-131403400D02*
X87705100Y-130834000D01*
X36481600Y-134665500D02*
X35624500Y-135380500D01*
X49748700Y-81586400D02*
X50151600Y-80019800D01*
D11*
X51050000Y-75700000D02*
X50640000Y-77800000D01*
D10*
X96361700Y-137483500D02*
X95574500Y-136727500D01*
X26318700Y-76368900D02*
X26191400Y-75817400D01*
X111739600Y-112182200D02*
X112359600Y-112355100D01*
X48987400Y-51825900D02*
X49047000Y-51040900D01*
X86101600Y-82812000D02*
X85448200Y-82422000D01*
X40784800Y-84394700D02*
X40375900Y-84514900D01*
X49291100Y-83129400D02*
X49748700Y-81586400D01*
X12402910Y-140737500D02*
X11796860Y-140305500D01*
X78119300Y-73524600D02*
X78282900Y-75065300D01*
X21045700Y-143377500D02*
X20250200Y-143356500D01*
X14343980Y-141851500D02*
X13677390Y-141510500D01*
X41992000Y-130852300D02*
X41032000Y-131430100D01*
X8487230Y-118907500D02*
X8862590Y-118407800D01*
X118789600Y-116203200D02*
X119224600Y-116653800D01*
X94976800Y-104099400D02*
X96214000Y-105020800D01*
X53485500Y-126136600D02*
X52378000Y-126435700D01*
X95574500Y-136727500D02*
X94768900Y-135989500D01*
X93945300Y-135273500D02*
X93103800Y-134576500D01*
X25974700Y-74106900D02*
X25959800Y-73520300D01*
X100674200Y-78907700D02*
X100390600Y-79350100D01*
X101909400Y-75979100D02*
X101762500Y-76496500D01*
X100390600Y-67158700D02*
X100674200Y-67601000D01*
X40375900Y-84514900D02*
X39960800Y-84620000D01*
X99420300Y-80585000D02*
X99059300Y-80963600D01*
X82674900Y-79862000D02*
X82233100Y-79242200D01*
X7111870Y-134619500D02*
X6802360Y-133935100D01*
X61309900Y-37477470D02*
X62071200Y-37341550D01*
X50335200Y-59949000D02*
X49966800Y-58397900D01*
M02*
