%TF.GenerationSoftware,KiCad,Pcbnew,7.0.8*%
%TF.CreationDate,2024-08-22T12:11:35+02:00*%
%TF.ProjectId,Fidget_Spinner,46696467-6574-45f5-9370-696e6e65722e,rev?*%
%TF.SameCoordinates,Original*%
%TF.FileFunction,Copper,L2,Bot*%
%TF.FilePolarity,Positive*%
%FSLAX46Y46*%
G04 Gerber Fmt 4.6, Leading zero omitted, Abs format (unit mm)*
G04 Created by KiCad (PCBNEW 7.0.8) date 2024-08-22 12:11:35*
%MOMM*%
%LPD*%
G01*
G04 APERTURE LIST*
G04 Aperture macros list*
%AMRoundRect*
0 Rectangle with rounded corners*
0 $1 Rounding radius*
0 $2 $3 $4 $5 $6 $7 $8 $9 X,Y pos of 4 corners*
0 Add a 4 corners polygon primitive as box body*
4,1,4,$2,$3,$4,$5,$6,$7,$8,$9,$2,$3,0*
0 Add four circle primitives for the rounded corners*
1,1,$1+$1,$2,$3*
1,1,$1+$1,$4,$5*
1,1,$1+$1,$6,$7*
1,1,$1+$1,$8,$9*
0 Add four rect primitives between the rounded corners*
20,1,$1+$1,$2,$3,$4,$5,0*
20,1,$1+$1,$4,$5,$6,$7,0*
20,1,$1+$1,$6,$7,$8,$9,0*
20,1,$1+$1,$8,$9,$2,$3,0*%
%AMRotRect*
0 Rectangle, with rotation*
0 The origin of the aperture is its center*
0 $1 length*
0 $2 width*
0 $3 Rotation angle, in degrees counterclockwise*
0 Add horizontal line*
21,1,$1,$2,0,0,$3*%
G04 Aperture macros list end*
%ADD10C,0.150000*%
%TA.AperFunction,NonConductor*%
%ADD11C,0.150000*%
%TD*%
%TA.AperFunction,SMDPad,CuDef*%
%ADD12RotRect,2.696000X5.556000X60.000000*%
%TD*%
%TA.AperFunction,SMDPad,CuDef*%
%ADD13C,17.780000*%
%TD*%
%TA.AperFunction,ComponentPad*%
%ADD14C,2.500000*%
%TD*%
%TA.AperFunction,SMDPad,CuDef*%
%ADD15R,2.696000X5.556000*%
%TD*%
%TA.AperFunction,SMDPad,CuDef*%
%ADD16RotRect,2.696000X5.556000X300.000000*%
%TD*%
%TA.AperFunction,SMDPad,CuDef*%
%ADD17RoundRect,0.250000X0.262500X0.450000X-0.262500X0.450000X-0.262500X-0.450000X0.262500X-0.450000X0*%
%TD*%
%TA.AperFunction,SMDPad,CuDef*%
%ADD18RoundRect,0.150000X0.587500X0.150000X-0.587500X0.150000X-0.587500X-0.150000X0.587500X-0.150000X0*%
%TD*%
%TA.AperFunction,SMDPad,CuDef*%
%ADD19RotRect,1.100000X2.000000X300.000000*%
%TD*%
%TA.AperFunction,ViaPad*%
%ADD20C,0.600000*%
%TD*%
%TA.AperFunction,Conductor*%
%ADD21C,0.250000*%
%TD*%
G04 APERTURE END LIST*
D10*
D11*
X86183220Y-96709819D02*
X86183220Y-95709819D01*
X85611792Y-96709819D02*
X86040363Y-96138390D01*
X85611792Y-95709819D02*
X86183220Y-96281247D01*
X85183220Y-96709819D02*
X85183220Y-95709819D01*
X85183220Y-96186009D02*
X84611792Y-96186009D01*
X84611792Y-96709819D02*
X84611792Y-95709819D01*
X83802268Y-96186009D02*
X84135601Y-96186009D01*
X84135601Y-96709819D02*
X84135601Y-95709819D01*
X84135601Y-95709819D02*
X83659411Y-95709819D01*
X82326077Y-95709819D02*
X82230839Y-95709819D01*
X82230839Y-95709819D02*
X82135601Y-95757438D01*
X82135601Y-95757438D02*
X82087982Y-95805057D01*
X82087982Y-95805057D02*
X82040363Y-95900295D01*
X82040363Y-95900295D02*
X81992744Y-96090771D01*
X81992744Y-96090771D02*
X81992744Y-96328866D01*
X81992744Y-96328866D02*
X82040363Y-96519342D01*
X82040363Y-96519342D02*
X82087982Y-96614580D01*
X82087982Y-96614580D02*
X82135601Y-96662200D01*
X82135601Y-96662200D02*
X82230839Y-96709819D01*
X82230839Y-96709819D02*
X82326077Y-96709819D01*
X82326077Y-96709819D02*
X82421315Y-96662200D01*
X82421315Y-96662200D02*
X82468934Y-96614580D01*
X82468934Y-96614580D02*
X82516553Y-96519342D01*
X82516553Y-96519342D02*
X82564172Y-96328866D01*
X82564172Y-96328866D02*
X82564172Y-96090771D01*
X82564172Y-96090771D02*
X82516553Y-95900295D01*
X82516553Y-95900295D02*
X82468934Y-95805057D01*
X82468934Y-95805057D02*
X82421315Y-95757438D01*
X82421315Y-95757438D02*
X82326077Y-95709819D01*
X81516553Y-96709819D02*
X81326077Y-96709819D01*
X81326077Y-96709819D02*
X81230839Y-96662200D01*
X81230839Y-96662200D02*
X81183220Y-96614580D01*
X81183220Y-96614580D02*
X81087982Y-96471723D01*
X81087982Y-96471723D02*
X81040363Y-96281247D01*
X81040363Y-96281247D02*
X81040363Y-95900295D01*
X81040363Y-95900295D02*
X81087982Y-95805057D01*
X81087982Y-95805057D02*
X81135601Y-95757438D01*
X81135601Y-95757438D02*
X81230839Y-95709819D01*
X81230839Y-95709819D02*
X81421315Y-95709819D01*
X81421315Y-95709819D02*
X81516553Y-95757438D01*
X81516553Y-95757438D02*
X81564172Y-95805057D01*
X81564172Y-95805057D02*
X81611791Y-95900295D01*
X81611791Y-95900295D02*
X81611791Y-96138390D01*
X81611791Y-96138390D02*
X81564172Y-96233628D01*
X81564172Y-96233628D02*
X81516553Y-96281247D01*
X81516553Y-96281247D02*
X81421315Y-96328866D01*
X81421315Y-96328866D02*
X81230839Y-96328866D01*
X81230839Y-96328866D02*
X81135601Y-96281247D01*
X81135601Y-96281247D02*
X81087982Y-96233628D01*
X81087982Y-96233628D02*
X81040363Y-96138390D01*
X80611791Y-96614580D02*
X80564172Y-96662200D01*
X80564172Y-96662200D02*
X80611791Y-96709819D01*
X80611791Y-96709819D02*
X80659410Y-96662200D01*
X80659410Y-96662200D02*
X80611791Y-96614580D01*
X80611791Y-96614580D02*
X80611791Y-96709819D01*
X80183220Y-95805057D02*
X80135601Y-95757438D01*
X80135601Y-95757438D02*
X80040363Y-95709819D01*
X80040363Y-95709819D02*
X79802268Y-95709819D01*
X79802268Y-95709819D02*
X79707030Y-95757438D01*
X79707030Y-95757438D02*
X79659411Y-95805057D01*
X79659411Y-95805057D02*
X79611792Y-95900295D01*
X79611792Y-95900295D02*
X79611792Y-95995533D01*
X79611792Y-95995533D02*
X79659411Y-96138390D01*
X79659411Y-96138390D02*
X80230839Y-96709819D01*
X80230839Y-96709819D02*
X79611792Y-96709819D01*
X78992744Y-95709819D02*
X78897506Y-95709819D01*
X78897506Y-95709819D02*
X78802268Y-95757438D01*
X78802268Y-95757438D02*
X78754649Y-95805057D01*
X78754649Y-95805057D02*
X78707030Y-95900295D01*
X78707030Y-95900295D02*
X78659411Y-96090771D01*
X78659411Y-96090771D02*
X78659411Y-96328866D01*
X78659411Y-96328866D02*
X78707030Y-96519342D01*
X78707030Y-96519342D02*
X78754649Y-96614580D01*
X78754649Y-96614580D02*
X78802268Y-96662200D01*
X78802268Y-96662200D02*
X78897506Y-96709819D01*
X78897506Y-96709819D02*
X78992744Y-96709819D01*
X78992744Y-96709819D02*
X79087982Y-96662200D01*
X79087982Y-96662200D02*
X79135601Y-96614580D01*
X79135601Y-96614580D02*
X79183220Y-96519342D01*
X79183220Y-96519342D02*
X79230839Y-96328866D01*
X79230839Y-96328866D02*
X79230839Y-96090771D01*
X79230839Y-96090771D02*
X79183220Y-95900295D01*
X79183220Y-95900295D02*
X79135601Y-95805057D01*
X79135601Y-95805057D02*
X79087982Y-95757438D01*
X79087982Y-95757438D02*
X78992744Y-95709819D01*
X78278458Y-95805057D02*
X78230839Y-95757438D01*
X78230839Y-95757438D02*
X78135601Y-95709819D01*
X78135601Y-95709819D02*
X77897506Y-95709819D01*
X77897506Y-95709819D02*
X77802268Y-95757438D01*
X77802268Y-95757438D02*
X77754649Y-95805057D01*
X77754649Y-95805057D02*
X77707030Y-95900295D01*
X77707030Y-95900295D02*
X77707030Y-95995533D01*
X77707030Y-95995533D02*
X77754649Y-96138390D01*
X77754649Y-96138390D02*
X78326077Y-96709819D01*
X78326077Y-96709819D02*
X77707030Y-96709819D01*
X76849887Y-96043152D02*
X76849887Y-96709819D01*
X77087982Y-95662200D02*
X77326077Y-96376485D01*
X77326077Y-96376485D02*
X76707030Y-96376485D01*
D12*
%TO.P,U2,1*%
%TO.N,Net-(U1-Pad2)*%
X104330000Y-108770000D03*
X115780000Y-88970000D03*
D13*
%TO.P,U2,2*%
%TO.N,unconnected-(U2-Pad2)*%
X110280000Y-98970000D03*
%TD*%
D14*
%TO.P,S2,1,Silber*%
%TO.N,Net-(S1-E)*%
X93760000Y-96300000D03*
%TO.P,S2,2,Gold*%
%TO.N,Net-(Q1-B)*%
X70210000Y-96250000D03*
%TD*%
D15*
%TO.P,U1,1*%
%TO.N,Net-(S1-A-Pad1)*%
X69800000Y-50150000D03*
X93452000Y-50304000D03*
D13*
%TO.P,U1,2*%
%TO.N,Net-(U1-Pad2)*%
X81650000Y-50050000D03*
%TD*%
D16*
%TO.P,U3,1*%
%TO.N,unconnected-(U3-Pad1)*%
X47790000Y-89520000D03*
X59440000Y-109670000D03*
D13*
%TO.P,U3,2*%
%TO.N,Net-(Q1-E)*%
X53740000Y-99320000D03*
%TD*%
D17*
%TO.P,R3,1*%
%TO.N,Net-(S1-E)*%
X77075000Y-64380000D03*
%TO.P,R3,2*%
%TO.N,Net-(D7-A)*%
X75250000Y-64380000D03*
%TD*%
%TO.P,R4,1*%
%TO.N,Net-(Q1-B)*%
X82622500Y-69040000D03*
%TO.P,R4,2*%
%TO.N,Net-(Q1-E)*%
X80797500Y-69040000D03*
%TD*%
%TO.P,R1,1*%
%TO.N,Net-(S1-E)*%
X88065000Y-64380000D03*
%TO.P,R1,2*%
%TO.N,Net-(D1-A)*%
X86240000Y-64380000D03*
%TD*%
D18*
%TO.P,Q1,1,B*%
%TO.N,Net-(Q1-B)*%
X68380000Y-84400000D03*
%TO.P,Q1,2,E*%
%TO.N,Net-(Q1-E)*%
X68380000Y-86300000D03*
%TO.P,Q1,3,C*%
%TO.N,Net-(D3-K)*%
X66505000Y-85350000D03*
%TD*%
D17*
%TO.P,R2,1*%
%TO.N,Net-(S1-E)*%
X82570000Y-64380000D03*
%TO.P,R2,2*%
%TO.N,Net-(D4-A)*%
X80745000Y-64380000D03*
%TD*%
D19*
%TO.P,S1,1,A*%
%TO.N,Net-(S1-A-Pad1)*%
X92690000Y-73450000D03*
%TO.P,S1,2,E*%
%TO.N,Net-(S1-E)*%
X93790000Y-75350000D03*
%TO.P,S1,3,A*%
X94840000Y-77250000D03*
%TD*%
D20*
%TO.N,Net-(D1-A)*%
X87110000Y-62030000D03*
%TO.N,Net-(D3-K)*%
X61660000Y-85400000D03*
%TO.N,Net-(D4-A)*%
X80790000Y-66080000D03*
%TO.N,Net-(D7-A)*%
X52757841Y-87870000D03*
%TO.N,Net-(Q1-E)*%
X64540000Y-86330000D03*
X64540000Y-84510000D03*
%TO.N,Net-(U1-Pad2)*%
X98300000Y-87610000D03*
X90520000Y-72040000D03*
%TD*%
D21*
%TO.N,Net-(D1-A)*%
X86240000Y-62900000D02*
X86240000Y-64380000D01*
X87110000Y-62030000D02*
X86240000Y-62900000D01*
%TO.N,Net-(D3-K)*%
X66505000Y-85350000D02*
X61710000Y-85350000D01*
X61710000Y-85350000D02*
X61660000Y-85400000D01*
%TO.N,Net-(D4-A)*%
X80790000Y-66080000D02*
X80790000Y-64425000D01*
X80790000Y-64425000D02*
X80745000Y-64380000D01*
%TO.N,Net-(D7-A)*%
X71820000Y-72060000D02*
X69080000Y-74800000D01*
X69080000Y-74800000D02*
X69080000Y-76310000D01*
X75250000Y-65290000D02*
X71820000Y-68720000D01*
X75250000Y-64380000D02*
X75250000Y-65290000D01*
X69080000Y-76310000D02*
X57520000Y-87870000D01*
X71820000Y-68720000D02*
X71820000Y-72060000D01*
X57520000Y-87870000D02*
X52757841Y-87870000D01*
%TO.N,Net-(Q1-B)*%
X82622500Y-69040000D02*
X82622500Y-70437500D01*
X69450000Y-84400000D02*
X70210000Y-85160000D01*
X82622500Y-70437500D02*
X81880000Y-71180000D01*
X70210000Y-85160000D02*
X70210000Y-96250000D01*
X68380000Y-84400000D02*
X69450000Y-84400000D01*
X68380000Y-84400000D02*
X69610000Y-83170000D01*
X69610000Y-83170000D02*
X69610000Y-77310000D01*
X69610000Y-77310000D02*
X75740000Y-71180000D01*
X75740000Y-71180000D02*
X81880000Y-71180000D01*
%TO.N,Net-(Q1-E)*%
X68380000Y-86300000D02*
X64570000Y-86300000D01*
X64540000Y-88520000D02*
X64540000Y-86330000D01*
X80797500Y-69040000D02*
X75780000Y-69040000D01*
X75780000Y-70503604D02*
X64540000Y-81743604D01*
X75780000Y-69040000D02*
X75780000Y-70503604D01*
X53740000Y-99320000D02*
X64540000Y-88520000D01*
X64540000Y-81743604D02*
X64540000Y-84510000D01*
X64570000Y-86300000D02*
X64540000Y-86330000D01*
%TO.N,Net-(S1-E)*%
X82570000Y-65510000D02*
X83850000Y-66790000D01*
X78760000Y-66790000D02*
X83850000Y-66790000D01*
X94840000Y-95220000D02*
X93760000Y-96300000D01*
X87435000Y-66790000D02*
X88065000Y-66160000D01*
X88065000Y-66160000D02*
X88065000Y-71325000D01*
X88065000Y-64380000D02*
X88065000Y-66160000D01*
X77075000Y-65105000D02*
X78760000Y-66790000D01*
X82570000Y-64380000D02*
X82570000Y-65510000D01*
X92690000Y-76450000D02*
X93790000Y-75350000D01*
X94840000Y-76400000D02*
X93790000Y-75350000D01*
X90920000Y-75650000D02*
X91720000Y-76450000D01*
X94840000Y-77250000D02*
X94840000Y-95220000D01*
X94840000Y-77250000D02*
X94840000Y-76400000D01*
X90920000Y-74180000D02*
X90920000Y-75650000D01*
X91720000Y-76450000D02*
X92690000Y-76450000D01*
X88065000Y-71325000D02*
X90920000Y-74180000D01*
X83850000Y-66790000D02*
X87435000Y-66790000D01*
X77075000Y-64380000D02*
X77075000Y-65105000D01*
%TO.N,Net-(S1-A-Pad1)*%
X91350000Y-52406000D02*
X91350000Y-72110000D01*
X91350000Y-72110000D02*
X92690000Y-73450000D01*
X93452000Y-50304000D02*
X91350000Y-52406000D01*
%TO.N,Net-(U1-Pad2)*%
X81650000Y-50050000D02*
X90520000Y-58920000D01*
X99660000Y-88970000D02*
X115780000Y-88970000D01*
X98300000Y-87610000D02*
X99660000Y-88970000D01*
X90520000Y-58920000D02*
X90520000Y-72040000D01*
%TD*%
M02*
