%TF.GenerationSoftware,KiCad,Pcbnew,7.0.8*%
%TF.CreationDate,2024-09-09T11:56:01+02:00*%
%TF.ProjectId,Fidget_Spinner,46696467-6574-45f5-9370-696e6e65722e,rev?*%
%TF.SameCoordinates,Original*%
%TF.FileFunction,Legend,Top*%
%TF.FilePolarity,Positive*%
%FSLAX46Y46*%
G04 Gerber Fmt 4.6, Leading zero omitted, Abs format (unit mm)*
G04 Created by KiCad (PCBNEW 7.0.8) date 2024-09-09 11:56:01*
%MOMM*%
%LPD*%
G01*
G04 APERTURE LIST*
%ADD10C,0.150000*%
%ADD11C,0.250000*%
%ADD12C,0.120000*%
%ADD13C,0.010000*%
%ADD14C,0.050000*%
G04 APERTURE END LIST*
D10*
X93439286Y-99107200D02*
X93582143Y-99154819D01*
X93582143Y-99154819D02*
X93820238Y-99154819D01*
X93820238Y-99154819D02*
X93915476Y-99107200D01*
X93915476Y-99107200D02*
X93963095Y-99059580D01*
X93963095Y-99059580D02*
X94010714Y-98964342D01*
X94010714Y-98964342D02*
X94010714Y-98869104D01*
X94010714Y-98869104D02*
X93963095Y-98773866D01*
X93963095Y-98773866D02*
X93915476Y-98726247D01*
X93915476Y-98726247D02*
X93820238Y-98678628D01*
X93820238Y-98678628D02*
X93629762Y-98631009D01*
X93629762Y-98631009D02*
X93534524Y-98583390D01*
X93534524Y-98583390D02*
X93486905Y-98535771D01*
X93486905Y-98535771D02*
X93439286Y-98440533D01*
X93439286Y-98440533D02*
X93439286Y-98345295D01*
X93439286Y-98345295D02*
X93486905Y-98250057D01*
X93486905Y-98250057D02*
X93534524Y-98202438D01*
X93534524Y-98202438D02*
X93629762Y-98154819D01*
X93629762Y-98154819D02*
X93867857Y-98154819D01*
X93867857Y-98154819D02*
X94010714Y-98202438D01*
D11*
X77882568Y-59119380D02*
X77930187Y-59167000D01*
X77930187Y-59167000D02*
X77882568Y-59214619D01*
X77882568Y-59214619D02*
X77834949Y-59167000D01*
X77834949Y-59167000D02*
X77882568Y-59119380D01*
X77882568Y-59119380D02*
X77882568Y-59214619D01*
X51782568Y-96599380D02*
X51830187Y-96647000D01*
X51830187Y-96647000D02*
X51782568Y-96694619D01*
X51782568Y-96694619D02*
X51734949Y-96647000D01*
X51734949Y-96647000D02*
X51782568Y-96599380D01*
X51782568Y-96599380D02*
X51782568Y-96694619D01*
X77682568Y-41519380D02*
X77730187Y-41567000D01*
X77730187Y-41567000D02*
X77682568Y-41614619D01*
X77682568Y-41614619D02*
X77634949Y-41567000D01*
X77634949Y-41567000D02*
X77682568Y-41519380D01*
X77682568Y-41519380D02*
X77682568Y-41614619D01*
X44502568Y-100569380D02*
X44550187Y-100617000D01*
X44550187Y-100617000D02*
X44502568Y-100664619D01*
X44502568Y-100664619D02*
X44454949Y-100617000D01*
X44454949Y-100617000D02*
X44502568Y-100569380D01*
X44502568Y-100569380D02*
X44502568Y-100664619D01*
X102972568Y-91379380D02*
X103020187Y-91427000D01*
X103020187Y-91427000D02*
X102972568Y-91474619D01*
X102972568Y-91474619D02*
X102924949Y-91427000D01*
X102924949Y-91427000D02*
X102972568Y-91379380D01*
X102972568Y-91379380D02*
X102972568Y-91474619D01*
X59342568Y-92039380D02*
X59390187Y-92087000D01*
X59390187Y-92087000D02*
X59342568Y-92134619D01*
X59342568Y-92134619D02*
X59294949Y-92087000D01*
X59294949Y-92087000D02*
X59342568Y-92039380D01*
X59342568Y-92039380D02*
X59342568Y-92134619D01*
X77602568Y-50419380D02*
X77650187Y-50467000D01*
X77650187Y-50467000D02*
X77602568Y-50514619D01*
X77602568Y-50514619D02*
X77554949Y-50467000D01*
X77554949Y-50467000D02*
X77602568Y-50419380D01*
X77602568Y-50419380D02*
X77602568Y-50514619D01*
X111232568Y-96179380D02*
X111280187Y-96227000D01*
X111280187Y-96227000D02*
X111232568Y-96274619D01*
X111232568Y-96274619D02*
X111184949Y-96227000D01*
X111184949Y-96227000D02*
X111232568Y-96179380D01*
X111232568Y-96179380D02*
X111232568Y-96274619D01*
X119022568Y-100629380D02*
X119070187Y-100677000D01*
X119070187Y-100677000D02*
X119022568Y-100724619D01*
X119022568Y-100724619D02*
X118974949Y-100677000D01*
X118974949Y-100677000D02*
X119022568Y-100629380D01*
X119022568Y-100629380D02*
X119022568Y-100724619D01*
D10*
X70486904Y-98277438D02*
X70391666Y-98229819D01*
X70391666Y-98229819D02*
X70248809Y-98229819D01*
X70248809Y-98229819D02*
X70105952Y-98277438D01*
X70105952Y-98277438D02*
X70010714Y-98372676D01*
X70010714Y-98372676D02*
X69963095Y-98467914D01*
X69963095Y-98467914D02*
X69915476Y-98658390D01*
X69915476Y-98658390D02*
X69915476Y-98801247D01*
X69915476Y-98801247D02*
X69963095Y-98991723D01*
X69963095Y-98991723D02*
X70010714Y-99086961D01*
X70010714Y-99086961D02*
X70105952Y-99182200D01*
X70105952Y-99182200D02*
X70248809Y-99229819D01*
X70248809Y-99229819D02*
X70344047Y-99229819D01*
X70344047Y-99229819D02*
X70486904Y-99182200D01*
X70486904Y-99182200D02*
X70534523Y-99134580D01*
X70534523Y-99134580D02*
X70534523Y-98801247D01*
X70534523Y-98801247D02*
X70344047Y-98801247D01*
X81298095Y-96607200D02*
X81440952Y-96654819D01*
X81440952Y-96654819D02*
X81679047Y-96654819D01*
X81679047Y-96654819D02*
X81774285Y-96607200D01*
X81774285Y-96607200D02*
X81821904Y-96559580D01*
X81821904Y-96559580D02*
X81869523Y-96464342D01*
X81869523Y-96464342D02*
X81869523Y-96369104D01*
X81869523Y-96369104D02*
X81821904Y-96273866D01*
X81821904Y-96273866D02*
X81774285Y-96226247D01*
X81774285Y-96226247D02*
X81679047Y-96178628D01*
X81679047Y-96178628D02*
X81488571Y-96131009D01*
X81488571Y-96131009D02*
X81393333Y-96083390D01*
X81393333Y-96083390D02*
X81345714Y-96035771D01*
X81345714Y-96035771D02*
X81298095Y-95940533D01*
X81298095Y-95940533D02*
X81298095Y-95845295D01*
X81298095Y-95845295D02*
X81345714Y-95750057D01*
X81345714Y-95750057D02*
X81393333Y-95702438D01*
X81393333Y-95702438D02*
X81488571Y-95654819D01*
X81488571Y-95654819D02*
X81726666Y-95654819D01*
X81726666Y-95654819D02*
X81869523Y-95702438D01*
X82250476Y-95750057D02*
X82298095Y-95702438D01*
X82298095Y-95702438D02*
X82393333Y-95654819D01*
X82393333Y-95654819D02*
X82631428Y-95654819D01*
X82631428Y-95654819D02*
X82726666Y-95702438D01*
X82726666Y-95702438D02*
X82774285Y-95750057D01*
X82774285Y-95750057D02*
X82821904Y-95845295D01*
X82821904Y-95845295D02*
X82821904Y-95940533D01*
X82821904Y-95940533D02*
X82774285Y-96083390D01*
X82774285Y-96083390D02*
X82202857Y-96654819D01*
X82202857Y-96654819D02*
X82821904Y-96654819D01*
D12*
%TO.C,S2*%
X75110000Y-96275000D02*
X71510000Y-96250000D01*
X92410000Y-96300000D02*
X88010000Y-96275000D01*
X75110000Y-98250000D02*
X88010000Y-98250000D01*
X88010000Y-98250000D02*
X88010000Y-94300000D01*
X88010000Y-94300000D02*
X75110000Y-94300000D01*
X75110000Y-94300000D02*
X75110000Y-98250000D01*
%TO.C,G\u002A\u002A\u002A*%
D13*
X53808211Y-98398152D02*
X53766923Y-98471769D01*
X53670890Y-98549094D01*
X53492850Y-98668131D01*
X53227898Y-98828324D01*
X52982239Y-98967795D01*
X52707629Y-99109819D01*
X52544292Y-99167294D01*
X52461964Y-99148629D01*
X52443242Y-99117526D01*
X52486845Y-99016729D01*
X52645124Y-98872562D01*
X52877564Y-98709399D01*
X53143648Y-98551612D01*
X53402860Y-98423574D01*
X53614683Y-98349659D01*
X53724777Y-98346599D01*
X53808211Y-98398152D01*
G36*
X53808211Y-98398152D02*
G01*
X53766923Y-98471769D01*
X53670890Y-98549094D01*
X53492850Y-98668131D01*
X53227898Y-98828324D01*
X52982239Y-98967795D01*
X52707629Y-99109819D01*
X52544292Y-99167294D01*
X52461964Y-99148629D01*
X52443242Y-99117526D01*
X52486845Y-99016729D01*
X52645124Y-98872562D01*
X52877564Y-98709399D01*
X53143648Y-98551612D01*
X53402860Y-98423574D01*
X53614683Y-98349659D01*
X53724777Y-98346599D01*
X53808211Y-98398152D01*
G37*
X117450918Y-102495754D02*
X117659537Y-102602148D01*
X117916283Y-102748545D01*
X118179447Y-102909640D01*
X118407324Y-103060131D01*
X118558205Y-103174713D01*
X118595766Y-103221319D01*
X118562211Y-103307849D01*
X118449072Y-103312388D01*
X118237639Y-103229949D01*
X117909204Y-103055551D01*
X117852531Y-103023347D01*
X117535004Y-102824316D01*
X117323270Y-102655107D01*
X117230186Y-102529771D01*
X117268613Y-102462359D01*
X117332131Y-102454666D01*
X117450918Y-102495754D01*
G36*
X117450918Y-102495754D02*
G01*
X117659537Y-102602148D01*
X117916283Y-102748545D01*
X118179447Y-102909640D01*
X118407324Y-103060131D01*
X118558205Y-103174713D01*
X118595766Y-103221319D01*
X118562211Y-103307849D01*
X118449072Y-103312388D01*
X118237639Y-103229949D01*
X117909204Y-103055551D01*
X117852531Y-103023347D01*
X117535004Y-102824316D01*
X117323270Y-102655107D01*
X117230186Y-102529771D01*
X117268613Y-102462359D01*
X117332131Y-102454666D01*
X117450918Y-102495754D01*
G37*
X61390082Y-93813782D02*
X61436510Y-93862093D01*
X61444255Y-93905112D01*
X61389915Y-93963869D01*
X61250085Y-94059393D01*
X61001363Y-94212715D01*
X60830442Y-94316655D01*
X60494907Y-94514630D01*
X60276385Y-94624417D01*
X60151919Y-94653127D01*
X60098551Y-94607869D01*
X60091100Y-94545652D01*
X60159719Y-94442551D01*
X60337575Y-94299871D01*
X60582663Y-94141280D01*
X60852981Y-93990441D01*
X61106525Y-93871022D01*
X61301291Y-93806686D01*
X61390082Y-93813782D01*
G36*
X61390082Y-93813782D02*
G01*
X61436510Y-93862093D01*
X61444255Y-93905112D01*
X61389915Y-93963869D01*
X61250085Y-94059393D01*
X61001363Y-94212715D01*
X60830442Y-94316655D01*
X60494907Y-94514630D01*
X60276385Y-94624417D01*
X60151919Y-94653127D01*
X60098551Y-94607869D01*
X60091100Y-94545652D01*
X60159719Y-94442551D01*
X60337575Y-94299871D01*
X60582663Y-94141280D01*
X60852981Y-93990441D01*
X61106525Y-93871022D01*
X61301291Y-93806686D01*
X61390082Y-93813782D01*
G37*
X100978247Y-95477942D02*
X101195405Y-95566078D01*
X101455132Y-95703020D01*
X101716888Y-95864095D01*
X101940131Y-96024630D01*
X102084320Y-96159953D01*
X102114565Y-96236405D01*
X102079898Y-96310215D01*
X102027505Y-96339280D01*
X101927663Y-96314244D01*
X101750650Y-96225749D01*
X101466745Y-96064439D01*
X101345884Y-95994416D01*
X101014235Y-95794911D01*
X100819234Y-95655575D01*
X100746111Y-95560773D01*
X100780096Y-95494868D01*
X100844201Y-95463284D01*
X100978247Y-95477942D01*
G36*
X100978247Y-95477942D02*
G01*
X101195405Y-95566078D01*
X101455132Y-95703020D01*
X101716888Y-95864095D01*
X101940131Y-96024630D01*
X102084320Y-96159953D01*
X102114565Y-96236405D01*
X102079898Y-96310215D01*
X102027505Y-96339280D01*
X101927663Y-96314244D01*
X101750650Y-96225749D01*
X101466745Y-96064439D01*
X101345884Y-95994416D01*
X101014235Y-95794911D01*
X100819234Y-95655575D01*
X100746111Y-95560773D01*
X100780096Y-95494868D01*
X100844201Y-95463284D01*
X100978247Y-95477942D01*
G37*
X102011127Y-93605912D02*
X102218404Y-93712995D01*
X102472644Y-93860938D01*
X102733863Y-94024762D01*
X102962077Y-94179489D01*
X103117302Y-94300138D01*
X103161673Y-94358612D01*
X103107356Y-94436219D01*
X103000627Y-94442925D01*
X102815256Y-94371258D01*
X102525012Y-94213745D01*
X102403266Y-94142551D01*
X102133017Y-93968483D01*
X101931734Y-93811465D01*
X101835333Y-93700266D01*
X101831766Y-93684749D01*
X101865411Y-93576409D01*
X101890796Y-93564666D01*
X102011127Y-93605912D01*
G36*
X102011127Y-93605912D02*
G01*
X102218404Y-93712995D01*
X102472644Y-93860938D01*
X102733863Y-94024762D01*
X102962077Y-94179489D01*
X103117302Y-94300138D01*
X103161673Y-94358612D01*
X103107356Y-94436219D01*
X103000627Y-94442925D01*
X102815256Y-94371258D01*
X102525012Y-94213745D01*
X102403266Y-94142551D01*
X102133017Y-93968483D01*
X101931734Y-93811465D01*
X101835333Y-93700266D01*
X101831766Y-93684749D01*
X101865411Y-93576409D01*
X101890796Y-93564666D01*
X102011127Y-93605912D01*
G37*
X108627488Y-99887766D02*
X108832385Y-99973026D01*
X109088380Y-100107656D01*
X109354968Y-100267343D01*
X109591641Y-100427776D01*
X109757893Y-100564645D01*
X109813215Y-100653637D01*
X109812674Y-100655500D01*
X109760972Y-100731096D01*
X109661409Y-100739778D01*
X109487698Y-100673462D01*
X109213552Y-100524067D01*
X109028433Y-100414385D01*
X108706655Y-100212576D01*
X108519796Y-100070234D01*
X108451663Y-99970410D01*
X108486064Y-99896158D01*
X108514199Y-99876186D01*
X108627488Y-99887766D01*
G36*
X108627488Y-99887766D02*
G01*
X108832385Y-99973026D01*
X109088380Y-100107656D01*
X109354968Y-100267343D01*
X109591641Y-100427776D01*
X109757893Y-100564645D01*
X109813215Y-100653637D01*
X109812674Y-100655500D01*
X109760972Y-100731096D01*
X109661409Y-100739778D01*
X109487698Y-100673462D01*
X109213552Y-100524067D01*
X109028433Y-100414385D01*
X108706655Y-100212576D01*
X108519796Y-100070234D01*
X108451663Y-99970410D01*
X108486064Y-99896158D01*
X108514199Y-99876186D01*
X108627488Y-99887766D01*
G37*
X109664369Y-98059740D02*
X109854321Y-98132441D01*
X110103821Y-98254545D01*
X110372408Y-98403471D01*
X110619624Y-98556638D01*
X110805007Y-98691466D01*
X110888097Y-98785373D01*
X110889273Y-98792833D01*
X110855728Y-98877979D01*
X110738864Y-98879882D01*
X110520820Y-98793810D01*
X110183732Y-98615029D01*
X110153284Y-98597825D01*
X109830777Y-98407195D01*
X109639444Y-98270067D01*
X109557877Y-98166514D01*
X109564667Y-98076607D01*
X109574426Y-98059022D01*
X109664369Y-98059740D01*
G36*
X109664369Y-98059740D02*
G01*
X109854321Y-98132441D01*
X110103821Y-98254545D01*
X110372408Y-98403471D01*
X110619624Y-98556638D01*
X110805007Y-98691466D01*
X110888097Y-98785373D01*
X110889273Y-98792833D01*
X110855728Y-98877979D01*
X110738864Y-98879882D01*
X110520820Y-98793810D01*
X110183732Y-98615029D01*
X110153284Y-98597825D01*
X109830777Y-98407195D01*
X109639444Y-98270067D01*
X109557877Y-98166514D01*
X109564667Y-98076607D01*
X109574426Y-98059022D01*
X109664369Y-98059740D01*
G37*
X116505696Y-104388265D02*
X116755659Y-104509841D01*
X117021971Y-104664968D01*
X117265438Y-104830292D01*
X117446864Y-104982459D01*
X117527055Y-105098115D01*
X117525556Y-105122085D01*
X117476831Y-105231864D01*
X117464874Y-105246913D01*
X117391008Y-105207797D01*
X117206032Y-105105660D01*
X116946346Y-104960638D01*
X116878834Y-104922748D01*
X116536091Y-104726117D01*
X116320950Y-104588303D01*
X116210954Y-104489663D01*
X116183643Y-104410556D01*
X116211598Y-104339179D01*
X116311278Y-104323593D01*
X116505696Y-104388265D01*
G36*
X116505696Y-104388265D02*
G01*
X116755659Y-104509841D01*
X117021971Y-104664968D01*
X117265438Y-104830292D01*
X117446864Y-104982459D01*
X117527055Y-105098115D01*
X117525556Y-105122085D01*
X117476831Y-105231864D01*
X117464874Y-105246913D01*
X117391008Y-105207797D01*
X117206032Y-105105660D01*
X116946346Y-104960638D01*
X116878834Y-104922748D01*
X116536091Y-104726117D01*
X116320950Y-104588303D01*
X116210954Y-104489663D01*
X116183643Y-104410556D01*
X116211598Y-104339179D01*
X116311278Y-104323593D01*
X116505696Y-104388265D01*
G37*
X46081527Y-102867552D02*
X46120987Y-102956053D01*
X46121100Y-102963928D01*
X46054327Y-103031455D01*
X45881865Y-103156070D01*
X45645495Y-103311639D01*
X45387001Y-103472029D01*
X45148163Y-103611107D01*
X44970764Y-103702739D01*
X44904824Y-103724666D01*
X44826532Y-103664632D01*
X44805285Y-103634367D01*
X44774897Y-103587871D01*
X44771731Y-103549736D01*
X44821027Y-103499246D01*
X44948019Y-103415684D01*
X45177947Y-103278334D01*
X45395686Y-103149729D01*
X45736360Y-102959912D01*
X45959146Y-102867345D01*
X46081527Y-102867552D01*
G36*
X46081527Y-102867552D02*
G01*
X46120987Y-102956053D01*
X46121100Y-102963928D01*
X46054327Y-103031455D01*
X45881865Y-103156070D01*
X45645495Y-103311639D01*
X45387001Y-103472029D01*
X45148163Y-103611107D01*
X44970764Y-103702739D01*
X44904824Y-103724666D01*
X44826532Y-103664632D01*
X44805285Y-103634367D01*
X44774897Y-103587871D01*
X44771731Y-103549736D01*
X44821027Y-103499246D01*
X44948019Y-103415684D01*
X45177947Y-103278334D01*
X45395686Y-103149729D01*
X45736360Y-102959912D01*
X45959146Y-102867345D01*
X46081527Y-102867552D01*
G37*
X47166027Y-104711487D02*
X47213030Y-104830554D01*
X47208360Y-104859877D01*
X47126896Y-104910106D01*
X46943002Y-105019938D01*
X46700458Y-105163559D01*
X46443046Y-105315151D01*
X46214546Y-105448900D01*
X46058738Y-105538991D01*
X46021116Y-105559943D01*
X45931993Y-105529874D01*
X45905727Y-105496670D01*
X45883004Y-105420838D01*
X45926459Y-105336976D01*
X46058095Y-105225214D01*
X46299913Y-105065682D01*
X46556570Y-104908900D01*
X46840609Y-104745064D01*
X47016666Y-104666404D01*
X47116598Y-104662602D01*
X47166027Y-104711487D01*
G36*
X47166027Y-104711487D02*
G01*
X47213030Y-104830554D01*
X47208360Y-104859877D01*
X47126896Y-104910106D01*
X46943002Y-105019938D01*
X46700458Y-105163559D01*
X46443046Y-105315151D01*
X46214546Y-105448900D01*
X46058738Y-105538991D01*
X46021116Y-105559943D01*
X45931993Y-105529874D01*
X45905727Y-105496670D01*
X45883004Y-105420838D01*
X45926459Y-105336976D01*
X46058095Y-105225214D01*
X46299913Y-105065682D01*
X46556570Y-104908900D01*
X46840609Y-104745064D01*
X47016666Y-104666404D01*
X47116598Y-104662602D01*
X47166027Y-104711487D01*
G37*
X54835144Y-100148972D02*
X54823883Y-100261623D01*
X54816836Y-100280845D01*
X54731049Y-100365163D01*
X54541401Y-100501712D01*
X54293181Y-100662546D01*
X54031676Y-100819722D01*
X53802174Y-100945293D01*
X53649966Y-101011315D01*
X53626506Y-101015333D01*
X53547492Y-100955025D01*
X53523583Y-100921200D01*
X53500680Y-100868870D01*
X53519660Y-100815726D01*
X53604387Y-100743323D01*
X53778723Y-100633213D01*
X54066531Y-100466952D01*
X54234325Y-100371785D01*
X54554080Y-100201912D01*
X54749782Y-100128354D01*
X54835144Y-100148972D01*
G36*
X54835144Y-100148972D02*
G01*
X54823883Y-100261623D01*
X54816836Y-100280845D01*
X54731049Y-100365163D01*
X54541401Y-100501712D01*
X54293181Y-100662546D01*
X54031676Y-100819722D01*
X53802174Y-100945293D01*
X53649966Y-101011315D01*
X53626506Y-101015333D01*
X53547492Y-100955025D01*
X53523583Y-100921200D01*
X53500680Y-100868870D01*
X53519660Y-100815726D01*
X53604387Y-100743323D01*
X53778723Y-100633213D01*
X54066531Y-100466952D01*
X54234325Y-100371785D01*
X54554080Y-100201912D01*
X54749782Y-100128354D01*
X54835144Y-100148972D01*
G37*
X62461397Y-95580977D02*
X62492761Y-95639981D01*
X62456208Y-95776390D01*
X62255663Y-95943557D01*
X62226466Y-95961995D01*
X61847434Y-96195906D01*
X61586700Y-96352078D01*
X61418522Y-96441804D01*
X61317159Y-96476374D01*
X61256870Y-96467081D01*
X61211914Y-96425217D01*
X61200827Y-96411917D01*
X61179203Y-96337771D01*
X61246621Y-96244963D01*
X61424072Y-96114131D01*
X61719353Y-95933656D01*
X62007082Y-95764912D01*
X62237203Y-95630475D01*
X62371977Y-95552373D01*
X62389394Y-95542555D01*
X62461397Y-95580977D01*
G36*
X62461397Y-95580977D02*
G01*
X62492761Y-95639981D01*
X62456208Y-95776390D01*
X62255663Y-95943557D01*
X62226466Y-95961995D01*
X61847434Y-96195906D01*
X61586700Y-96352078D01*
X61418522Y-96441804D01*
X61317159Y-96476374D01*
X61256870Y-96467081D01*
X61211914Y-96425217D01*
X61200827Y-96411917D01*
X61179203Y-96337771D01*
X61246621Y-96244963D01*
X61424072Y-96114131D01*
X61719353Y-95933656D01*
X62007082Y-95764912D01*
X62237203Y-95630475D01*
X62371977Y-95552373D01*
X62389394Y-95542555D01*
X62461397Y-95580977D01*
G37*
X80346058Y-40508361D02*
X80384651Y-40616739D01*
X80404701Y-40832736D01*
X80411033Y-41185292D01*
X80411100Y-41240666D01*
X80406150Y-41612416D01*
X80388087Y-41843974D01*
X80352088Y-41964277D01*
X80293329Y-42002264D01*
X80284100Y-42002666D01*
X80222141Y-41972971D01*
X80183548Y-41864594D01*
X80163498Y-41648596D01*
X80157166Y-41296041D01*
X80157100Y-41240666D01*
X80162049Y-40868916D01*
X80180112Y-40637359D01*
X80216111Y-40517055D01*
X80274870Y-40479068D01*
X80284100Y-40478666D01*
X80346058Y-40508361D01*
G36*
X80346058Y-40508361D02*
G01*
X80384651Y-40616739D01*
X80404701Y-40832736D01*
X80411033Y-41185292D01*
X80411100Y-41240666D01*
X80406150Y-41612416D01*
X80388087Y-41843974D01*
X80352088Y-41964277D01*
X80293329Y-42002264D01*
X80284100Y-42002666D01*
X80222141Y-41972971D01*
X80183548Y-41864594D01*
X80163498Y-41648596D01*
X80157166Y-41296041D01*
X80157100Y-41240666D01*
X80162049Y-40868916D01*
X80180112Y-40637359D01*
X80216111Y-40517055D01*
X80274870Y-40479068D01*
X80284100Y-40478666D01*
X80346058Y-40508361D01*
G37*
X80430724Y-49398361D02*
X80469317Y-49506739D01*
X80489368Y-49722736D01*
X80495699Y-50075292D01*
X80495766Y-50130666D01*
X80490817Y-50502416D01*
X80472754Y-50733974D01*
X80436755Y-50854277D01*
X80377995Y-50892264D01*
X80368766Y-50892666D01*
X80306808Y-50862971D01*
X80268215Y-50754594D01*
X80248164Y-50538596D01*
X80241833Y-50186041D01*
X80241766Y-50130666D01*
X80246715Y-49758916D01*
X80264778Y-49527359D01*
X80300778Y-49407055D01*
X80359537Y-49369068D01*
X80368766Y-49368666D01*
X80430724Y-49398361D01*
G36*
X80430724Y-49398361D02*
G01*
X80469317Y-49506739D01*
X80489368Y-49722736D01*
X80495699Y-50075292D01*
X80495766Y-50130666D01*
X80490817Y-50502416D01*
X80472754Y-50733974D01*
X80436755Y-50854277D01*
X80377995Y-50892264D01*
X80368766Y-50892666D01*
X80306808Y-50862971D01*
X80268215Y-50754594D01*
X80248164Y-50538596D01*
X80241833Y-50186041D01*
X80241766Y-50130666D01*
X80246715Y-49758916D01*
X80264778Y-49527359D01*
X80300778Y-49407055D01*
X80359537Y-49369068D01*
X80368766Y-49368666D01*
X80430724Y-49398361D01*
G37*
X80515391Y-58288361D02*
X80553984Y-58396739D01*
X80574035Y-58612736D01*
X80580366Y-58965292D01*
X80580433Y-59020666D01*
X80575484Y-59392416D01*
X80557421Y-59623974D01*
X80521421Y-59744277D01*
X80462662Y-59782264D01*
X80453433Y-59782666D01*
X80391475Y-59752971D01*
X80352882Y-59644594D01*
X80332831Y-59428596D01*
X80326500Y-59076041D01*
X80326433Y-59020666D01*
X80331382Y-58648916D01*
X80349445Y-58417359D01*
X80385444Y-58297055D01*
X80444204Y-58259068D01*
X80453433Y-58258666D01*
X80515391Y-58288361D01*
G36*
X80515391Y-58288361D02*
G01*
X80553984Y-58396739D01*
X80574035Y-58612736D01*
X80580366Y-58965292D01*
X80580433Y-59020666D01*
X80575484Y-59392416D01*
X80557421Y-59623974D01*
X80521421Y-59744277D01*
X80462662Y-59782264D01*
X80453433Y-59782666D01*
X80391475Y-59752971D01*
X80352882Y-59644594D01*
X80332831Y-59428596D01*
X80326500Y-59076041D01*
X80326433Y-59020666D01*
X80331382Y-58648916D01*
X80349445Y-58417359D01*
X80385444Y-58297055D01*
X80444204Y-58259068D01*
X80453433Y-58258666D01*
X80515391Y-58288361D01*
G37*
X82462724Y-40508361D02*
X82501317Y-40616739D01*
X82521368Y-40832736D01*
X82527699Y-41185292D01*
X82527766Y-41240666D01*
X82522817Y-41612416D01*
X82504754Y-41843974D01*
X82468755Y-41964277D01*
X82409995Y-42002264D01*
X82400766Y-42002666D01*
X82338808Y-41972971D01*
X82300215Y-41864594D01*
X82280164Y-41648596D01*
X82273833Y-41296041D01*
X82273766Y-41240666D01*
X82278715Y-40868916D01*
X82296778Y-40637359D01*
X82332778Y-40517055D01*
X82391537Y-40479068D01*
X82400766Y-40478666D01*
X82462724Y-40508361D01*
G36*
X82462724Y-40508361D02*
G01*
X82501317Y-40616739D01*
X82521368Y-40832736D01*
X82527699Y-41185292D01*
X82527766Y-41240666D01*
X82522817Y-41612416D01*
X82504754Y-41843974D01*
X82468755Y-41964277D01*
X82409995Y-42002264D01*
X82400766Y-42002666D01*
X82338808Y-41972971D01*
X82300215Y-41864594D01*
X82280164Y-41648596D01*
X82273833Y-41296041D01*
X82273766Y-41240666D01*
X82278715Y-40868916D01*
X82296778Y-40637359D01*
X82332778Y-40517055D01*
X82391537Y-40479068D01*
X82400766Y-40478666D01*
X82462724Y-40508361D01*
G37*
X82544004Y-49394197D02*
X82583440Y-49477042D01*
X82604392Y-49661030D01*
X82611984Y-49975031D01*
X82612433Y-50124458D01*
X82607547Y-50497937D01*
X82589709Y-50731136D01*
X82554147Y-50852912D01*
X82496093Y-50892122D01*
X82485433Y-50892666D01*
X82420270Y-50860763D01*
X82381164Y-50745011D01*
X82362476Y-50515341D01*
X82358433Y-50215333D01*
X82357907Y-49890308D01*
X82356513Y-49632740D01*
X82354524Y-49487869D01*
X82353961Y-49474500D01*
X82418769Y-49404435D01*
X82480961Y-49383625D01*
X82544004Y-49394197D01*
G36*
X82544004Y-49394197D02*
G01*
X82583440Y-49477042D01*
X82604392Y-49661030D01*
X82611984Y-49975031D01*
X82612433Y-50124458D01*
X82607547Y-50497937D01*
X82589709Y-50731136D01*
X82554147Y-50852912D01*
X82496093Y-50892122D01*
X82485433Y-50892666D01*
X82420270Y-50860763D01*
X82381164Y-50745011D01*
X82362476Y-50515341D01*
X82358433Y-50215333D01*
X82357907Y-49890308D01*
X82356513Y-49632740D01*
X82354524Y-49487869D01*
X82353961Y-49474500D01*
X82418769Y-49404435D01*
X82480961Y-49383625D01*
X82544004Y-49394197D01*
G37*
X82601863Y-58269022D02*
X82655213Y-58321705D01*
X82683730Y-58449138D01*
X82695121Y-58683742D01*
X82697100Y-59020666D01*
X82692150Y-59392416D01*
X82674087Y-59623974D01*
X82638088Y-59744277D01*
X82579329Y-59782264D01*
X82570100Y-59782666D01*
X82478891Y-59722505D01*
X82443551Y-59526776D01*
X82442364Y-59465166D01*
X82431219Y-59185920D01*
X82403903Y-58847297D01*
X82388237Y-58703166D01*
X82362723Y-58444958D01*
X82374620Y-58312585D01*
X82435874Y-58264472D01*
X82515973Y-58258666D01*
X82601863Y-58269022D01*
G36*
X82601863Y-58269022D02*
G01*
X82655213Y-58321705D01*
X82683730Y-58449138D01*
X82695121Y-58683742D01*
X82697100Y-59020666D01*
X82692150Y-59392416D01*
X82674087Y-59623974D01*
X82638088Y-59744277D01*
X82579329Y-59782264D01*
X82570100Y-59782666D01*
X82478891Y-59722505D01*
X82443551Y-59526776D01*
X82442364Y-59465166D01*
X82431219Y-59185920D01*
X82403903Y-58847297D01*
X82388237Y-58703166D01*
X82362723Y-58444958D01*
X82374620Y-58312585D01*
X82435874Y-58264472D01*
X82515973Y-58258666D01*
X82601863Y-58269022D01*
G37*
X83713100Y-51400666D02*
X83035766Y-51400666D01*
X82698290Y-51397131D01*
X82496032Y-51380848D01*
X82394931Y-51343303D01*
X82360925Y-51275979D01*
X82358433Y-51231333D01*
X82408042Y-51098548D01*
X82570100Y-51062000D01*
X82781766Y-51062000D01*
X82781766Y-49210580D01*
X82549657Y-49183790D01*
X82356630Y-49111510D01*
X82289449Y-49008833D01*
X82293117Y-48936846D01*
X82358147Y-48892653D01*
X82515468Y-48869686D01*
X82796010Y-48861377D01*
X82987225Y-48860666D01*
X83713100Y-48860666D01*
X83713100Y-51400666D01*
G36*
X83713100Y-51400666D02*
G01*
X83035766Y-51400666D01*
X82698290Y-51397131D01*
X82496032Y-51380848D01*
X82394931Y-51343303D01*
X82360925Y-51275979D01*
X82358433Y-51231333D01*
X82408042Y-51098548D01*
X82570100Y-51062000D01*
X82781766Y-51062000D01*
X82781766Y-49210580D01*
X82549657Y-49183790D01*
X82356630Y-49111510D01*
X82289449Y-49008833D01*
X82293117Y-48936846D01*
X82358147Y-48892653D01*
X82515468Y-48869686D01*
X82796010Y-48861377D01*
X82987225Y-48860666D01*
X83713100Y-48860666D01*
X83713100Y-51400666D01*
G37*
X83797766Y-60290666D02*
X83120433Y-60290666D01*
X82782956Y-60287131D01*
X82580698Y-60270848D01*
X82479597Y-60233303D01*
X82445592Y-60165979D01*
X82443100Y-60121333D01*
X82492708Y-59988548D01*
X82654766Y-59952000D01*
X82866433Y-59952000D01*
X82866433Y-58089333D01*
X82612433Y-58089333D01*
X82426513Y-58062722D01*
X82361053Y-57963711D01*
X82358433Y-57920000D01*
X82371825Y-57837665D01*
X82434076Y-57787373D01*
X82578296Y-57761333D01*
X82837595Y-57751755D01*
X83078100Y-57750666D01*
X83797766Y-57750666D01*
X83797766Y-60290666D01*
G36*
X83797766Y-60290666D02*
G01*
X83120433Y-60290666D01*
X82782956Y-60287131D01*
X82580698Y-60270848D01*
X82479597Y-60233303D01*
X82445592Y-60165979D01*
X82443100Y-60121333D01*
X82492708Y-59988548D01*
X82654766Y-59952000D01*
X82866433Y-59952000D01*
X82866433Y-58089333D01*
X82612433Y-58089333D01*
X82426513Y-58062722D01*
X82361053Y-57963711D01*
X82358433Y-57920000D01*
X82371825Y-57837665D01*
X82434076Y-57787373D01*
X82578296Y-57761333D01*
X82837595Y-57751755D01*
X83078100Y-57750666D01*
X83797766Y-57750666D01*
X83797766Y-60290666D01*
G37*
X80033479Y-39973728D02*
X80250181Y-39987991D01*
X80363333Y-40021073D01*
X80405811Y-40080592D01*
X80411100Y-40140000D01*
X80361491Y-40272784D01*
X80199433Y-40309333D01*
X79987766Y-40309333D01*
X79987766Y-42172000D01*
X80199433Y-42172000D01*
X80365414Y-42211686D01*
X80411100Y-42341333D01*
X80396959Y-42425702D01*
X80331828Y-42476266D01*
X80181646Y-42501542D01*
X79912350Y-42510043D01*
X79733766Y-42510666D01*
X79056433Y-42510666D01*
X79055501Y-41558166D01*
X79050428Y-41137351D01*
X79037446Y-40746785D01*
X79018681Y-40437038D01*
X79002090Y-40288166D01*
X78949610Y-39970666D01*
X79680355Y-39970666D01*
X80033479Y-39973728D01*
G36*
X80033479Y-39973728D02*
G01*
X80250181Y-39987991D01*
X80363333Y-40021073D01*
X80405811Y-40080592D01*
X80411100Y-40140000D01*
X80361491Y-40272784D01*
X80199433Y-40309333D01*
X79987766Y-40309333D01*
X79987766Y-42172000D01*
X80199433Y-42172000D01*
X80365414Y-42211686D01*
X80411100Y-42341333D01*
X80396959Y-42425702D01*
X80331828Y-42476266D01*
X80181646Y-42501542D01*
X79912350Y-42510043D01*
X79733766Y-42510666D01*
X79056433Y-42510666D01*
X79055501Y-41558166D01*
X79050428Y-41137351D01*
X79037446Y-40746785D01*
X79018681Y-40437038D01*
X79002090Y-40288166D01*
X78949610Y-39970666D01*
X79680355Y-39970666D01*
X80033479Y-39973728D01*
G37*
X83628433Y-42510666D02*
X82951100Y-42510666D01*
X82613623Y-42507131D01*
X82411365Y-42490848D01*
X82310264Y-42453303D01*
X82276259Y-42385979D01*
X82273766Y-42341333D01*
X82323375Y-42208548D01*
X82485433Y-42172000D01*
X82697100Y-42172000D01*
X82697100Y-41240666D01*
X82695922Y-40834039D01*
X82688113Y-40567269D01*
X82667261Y-40410882D01*
X82626954Y-40335401D01*
X82560779Y-40311351D01*
X82494491Y-40309333D01*
X82326186Y-40260974D01*
X82227325Y-40150868D01*
X82242176Y-40031468D01*
X82251378Y-40021277D01*
X82354478Y-39997368D01*
X82582172Y-39979549D01*
X82889747Y-39970991D01*
X82965211Y-39970666D01*
X83628433Y-39970666D01*
X83628433Y-42510666D01*
G36*
X83628433Y-42510666D02*
G01*
X82951100Y-42510666D01*
X82613623Y-42507131D01*
X82411365Y-42490848D01*
X82310264Y-42453303D01*
X82276259Y-42385979D01*
X82273766Y-42341333D01*
X82323375Y-42208548D01*
X82485433Y-42172000D01*
X82697100Y-42172000D01*
X82697100Y-41240666D01*
X82695922Y-40834039D01*
X82688113Y-40567269D01*
X82667261Y-40410882D01*
X82626954Y-40335401D01*
X82560779Y-40311351D01*
X82494491Y-40309333D01*
X82326186Y-40260974D01*
X82227325Y-40150868D01*
X82242176Y-40031468D01*
X82251378Y-40021277D01*
X82354478Y-39997368D01*
X82582172Y-39979549D01*
X82889747Y-39970991D01*
X82965211Y-39970666D01*
X83628433Y-39970666D01*
X83628433Y-42510666D01*
G37*
X80117187Y-48863717D02*
X80334247Y-48877935D01*
X80447701Y-48910916D01*
X80490394Y-48970258D01*
X80495766Y-49030000D01*
X80451467Y-49158117D01*
X80291856Y-49198776D01*
X80262933Y-49199160D01*
X80030100Y-49198988D01*
X80056548Y-50130494D01*
X80069344Y-50537117D01*
X80085020Y-50803921D01*
X80110941Y-50960363D01*
X80154468Y-51035898D01*
X80222964Y-51059981D01*
X80289381Y-51062000D01*
X80452671Y-51103856D01*
X80495766Y-51231333D01*
X80481625Y-51315702D01*
X80416494Y-51366266D01*
X80266312Y-51391542D01*
X79997017Y-51400043D01*
X79818433Y-51400666D01*
X79141100Y-51400666D01*
X79141100Y-50778440D01*
X79132873Y-50354119D01*
X79111475Y-49875625D01*
X79086343Y-49508440D01*
X79031586Y-48860666D01*
X79763676Y-48860666D01*
X80117187Y-48863717D01*
G36*
X80117187Y-48863717D02*
G01*
X80334247Y-48877935D01*
X80447701Y-48910916D01*
X80490394Y-48970258D01*
X80495766Y-49030000D01*
X80451467Y-49158117D01*
X80291856Y-49198776D01*
X80262933Y-49199160D01*
X80030100Y-49198988D01*
X80056548Y-50130494D01*
X80069344Y-50537117D01*
X80085020Y-50803921D01*
X80110941Y-50960363D01*
X80154468Y-51035898D01*
X80222964Y-51059981D01*
X80289381Y-51062000D01*
X80452671Y-51103856D01*
X80495766Y-51231333D01*
X80481625Y-51315702D01*
X80416494Y-51366266D01*
X80266312Y-51391542D01*
X79997017Y-51400043D01*
X79818433Y-51400666D01*
X79141100Y-51400666D01*
X79141100Y-50778440D01*
X79132873Y-50354119D01*
X79111475Y-49875625D01*
X79086343Y-49508440D01*
X79031586Y-48860666D01*
X79763676Y-48860666D01*
X80117187Y-48863717D01*
G37*
X80210689Y-57753817D02*
X80424430Y-57768465D01*
X80535099Y-57802399D01*
X80575805Y-57863410D01*
X80580433Y-57920000D01*
X80542662Y-58041774D01*
X80399964Y-58086615D01*
X80314640Y-58089333D01*
X80048846Y-58089333D01*
X80102237Y-58533833D01*
X80133988Y-58892086D01*
X80153504Y-59292609D01*
X80156364Y-59465166D01*
X80161748Y-59739368D01*
X80188640Y-59884854D01*
X80254742Y-59942201D01*
X80368766Y-59952000D01*
X80534747Y-59991686D01*
X80580433Y-60121333D01*
X80566044Y-60206354D01*
X80499967Y-60256994D01*
X80347835Y-60282012D01*
X80075283Y-60290164D01*
X79915966Y-60290666D01*
X79251499Y-60290666D01*
X79196299Y-59388495D01*
X79172816Y-58969524D01*
X79154300Y-58572268D01*
X79143194Y-58252904D01*
X79141100Y-58118495D01*
X79141100Y-57750666D01*
X79860766Y-57750666D01*
X80210689Y-57753817D01*
G36*
X80210689Y-57753817D02*
G01*
X80424430Y-57768465D01*
X80535099Y-57802399D01*
X80575805Y-57863410D01*
X80580433Y-57920000D01*
X80542662Y-58041774D01*
X80399964Y-58086615D01*
X80314640Y-58089333D01*
X80048846Y-58089333D01*
X80102237Y-58533833D01*
X80133988Y-58892086D01*
X80153504Y-59292609D01*
X80156364Y-59465166D01*
X80161748Y-59739368D01*
X80188640Y-59884854D01*
X80254742Y-59942201D01*
X80368766Y-59952000D01*
X80534747Y-59991686D01*
X80580433Y-60121333D01*
X80566044Y-60206354D01*
X80499967Y-60256994D01*
X80347835Y-60282012D01*
X80075283Y-60290164D01*
X79915966Y-60290666D01*
X79251499Y-60290666D01*
X79196299Y-59388495D01*
X79172816Y-58969524D01*
X79154300Y-58572268D01*
X79143194Y-58252904D01*
X79141100Y-58118495D01*
X79141100Y-57750666D01*
X79860766Y-57750666D01*
X80210689Y-57753817D01*
G37*
X102215223Y-92470677D02*
X102528392Y-92625609D01*
X102969389Y-92869564D01*
X103105617Y-92947792D01*
X104204594Y-93582610D01*
X103937293Y-94060471D01*
X103745333Y-94392359D01*
X103608034Y-94594318D01*
X103505057Y-94688238D01*
X103416066Y-94696009D01*
X103368191Y-94673038D01*
X103297524Y-94579653D01*
X103348457Y-94424990D01*
X103388690Y-94348318D01*
X103399628Y-94285843D01*
X103360640Y-94219791D01*
X103251096Y-94132387D01*
X103050367Y-94005857D01*
X102737822Y-93822424D01*
X102466766Y-93665322D01*
X102172646Y-93497368D01*
X101988221Y-93406382D01*
X101877191Y-93383543D01*
X101803257Y-93420032D01*
X101743620Y-93489619D01*
X101609270Y-93582301D01*
X101451129Y-93604235D01*
X101339822Y-93553269D01*
X101323766Y-93502414D01*
X101362526Y-93410819D01*
X101461429Y-93220255D01*
X101594414Y-92977496D01*
X101735416Y-92729321D01*
X101858373Y-92522506D01*
X101932631Y-92409654D01*
X102019948Y-92400212D01*
X102215223Y-92470677D01*
G36*
X102215223Y-92470677D02*
G01*
X102528392Y-92625609D01*
X102969389Y-92869564D01*
X103105617Y-92947792D01*
X104204594Y-93582610D01*
X103937293Y-94060471D01*
X103745333Y-94392359D01*
X103608034Y-94594318D01*
X103505057Y-94688238D01*
X103416066Y-94696009D01*
X103368191Y-94673038D01*
X103297524Y-94579653D01*
X103348457Y-94424990D01*
X103388690Y-94348318D01*
X103399628Y-94285843D01*
X103360640Y-94219791D01*
X103251096Y-94132387D01*
X103050367Y-94005857D01*
X102737822Y-93822424D01*
X102466766Y-93665322D01*
X102172646Y-93497368D01*
X101988221Y-93406382D01*
X101877191Y-93383543D01*
X101803257Y-93420032D01*
X101743620Y-93489619D01*
X101609270Y-93582301D01*
X101451129Y-93604235D01*
X101339822Y-93553269D01*
X101323766Y-93502414D01*
X101362526Y-93410819D01*
X101461429Y-93220255D01*
X101594414Y-92977496D01*
X101735416Y-92729321D01*
X101858373Y-92522506D01*
X101932631Y-92409654D01*
X102019948Y-92400212D01*
X102215223Y-92470677D01*
G37*
X55236448Y-99897745D02*
X55347185Y-100069504D01*
X55488808Y-100303616D01*
X55635860Y-100557127D01*
X55762882Y-100787083D01*
X55841595Y-100944109D01*
X55780725Y-101001025D01*
X55601382Y-101125576D01*
X55331552Y-101300405D01*
X54999222Y-101508156D01*
X54632377Y-101731471D01*
X54259003Y-101952994D01*
X53907087Y-102155368D01*
X53729425Y-102254078D01*
X53663954Y-102201071D01*
X53538346Y-102034067D01*
X53376734Y-101785944D01*
X53332252Y-101712963D01*
X53162953Y-101423741D01*
X53074637Y-101241959D01*
X53056860Y-101132528D01*
X53099177Y-101060359D01*
X53130254Y-101034322D01*
X53250723Y-100977287D01*
X53357924Y-101045633D01*
X53412032Y-101112725D01*
X53552644Y-101299139D01*
X54324205Y-100842364D01*
X54641371Y-100646458D01*
X54895292Y-100474127D01*
X55055478Y-100347039D01*
X55095766Y-100294061D01*
X55041506Y-100159776D01*
X54990641Y-100097407D01*
X54933006Y-99992051D01*
X55011807Y-99912437D01*
X55142615Y-99842888D01*
X55182056Y-99831296D01*
X55236448Y-99897745D01*
G36*
X55236448Y-99897745D02*
G01*
X55347185Y-100069504D01*
X55488808Y-100303616D01*
X55635860Y-100557127D01*
X55762882Y-100787083D01*
X55841595Y-100944109D01*
X55780725Y-101001025D01*
X55601382Y-101125576D01*
X55331552Y-101300405D01*
X54999222Y-101508156D01*
X54632377Y-101731471D01*
X54259003Y-101952994D01*
X53907087Y-102155368D01*
X53729425Y-102254078D01*
X53663954Y-102201071D01*
X53538346Y-102034067D01*
X53376734Y-101785944D01*
X53332252Y-101712963D01*
X53162953Y-101423741D01*
X53074637Y-101241959D01*
X53056860Y-101132528D01*
X53099177Y-101060359D01*
X53130254Y-101034322D01*
X53250723Y-100977287D01*
X53357924Y-101045633D01*
X53412032Y-101112725D01*
X53552644Y-101299139D01*
X54324205Y-100842364D01*
X54641371Y-100646458D01*
X54895292Y-100474127D01*
X55055478Y-100347039D01*
X55095766Y-100294061D01*
X55041506Y-100159776D01*
X54990641Y-100097407D01*
X54933006Y-99992051D01*
X55011807Y-99912437D01*
X55142615Y-99842888D01*
X55182056Y-99831296D01*
X55236448Y-99897745D01*
G37*
X53658392Y-97118652D02*
X53665466Y-97127867D01*
X53875110Y-97465793D01*
X54047299Y-97778113D01*
X54165235Y-98030968D01*
X54212122Y-98190497D01*
X54207398Y-98220310D01*
X54078041Y-98301548D01*
X53926822Y-98266802D01*
X53856384Y-98179000D01*
X53776825Y-98067049D01*
X53738497Y-98052000D01*
X53640739Y-98092987D01*
X53432857Y-98203426D01*
X53149254Y-98364536D01*
X52939340Y-98488287D01*
X52607505Y-98690176D01*
X52398065Y-98832357D01*
X52286342Y-98939045D01*
X52247656Y-99034452D01*
X52257328Y-99142793D01*
X52259920Y-99154886D01*
X52263547Y-99357543D01*
X52192233Y-99430581D01*
X52077875Y-99384314D01*
X51910506Y-99179994D01*
X51764530Y-98947003D01*
X51612868Y-98677333D01*
X51503104Y-98462288D01*
X51457164Y-98345071D01*
X51456907Y-98340853D01*
X51526695Y-98272752D01*
X51717453Y-98137463D01*
X52003301Y-97952102D01*
X52358357Y-97733790D01*
X52522779Y-97635867D01*
X52952202Y-97386609D01*
X53259753Y-97219471D01*
X53466155Y-97125240D01*
X53592128Y-97094704D01*
X53658392Y-97118652D01*
G36*
X53658392Y-97118652D02*
G01*
X53665466Y-97127867D01*
X53875110Y-97465793D01*
X54047299Y-97778113D01*
X54165235Y-98030968D01*
X54212122Y-98190497D01*
X54207398Y-98220310D01*
X54078041Y-98301548D01*
X53926822Y-98266802D01*
X53856384Y-98179000D01*
X53776825Y-98067049D01*
X53738497Y-98052000D01*
X53640739Y-98092987D01*
X53432857Y-98203426D01*
X53149254Y-98364536D01*
X52939340Y-98488287D01*
X52607505Y-98690176D01*
X52398065Y-98832357D01*
X52286342Y-98939045D01*
X52247656Y-99034452D01*
X52257328Y-99142793D01*
X52259920Y-99154886D01*
X52263547Y-99357543D01*
X52192233Y-99430581D01*
X52077875Y-99384314D01*
X51910506Y-99179994D01*
X51764530Y-98947003D01*
X51612868Y-98677333D01*
X51503104Y-98462288D01*
X51457164Y-98345071D01*
X51456907Y-98340853D01*
X51526695Y-98272752D01*
X51717453Y-98137463D01*
X52003301Y-97952102D01*
X52358357Y-97733790D01*
X52522779Y-97635867D01*
X52952202Y-97386609D01*
X53259753Y-97219471D01*
X53466155Y-97125240D01*
X53592128Y-97094704D01*
X53658392Y-97118652D01*
G37*
X117599665Y-101326170D02*
X117856367Y-101447230D01*
X118228318Y-101650350D01*
X118426886Y-101764124D01*
X118797662Y-101979176D01*
X119120604Y-102167514D01*
X119364646Y-102310947D01*
X119498722Y-102391284D01*
X119508865Y-102397695D01*
X119549507Y-102474660D01*
X119511600Y-102625077D01*
X119386559Y-102878315D01*
X119348024Y-102948028D01*
X119155737Y-103280559D01*
X119018230Y-103483196D01*
X118915204Y-103577820D01*
X118826359Y-103586316D01*
X118777525Y-103563038D01*
X118706888Y-103475098D01*
X118750617Y-103328962D01*
X118763218Y-103304849D01*
X118829147Y-103155204D01*
X118835459Y-103093145D01*
X118754715Y-103043751D01*
X118558803Y-102929595D01*
X118279919Y-102769324D01*
X118045433Y-102635621D01*
X117283433Y-102202448D01*
X117143251Y-102387884D01*
X117025059Y-102510933D01*
X116922698Y-102501503D01*
X116867892Y-102461134D01*
X116802509Y-102385556D01*
X116798580Y-102285910D01*
X116865263Y-102121135D01*
X116999129Y-101872640D01*
X117152590Y-101608632D01*
X117285354Y-101398230D01*
X117359153Y-101298457D01*
X117439998Y-101279227D01*
X117599665Y-101326170D01*
G36*
X117599665Y-101326170D02*
G01*
X117856367Y-101447230D01*
X118228318Y-101650350D01*
X118426886Y-101764124D01*
X118797662Y-101979176D01*
X119120604Y-102167514D01*
X119364646Y-102310947D01*
X119498722Y-102391284D01*
X119508865Y-102397695D01*
X119549507Y-102474660D01*
X119511600Y-102625077D01*
X119386559Y-102878315D01*
X119348024Y-102948028D01*
X119155737Y-103280559D01*
X119018230Y-103483196D01*
X118915204Y-103577820D01*
X118826359Y-103586316D01*
X118777525Y-103563038D01*
X118706888Y-103475098D01*
X118750617Y-103328962D01*
X118763218Y-103304849D01*
X118829147Y-103155204D01*
X118835459Y-103093145D01*
X118754715Y-103043751D01*
X118558803Y-102929595D01*
X118279919Y-102769324D01*
X118045433Y-102635621D01*
X117283433Y-102202448D01*
X117143251Y-102387884D01*
X117025059Y-102510933D01*
X116922698Y-102501503D01*
X116867892Y-102461134D01*
X116802509Y-102385556D01*
X116798580Y-102285910D01*
X116865263Y-102121135D01*
X116999129Y-101872640D01*
X117152590Y-101608632D01*
X117285354Y-101398230D01*
X117359153Y-101298457D01*
X117439998Y-101279227D01*
X117599665Y-101326170D01*
G37*
X45986856Y-101676701D02*
X46110670Y-101847673D01*
X46263265Y-102079116D01*
X46417281Y-102327610D01*
X46545356Y-102549734D01*
X46620130Y-102702067D01*
X46629100Y-102736245D01*
X46561962Y-102794867D01*
X46484412Y-102830738D01*
X46313200Y-102813251D01*
X46209246Y-102718459D01*
X46145752Y-102648101D01*
X46073247Y-102620888D01*
X45961921Y-102646684D01*
X45781962Y-102735355D01*
X45503558Y-102896767D01*
X45297681Y-103020118D01*
X44951735Y-103232145D01*
X44731434Y-103381380D01*
X44614725Y-103487858D01*
X44579560Y-103571612D01*
X44603097Y-103651205D01*
X44648779Y-103839655D01*
X44573782Y-103958533D01*
X44486269Y-103977882D01*
X44399049Y-103908732D01*
X44259945Y-103726474D01*
X44096255Y-103467681D01*
X44064857Y-103413280D01*
X43900677Y-103107540D01*
X43824044Y-102914489D01*
X43826108Y-102807599D01*
X43853190Y-102778624D01*
X44063033Y-102648095D01*
X44351757Y-102476343D01*
X44686863Y-102281757D01*
X45035850Y-102082728D01*
X45366216Y-101897644D01*
X45645463Y-101744897D01*
X45841089Y-101642875D01*
X45919183Y-101609621D01*
X45986856Y-101676701D01*
G36*
X45986856Y-101676701D02*
G01*
X46110670Y-101847673D01*
X46263265Y-102079116D01*
X46417281Y-102327610D01*
X46545356Y-102549734D01*
X46620130Y-102702067D01*
X46629100Y-102736245D01*
X46561962Y-102794867D01*
X46484412Y-102830738D01*
X46313200Y-102813251D01*
X46209246Y-102718459D01*
X46145752Y-102648101D01*
X46073247Y-102620888D01*
X45961921Y-102646684D01*
X45781962Y-102735355D01*
X45503558Y-102896767D01*
X45297681Y-103020118D01*
X44951735Y-103232145D01*
X44731434Y-103381380D01*
X44614725Y-103487858D01*
X44579560Y-103571612D01*
X44603097Y-103651205D01*
X44648779Y-103839655D01*
X44573782Y-103958533D01*
X44486269Y-103977882D01*
X44399049Y-103908732D01*
X44259945Y-103726474D01*
X44096255Y-103467681D01*
X44064857Y-103413280D01*
X43900677Y-103107540D01*
X43824044Y-102914489D01*
X43826108Y-102807599D01*
X43853190Y-102778624D01*
X44063033Y-102648095D01*
X44351757Y-102476343D01*
X44686863Y-102281757D01*
X45035850Y-102082728D01*
X45366216Y-101897644D01*
X45645463Y-101744897D01*
X45841089Y-101642875D01*
X45919183Y-101609621D01*
X45986856Y-101676701D01*
G37*
X109806155Y-96822004D02*
X110003815Y-96927940D01*
X110283667Y-97082389D01*
X110613558Y-97267149D01*
X110961331Y-97464019D01*
X111294832Y-97654798D01*
X111581907Y-97821283D01*
X111790400Y-97945274D01*
X111887832Y-98008295D01*
X111860248Y-98085221D01*
X111766339Y-98271499D01*
X111624970Y-98530137D01*
X111591499Y-98589337D01*
X111387438Y-98919715D01*
X111231047Y-99101569D01*
X111110187Y-99144796D01*
X111013540Y-99060622D01*
X111013600Y-98928860D01*
X111050877Y-98874356D01*
X111135286Y-98755765D01*
X111145100Y-98718762D01*
X111076518Y-98654200D01*
X110895703Y-98532034D01*
X110640050Y-98373939D01*
X110346953Y-98201591D01*
X110053807Y-98036667D01*
X109798007Y-97900842D01*
X109616947Y-97815791D01*
X109556610Y-97798000D01*
X109454045Y-97865645D01*
X109421148Y-97925000D01*
X109311007Y-98032985D01*
X109159482Y-98040349D01*
X109076002Y-97975805D01*
X109093886Y-97874063D01*
X109178048Y-97674784D01*
X109303976Y-97423176D01*
X109447159Y-97164448D01*
X109583085Y-96943808D01*
X109687243Y-96806466D01*
X109722844Y-96782783D01*
X109806155Y-96822004D01*
G36*
X109806155Y-96822004D02*
G01*
X110003815Y-96927940D01*
X110283667Y-97082389D01*
X110613558Y-97267149D01*
X110961331Y-97464019D01*
X111294832Y-97654798D01*
X111581907Y-97821283D01*
X111790400Y-97945274D01*
X111887832Y-98008295D01*
X111860248Y-98085221D01*
X111766339Y-98271499D01*
X111624970Y-98530137D01*
X111591499Y-98589337D01*
X111387438Y-98919715D01*
X111231047Y-99101569D01*
X111110187Y-99144796D01*
X111013540Y-99060622D01*
X111013600Y-98928860D01*
X111050877Y-98874356D01*
X111135286Y-98755765D01*
X111145100Y-98718762D01*
X111076518Y-98654200D01*
X110895703Y-98532034D01*
X110640050Y-98373939D01*
X110346953Y-98201591D01*
X110053807Y-98036667D01*
X109798007Y-97900842D01*
X109616947Y-97815791D01*
X109556610Y-97798000D01*
X109454045Y-97865645D01*
X109421148Y-97925000D01*
X109311007Y-98032985D01*
X109159482Y-98040349D01*
X109076002Y-97975805D01*
X109093886Y-97874063D01*
X109178048Y-97674784D01*
X109303976Y-97423176D01*
X109447159Y-97164448D01*
X109583085Y-96943808D01*
X109687243Y-96806466D01*
X109722844Y-96782783D01*
X109806155Y-96822004D01*
G37*
X100590563Y-95237928D02*
X100606956Y-95394359D01*
X100567064Y-95502101D01*
X100543017Y-95582329D01*
X100577526Y-95664307D01*
X100692723Y-95767533D01*
X100910744Y-95911505D01*
X101253721Y-96115720D01*
X101283063Y-96132822D01*
X101635722Y-96335790D01*
X101871265Y-96461202D01*
X102017760Y-96518654D01*
X102103275Y-96517743D01*
X102155877Y-96468064D01*
X102173659Y-96437304D01*
X102305193Y-96303022D01*
X102454772Y-96285415D01*
X102558183Y-96388060D01*
X102537337Y-96502361D01*
X102450844Y-96708622D01*
X102323784Y-96960871D01*
X102181239Y-97213139D01*
X102048289Y-97419454D01*
X101950015Y-97533847D01*
X101927704Y-97543673D01*
X101838934Y-97503343D01*
X101631796Y-97392797D01*
X101334082Y-97227325D01*
X100973581Y-97022220D01*
X100836933Y-96943448D01*
X100464878Y-96723396D01*
X100151963Y-96529067D01*
X99924532Y-96377546D01*
X99808933Y-96285913D01*
X99799766Y-96270977D01*
X99841177Y-96152311D01*
X99947056Y-95948655D01*
X100089873Y-95704686D01*
X100242095Y-95465080D01*
X100376192Y-95274515D01*
X100464634Y-95177668D01*
X100476159Y-95173333D01*
X100590563Y-95237928D01*
G36*
X100590563Y-95237928D02*
G01*
X100606956Y-95394359D01*
X100567064Y-95502101D01*
X100543017Y-95582329D01*
X100577526Y-95664307D01*
X100692723Y-95767533D01*
X100910744Y-95911505D01*
X101253721Y-96115720D01*
X101283063Y-96132822D01*
X101635722Y-96335790D01*
X101871265Y-96461202D01*
X102017760Y-96518654D01*
X102103275Y-96517743D01*
X102155877Y-96468064D01*
X102173659Y-96437304D01*
X102305193Y-96303022D01*
X102454772Y-96285415D01*
X102558183Y-96388060D01*
X102537337Y-96502361D01*
X102450844Y-96708622D01*
X102323784Y-96960871D01*
X102181239Y-97213139D01*
X102048289Y-97419454D01*
X101950015Y-97533847D01*
X101927704Y-97543673D01*
X101838934Y-97503343D01*
X101631796Y-97392797D01*
X101334082Y-97227325D01*
X100973581Y-97022220D01*
X100836933Y-96943448D01*
X100464878Y-96723396D01*
X100151963Y-96529067D01*
X99924532Y-96377546D01*
X99808933Y-96285913D01*
X99799766Y-96270977D01*
X99841177Y-96152311D01*
X99947056Y-95948655D01*
X100089873Y-95704686D01*
X100242095Y-95465080D01*
X100376192Y-95274515D01*
X100464634Y-95177668D01*
X100476159Y-95173333D01*
X100590563Y-95237928D01*
G37*
X116042723Y-104119164D02*
X116026283Y-104282742D01*
X115972729Y-104398954D01*
X115952273Y-104479206D01*
X115996528Y-104563779D01*
X116128069Y-104672261D01*
X116369472Y-104824239D01*
X116649396Y-104986055D01*
X116973931Y-105166279D01*
X117246460Y-105309637D01*
X117432038Y-105398203D01*
X117491454Y-105418000D01*
X117591291Y-105351807D01*
X117667358Y-105243200D01*
X117760242Y-105125970D01*
X117863973Y-105154589D01*
X117882004Y-105168900D01*
X117984997Y-105287561D01*
X118003100Y-105339164D01*
X117962647Y-105451099D01*
X117859267Y-105649896D01*
X117719925Y-105891037D01*
X117571588Y-106129999D01*
X117441222Y-106322263D01*
X117355792Y-106423308D01*
X117342877Y-106429173D01*
X117251557Y-106387197D01*
X117042683Y-106275503D01*
X116744884Y-106109838D01*
X116386787Y-105905949D01*
X116285596Y-105847613D01*
X115916616Y-105632903D01*
X115601796Y-105446976D01*
X115369593Y-105306844D01*
X115248465Y-105229517D01*
X115238695Y-105221817D01*
X115247039Y-105123323D01*
X115329540Y-104931248D01*
X115460378Y-104688681D01*
X115613733Y-104438710D01*
X115763784Y-104224424D01*
X115884712Y-104088909D01*
X115932910Y-104063333D01*
X116042723Y-104119164D01*
G36*
X116042723Y-104119164D02*
G01*
X116026283Y-104282742D01*
X115972729Y-104398954D01*
X115952273Y-104479206D01*
X115996528Y-104563779D01*
X116128069Y-104672261D01*
X116369472Y-104824239D01*
X116649396Y-104986055D01*
X116973931Y-105166279D01*
X117246460Y-105309637D01*
X117432038Y-105398203D01*
X117491454Y-105418000D01*
X117591291Y-105351807D01*
X117667358Y-105243200D01*
X117760242Y-105125970D01*
X117863973Y-105154589D01*
X117882004Y-105168900D01*
X117984997Y-105287561D01*
X118003100Y-105339164D01*
X117962647Y-105451099D01*
X117859267Y-105649896D01*
X117719925Y-105891037D01*
X117571588Y-106129999D01*
X117441222Y-106322263D01*
X117355792Y-106423308D01*
X117342877Y-106429173D01*
X117251557Y-106387197D01*
X117042683Y-106275503D01*
X116744884Y-106109838D01*
X116386787Y-105905949D01*
X116285596Y-105847613D01*
X115916616Y-105632903D01*
X115601796Y-105446976D01*
X115369593Y-105306844D01*
X115248465Y-105229517D01*
X115238695Y-105221817D01*
X115247039Y-105123323D01*
X115329540Y-104931248D01*
X115460378Y-104688681D01*
X115613733Y-104438710D01*
X115763784Y-104224424D01*
X115884712Y-104088909D01*
X115932910Y-104063333D01*
X116042723Y-104119164D01*
G37*
X47548628Y-104451423D02*
X47668919Y-104586605D01*
X47837760Y-104845084D01*
X47923931Y-104987965D01*
X48086806Y-105283830D01*
X48153091Y-105468665D01*
X48130528Y-105564813D01*
X48125381Y-105569140D01*
X47985567Y-105663692D01*
X47746904Y-105812421D01*
X47442333Y-105996106D01*
X47104795Y-106195522D01*
X46767232Y-106391447D01*
X46462583Y-106564659D01*
X46223789Y-106695934D01*
X46083791Y-106766049D01*
X46062992Y-106772666D01*
X45986333Y-106704730D01*
X45854449Y-106525487D01*
X45694114Y-106271784D01*
X45673025Y-106236020D01*
X45520547Y-105969412D01*
X45408935Y-105762916D01*
X45359778Y-105656663D01*
X45359100Y-105652411D01*
X45422978Y-105563957D01*
X45567602Y-105550036D01*
X45722460Y-105609062D01*
X45778953Y-105661850D01*
X45844645Y-105734630D01*
X45918897Y-105761874D01*
X46033348Y-105733970D01*
X46219637Y-105641304D01*
X46509406Y-105474265D01*
X46629100Y-105403567D01*
X47003801Y-105180375D01*
X47252516Y-105024168D01*
X47395361Y-104916327D01*
X47452454Y-104838235D01*
X47443910Y-104771273D01*
X47391100Y-104698333D01*
X47326998Y-104553615D01*
X47370377Y-104473522D01*
X47456058Y-104420182D01*
X47548628Y-104451423D01*
G36*
X47548628Y-104451423D02*
G01*
X47668919Y-104586605D01*
X47837760Y-104845084D01*
X47923931Y-104987965D01*
X48086806Y-105283830D01*
X48153091Y-105468665D01*
X48130528Y-105564813D01*
X48125381Y-105569140D01*
X47985567Y-105663692D01*
X47746904Y-105812421D01*
X47442333Y-105996106D01*
X47104795Y-106195522D01*
X46767232Y-106391447D01*
X46462583Y-106564659D01*
X46223789Y-106695934D01*
X46083791Y-106766049D01*
X46062992Y-106772666D01*
X45986333Y-106704730D01*
X45854449Y-106525487D01*
X45694114Y-106271784D01*
X45673025Y-106236020D01*
X45520547Y-105969412D01*
X45408935Y-105762916D01*
X45359778Y-105656663D01*
X45359100Y-105652411D01*
X45422978Y-105563957D01*
X45567602Y-105550036D01*
X45722460Y-105609062D01*
X45778953Y-105661850D01*
X45844645Y-105734630D01*
X45918897Y-105761874D01*
X46033348Y-105733970D01*
X46219637Y-105641304D01*
X46509406Y-105474265D01*
X46629100Y-105403567D01*
X47003801Y-105180375D01*
X47252516Y-105024168D01*
X47395361Y-104916327D01*
X47452454Y-104838235D01*
X47443910Y-104771273D01*
X47391100Y-104698333D01*
X47326998Y-104553615D01*
X47370377Y-104473522D01*
X47456058Y-104420182D01*
X47548628Y-104451423D01*
G37*
X61258838Y-92587863D02*
X61398385Y-92758164D01*
X61565492Y-93009661D01*
X61606398Y-93077800D01*
X61772096Y-93366051D01*
X61858112Y-93544385D01*
X61873901Y-93646861D01*
X61828915Y-93707538D01*
X61788006Y-93732087D01*
X61642369Y-93761852D01*
X61519861Y-93647318D01*
X61518345Y-93645084D01*
X61457994Y-93569311D01*
X61386221Y-93541627D01*
X61270521Y-93571198D01*
X61078391Y-93667192D01*
X60777324Y-93838773D01*
X60726100Y-93868496D01*
X60334922Y-94099360D01*
X60073498Y-94266712D01*
X59922864Y-94388013D01*
X59864052Y-94480721D01*
X59878098Y-94562297D01*
X59915162Y-94615041D01*
X59975285Y-94772995D01*
X59910533Y-94891679D01*
X59810936Y-94917711D01*
X59722210Y-94848645D01*
X59581010Y-94667820D01*
X59415759Y-94412239D01*
X59392600Y-94373073D01*
X59239402Y-94106424D01*
X59126768Y-93901533D01*
X59076048Y-93797418D01*
X59075100Y-93792923D01*
X59143147Y-93738675D01*
X59326229Y-93618694D01*
X59592758Y-93451954D01*
X59911144Y-93257426D01*
X60249798Y-93054086D01*
X60577132Y-92860906D01*
X60861557Y-92696859D01*
X61071484Y-92580919D01*
X61173618Y-92532484D01*
X61258838Y-92587863D01*
G36*
X61258838Y-92587863D02*
G01*
X61398385Y-92758164D01*
X61565492Y-93009661D01*
X61606398Y-93077800D01*
X61772096Y-93366051D01*
X61858112Y-93544385D01*
X61873901Y-93646861D01*
X61828915Y-93707538D01*
X61788006Y-93732087D01*
X61642369Y-93761852D01*
X61519861Y-93647318D01*
X61518345Y-93645084D01*
X61457994Y-93569311D01*
X61386221Y-93541627D01*
X61270521Y-93571198D01*
X61078391Y-93667192D01*
X60777324Y-93838773D01*
X60726100Y-93868496D01*
X60334922Y-94099360D01*
X60073498Y-94266712D01*
X59922864Y-94388013D01*
X59864052Y-94480721D01*
X59878098Y-94562297D01*
X59915162Y-94615041D01*
X59975285Y-94772995D01*
X59910533Y-94891679D01*
X59810936Y-94917711D01*
X59722210Y-94848645D01*
X59581010Y-94667820D01*
X59415759Y-94412239D01*
X59392600Y-94373073D01*
X59239402Y-94106424D01*
X59126768Y-93901533D01*
X59076048Y-93797418D01*
X59075100Y-93792923D01*
X59143147Y-93738675D01*
X59326229Y-93618694D01*
X59592758Y-93451954D01*
X59911144Y-93257426D01*
X60249798Y-93054086D01*
X60577132Y-92860906D01*
X60861557Y-92696859D01*
X61071484Y-92580919D01*
X61173618Y-92532484D01*
X61258838Y-92587863D01*
G37*
X62806513Y-95343408D02*
X62927923Y-95457929D01*
X63097798Y-95703840D01*
X63152921Y-95792946D01*
X63310149Y-96062026D01*
X63424988Y-96279501D01*
X63474346Y-96401397D01*
X63474777Y-96405787D01*
X63407531Y-96469806D01*
X63225041Y-96599233D01*
X62958670Y-96774741D01*
X62639781Y-96977004D01*
X62299737Y-97186695D01*
X61969901Y-97384487D01*
X61681637Y-97551054D01*
X61466307Y-97667070D01*
X61355275Y-97713207D01*
X61352900Y-97713333D01*
X61293556Y-97645741D01*
X61174411Y-97467051D01*
X61019319Y-97213388D01*
X60991148Y-97165501D01*
X60843491Y-96890773D01*
X60747586Y-96667878D01*
X60721257Y-96539271D01*
X60724553Y-96530501D01*
X60853498Y-96446689D01*
X61008832Y-96494754D01*
X61105071Y-96608877D01*
X61152540Y-96676218D01*
X61220713Y-96698109D01*
X61337558Y-96664672D01*
X61531046Y-96566032D01*
X61829146Y-96392313D01*
X61988175Y-96297047D01*
X62335499Y-96085749D01*
X62558933Y-95938203D01*
X62680819Y-95832790D01*
X62723504Y-95747889D01*
X62709333Y-95661877D01*
X62690538Y-95617440D01*
X62641767Y-95447699D01*
X62704833Y-95349753D01*
X62716224Y-95342383D01*
X62806513Y-95343408D01*
G36*
X62806513Y-95343408D02*
G01*
X62927923Y-95457929D01*
X63097798Y-95703840D01*
X63152921Y-95792946D01*
X63310149Y-96062026D01*
X63424988Y-96279501D01*
X63474346Y-96401397D01*
X63474777Y-96405787D01*
X63407531Y-96469806D01*
X63225041Y-96599233D01*
X62958670Y-96774741D01*
X62639781Y-96977004D01*
X62299737Y-97186695D01*
X61969901Y-97384487D01*
X61681637Y-97551054D01*
X61466307Y-97667070D01*
X61355275Y-97713207D01*
X61352900Y-97713333D01*
X61293556Y-97645741D01*
X61174411Y-97467051D01*
X61019319Y-97213388D01*
X60991148Y-97165501D01*
X60843491Y-96890773D01*
X60747586Y-96667878D01*
X60721257Y-96539271D01*
X60724553Y-96530501D01*
X60853498Y-96446689D01*
X61008832Y-96494754D01*
X61105071Y-96608877D01*
X61152540Y-96676218D01*
X61220713Y-96698109D01*
X61337558Y-96664672D01*
X61531046Y-96566032D01*
X61829146Y-96392313D01*
X61988175Y-96297047D01*
X62335499Y-96085749D01*
X62558933Y-95938203D01*
X62680819Y-95832790D01*
X62723504Y-95747889D01*
X62709333Y-95661877D01*
X62690538Y-95617440D01*
X62641767Y-95447699D01*
X62704833Y-95349753D01*
X62716224Y-95342383D01*
X62806513Y-95343408D01*
G37*
X108285797Y-99646163D02*
X108345620Y-99762634D01*
X108283004Y-99919565D01*
X108279613Y-99925024D01*
X108205863Y-100065429D01*
X108197066Y-100120658D01*
X108277284Y-100168080D01*
X108473435Y-100280791D01*
X108754035Y-100440766D01*
X109016306Y-100589616D01*
X109381050Y-100791655D01*
X109628912Y-100910506D01*
X109788019Y-100950416D01*
X109886503Y-100915635D01*
X109952494Y-100810409D01*
X109981172Y-100735321D01*
X110061748Y-100702190D01*
X110191285Y-100743262D01*
X110287609Y-100825603D01*
X110298433Y-100862467D01*
X110262195Y-100958595D01*
X110169183Y-101151379D01*
X110042951Y-101396572D01*
X109907053Y-101649926D01*
X109785042Y-101867193D01*
X109700472Y-102004126D01*
X109677313Y-102029301D01*
X109603257Y-101988579D01*
X109409555Y-101878206D01*
X109123006Y-101713549D01*
X108770407Y-101509974D01*
X108647433Y-101438789D01*
X108271900Y-101222442D01*
X107946342Y-101037075D01*
X107700033Y-100899193D01*
X107562247Y-100825302D01*
X107546766Y-100818199D01*
X107539505Y-100733982D01*
X107603377Y-100545306D01*
X107716100Y-100309618D01*
X107909140Y-99955683D01*
X108045278Y-99733230D01*
X108142166Y-99621702D01*
X108217456Y-99600542D01*
X108285797Y-99646163D01*
G36*
X108285797Y-99646163D02*
G01*
X108345620Y-99762634D01*
X108283004Y-99919565D01*
X108279613Y-99925024D01*
X108205863Y-100065429D01*
X108197066Y-100120658D01*
X108277284Y-100168080D01*
X108473435Y-100280791D01*
X108754035Y-100440766D01*
X109016306Y-100589616D01*
X109381050Y-100791655D01*
X109628912Y-100910506D01*
X109788019Y-100950416D01*
X109886503Y-100915635D01*
X109952494Y-100810409D01*
X109981172Y-100735321D01*
X110061748Y-100702190D01*
X110191285Y-100743262D01*
X110287609Y-100825603D01*
X110298433Y-100862467D01*
X110262195Y-100958595D01*
X110169183Y-101151379D01*
X110042951Y-101396572D01*
X109907053Y-101649926D01*
X109785042Y-101867193D01*
X109700472Y-102004126D01*
X109677313Y-102029301D01*
X109603257Y-101988579D01*
X109409555Y-101878206D01*
X109123006Y-101713549D01*
X108770407Y-101509974D01*
X108647433Y-101438789D01*
X108271900Y-101222442D01*
X107946342Y-101037075D01*
X107700033Y-100899193D01*
X107562247Y-100825302D01*
X107546766Y-100818199D01*
X107539505Y-100733982D01*
X107603377Y-100545306D01*
X107716100Y-100309618D01*
X107909140Y-99955683D01*
X108045278Y-99733230D01*
X108142166Y-99621702D01*
X108217456Y-99600542D01*
X108285797Y-99646163D01*
G37*
D14*
X96910000Y-67300000D02*
X98235000Y-67775000D01*
X96910000Y-67300000D02*
X99810000Y-66825000D01*
X96910000Y-67300000D02*
X100810000Y-63125000D01*
X98235000Y-67775000D02*
X99060000Y-67425000D01*
X99310000Y-67825000D02*
X99885000Y-67025000D01*
X99585000Y-67450000D02*
X96910000Y-67300000D01*
X99810000Y-66825000D02*
X99585000Y-67450000D01*
X99860000Y-67550000D02*
X99310000Y-67825000D01*
D12*
X99860000Y-67650000D02*
X99860000Y-66950000D01*
X100360000Y-66950000D02*
X100360000Y-67650000D01*
D14*
X100410000Y-66800000D02*
X100735000Y-67200000D01*
X100735000Y-67200000D02*
X100360000Y-67375000D01*
X100810000Y-63125000D02*
X101835000Y-62875000D01*
X100810000Y-63125000D02*
X102560000Y-64450000D01*
D12*
X101060000Y-66950000D02*
X101060000Y-67600000D01*
D14*
X101260000Y-66275000D02*
X108360000Y-61675000D01*
D12*
X101560000Y-66950000D02*
X101560000Y-67650000D01*
D14*
X101835000Y-62875000D02*
X102560000Y-64450000D01*
X101935000Y-63050000D02*
X103510000Y-63950000D01*
D12*
X101960000Y-68550000D02*
X103160000Y-68550000D01*
X102010000Y-66100000D02*
X101960000Y-68550000D01*
X102510000Y-66500000D02*
X102760000Y-66500000D01*
X102510000Y-66550000D02*
X102510000Y-67000000D01*
X102510000Y-67000000D02*
X102810000Y-67000000D01*
X102510000Y-67500000D02*
X102510000Y-68000000D01*
X102510000Y-68000000D02*
X102960000Y-68000000D01*
X102510001Y-67495050D02*
X102910001Y-67495050D01*
D14*
X102560000Y-64450000D02*
X96910000Y-67300000D01*
X102560000Y-64450000D02*
X101085000Y-66175000D01*
D12*
X102910000Y-66113605D02*
X102010000Y-66100000D01*
X104010000Y-68550000D02*
X104110000Y-68550000D01*
X104060000Y-66100000D02*
X104010000Y-68550000D01*
X104110000Y-68550000D02*
X105360000Y-68550000D01*
D14*
X104135000Y-61875000D02*
X101935000Y-63050000D01*
X104135000Y-61875000D02*
X104885000Y-63300000D01*
X104485000Y-66075000D02*
X105260000Y-65475000D01*
D12*
X104510000Y-66600000D02*
X105360000Y-66600000D01*
X104510000Y-67050000D02*
X104510000Y-66600000D01*
X104510000Y-67500000D02*
X105160000Y-67500000D01*
X104510000Y-68050000D02*
X104510000Y-67500000D01*
D14*
X104885000Y-63300000D02*
X102560000Y-64450000D01*
X104885000Y-63300000D02*
X108360000Y-61675000D01*
X105135000Y-65300000D02*
X103310000Y-66200000D01*
D12*
X105160000Y-67050000D02*
X104510000Y-67050000D01*
X105160000Y-67500000D02*
X105160000Y-67050000D01*
D14*
X105260000Y-65475000D02*
X105660000Y-65750000D01*
D12*
X105360000Y-66100000D02*
X104060000Y-66100000D01*
X105360000Y-66600000D02*
X105360000Y-66100000D01*
X105360000Y-68050000D02*
X104510000Y-68050000D01*
X105360000Y-68550000D02*
X105360000Y-68050000D01*
D14*
X105660000Y-65750000D02*
X104685000Y-66100000D01*
D12*
X105810000Y-66100000D02*
X105810000Y-68550000D01*
X105810000Y-68550000D02*
X106260000Y-68550000D01*
X106260000Y-67600000D02*
X106410000Y-67600000D01*
X106260000Y-68550000D02*
X106260000Y-67600000D01*
X106310000Y-66550000D02*
X106310000Y-67100000D01*
X106310000Y-67100000D02*
X106810000Y-67100000D01*
X106410000Y-67600000D02*
X107160000Y-68550000D01*
X106760000Y-66550000D02*
X106310000Y-66550000D01*
D14*
X106810000Y-65525000D02*
X105135000Y-65300000D01*
D12*
X106918731Y-66094594D02*
X105810000Y-66100000D01*
X107160000Y-68550000D02*
X107560000Y-68550000D01*
D14*
X107260000Y-63300000D02*
X107835000Y-64800000D01*
D12*
X107560000Y-68550000D02*
X107660000Y-68550000D01*
X107660000Y-68550000D02*
X106960000Y-67600000D01*
X107835000Y-68550000D02*
X107860000Y-66100000D01*
X107860000Y-66100000D02*
X108310000Y-66100000D01*
X108310000Y-66100000D02*
X108335000Y-68100000D01*
X108335000Y-68100000D02*
X109085000Y-68100000D01*
D14*
X108360000Y-61675000D02*
X108435000Y-64400000D01*
X108385000Y-62075000D02*
X107260000Y-63300000D01*
X108435000Y-64400000D02*
X106810000Y-65525000D01*
X108585000Y-64850000D02*
X109585000Y-64175000D01*
D12*
X109085000Y-68100000D02*
X109085000Y-68550000D01*
X109085000Y-68550000D02*
X107835000Y-68550000D01*
D14*
X109585000Y-64175000D02*
X110285000Y-64750000D01*
X109710000Y-62700000D02*
X111860000Y-63825000D01*
D12*
X109760000Y-68575000D02*
X109260000Y-68575000D01*
X109760000Y-68575000D02*
X110010000Y-67975000D01*
X110010000Y-67975000D02*
X110610000Y-67975000D01*
X110035000Y-67575000D02*
X110535000Y-67575000D01*
X110160000Y-66125000D02*
X109260000Y-68575000D01*
D14*
X110285000Y-64750000D02*
X108610000Y-64850000D01*
D12*
X110310000Y-66825000D02*
X110035000Y-67575000D01*
X110485000Y-66125000D02*
X110160000Y-66125000D01*
X110535000Y-67575000D02*
X110310000Y-66825000D01*
X110610000Y-67975000D02*
X110860000Y-68575000D01*
X110860000Y-68575000D02*
X111260000Y-68575000D01*
X111260000Y-68575000D02*
X110485000Y-66125000D01*
D14*
X111510000Y-62650000D02*
X109710000Y-62700000D01*
D12*
X111535000Y-68575000D02*
X112735000Y-68575000D01*
X111585000Y-66125000D02*
X111535000Y-68575000D01*
D14*
X111860000Y-63825000D02*
X111510000Y-62650000D01*
D12*
X112085000Y-66525000D02*
X112335000Y-66525000D01*
X112085000Y-66575000D02*
X112085000Y-67025000D01*
X112085000Y-67025000D02*
X112385000Y-67025000D01*
X112085000Y-67525000D02*
X112085000Y-68025000D01*
X112085000Y-68025000D02*
X112535000Y-68025000D01*
X112085001Y-67520050D02*
X112485001Y-67520050D01*
X112485000Y-66138605D02*
X111585000Y-66125000D01*
D14*
X112810000Y-64700000D02*
X113810000Y-64550000D01*
X113235000Y-65025000D02*
X112810000Y-64700000D01*
X113810000Y-64550000D02*
X113235000Y-65025000D01*
D12*
X101560000Y-66950000D02*
G75*
G03*
X99860000Y-66950000I-850000J0D01*
G01*
X101060000Y-66950000D02*
G75*
G03*
X100360000Y-66950000I-350000J0D01*
G01*
X100360000Y-67650000D02*
G75*
G03*
X101060000Y-67650000I350000J0D01*
G01*
X99860000Y-67650000D02*
G75*
G03*
X101560000Y-67650000I850000J0D01*
G01*
X102810000Y-67000000D02*
G75*
G03*
X102749366Y-66507464I0J250000D01*
G01*
X103359999Y-67199999D02*
G75*
G03*
X102910000Y-66113605I-449999J449999D01*
G01*
X102959999Y-67999999D02*
G75*
G03*
X102910001Y-67495050I-49999J249999D01*
G01*
X103159999Y-68549998D02*
G75*
G03*
X103336256Y-67241064I-249998J699998D01*
G01*
X106809999Y-67099998D02*
G75*
G03*
X106809999Y-66550002I-124999J274998D01*
G01*
X106934999Y-67549998D02*
G75*
G03*
X106918731Y-66094595I-249999J724998D01*
G01*
X112385000Y-67025000D02*
G75*
G03*
X112324366Y-66532464I0J250000D01*
G01*
X112934999Y-67224999D02*
G75*
G03*
X112485000Y-66138605I-449999J449999D01*
G01*
X112534999Y-68024999D02*
G75*
G03*
X112485001Y-67520050I-49999J249999D01*
G01*
X112734999Y-68574999D02*
G75*
G03*
X112911256Y-67266063I-249999J699999D01*
G01*
D14*
X49160000Y-67430000D02*
X50485000Y-67905000D01*
X49160000Y-67430000D02*
X52060000Y-66955000D01*
X49160000Y-67430000D02*
X53060000Y-63255000D01*
X50485000Y-67905000D02*
X51310000Y-67555000D01*
X51560000Y-67955000D02*
X52135000Y-67155000D01*
X51835000Y-67580000D02*
X49160000Y-67430000D01*
X52060000Y-66955000D02*
X51835000Y-67580000D01*
X52110000Y-67680000D02*
X51560000Y-67955000D01*
D12*
X52110000Y-67780000D02*
X52110000Y-67080000D01*
X52610000Y-67080000D02*
X52610000Y-67780000D01*
D14*
X52660000Y-66930000D02*
X52985000Y-67330000D01*
X52985000Y-67330000D02*
X52610000Y-67505000D01*
X53060000Y-63255000D02*
X54085000Y-63005000D01*
X53060000Y-63255000D02*
X54810000Y-64580000D01*
D12*
X53310000Y-67080000D02*
X53310000Y-67730000D01*
D14*
X53510000Y-66405000D02*
X60610000Y-61805000D01*
D12*
X53810000Y-67080000D02*
X53810000Y-67780000D01*
D14*
X54085000Y-63005000D02*
X54810000Y-64580000D01*
X54185000Y-63180000D02*
X55760000Y-64080000D01*
D12*
X54210000Y-68680000D02*
X55410000Y-68680000D01*
X54260000Y-66230000D02*
X54210000Y-68680000D01*
X54760000Y-66630000D02*
X55010000Y-66630000D01*
X54760000Y-66680000D02*
X54760000Y-67130000D01*
X54760000Y-67130000D02*
X55060000Y-67130000D01*
X54760000Y-67630000D02*
X54760000Y-68130000D01*
X54760000Y-68130000D02*
X55210000Y-68130000D01*
X54760001Y-67625050D02*
X55160001Y-67625050D01*
D14*
X54810000Y-64580000D02*
X49160000Y-67430000D01*
X54810000Y-64580000D02*
X53335000Y-66305000D01*
D12*
X55160000Y-66243605D02*
X54260000Y-66230000D01*
X56260000Y-68680000D02*
X56360000Y-68680000D01*
X56310000Y-66230000D02*
X56260000Y-68680000D01*
X56360000Y-68680000D02*
X57610000Y-68680000D01*
D14*
X56385000Y-62005000D02*
X54185000Y-63180000D01*
X56385000Y-62005000D02*
X57135000Y-63430000D01*
X56735000Y-66205000D02*
X57510000Y-65605000D01*
D12*
X56760000Y-66730000D02*
X57610000Y-66730000D01*
X56760000Y-67180000D02*
X56760000Y-66730000D01*
X56760000Y-67630000D02*
X57410000Y-67630000D01*
X56760000Y-68180000D02*
X56760000Y-67630000D01*
D14*
X57135000Y-63430000D02*
X54810000Y-64580000D01*
X57135000Y-63430000D02*
X60610000Y-61805000D01*
X57385000Y-65430000D02*
X55560000Y-66330000D01*
D12*
X57410000Y-67180000D02*
X56760000Y-67180000D01*
X57410000Y-67630000D02*
X57410000Y-67180000D01*
D14*
X57510000Y-65605000D02*
X57910000Y-65880000D01*
D12*
X57610000Y-66230000D02*
X56310000Y-66230000D01*
X57610000Y-66730000D02*
X57610000Y-66230000D01*
X57610000Y-68180000D02*
X56760000Y-68180000D01*
X57610000Y-68680000D02*
X57610000Y-68180000D01*
D14*
X57910000Y-65880000D02*
X56935000Y-66230000D01*
D12*
X58060000Y-66230000D02*
X58060000Y-68680000D01*
X58060000Y-68680000D02*
X58510000Y-68680000D01*
X58510000Y-67730000D02*
X58660000Y-67730000D01*
X58510000Y-68680000D02*
X58510000Y-67730000D01*
X58560000Y-66680000D02*
X58560000Y-67230000D01*
X58560000Y-67230000D02*
X59060000Y-67230000D01*
X58660000Y-67730000D02*
X59410000Y-68680000D01*
X59010000Y-66680000D02*
X58560000Y-66680000D01*
D14*
X59060000Y-65655000D02*
X57385000Y-65430000D01*
D12*
X59168731Y-66224594D02*
X58060000Y-66230000D01*
X59410000Y-68680000D02*
X59810000Y-68680000D01*
D14*
X59510000Y-63430000D02*
X60085000Y-64930000D01*
D12*
X59810000Y-68680000D02*
X59910000Y-68680000D01*
X59910000Y-68680000D02*
X59210000Y-67730000D01*
X60085000Y-68680000D02*
X60110000Y-66230000D01*
X60110000Y-66230000D02*
X60560000Y-66230000D01*
X60560000Y-66230000D02*
X60585000Y-68230000D01*
X60585000Y-68230000D02*
X61335000Y-68230000D01*
D14*
X60610000Y-61805000D02*
X60685000Y-64530000D01*
X60635000Y-62205000D02*
X59510000Y-63430000D01*
X60685000Y-64530000D02*
X59060000Y-65655000D01*
X60835000Y-64980000D02*
X61835000Y-64305000D01*
D12*
X61335000Y-68230000D02*
X61335000Y-68680000D01*
X61335000Y-68680000D02*
X60085000Y-68680000D01*
D14*
X61835000Y-64305000D02*
X62535000Y-64880000D01*
X61960000Y-62830000D02*
X64110000Y-63955000D01*
D12*
X62010000Y-68705000D02*
X61510000Y-68705000D01*
X62010000Y-68705000D02*
X62260000Y-68105000D01*
X62260000Y-68105000D02*
X62860000Y-68105000D01*
X62285000Y-67705000D02*
X62785000Y-67705000D01*
X62410000Y-66255000D02*
X61510000Y-68705000D01*
D14*
X62535000Y-64880000D02*
X60860000Y-64980000D01*
D12*
X62560000Y-66955000D02*
X62285000Y-67705000D01*
X62735000Y-66255000D02*
X62410000Y-66255000D01*
X62785000Y-67705000D02*
X62560000Y-66955000D01*
X62860000Y-68105000D02*
X63110000Y-68705000D01*
X63110000Y-68705000D02*
X63510000Y-68705000D01*
X63510000Y-68705000D02*
X62735000Y-66255000D01*
D14*
X63760000Y-62780000D02*
X61960000Y-62830000D01*
D12*
X63785000Y-68705000D02*
X64985000Y-68705000D01*
X63835000Y-66255000D02*
X63785000Y-68705000D01*
D14*
X64110000Y-63955000D02*
X63760000Y-62780000D01*
D12*
X64335000Y-66655000D02*
X64585000Y-66655000D01*
X64335000Y-66705000D02*
X64335000Y-67155000D01*
X64335000Y-67155000D02*
X64635000Y-67155000D01*
X64335000Y-67655000D02*
X64335000Y-68155000D01*
X64335000Y-68155000D02*
X64785000Y-68155000D01*
X64335001Y-67650050D02*
X64735001Y-67650050D01*
X64735000Y-66268605D02*
X63835000Y-66255000D01*
D14*
X65060000Y-64830000D02*
X66060000Y-64680000D01*
X65485000Y-65155000D02*
X65060000Y-64830000D01*
X66060000Y-64680000D02*
X65485000Y-65155000D01*
D12*
X53810000Y-67080000D02*
G75*
G03*
X52110000Y-67080000I-850000J0D01*
G01*
X53310000Y-67080000D02*
G75*
G03*
X52610000Y-67080000I-350000J0D01*
G01*
X52610000Y-67780000D02*
G75*
G03*
X53310000Y-67780000I350000J0D01*
G01*
X52110000Y-67780000D02*
G75*
G03*
X53810000Y-67780000I850000J0D01*
G01*
X55060000Y-67130000D02*
G75*
G03*
X54999366Y-66637464I0J250000D01*
G01*
X55609999Y-67329999D02*
G75*
G03*
X55160000Y-66243605I-449999J449999D01*
G01*
X55209999Y-68129999D02*
G75*
G03*
X55160001Y-67625050I-49999J249999D01*
G01*
X55409999Y-68679998D02*
G75*
G03*
X55586256Y-67371064I-249998J699998D01*
G01*
X59059999Y-67229998D02*
G75*
G03*
X59059999Y-66680002I-124999J274998D01*
G01*
X59184999Y-67679998D02*
G75*
G03*
X59168731Y-66224595I-249999J724998D01*
G01*
X64635000Y-67155000D02*
G75*
G03*
X64574366Y-66662464I0J250000D01*
G01*
X65184999Y-67354999D02*
G75*
G03*
X64735000Y-66268605I-449999J449999D01*
G01*
X64784999Y-68154999D02*
G75*
G03*
X64735001Y-67650050I-49999J249999D01*
G01*
X64984999Y-68704999D02*
G75*
G03*
X65161256Y-67396063I-249999J699999D01*
G01*
%TD*%
M02*
